<svg width="113" height="28" viewBox="0 0 113 28" fill="none" xmlns="http://www.w3.org/2000/svg">
<path d="M7.17356 0V4.23042H15.8198V8.51749H7.17356V13.73C7.17356 15.3856 7.95899 15.8892 9.03652 15.8892C10.1141 15.8892 10.8995 15.3793 10.8995 13.73V13.2515H15.8133V13.73C15.8133 18.2059 13.061 20.34 9.03652 20.34C5.01201 20.34 2.25977 18.2122 2.25977 13.73V0" fill="#1EAC61"/>
<path d="M2.26 4.52002H0V9.04002H2.26V4.52002Z" fill="#1EAC61"/>
<path d="M18.0801 12.4239C18.0801 7.86514 21.6051 4.52002 26.6038 4.52002C31.6024 4.52002 35.0301 7.86514 35.0301 12.4239V13.7052H23.0787C23.4618 15.4671 24.877 16.2618 26.6038 16.2618C27.98 16.2618 29.0057 15.9846 29.6159 15.1714H34.5822C33.5565 18.2701 30.5443 20.34 26.6038 20.34C21.6051 20.34 18.0801 16.9949 18.0801 12.4362V12.4239ZM30.0963 10.816C29.551 9.26356 28.2722 8.59823 26.6038 8.59823C24.9354 8.59823 23.6565 9.30052 23.1761 10.816H30.0963Z" fill="#1EAC61"/>
<path d="M49.7197 12.3526C49.7197 7.17218 53.1194 4.52002 58.1947 4.52002C63.2701 4.52002 66.6697 7.14119 66.6697 12.3526V20.34H61.4634V12.3526C61.4634 9.91729 60.1463 8.88864 58.1947 8.88864C56.2432 8.88864 54.9261 9.91729 54.9261 12.3526V20.34H49.7197V12.3526Z" fill="#1EAC61"/>
<path d="M76.8398 12.3526C76.8398 7.17218 80.2395 4.52002 85.3148 4.52002C90.3902 4.52002 93.7898 7.14119 93.7898 12.3526V20.34H88.5835V12.3526C88.5835 9.91729 87.2664 8.88864 85.3148 8.88864C83.3633 8.88864 82.0462 9.91729 82.0462 12.3526V20.34H76.8398V12.3526Z" fill="#1EAC61"/>
<path fill-rule="evenodd" clip-rule="evenodd" d="M96.5053 21.6779C97.4676 25.4197 100.598 27.12 104.627 27.12C109.195 27.12 113 24.8613 113 19.0158V12.7111C113 7.70338 109.548 4.52002 104.557 4.52002C99.5655 4.52002 96.0498 7.92057 96.0498 12.5622C96.0498 18.2215 100.265 20.3562 103.627 20.3562C105.609 20.3562 107.207 19.6487 108.195 18.2836V19.1833C108.195 22.1495 106.918 23.1113 104.583 23.1113C102.985 23.1113 101.83 22.6459 101.356 21.6903H96.4925L96.5053 21.6779ZM104.563 8.84517C106.738 8.84517 108.207 10.3593 108.207 12.556C108.207 14.7527 106.738 16.0186 104.563 16.0186C102.388 16.0186 100.919 14.7527 100.919 12.556C100.919 10.3593 102.388 8.84517 104.563 8.84517Z" fill="#1EAC61"/>
<path d="M74.5801 4.52002H69.4951V20.34H74.5801V12.43V4.52002Z" fill="#1EAC61"/>
<path d="M45.1298 4.52622C40.4374 4.52622 37.29 7.17837 37.29 12.3526V20.34H42.1101V12.3526C42.1101 9.91729 43.3295 8.88864 45.1298 8.88864V4.53861V8.86386H48.59V4.52002H45.1298V4.52622Z" fill="#1EAC61"/>
</svg>
