<?xml version="1.0" encoding="UTF-8"?>
<svg id="_레이어_1" data-name="레이어 1" xmlns="http://www.w3.org/2000/svg" xmlns:xlink="http://www.w3.org/1999/xlink" version="1.1" viewBox="0 0 375 554">
  <defs>
    <style>
      .cls-1 {
        fill: #231815;
      }

      .cls-1, .cls-2, .cls-3, .cls-4, .cls-5, .cls-6, .cls-7, .cls-8, .cls-9, .cls-10, .cls-11, .cls-12 {
        stroke-width: 0px;
      }

      .cls-13 {
        stroke: #e5e5e5;
      }

      .cls-13, .cls-14 {
        stroke-linecap: round;
        stroke-width: 2px;
      }

      .cls-13, .cls-14, .cls-15 {
        fill: none;
        stroke-miterlimit: 10;
      }

      .cls-14 {
        stroke: #f2f2f2;
      }

      .cls-2 {
        fill: #b9ddef;
      }

      .cls-3 {
        fill: #f9dbde;
      }

      .cls-4 {
        fill: #aad4e5;
      }

      .cls-5 {
        fill: #40a56b;
      }

      .cls-6 {
        fill: url(#_무제_그라디언트_3);
      }

      .cls-7 {
        fill: #f2f2f2;
      }

      .cls-16 {
        opacity: .6;
      }

      .cls-17 {
        opacity: .5;
      }

      .cls-8 {
        fill: #e2e2e2;
      }

      .cls-15 {
        stroke: #f9dbde;
        stroke-width: 1.34px;
      }

      .cls-9 {
        fill: #fff;
      }

      .cls-10 {
        fill: #aad2e2;
      }

      .cls-11 {
        fill: #f98595;
      }

      .cls-12 {
        fill: #339159;
      }
    </style>
    <linearGradient id="_무제_그라디언트_3" data-name="무제 그라디언트 3" x1="187.5" y1="0" x2="187.5" y2="247.46" gradientUnits="userSpaceOnUse">
      <stop offset="0" stop-color="#fff"/>
      <stop offset="1" stop-color="#daecf7"/>
    </linearGradient>
  </defs>
  <rect class="cls-6" x="-.03" width="375.05" height="247.46"/>
  <ellipse class="cls-10" cx="202.42" cy="201.48" rx="39.31" ry="8.04"/>
  <path class="cls-2" d="M374.97,191.27c-51.72-6.16-115.78-9.81-185.15-9.81S52.49,185.34-.03,191.84v78.98c52.52,6.51,118.36,10.38,189.85,10.38s133.43-3.65,185.15-9.81v-80.12Z"/>
  <path class="cls-9" d="M193.15,159c-.85.34,0,.49.04,1.65.02.52,0,1.14.04,1.84.03.56.13,1.18.17,1.83.03.58.07,1.2.12,1.84.04.59-.06,1.21,0,1.84.05.6.15,1.2.21,1.83s.21,1.2.28,1.82.24,1.2.31,1.82-.19,1.26-.11,1.87.25,1.21.35,1.82.36,1.19.47,1.79,0,1.26.11,1.86.57,1.15.71,1.73.27,1.21.43,1.79c.17.61.36,1.19.54,1.75.2.61.21,1.37.43,1.91,1.04.24,1.09-.08,2.16-.08s1.07-.23,2.13-.23,1.17.69,2.19.36c.87-.28-.07-.84-.34-1.99-.12-.5-.43-1.06-.58-1.75-.12-.55-.44-1.11-.58-1.75-.12-.56.05-1.22-.07-1.86-.11-.57-.44-1.13-.55-1.76-.1-.58.05-1.23-.05-1.85-.1-.59-.39-1.16-.49-1.78s-.13-1.21-.22-1.83-.09-1.21-.17-1.83-.14-1.21-.21-1.82-.26-1.2-.32-1.81-.1-1.22-.14-1.83-.18-1.22-.21-1.83-.01-1.23-.04-1.84-.09-1.23-.1-1.84.19-1.23.2-1.85c-.79-.29-.85-.13-1.69-.13s-.85.01-1.69.01-.85.21-1.7.16-.83-.17-1.62.15Z"/>
  <path class="cls-5" d="M194.33,192.9c.04.4-.17.47-.41.14-.31-.43-.93-.71-1.44-1.17-.41-.38-.8-.88-1.37-1.21-.49-.29-1.05-.56-1.66-.77-.54-.18-1.18-.07-1.82-.17-.56-.09-1.14-.17-1.79-.17-.61,0-1.16.07-1.7.18-.59.12-1.23.03-1.75.27s-1.01.64-1.46,1-.76.87-1.13,1.33-.87.81-1.15,1.33-.36,1.11-.55,1.67-.55,1.06-.66,1.64.04,1.18,0,1.77-.25,1.16-.22,1.75.45,1.11.56,1.69.16,1.14.33,1.7c.05.17.13.22.31.22.85,0,.85.16,1.71.16s.86-.07,1.71-.07.85,0,1.71,0,.86-.14,1.71-.14.85-.03,1.71-.03.86.07,1.71.07.86.3,1.71.3.85-.26,1.71-.26.86-.14,1.71-.14.85.38,1.71.38.86-.04,1.71-.04.86-.23,1.71-.23.86.27,1.71.27.86-.18,1.71-.18.86-.17,1.72-.17.86.03,1.72.03c.25,0,.55-.11.5-.36-.08-.41-.23-1.06-.38-1.84-.1-.57-.49-1.15-.59-1.81-.09-.61.04-1.28-.03-1.9-.07-.65-.3-1.28-.32-1.87-.03-.74-.03-1.42.06-1.91.1-.53.56-1.11.67-1.8.09-.6-.14-1.29-.06-1.92s.29-1.28.37-1.86c.1-.79.18-1.46.23-1.87.03-.24-.17-.31-.4-.31-.82,0-.82-.2-1.65-.2s-.83.25-1.65.25-.83-.11-1.65-.11-.83-.04-1.65-.04-.83.08-1.65.08-.83-.12-1.66-.12-.83.07-1.66.07c-.24,0-.22.13-.19.37.1,1-.24,1.03-.15,2.03s.33.98.38,1.98-.09,1.02.01,2.02Z"/>
  <path class="cls-9" d="M213.85,159c-.85.34,0,.49.04,1.65.02.52,0,1.14.04,1.84.03.56.13,1.18.17,1.83.03.58.07,1.2.12,1.84.04.59-.06,1.21,0,1.84.05.6.15,1.2.21,1.83s.21,1.2.28,1.82.24,1.2.31,1.82-.19,1.26-.11,1.87.25,1.21.35,1.82.36,1.19.47,1.79,0,1.26.11,1.86.57,1.15.71,1.73.27,1.21.43,1.79c.17.61.36,1.19.54,1.75.2.61.21,1.37.43,1.91,1.04.24,1.09-.08,2.16-.08s1.07-.23,2.13-.23,1.17.69,2.19.36c.87-.28-.07-.84-.34-1.99-.12-.5-.43-1.06-.58-1.75-.12-.55-.44-1.11-.58-1.75-.12-.56.05-1.22-.07-1.86-.11-.57-.44-1.13-.55-1.76-.1-.58.05-1.23-.05-1.85-.1-.59-.39-1.16-.49-1.78s-.13-1.21-.22-1.83-.09-1.21-.17-1.83-.14-1.21-.21-1.82-.26-1.2-.32-1.81-.1-1.22-.14-1.83-.18-1.22-.21-1.83-.01-1.23-.04-1.84-.09-1.23-.1-1.84.19-1.23.2-1.85c-.79-.29-.85-.13-1.69-.13s-.85.01-1.69.01-.85.21-1.7.16-.83-.17-1.62.15Z"/>
  <path class="cls-8" d="M193.73,167.59c.33-.05.49-.14.88-.2.35-.05.73,0,1.11-.05.36-.05.77.25,1.15.2s.69-.43,1.06-.47.72-.26,1.09-.3.97.33,1.33.29c-.03-.37-.22-.93-.24-1.35-.01-.38-.2-.77-.21-1.18,0-.39-.12-.78-.12-1.19s.09-.79.09-1.19-.06-.8-.05-1.19.43-.79.44-1.18-.34-.81-.33-1.19c0-.41.2-.82.21-1.19-.61.05-.67-.03-1.24.2s-.55.27-1.12.5-.52.32-1.09.54c-.6.22-.54.39-1.15.59s-.56.36-1.17.56-.6.11-1.14.45c.01.36-.07.57-.05,1.07.02.39-.29.84-.26,1.3.02.4.35.82.38,1.27.02.41.14.83.17,1.28.03.42.21.84.24,1.28.03.42-.03.7,0,1.14Z"/>
  <path class="cls-8" d="M220.72,155.13c-.56.11-.6-.08-1.1.2s-.56.15-1.06.43-.35.53-.84.81-.64.01-1.14.3-.24.73-.73,1.01-.51.25-1.01.54-.47.22-.88.61c-.01.39-.39.6-.4,1.04,0,.41.41.84.41,1.26s-.34.86-.33,1.26c.01.46.07.89.1,1.26.05.68.19.86.31.92.35-.05.72.23,1.1.18.36-.05.72-.11,1.1-.16s.71-.32,1.08-.36.75-.05,1.12-.1.73-.21,1.09-.24.75.18,1.11.15c-.02-.24-.28-.61-.28-1.14,0-.34.44-.74.44-1.17,0-.37-.44-.76-.43-1.17,0-.38.15-.77.15-1.17s.19-.78.19-1.17-.21-.79-.21-1.18.1-.79.1-1.17c0-.41.12-.55.12-.93Z"/>
  <path class="cls-9" d="M226.96,159.31c.81-.08.83.11,1.63.03s.79-.23,1.6-.31.82.08,1.63,0,.79-.3,1.59-.38.84.23,1.65.14.79-.22,1.6-.31.8-.19,1.61-.28.82.07,1.63-.02.82-.01,1.62-.09.81-.1,1.62-.19.8-.17,1.61-.25.81-.02,1.62-.1.81-.05,1.62-.13.79-.28,1.6-.37.82.05,1.63-.03.79-.29,1.6-.37.82.04,1.63-.05.8-.19,1.61-.27.82-.03,1.63-.11.81-.14,1.62-.22c.54-.06.92-.25,1.21-.61.3-.38.58-.85.53-1.34-.05-.46-.43-.79-.86-1.12-.65-.51-.47-.75-1.12-1.26s-.81-.32-1.46-.83-.7-.45-1.36-.96-.59-.6-1.24-1.11-.64-.53-1.3-1.04-.53-.67-1.18-1.19-.7-.45-1.35-.96-.64-.53-1.3-1.04-.75-.39-1.41-.9-.64-.54-1.29-1.05-.69-.47-1.35-.98-.68-.49-1.33-1-.62-.56-1.28-1.08-.55-.65-1.21-1.17-.78-.36-1.44-.87"/>
  <path class="cls-8" d="M240.6,137.37c-.55.18.16.68.04,1.24s-.6.46-.72,1.03.02.59-.1,1.16-.27.53-.39,1.1.13.62,0,1.18.1.61-.03,1.18-.51.48-.63,1.05.2.62.1,1.2-.24.57-.31,1.18.15.63.08,1.23-.32.57-.39,1.18-.15.59-.22,1.2-.26.58-.33,1.19-.4.83.19.99-.06-.43.21-.98.44-.47.71-1.03.59-.4.86-.95.05-.66.32-1.22.3-.54.57-1.1.24-.57.51-1.13.11-.64.38-1.19.48-.45.75-1.01.18-.6.45-1.16.24-.57.51-1.13.22-.59.49-1.15.58-.39.46-1-.27-.36-.74-.73-.52-.29-.99-.66-.25-.57-.61-1.04c-.42-.54-.62-.81-1.18-.62Z"/>
  <path class="cls-9" d="M238.52,146.43c.17-.79.51-.72.68-1.52s.15-.8.32-1.59-.09-.85.08-1.64.41-.74.58-1.53.14-.8.31-1.59-.06-.84.11-1.64.46-.73.63-1.53,0-.83.17-1.63.33-.76.5-1.55-.12-.86.05-1.65.34-.76.51-1.55.02-.83.19-1.62.18-.79.35-1.59.16-.8.33-1.59.43-.74.6-1.53.03-.83.2-1.62.11-.81.28-1.6.37-.75.54-1.55.13-.8.3-1.6.2-.79.37-1.59.07-.81.24-1.61.11-.81.28-1.6.16-.8.33-1.59.26-.78.43-1.57-.03-.84.14-1.64.36-.76.53-1.55.2-.79.37-1.59.01-.83.19-1.63.45-.74.62-1.54-.07-.85.11-1.65c.12-.55.38-1.09.4-1.64s-.11-1.13-.19-1.67-.27-1.08-.44-1.61-.42-1.02-.69-1.51-.46-1.04-.82-1.47-.74-.86-1.16-1.22-1.04-.43-1.53-.72c-.69-.4-.66-.45-1.35-.84s-.55-.64-1.24-1.04-.71-.36-1.4-.76-.77-.27-1.46-.67-.63-.51-1.32-.91-.8-.22-1.49-.62-.59-.58-1.28-.98-.71-.36-1.4-.76-.77-.26-1.46-.66-.66-.45-1.35-.85-.56-.62-1.25-1.02-.8-.22-1.49-.62-.73-.32-1.43-.73-.69-.4-1.38-.8-.66-.45-1.35-.85-.6-.57-1.29-.97-.67-.43-1.37-.83-.76-.27-1.46-.67-.73-.33-1.43-.73-.65-.47-1.34-.87-.79-.23-1.48-.63-.63-.51-1.32-.91-.74-.33-1.43-.73-.69-.4-1.39-.8-.71-.36-1.4-.77-.53-.67-1.22-1.08-.83-.17-1.52-.57-.7-.39-1.39-.8-.56-.63-1.25-1.03-.85-.13-1.55-.53-.69-.41-1.38-.81-.54-.67-1.23-1.07-.67-.44-1.37-.84-.77-.27-1.47-.67c-.49-.28-.99-.53-1.51-.72s-1.08-.28-1.63-.37-1.1-.18-1.66-.17-1.12.06-1.66.16-1.08.29-1.6.49-1.03.43-1.5.73-.8.75-1.22,1.13c-.59.53-.69.42-1.29.95s-.46.68-1.05,1.21-.67.44-1.26.98-.57.55-1.17,1.09-.63.5-1.22,1.03-.58.55-1.17,1.09-.58.55-1.17,1.08-.55.58-1.14,1.11-.73.38-1.33.91-.58.55-1.17,1.08-.55.59-1.14,1.12-.63.49-1.23,1.02-.54.59-1.13,1.13-.72.39-1.32.92-.54.59-1.14,1.12-.63.49-1.23,1.02-.56.58-1.15,1.11-.49.65-1.08,1.19-.65.47-1.25,1.01-.52.62-1.12,1.15-.68.44-1.27.98-.65.47-1.25,1.01-.52.62-1.11,1.15-.72.4-1.32.93-.52.62-1.11,1.15-.48.66-1.07,1.19-.72.4-1.32.93-.54.6-1.13,1.13-.7.42-1.3.95-.43.72-1.03,1.26-.68.45-1.27.98-.66.46-1.26,1-.54.6-1.14,1.14-.59.55-1.18,1.09c-.42.38-.78.79-1.11,1.23s-.57.93-.83,1.42-.46.99-.62,1.52-.23,1.06-.3,1.61-.29,1.09-.26,1.64.28,1.07.41,1.61.24,1.06.47,1.58c.32.73.29.74.61,1.47s.31.73.63,1.46.33.73.65,1.45.43.68.75,1.41.26.76.59,1.49.15.8.48,1.53.39.7.71,1.43.33.72.66,1.45.19.79.51,1.52.44.68.77,1.4.3.74.62,1.47.45.68.77,1.41.33.73.66,1.46.34.72.66,1.45.29.74.61,1.47.16.8.49,1.53.47.66.8,1.4.39.7.71,1.43.31.74.63,1.47.35.72.67,1.45.31.74.64,1.47.14.81.46,1.54.43.68.75,1.42.4.7.72,1.43.1.83.42,1.56.33.73.65,1.46.37.71.69,1.44.5.65.82,1.38.27.76.59,1.49.32.73.65,1.47.19.79.51,1.53.33.73.66,1.46.26.76.59,1.5.39.71.71,1.44c.23.52.49,1.03.8,1.48s.83.76,1.21,1.16.84.69,1.29,1.01.83.75,1.34.99,1.01.49,1.55.63,1.1.14,1.66.18,1.1.05,1.66,0c.79-.08.81.1,1.61.02s.78-.24,1.57-.32.79-.06,1.59-.14.8,0,1.6-.08.79-.15,1.58-.23.77-.32,1.56-.4.81.1,1.6.02.79-.14,1.58-.22.8.04,1.6-.04.77-.33,1.56-.41.8-.05,1.59-.14.83.23,1.62.15.78-.2,1.58-.28.77-.29,1.57-.37.79-.08,1.59-.16.83.21,1.62.13.76-.39,1.56-.47.8-.02,1.59-.11.82.15,1.61.07.78-.27,1.57-.35.8-.04,1.59-.13.8-.03,1.6-.11.78-.22,1.58-.31.83.21,1.62.13.76-.38,1.56-.46.8-.05,1.59-.13.82.15,1.62.07.76-.42,1.56-.5.81.05,1.61-.03.8-.03,1.6-.11.79-.14,1.59-.23.82.13,1.62.05.8-.06,1.6-.15.78-.25,1.58-.33"/>
  <g>
    <path class="cls-3" d="M177.8,115.47c.06.61-.03,1.2-.19,1.75s-.47,1.08-.83,1.54-.85.77-1.38,1.06-1.03.52-1.64.58-1.17-.08-1.72-.24-1.03-.48-1.48-.85-1-.67-1.29-1.19-.21-1.12-.28-1.73-.06-1.15.1-1.7.25-1.2.62-1.66.84-.91,1.36-1.2,1.14-.42,1.75-.49,1.26-.04,1.81.12,1.03.64,1.48,1.01.96.75,1.24,1.27.38,1.12.44,1.73Z"/>
    <path class="cls-15" d="M177.8,115.47c.06.61-.03,1.2-.19,1.75s-.47,1.08-.83,1.54-.85.77-1.38,1.06-1.03.52-1.64.58-1.17-.08-1.72-.24-1.03-.48-1.48-.85-1-.67-1.29-1.19-.21-1.12-.28-1.73-.06-1.15.1-1.7.25-1.2.62-1.66.84-.91,1.36-1.2,1.14-.42,1.75-.49,1.26-.04,1.81.12,1.03.64,1.48,1.01.96.75,1.24,1.27.38,1.12.44,1.73Z"/>
  </g>
  <g>
    <path class="cls-3" d="M203.47,112.74c.06.61.27,1.21.11,1.76s-.42,1.18-.79,1.63-.94.77-1.47,1.05-1.08.58-1.69.64-1.25-.05-1.8-.21-1.09-.54-1.54-.91-.67-.93-.96-1.46-.75-.98-.81-1.59.1-1.23.26-1.78.54-1.05.91-1.51.81-.83,1.34-1.11,1.06-.41,1.67-.47,1.18-.06,1.73.11,1.08.46,1.53.83.89.78,1.17,1.3.27,1.1.33,1.71Z"/>
    <path class="cls-15" d="M203.47,112.74c.06.61.27,1.21.11,1.76s-.42,1.18-.79,1.63-.94.77-1.47,1.05-1.08.58-1.69.64-1.25-.05-1.8-.21-1.09-.54-1.54-.91-.67-.93-.96-1.46-.75-.98-.81-1.59.1-1.23.26-1.78.54-1.05.91-1.51.81-.83,1.34-1.11,1.06-.41,1.67-.47,1.18-.06,1.73.11,1.08.46,1.53.83.89.78,1.17,1.3.27,1.1.33,1.71Z"/>
  </g>
  <ellipse class="cls-1" cx="179.52" cy="109.99" rx="1.9" ry="2.91" transform="translate(-10.34 19) rotate(-5.89)"/>
  <ellipse class="cls-1" cx="191.18" cy="108.79" rx="1.9" ry="2.91" transform="translate(-10.15 20.19) rotate(-5.89)"/>
  <path class="cls-5" d="M189.24,128.51c.51-.19.98-.44,1.5-.57s1.04-.28,1.57-.36,1.05-.33,1.59-.35,1.09.03,1.63.07,1.04.33,1.57.42c.45.08.64.38.63.83-.03.72.07.72.04,1.44s0,.72-.03,1.44.11.72.07,1.44c-.02.51-.58.89-1.08.87-.41-.02-.92-.1-1.46-.09-.48.01-.98.07-1.46.13-.52.06-.99.25-1.41.4-.39.13-.76-.1-.99-.43-.43-.67-.4-.69-.83-1.37s-.53-.62-.95-1.3-.48-.65-.91-1.32c-.34-.48-.01-1.05.54-1.26Z"/>
  <path class="cls-5" d="M192.71,136.36c.13.8.1.8.23,1.6s0,.82.13,1.61.01.82.14,1.62.37.76.5,1.55-.19.85-.07,1.65.42.75.55,1.55.1.8.23,1.6.07.81.2,1.61.26.78.39,1.58-.24.86-.11,1.66c.1.63.7,1.21,1.3,1.41.8.26.79.3,1.58.56s.81.22,1.61.48.81.21,1.61.47.83.18,1.63.44.83.18,1.63.44c.75.25,1.5.06,1.92-.61.4-.66.54-.57.94-1.23s.43-.64.84-1.3.14-.82.55-1.48.62-.53,1.03-1.18.43-.64.84-1.3.17-.81.57-1.47c.23-.37.26-.7.19-1.09s-.2-.72-.54-.99c-.62-.48-.64-.46-1.26-.94s-.49-.65-1.1-1.13-.6-.51-1.22-.99-.75-.32-1.37-.8-.49-.65-1.11-1.13-.75-.32-1.37-.8-.59-.52-1.22-1-.66-.44-1.28-.92-.51-.63-1.13-1.12-.7-.39-1.32-.88-.56-.57-1.18-1.06c-.22-.18-.46.2-.75.16-.39-.06-.82-.09-1.28-.05s-.97-.2-1.34-.15c-.92.13-1.12.71-.98,1.63Z"/>
  <path class="cls-9" d="M146.19,160.33c.41.42.18.38.16,1.12,0,.32-.03.7-.17,1.15-.1.33-.04.79-.25,1.19-.17.31-.5.59-.75.94-.21.29-.53.55-.81.87-.25.27-.67.41-.97.7s-.63.5-.94.75c-.32.27-.5.68-.83.91-.34.24-.67.48-1.01.68-.36.22-.6.65-.94.82-.38.19-.82.24-1.17.39-.41.16-.82.24-1.17.35-.44.14-.87.13-1.21.2-.74.17-.6.6-1.02.16s-.36-.42-.62-.95-.43-.45-.7-.98-.25-.53-.52-1.07-.36-.48-.62-1.01.05-.69-.21-1.22-.11-.6-.37-1.13-.75-.28-1.02-.81-.26-.53-.52-1.06.12-.72-.14-1.25-.17-.58-.43-1.11-.36-.48-.62-1.01-.45-.44-.71-.97-.43-.45-.69-.98-.08-.62-.34-1.15-.19-.56-.45-1.09-.42-.46-.68-.99.01-.67-.25-1.2-.26-.54-.52-1.07-1.04-.48-.76-1.01.68.16,1.27.08.59-.1,1.18-.19.56-.3,1.15-.39.62.08,1.21,0,.54-.46,1.13-.54.6-.05,1.19-.14.64-.2,1.22-.03.62.22,1.08.61.2.69.66,1.09.53.31.99.7.35.52.81.92.55.29,1.01.68.51.34.97.73.65.18,1.11.57.32.56.78.95.32.55.79.95.69.12,1.15.52.19.72.65,1.11.62.22,1.08.61.36.53.83.92.57.27,1,.71Z"/>
  <path class="cls-8" d="M130.06,153.63c.43.44.57-.15,1.31-.31.34-.08.7-.33,1.17-.36.37-.02.78.05,1.22.09.38.03.81-.06,1.24.04.38.09.85.04,1.26.19.5.18.73.3.95.28.43-.04.59-.24.37-.72-.13-.29-.36-.63-.6-.96-.22-.3-.47-.61-.69-.87-.39-.48-.29-.53-.84-.59-.63-.06-.57.22-1.19.32s-.63.05-1.26.15-.64,0-1.27.11-.62.17-1.24.27-1.12-.65-1.44-.1.77.57.89,1.17c.14.65-.33.86.1,1.3Z"/>
  <path class="cls-8" d="M130.19,153.52c-.35.17-.77.6-.95,1.1-.23.67-.69.94-.27,1.51.35.47.68-.22,1.1-.77.2-.27.39-.68.54-1.1.12-.33.25-.76.28-1.19.04-.59-.2-.89-.29-1.01-.23-.28-.71.03-.77.53s.39.45.36.93Z"/>
  <path class="cls-9" d="M125.61,171.05c.19.24.4.16.75.46.27.23.35.77.71.97.31.18.69.34,1.08.48.34.12.75.21,1.15.26.36.05.76-.21,1.16-.22.36-.01.7-.17,1.1-.25.36-.07.71-.11,1.09-.24.35-.11.72-.16,1.09-.33.33-.15.63-.38.98-.58.32-.18.85-.05,1.19-.28.31-.21.36-.79.67-1.04.29-.23.78-.23,1.09-.49s.63-.49.88-.73c.31-.3.55-.6.77-.85.3-.36.3-.78.43-1.05.22-.48.31-.7.11-.95s-.51-.45-.95-.53c-.34-.06-.73-.3-1.14-.3-.38,0-.79-.04-1.16,0-.41.03-.78.31-1.12.36-.66.09-.61-.01-1.12.22-.58.26-.43.54-.99.85s-.62.19-1.18.49-.59.24-1.15.54-.62.19-1.18.5-.61.21-1.17.51-.49.43-1.05.73-.48.43-1.02.77-.53.27-1,.7Z"/>
  <path class="cls-8" d="M136.89,165.93c.54.33.03.77-.1,1.5-.06.37-.46.67-.67,1.1-.17.35-.3.72-.61,1.05-.27.28-.52.61-.92.85-.33.2-.76.24-1.19.39-.37.13-.68.62-1.13.7-.39.07-.85-.06-1.3-.03-.55.04-.94-.14-1.24-.18-.7-.1-.7-.15-.41-.55.18-.25.52-.45.94-.76.31-.23.63-.49,1.01-.73.34-.22.72-.4,1.09-.62s.64-.58,1.01-.78.8-.34,1.15-.53c.41-.21.73-.55,1.06-.72.68-.34.77-1.01,1.31-.68Z"/>
  <path class="cls-5" d="M119.76,146.41c.47-.42.69-.2,1.27-.44s.55-.32,1.12-.56.63-.11,1.21-.35.72.1,1.3-.14.51-.4,1.09-.63.63-.13,1.21-.36.55-.33,1.13-.57.5-.56,1.13-.6.32.38.67,1.07c.15.31.48.6.68,1.01.17.33.32.71.51,1.1.17.34.19.78.38,1.16.17.35.08.85.27,1.22.18.35.44.67.63,1.04s.44.68.62,1.05.22.78.41,1.15.71.54.9.91.19.81.37,1.17.2.8.38,1.16.39.71.58,1.07.3.76.48,1.12.4.71.59,1.07.34.75.52,1.11.54.64.72,1,.3.76.48,1.12.51.66.69,1.01.53.65.71,1c.19.37.32.76.49,1.11.19.38.03.92.21,1.26.2.38.39.74.56,1.07.2.4.4.76.57,1.07.24.46.68.69.82.94.19.35.47.67.59,1,.14.38.2.8.26,1.14.07.39,0,.82-.03,1.17-.03.39-.05.82-.18,1.16s-.66.5-.89.79-.18.88-.47,1.12-.78.2-1.12.38c-.37.2-.74.31-1.09.42-.4.13-.76.23-1.13.25-.4.01-.84.19-1.22.06-.35-.12-.67-.42-1.02-.66-.3-.21-.55-.52-.85-.82-.26-.26-.36-.68-.62-1-.23-.28-.41-.62-.65-.96-.21-.3-.62-.49-.84-.83-.2-.31-.43-.63-.65-.98-.2-.32-.63-.52-.84-.87-.19-.33-.27-.73-.47-1.09-.19-.33-.32-.71-.51-1.07-.18-.34-.26-.74-.46-1.1s-.28-.75-.47-1.1-.5-.63-.69-.99-.54-.61-.72-.97-.36-.71-.54-1.06-.46-.66-.65-1.01-.06-.87-.24-1.23-.22-.79-.4-1.15-.85-.46-1.03-.82-.36-.72-.54-1.07.02-.91-.15-1.26-.26-.77-.44-1.12-.46-.67-.64-1.02-.55-.63-.72-.98c-.18-.37-.52-.65-.7-.99-.18-.37-.18-.82-.35-1.16-.19-.38-.29-.77-.46-1.11-.19-.39-.52-.67-.68-1-.2-.41-.1-.91-.25-1.21-.33-.68-1.32-.8-.88-1.19Z"/>
  <path class="cls-9" d="M118.96,158.74c-.23-.25-.32-.8-.44-1.28-.1-.37.15-.82.14-1.28,0-.4-.07-.8.01-1.24.08-.4.1-.82.27-1.23.15-.38.47-.67.71-1.03.23-.34.19-.92.5-1.23.29-.29.75-.42,1.12-.67.33-.23.78-.28,1.18-.46s.75-.35,1.14-.45c.42-.11.81-.1,1.21-.13.43-.03.81-.05,1.21.01.43.07.78.2,1.16.34.4.16.84.17,1.17.39.36.24.63.57.9.85.31.33.69.59.85.93.21.44.46.97.37,1.31-.07.28-.27.67-.44,1.08-.13.32-.64.5-.83.86-.17.32-.34.65-.55.98s-.4.63-.63.92-.27.78-.54,1.04-.52.64-.83.85c-.32.22-.74.38-1.09.5s-.81.1-1.2.08c-.43-.02-.79.05-1.12.06-.44.01-.83-.34-1.15-.32-.44.03-.82.5-1.15.44s-.57-.49-.93-.77c-.24-.19-.72-.24-1.03-.57Z"/>
  <path class="cls-8" d="M129.07,156.05c-.15-.58-.45-.19-1.15-.31-.35-.06-.76-.21-1.2-.2-.38,0-.83-.05-1.24.04-.37.09-.66.52-1.03.71-.34.17-.82.19-1.14.46-.29.24-.37.72-.64,1.06-.23.29-.28.7-.49,1.07-.18.33-.42.63-.58,1.03-.18.47-.19.82-.24,1.1-.09.63-.16.67.25.62.28-.03.79.14,1.22-.11.3-.18.56-.55.91-.8.31-.22.7-.37,1.02-.62s.55-.57.86-.83.52-.62.81-.87c.31-.27.55-.6.82-.85.32-.3.51-.68.76-.92.52-.49,1.19-.03,1.05-.59Z"/>
  <path class="cls-9" d="M121.1,165.74c-.23-.25-.55-.7-.68-1.18-.1-.37-.03-.86-.04-1.32,0-.4.39-.79.47-1.22.08-.4.02-.83.18-1.24.15-.38.44-.68.69-1.04.23-.34.4-.71.71-1.02.29-.29.53-.65.89-.9.33-.23.67-.52,1.08-.71s.73-.49,1.12-.63c.41-.15.85-.25,1.24-.35.42-.11.89-.02,1.29-.07.44-.06.86.23,1.26.24.44.01.83-.03,1.21.07.42.11.82.19,1.16.41s.51.6.75.95c.22.33.75.55.85.99.09.37-.05.84-.05,1.29,0,.29-.27.6-.44,1.03-.13.31-.26.65-.47,1.01-.18.31-.44.58-.67.9-.21.3-.4.62-.65.91s-.51.54-.78.8-.42.66-.71.9-.65.4-.97.59c-.34.2-.62.51-.97.62-.38.12-.79.36-1.16.35-.43-.02-.78-.08-1.11-.07-.44.01-.83-.34-1.15-.31-.44.03-.75.07-1.08.01s-.58-.16-.94-.44c-.24-.19-.73-.2-1.04-.54Z"/>
  <path class="cls-8" d="M125.7,166.72c-.35-.46.04-.36.29-1,.12-.31.28-.65.5-1.02.19-.3.5-.51.79-.81.25-.26.34-.75.68-.97.3-.2.62-.49,1-.64.34-.13.73-.31,1.13-.39.35-.07.79.14,1.2.12.36-.02.74,0,1.15.02.19.58-.36.33-.83.9-.23.28-.58.51-.89.85-.27.28-.34.8-.66,1.08-.3.27-.78.33-1.12.57s-.55.68-.92.87-.74.51-1.13.62-.78-.19-1.2-.2Z"/>
  <path class="cls-9" d="M129.06,163.22c.33-.19.79-.25,1.19-.43.37-.16.74-.38,1.14-.52s.85-.09,1.25-.17c.42-.09.81-.32,1.21-.35.45-.03.85.17,1.22.24.44.09,1.03-.05,1.31.23.25.25.39.74.52,1.15.11.34-.09.77-.08,1.19,0,.37-.09.72-.17,1.12-.07.37,0,.78-.14,1.16-.14.35-.4.64-.61.99-.2.32-.12.88-.39,1.19-.25.28-.72.39-1.03.66-.29.24-.5.64-.84.86s-.72.47-1.1.65-.94-.15-1.34-.02-.74.38-1.14.46-.82.1-1.22.12c-.43.03-.85.13-1.23.1-.45-.04-.93.04-1.28-.09-.43-.17-.69-.6-.89-.92-.19-.3-.28-.67-.34-1.08-.06-.35-.28-.75-.23-1.16.04-.36.53-.63.67-1.01.12-.34.03-.79.24-1.14.19-.31.57-.49.83-.8.24-.28.25-.8.55-1.07.27-.25.51-.6.84-.83.3-.21.72-.32,1.07-.52Z"/>
  <path class="cls-9" d="M136.27,153.43c-.43-.37-.14-.47-.74-.9-.25-.18-.66-.32-1.06-.51-.31-.14-.74-.08-1.15-.2-.33-.1-.73,0-1.13-.07-.35-.07-.68-.34-1.08-.38-.35-.04-.73-.19-1.13-.21-.36-.01-.75.02-1.15.03-.43,0-.8-.04-1.15-.12-.42-.09-.87-.04-1.17-.23-.35-.22-.43-.69-.63-1.01s-.49-.62-.54-1.01.29-.7.39-1.09c.09-.36-.05-.81.17-1.15.2-.31.63-.42.93-.7.27-.25.38-.75.73-.95.32-.18.76-.16,1.15-.28.35-.11.71-.21,1.12-.27.37-.05.74-.05,1.15-.05.37,0,.74.06,1.15.11.37.04.82-.25,1.22-.17s.73.45,1.1.54c.4.1.82.1,1.18.21.4.13.66.56,1.01.7.4.15.74.31,1.07.46.39.18,1-.13,1.31.05.38.22.72.48,1,.69.37.28.6.66.83.9.54.56.57,1.62.64,1.03.08-.65.1-.57.07-1.3-.02-.4-.48-.89-.39-1.33s.24-.95.48-1.31c.23-.34.72-.59,1.15-.79.41-.18.84-.02,1.25.08.36.09.75.2,1.12.49.3.23.39.71.7,1.04.26.28.64.49.91.84.24.31.82.4,1.07.76.23.33.3.79.54,1.15.23.33.61.58.85.93s.07.94.31,1.3.59.6.82.96c.22.33.3.74.5,1.08s.73.52.9.87-.06.9.09,1.26.7.6.82.96c.13.39-.06.86.04,1.23.1.4.21.77.27,1.15.06.41.2.79.21,1.17.02.42.15.85.1,1.21-.05.44-.28.83-.42,1.15-.18.41-.57.54-.88.71-.33.19-.6.63-.98.68s-.83.15-1.22.08c-.37-.06-.65-.56-1.01-.72s-.64-.35-.96-.59-.79-.27-1.05-.56-.28-.8-.47-1.14c-.46-.39-.63-.17-1.13-.51s-.6-.19-1.1-.53-.2-.79-.7-1.12-.51-.33-1.01-.67-.75.04-1.26-.3-.42-.46-.92-.8-.34-.57-.85-.91-.64-.14-1.14-.48-.49-.35-.98-.71-.49-.35-.95-.74Z"/>
  <path class="cls-11" d="M183.47,113.18l5.65-.66c.41-.05.76.3.71.71-.2,1.68-.86,5.42-2.84,5.18s-3.39-2.93-4.03-4.32c-.19-.4.07-.86.51-.91Z"/>
  <path class="cls-12" d="M99.96,124.73c-.14-.38-.31-.75-.43-1.13s-.48-.7-.59-1.08-.1-.82-.21-1.2-.12-.81-.21-1.2.03-.83-.04-1.22-.09-.8-.15-1.19-.34-.76-.39-1.16-.11-.8-.15-1.2-.33-.79-.35-1.19.1-.82.1-1.22.07-.81.08-1.21.16-.8.19-1.2.18-.79.22-1.19-.04-.82.02-1.21-.05-.83.03-1.23.18-.8.28-1.18.11-.82.23-1.2.58-.66.72-1.04.44-.68.6-1.05-.17-.97,0-1.33.38-.73.58-1.08.78-.47,1-.8.54-.59.78-.91.41-.69.67-.99.39-.74.68-1.02.47-.69.78-.95.75-.34,1.08-.57c-.3.05-.73.05-1.22.11-.4.05-.81.28-1.21.35-.48.08-1.01-.12-1.3-.02-.38.13-.76.28-1.12.44s-.61.57-.95.76-.84.16-1.17.37-.65.47-.96.72-.48.67-.77.94-.69.43-.96.72-.24.83-.49,1.14-.5.59-.73.92-.55.57-.76.91-.19.79-.37,1.14-.71.53-.87.89-.22.77-.36,1.14-.43.69-.56,1.07-.1.8-.21,1.18-.13.78-.22,1.17.12.82.05,1.21-.34.74-.39,1.13-.3.76-.34,1.16.29.81.27,1.21-.46.77-.46,1.17.23.79.24,1.19-.13.8-.11,1.19,0,.8.04,1.19.32.76.38,1.15.06.79.13,1.18.32.74.4,1.13.08.78.17,1.17.33.72.43,1.11.08.79.19,1.17-.14.88-.01,1.25.57.64.71,1.01c.14.38.1.82.25,1.19s.55.64.72,1,.32.73.5,1.09.15.82.34,1.17.49.65.68,1,.63.56.83.9.32.74.54,1.07.36.72.59,1.05.23.83.47,1.15.88.33,1.13.64.22.86.48,1.16.47.66.75.95.57.58.85.86.67.47.96.74.51.64.82.9.7.43,1.01.67.85.19,1.18.42.39.88.72,1.09.77.29,1.12.48.74.32,1.1.5.76.27,1.13.42.65.56,1.03.69.87-.07,1.25.04.7.51,1.09.59.87-.32,1.26-.26.74.53,1.14.56.81-.05,1.21-.05.79-.16,1.19-.19.78-.14,1.17-.21.83.08,1.22-.02.65-.57,1.03-.7c.29-.1.77.05,1.2-.11.34-.13.64-.44,1.02-.59s.84-.05,1.19-.21c.37-.17.68-.46,1-.63.41-.21.66-.28.91-.46-.4.07-.73-.22-1.13-.18s-.78.48-1.19.49-.83.05-1.23.03-.8-.29-1.2-.33-.82,0-1.22-.06-.79-.19-1.19-.29-.78-.22-1.17-.34-.86-.02-1.24-.17-.72-.41-1.09-.57-.53-.75-.9-.94-.75-.29-1.1-.49-.78-.26-1.12-.48-.61-.54-.94-.78-.63-.5-.95-.75-.67-.44-.98-.71-.87-.25-1.17-.53-.41-.74-.7-1.03-.68-.47-.96-.77-.58-.58-.84-.89-.5-.64-.75-.97-.14-.9-.38-1.23-.82-.42-1.05-.76-.11-.89-.33-1.24-.83-.45-1.03-.81-.17-.83-.36-1.19-.1-.85-.28-1.22-.44-.68-.6-1.05-.48-.67-.64-1.05-.21-.79-.36-1.17Z"/>
  <g class="cls-17">
    <path class="cls-2" d="M128.06,114.29c.16.37.15.81.29,1.18s.5.67.63,1.05.02.84.15,1.22.17.79.28,1.17.02.82.12,1.2.7.66.79,1.05.2.79.27,1.18-.04.83.01,1.22-.25.84-.2,1.23.33.77.36,1.17.02.8.03,1.2.05.8.05,1.2.17.81.15,1.21-.28.79-.31,1.18.02.81-.03,1.2-.08.81-.16,1.19-.1.81-.2,1.19-.13.81-.25,1.19-.42.72-.56,1.09-.22.79-.38,1.15-.74.52-.93.87-.13.85-.34,1.18-.71.47-.95.78-.15.92-.42,1.21-.75.38-1.05.64-.4.8-.73,1.03-.78.3-1.13.49-.71.37-1.08.53-.77.24-1.15.36-.83-.06-1.22.01-.73.43-1.13.47-.8.13-1.2.13-.8-.05-1.21-.08-.8-.06-1.2-.13-.75-.3-1.14-.4-.8-.12-1.18-.25-.72-.34-1.1-.5-.81-.16-1.17-.34-.69-.42-1.04-.62-.72-.37-1.06-.58-.51-.68-.83-.91-.78-.29-1.1-.54-.52-.62-.83-.88-.74-.37-1.04-.65-.37-.76-.65-1.05-.72-.42-.99-.71-.57-.57-.83-.88-.24-.83-.49-1.15-.77-.42-1.01-.74-.44-.67-.67-1.01-.41-.69-.62-1.03-.46-.66-.66-1.01-.18-.82-.37-1.17-.3-.74-.48-1.1-.59-.6-.76-.97-.49-.66-.64-1.03.08-.9-.06-1.27-.33-.73-.46-1.1-.3-.74-.42-1.12-.24-.76-.35-1.14-.09-.8-.19-1.19-.5-.71-.58-1.09-.27-.77-.34-1.16-.2-.79-.26-1.18.15-.83.11-1.23-.07-.8-.1-1.2.06-.81.05-1.2.09-.8.1-1.19-.3-.81-.28-1.21.3-.78.33-1.18-.19-.83-.13-1.22-.05-.83.03-1.22.26-.78.35-1.16.12-.81.24-1.19.38-.73.52-1.1.63-.61.8-.96.19-.79.38-1.14.5-.63.72-.96.37-.71.61-1.02.41-.7.68-.99.51-.64.81-.9.53-.65.86-.88.71-.43,1.05-.63.8-.22,1.17-.38.84,0,1.22-.12.73-.3,1.12-.38.77-.22,1.17-.26.79.1,1.19.1.82-.37,1.22-.33.77.29,1.17.36.73.33,1.12.44.76.18,1.15.31.71.33,1.08.49.74.28,1.1.46.68.39,1.04.59.78.24,1.12.45.62.5.95.73.74.34,1.06.59.74.36,1.05.63.56.58.86.86.31.83.59,1.11.56.56.83.86.54.58.8.89.73.43.98.75.59.56.83.89.43.68.66,1.02.37.72.58,1.06.48.65.69.99.06.88.25,1.24.77.5.95.86.08.85.25,1.22.56.63.72,1Z"/>
  </g>
  <g class="cls-16">
    <path class="cls-4" d="M96.91,127.64c.16.37.16.81.33,1.17s.36.72.54,1.07.56.61.75.96.28.76.48,1.1.32.42.53.76c.52-.31.69-.1,1.09-.56s.28-.56.67-1.02.5-.37.9-.84.2-.63.59-1.1.22-.61.61-1.08.7-.21,1.09-.68.12-.69.52-1.16.53-.35.92-.82.22-.61.61-1.08.59-.3.98-.77.45-.42.84-.88.54-.34.93-.81-.01-.81.38-1.27.37-.49.76-.95.53-.35.92-.81.66-.24,1.06-.7.2-.63.59-1.09.42-.45.81-.92.37-.49.76-.95.25-.58.65-1.05.57-.32.96-.79.31-.54.7-1,.36-.49.76-.96.34-.51.74-.97.33-.52.73-.99.53-.36.92-.83.33-.53.72-1,.94-.16,1.18-.73c-.26-.33-.8-.74-1.06-1.05s-.31-.84-.58-1.14-.91-.28-1.2-.57-.4-.77-.7-1.05-.85-.29-1.16-.55-.51-.67-.84-.91-.56-.49-.89-.73c-.5.31-.41.39-.78.84s-.6.27-.98.72-.15.65-.53,1.1-.32.5-.7.95-.4.44-.78.89-.35.47-.73.93-.49.36-.87.81-.3.52-.68.97-.44.41-.82.86-.24.57-.62,1.02-.42.42-.8.87-.34.48-.72.94-.6.27-.98.72-.2.6-.58,1.05-.5.35-.88.8-.22.59-.6,1.04-.61.26-.99.71-.2.6-.58,1.05-.35.48-.73.93-.64.23-1.02.69-.1.68-.49,1.14-.4.43-.78.88-.42.43-.8.88-.35.48-.73.94-.57.3-.96.75-.59.36-.86.89c.12.37.48.79.61,1.16s.42.67.57,1.04.05.82.21,1.18Z"/>
  </g>
  <g class="cls-16">
    <path class="cls-4" d="M126.16,110.92c-.52.31-.18.68-.57,1.15s-.66.24-1.05.7-.18.64-.57,1.1-.43.43-.82.89-.46.4-.85.87-.39.46-.78.93-.25.58-.64,1.05-.4.46-.79.92-.29.54-.68,1.01-.44.42-.83.89-.33.51-.72.98-.61.28-1,.75-.53.35-.92.82-.38.48-.77.94-.22.61-.61,1.07-.48.39-.87.85-.13.68-.52,1.14-.76.15-1.15.62-.28.56-.67,1.02-.5.37-.89.84-.19.63-.58,1.1-.22.61-.61,1.08-.69.21-1.08.68-.12.69-.51,1.16-.53.35-.92.82-.22.61-.61,1.08-.59.3-.98.77-.45.42-.85.89-.73.31-.98.87c.25.27.92.45,1.18.7s.53.48.79.72.27.61.54.85c.51-.33.64-.21,1.03-.68s.2-.62.59-1.09.41-.44.8-.91.36-.49.75-.95.25-.58.64-1.05.57-.32.96-.78.31-.53.7-1,.36-.49.75-.95.34-.5.73-.97.33-.52.72-.98.53-.35.92-.82.32-.52.71-.99.73-.18,1.12-.64.15-.67.54-1.13.63-.26,1.02-.72.03-.77.42-1.23.59-.29.98-.76.12-.7.51-1.16.53-.35.92-.81.39-.46.78-.93.44-.43.83-.89.61-.28,1-.75.16-.66.55-1.13.33-.51.72-.98.41-.45.8-.92.37-.49.76-.96.5-.38.9-.85.43-.44.69-.99c-.16-.36-.25-.67-.42-1.02s-.5-.63-.68-.98-.24-.88-.43-1.22Z"/>
  </g>
  <path class="cls-5" d="M126.3,116.24c.14.37.21.77.34,1.14s.33.73.44,1.11.22.77.31,1.15,0,.82.09,1.2.23.76.3,1.15.27.76.33,1.15.25.78.29,1.17-.39.83-.36,1.23.16.78.18,1.17.25.79.25,1.18-.32.79-.34,1.18.4.82.37,1.21-.11.8-.15,1.19-.08.8-.15,1.19-.56.71-.64,1.09-.06.8-.16,1.18.1.86-.01,1.23-.71.6-.84.97-.25.74-.39,1.11-.09.82-.25,1.18-.11.84-.3,1.19-.73.5-.94.84-.17.84-.39,1.16-.75.44-.99.75-.29.79-.55,1.08-.59.54-.87.82-.64.47-.95.72-.63.52-.95.74c.3-.05.69-.28,1.12-.39.37-.1.75-.2,1.11-.31.42-.13.76-.37,1.05-.47.39-.13.78-.21,1.15-.36s.71-.38,1.07-.55.85-.1,1.2-.3.8-.25,1.14-.47.67-.47,1-.71.5-.67.81-.94.68-.46.96-.74.3-.8.56-1.12.89-.33,1.12-.67.33-.76.54-1.11.53-.64.71-1.01.1-.84.25-1.22.07-.81.19-1.21.61-.66.7-1.06-.17-.85-.1-1.25.3-.76.35-1.16-.14-.81-.11-1.22.3-.78.31-1.19.09-.8.08-1.21.17-.81.15-1.22-.58-.76-.62-1.17-.11-.78-.17-1.19.08-.82.01-1.22.22-.85.15-1.26-.4-.74-.48-1.14-.14-.79-.24-1.19-.22-.77-.32-1.17-.38-.73-.49-1.12,0-.83-.12-1.23-.34-.74-.46-1.13-.29-.75-.42-1.14-.32-.73-.46-1.11-.36-.71-.52-1.08-.15-.81-.32-1.17-.42-.68-.6-1.04.02-.92-.17-1.27-.67-.55-.87-.89-.16-.86-.38-1.19-.84-.4-1.07-.73-.26-.81-.51-1.12-.77-.4-1.03-.71-.38-.73-.65-1.02-.54-.59-.82-.87-.53-.61-.82-.88-.41-.76-.71-1.02-.81-.28-1.13-.53-.68-.42-1.01-.66-.64-.47-.98-.69-.69-.4-1.04-.6-.63-.52-.98-.7-.76-.27-1.12-.43-.7-.39-1.07-.54-.81-.12-1.18-.25-.74-.3-1.12-.41-.78-.16-1.17-.25-.73-.44-1.12-.51-.82.11-1.22.07-.78-.23-1.18-.24-.8.19-1.2.2-.81-.27-1.21-.23-.77.31-1.16.37-.77.17-1.16.26c-.29.06-.77-.14-1.22.02-.34.12-.57.6-.96.77-.35.15-.72.28-1.08.46s-.72.31-1.07.5-.67.43-.99.63c-.35.22-.84.37-1.12.6.39-.06.89.02,1.3-.01s.79-.31,1.2-.31.82-.16,1.23-.14.77.48,1.18.52.8.05,1.2.12.79.11,1.19.19.78.18,1.18.28.73.34,1.12.46.87-.04,1.25.1.8.19,1.18.35.78.27,1.15.44.62.59.98.77.71.39,1.06.59.64.5.99.72.62.52.95.75.85.2,1.17.44.5.68.81.93.8.3,1.11.57.73.41,1.03.69.53.63.81.92.63.53.91.83.44.7.71,1.01.23.85.48,1.17.62.54.86.87.36.73.58,1.07.51.63.72.98.52.64.71,1,.45.68.63,1.05.49.68.65,1.05.11.84.25,1.22Z"/>
  <path class="cls-12" d="M205.66,189.69c-.41-.1-.6-.41-1.01-.42s-.84.13-1.25.21-.87.03-1.26.18-.73.46-1.09.66-.67.5-1,.76-.43.73-.72,1.03-.7.47-.94.81-.64.6-.82.97,0,.89-.11,1.28-.61.74-.64,1.15c-.03.38.18.79.17,1.17s-.17.78-.15,1.16,0,.8.05,1.17.36.74.46,1.1c.1.39.18.76.34,1.1.17.36.52.56.76.85s.45.57.79.77c.32.18.67.17,1.08.26.35.08.67.25,1.09.24.36,0,.79.35,1.2.28-.06,0-.09-.73.07-1.5.07-.35.35-.72.45-1.18.08-.38-.09-.84.01-1.28.09-.39.19-.79.28-1.21.09-.4.41-.75.5-1.16s.07-.84.17-1.24-.06-.88.03-1.28.31-.79.41-1.19c.1-.42.3-.8.39-1.19.1-.43.5-.77.59-1.14.11-.46-.26-.99-.18-1.34.18-.75.61-.48.31-1.03Z"/>
  <path class="cls-5" d="M215.27,192.88c.04.4-.75.73-.98.41-.31-.43-.49-1.07-1-1.53-.41-.38-.89-.8-1.45-1.13-.49-.29-1.09-.47-1.71-.68-.54-.18-1.15-.22-1.79-.32-.56-.09-1.16-.11-1.81-.11-.61,0-1.22-.18-1.76-.06-.59.12-1.1.47-1.61.71s-1.16.38-1.61.74-.72.94-1.09,1.4-.8.86-1.08,1.38-.42,1.08-.62,1.64-.41,1.09-.52,1.67-.29,1.14-.33,1.73.02,1.17.06,1.76.37,1.12.47,1.7.14,1.15.31,1.71c.05.17.18.14.35.14.86,0,.86.31,1.72.32s.86-.21,1.73-.2.86.29,1.72.3.87-.36,1.73-.35.86.32,1.72.33.86-.27,1.73-.27.86.11,1.73.12.86-.08,1.73-.07.86.17,1.72.18.86.01,1.73.02.86.08,1.72.09.86-.07,1.73-.06.87-.14,1.73-.13.86-.08,1.73-.08.86.37,1.73.37.87-.24,1.74-.24.87.04,1.73.04c.25,0,.6-.89.55-1.13-.09-.41-.22-1.04-.29-1.81-.05-.56-.03-1.19-.07-1.84-.04-.6-.18-1.22-.22-1.83s-.27-1.25-.31-1.82c-.05-.71-.06-1.34-.12-1.82-.08-.65,0-1.27-.1-1.84-.12-.65-.42-1.21-.54-1.76-.15-.67-.26-1.28-.36-1.8-.15-.73-.22-1.37-.16-1.84.03-.24-.05-.52-.29-.52-.82,0-.82.16-1.65.16s-.83-.06-1.65-.06-.83.08-1.65.08-.83-.1-1.65-.1-.83-.17-1.65-.17-.83.28-1.66.28-.83-.29-1.66-.29c-.24,0-.27.38-.25.61.1,1,.02,1.01.12,2.01s-.12,1.03.02,2.02.32.97.42,1.98Z"/>
  <path class="cls-7" d="M56.5,211.36c.5.31.62.12,1.12.43s.46.39.96.7.6.16,1.1.47.49.34.99.65.45.4.95.71.32.61.82.92.68.03,1.18.34.59.17,1.1.48.24.74.74,1.05.63.11,1.13.42.6.16,1.1.47.56.21,1.07.52.46.38.97.69.54.25,1.04.56.28.67.79.98.69,0,1.19.32.4.48.91.8.36.55.86.86.53.28,1.03.59.55.24,1.06.55.61.15,1.11.46.59.17,1.1.49.54.25,1.05.56.39.5.9.81.34.59.85.9.67.05,1.18.37.56.23,1.07.55c.3.18.53.07.87,0,.58-.13.62.05,1.2-.08s.65.2,1.23.07.51-.42,1.09-.55.62.03,1.19-.09.52-.37,1.1-.5.55-.24,1.13-.37.69.36,1.27.24.58-.12,1.16-.25.47-.61,1.05-.74.68.34,1.26.21.58-.11,1.16-.24.49-.51,1.07-.64.55-.25,1.13-.38.62.04,1.2-.09.57-.18,1.15-.31.62.05,1.2-.08.55-.26,1.13-.39.64.17,1.22.04.54-.3,1.12-.43.51-.43,1.09-.56.66.24,1.24.11.51-.43,1.09-.56.66.24,1.24.11.55-.25,1.13-.38.59-.07,1.17-.2.52-.41,1.1-.54.56-.2,1.14-.33.6-.04,1.18-.17.59-.07,1.17-.2.57-.18,1.15-.31.56-.24,1.13-.37.61.02,1.19-.11.63.12,1.21,0,.59-.08,1.17-.21.56-.23,1.14-.36.52-.39,1.1-.52.68.32,1.26.19.46-.66,1.04-.79.66.2,1.24.07.52-.4,1.1-.53.65.16,1.23.03.58-.14,1.16-.27.6-.06,1.18-.19.51-.45,1.1-.58c.39-.09.67-.19.84-.48.19-.31.11-.61.02-.96-.08-.33-.24-.43-.59-.63-.32-.19-.47-.72-.83-.93-.33-.19-.63-.46-.98-.67-.33-.19-.9,0-1.25-.21-.33-.19-.56-.59-.91-.79s-.54-.62-.89-.83-.73-.3-1.08-.5-.69-.37-1.04-.57-.82-.16-1.16-.36-.64-.47-.98-.67-.5-.7-.85-.9-.93.03-1.27-.17-.48-.75-.82-.95-.79-.21-1.13-.41-.82-.17-1.16-.37-.62-.52-.96-.72-.66-.45-1-.65-.59-.57-.94-.76-.65-.46-1-.66-.66-.46-1-.65-.89-.04-1.23-.24-.67-.43-1.01-.62-.79-.22-1.13-.41-.5-.75-.84-.94c-.36-.2-.83-.16-1.17-.35-.36-.2-.53-.71-.87-.89-.36-.2-.91-.02-1.24-.2-.37-.2-.59-.64-.91-.81-.38-.2-.67-.5-.99-.67-.41-.21-.95,0-1.26-.15-.66-.31-.85-.57-.89-.5-.03.06-.55.12-1.24.32-.32.1-.73.15-1.18.27-.35.1-.67.46-1.1.58-.37.1-.84-.14-1.26-.04-.37.1-.68.52-1.09.63-.38.1-.86-.18-1.27-.08-.38.1-.74.31-1.14.41s-.73.36-1.13.46-.72.41-1.12.51-.8.08-1.2.18-.84-.07-1.24.03-.73.38-1.13.48-.79.13-1.19.23-.73.41-1.12.5-.88-.2-1.27-.11-.7.52-1.09.61-.88-.23-1.27-.13-.66.69-1.05.78-.82.01-1.22.11-.79.14-1.19.23-.8.14-1.19.23-.75.33-1.14.43-.78.23-1.17.33-.85-.06-1.24.04-.85-.05-1.24.05-.67.69-1.06.78-.83,0-1.22.1-.85-.07-1.24.02-.75.36-1.14.45-.72.48-1.11.57-.82.05-1.21.14-.85-.06-1.24.03-.8.15-1.19.24-.78.24-1.17.33-.78.23-1.17.32-.81.12-1.2.21-.74.44-1.12.53c-.4.09-.81.15-1.19.24-.41.1-.83.07-1.2.16-.41.1-.77.33-1.14.41-.42.1-.86-.03-1.22.06s-.58.46-.76.74c-.18.3-.44.67-.36,1.02.08.32.39.64.73.84Z"/>
  <g>
    <path class="cls-5" d="M263.87,49.64c.57.22.51.37,1.07.59s.56.24,1.12.46.45.52,1.01.74.61.11,1.18.33.56.25,1.12.47c.56.22.95.75.69,1.29-.26.52-.3.5-.55,1.02s-.17.56-.42,1.09-.21.55-.47,1.07-.34.48-.6,1-.51.4-.76.92.02.66-.23,1.19-.14.58-.4,1.1-.6.36-.86.88-.39.46-.64.98,0,.65-.26,1.18-.53.39-.79.92.21.75-.05,1.28-.29.51-.54,1.04c-.24.48-1.08.89-1.58.7-.45-.17-.28-.6-.73-.78s-.6.22-1.05.05c-.46-.18-.55-.89-.46-1.38.11-.58.07-.59.17-1.16s-.22-.64-.11-1.22.43-.52.54-1.1.1-.58.2-1.16-.11-.62,0-1.2.14-.58.25-1.16-.02-.6.09-1.19.35-.54.45-1.12-.13-.63-.02-1.21.54-.5.65-1.08-.32-.66-.21-1.25.25-.56.36-1.14.29-.55.4-1.14c.06-.32.12-.72.38-.87s.75-.27,1.05-.15Z"/>
    <path class="cls-5" d="M261.62,73.01c0,.42.2.92,0,1.26s-.81.31-1.16.51-.6.67-1.02.67-.94-.02-1.28-.22-.59-.67-.79-1.02-.3-.78-.3-1.2.4-.68.6-1.02.34-.65.69-.86.66-.26,1.08-.26.86-.13,1.2.07.63.55.84.9.15.75.15,1.17Z"/>
  </g>
  <path class="cls-13" d="M67.61,211.11c.49.33.57.21,1.06.54s.44.41.93.74.46.37.95.7.67.06,1.16.38.37.5.86.82.67.06,1.16.38.39.48.88.81.58.19,1.07.52.44.4.93.73.54.25,1.04.58.46.38.95.7.37.52.86.84.68.04,1.17.37.23.72.72,1.05.71,0,1.21.33.57.22,1.06.55.4.47.9.8"/>
  <g>
    <path class="cls-9" d="M63.31,202.19c.49.34.33.57.81.9s.66.08,1.15.42.56.23,1.04.57.27.65.76.99.4.46.89.8.65.1,1.14.44.31.59.8.93.78-.09,1.27.25.47.36.96.7.55.25,1.03.59.22.72.71,1.05.73,0,1.22.33.29.62.78.96.51.3.99.64.67.07,1.16.4.3.61.78.95.49.33.98.67.62.15,1.1.49.47.37.95.71.56.23,1.05.57.35.54.84.88.62.14,1.11.48.23.7.72,1.04.74-.02,1.23.32.41.46.9.8.39.49.88.83.62.16,1.11.5c.29.2.54.34.88.29.58-.1.56-.27,1.14-.37s.59-.06,1.18-.16.6.01,1.19-.09.64.25,1.23.16.53-.43,1.12-.52.56-.26,1.14-.36.67.4,1.25.31.55-.33,1.13-.42.55-.28,1.14-.37.56-.21,1.15-.31.6-.01,1.18-.11.57-.17,1.16-.26.65.32,1.24.22.53-.44,1.11-.54.62.1,1.21,0,.63.18,1.22.08.58-.14,1.16-.23.57-.18,1.15-.28.55-.29,1.14-.38.56-.26,1.14-.35.57-.17,1.16-.27.62.12,1.21.02.64.22,1.22.12.53-.4,1.12-.5.57-.19,1.15-.29.56-.25,1.15-.35.62.09,1.2,0,.64.23,1.23.14.54-.39,1.12-.49.61.07,1.2-.03.55-.34,1.13-.44.56-.21,1.15-.31.67.4,1.25.31.59-.09,1.18-.19.51-.58,1.09-.68.66.38,1.25.28.59-.08,1.18-.18.52-.49,1.11-.58.57-.22,1.16-.31.62.08,1.21-.02.58-.15,1.17-.25.62.08,1.21-.01.57-.23,1.16-.33.64.2,1.23.11c.39-.07.7-.47.89-.75.2-.3,0-.66-.07-1.01-.06-.33.07-.8-.26-1.02-.31-.2-.81-.16-1.16-.4-.31-.21-.44-.74-.78-.97-.32-.21-.72-.33-1.06-.55-.32-.21-.62-.48-.96-.7s-.81-.19-1.15-.41-.7-.37-1.03-.59-.61-.51-.94-.73-.63-.48-.96-.7-.68-.39-1.02-.61-.72-.34-1.05-.56-.58-.56-.91-.77-.52-.65-.85-.87-.64-.47-.97-.69-.72-.35-1.06-.57-.81-.21-1.14-.42-.42-.82-.75-1.03-.97.03-1.3-.19-.49-.72-.82-.93-.82-.2-1.15-.41-.51-.68-.84-.89-.68-.42-1.01-.63-.64-.49-.97-.7-.85-.16-1.18-.36c-.34-.22-.63-.52-.95-.72-.35-.22-.76-.31-1.08-.51-.35-.22-.74-.34-1.06-.54-.36-.22-.5-.75-.82-.94-.37-.22-.67-.49-.98-.67-.4-.23-.97-.03-1.26-.19-.64-.35-.85-.72-.89-.65-.04.06-.53-.06-1.24.1-.33.08-.7.27-1.15.37-.36.08-.75.19-1.18.27-.37.08-.71.42-1.13.51-.38.08-.79.07-1.2.15-.38.07-.84-.2-1.25-.12-.38.07-.69.63-1.09.71s-.86-.25-1.26-.17-.75.35-1.15.43-.74.4-1.14.48-.81,0-1.22.08-.8.08-1.2.16-.83-.05-1.23.02-.8.07-1.2.14-.8.08-1.2.15-.72.54-1.11.61-.8.1-1.19.17-.75.34-1.15.41-.87-.26-1.26-.19-.74.4-1.14.48-.86-.21-1.26-.14-.72.56-1.12.63-.85-.14-1.25-.06-.82.01-1.22.08-.73.56-1.12.63-.81.07-1.21.14-.82,0-1.22.07-.81.08-1.2.15-.75.41-1.14.48-.86-.21-1.25-.14-.74.47-1.13.54-.87-.24-1.26-.17-.78.26-1.17.33-.77.31-1.17.38-.76.36-1.15.43-.82.03-1.21.1-.85-.12-1.24-.06c-.41.07-.77.33-1.16.4-.41.07-.82.08-1.2.15-.42.07-.77.36-1.15.43-.42.07-.89-.25-1.26-.19s-.49.52-.68.8c-.2.29-.67.58-.6.93.06.33.51.53.83.75Z"/>
    <path class="cls-14" d="M75.02,202.64c.5.36.45.43.94.79s.55.29,1.05.65.46.41.96.77.36.55.86.91.69.09,1.19.44.22.74.71,1.1.73.04,1.22.4.57.26,1.07.62.4.49.9.85.48.38.98.74.31.62.81.98.57.26,1.07.62.48.38.98.74.64.15,1.14.51.47.4.97.76.56.28,1.06.64.53.32,1.03.68.45.44.95.8"/>
    <path class="cls-14" d="M81.99,201.15c.5.36.38.53.87.89s.69.1,1.18.46.39.51.88.87.59.23,1.09.59.44.43.94.79.55.29,1.04.64.46.41.96.76.36.55.86.91.69.09,1.19.45.22.75.72,1.1.73.04,1.23.4.57.26,1.07.62.4.5.9.86.48.38.98.74.31.62.81.99.57.26,1.07.62.48.39.99.75.65.16,1.15.52"/>
    <path class="cls-14" d="M95.15,203.63c.48.34.33.54.81.88s.41.44.88.78.5.32.98.66.56.23,1.03.58.42.43.89.77.45.39.92.74.66.09,1.14.43.36.51.83.86.66.08,1.14.43.37.5.85.84.57.21,1.05.56.43.42.91.77.53.28,1.01.62"/>
    <path class="cls-14" d="M97.91,198.09c.5.36.69.09,1.19.45s.21.76.71,1.11.63.18,1.12.54.6.22,1.1.58.36.55.85.91.43.45.92.81.52.33,1.01.69.58.25,1.08.61.44.44.94.8.46.4.96.76.69.1,1.19.46.38.53.87.89.69.1,1.19.46.39.51.88.87.59.23,1.09.59.45.43.95.79.55.29,1.06.65.47.41.97.77"/>
    <path class="cls-14" d="M111.24,200.32c.48.34.29.6.77.94s.61.16,1.08.5.33.55.81.89.67.07,1.15.42.19.74.67,1.09.61.17,1.09.51.58.21,1.06.55.34.54.82.89.41.44.89.78.5.32.98.66.56.24,1.04.58.42.43.9.78.45.39.93.74"/>
  </g>
  <rect class="cls-2" y="247.46" width="375.03" height="306.54"/>
</svg>