<svg width="19" height="17" viewBox="0 0 19 17" fill="none" xmlns="http://www.w3.org/2000/svg">
<path d="M3.45312 16.8721C1.55469 16.8721 0.570312 15.8965 0.570312 14.0156V3.31934C0.570312 1.43848 1.55469 0.462891 3.45312 0.462891H15.5469C17.4453 0.462891 18.4297 1.43848 18.4297 3.31934V14.0156C18.4297 15.8877 17.4453 16.8721 15.5469 16.8721H3.45312ZM3.42676 15.1494H15.5557C16.2939 15.1494 16.707 14.7627 16.707 13.998V5.87695C16.707 5.10352 16.2939 4.72559 15.5557 4.72559H3.42676C2.69727 4.72559 2.29297 5.10352 2.29297 5.87695V13.998C2.29297 14.7627 2.69727 15.1494 3.42676 15.1494ZM7.80371 7.77539C7.49609 7.77539 7.39062 7.67871 7.39062 7.3623V6.85254C7.39062 6.53613 7.49609 6.43945 7.80371 6.43945H8.32227C8.63867 6.43945 8.74414 6.53613 8.74414 6.85254V7.3623C8.74414 7.67871 8.63867 7.77539 8.32227 7.77539H7.80371ZM10.6865 7.77539C10.3701 7.77539 10.2646 7.67871 10.2646 7.3623V6.85254C10.2646 6.53613 10.3701 6.43945 10.6865 6.43945H11.1963C11.5127 6.43945 11.6182 6.53613 11.6182 6.85254V7.3623C11.6182 7.67871 11.5127 7.77539 11.1963 7.77539H10.6865ZM13.5605 7.77539C13.2441 7.77539 13.1387 7.67871 13.1387 7.3623V6.85254C13.1387 6.53613 13.2441 6.43945 13.5605 6.43945H14.0703C14.3867 6.43945 14.4922 6.53613 14.4922 6.85254V7.3623C14.4922 7.67871 14.3867 7.77539 14.0703 7.77539H13.5605ZM4.92969 10.6055C4.62207 10.6055 4.5166 10.5088 4.5166 10.1924V9.68262C4.5166 9.36621 4.62207 9.26953 4.92969 9.26953H5.44824C5.76465 9.26953 5.87012 9.36621 5.87012 9.68262V10.1924C5.87012 10.5088 5.76465 10.6055 5.44824 10.6055H4.92969ZM7.80371 10.6055C7.49609 10.6055 7.39062 10.5088 7.39062 10.1924V9.68262C7.39062 9.36621 7.49609 9.26953 7.80371 9.26953H8.32227C8.63867 9.26953 8.74414 9.36621 8.74414 9.68262V10.1924C8.74414 10.5088 8.63867 10.6055 8.32227 10.6055H7.80371ZM10.6865 10.6055C10.3701 10.6055 10.2646 10.5088 10.2646 10.1924V9.68262C10.2646 9.36621 10.3701 9.26953 10.6865 9.26953H11.1963C11.5127 9.26953 11.6182 9.36621 11.6182 9.68262V10.1924C11.6182 10.5088 11.5127 10.6055 11.1963 10.6055H10.6865ZM13.5605 10.6055C13.2441 10.6055 13.1387 10.5088 13.1387 10.1924V9.68262C13.1387 9.36621 13.2441 9.26953 13.5605 9.26953H14.0703C14.3867 9.26953 14.4922 9.36621 14.4922 9.68262V10.1924C14.4922 10.5088 14.3867 10.6055 14.0703 10.6055H13.5605ZM4.92969 13.4355C4.62207 13.4355 4.5166 13.3389 4.5166 13.0225V12.5127C4.5166 12.1963 4.62207 12.0996 4.92969 12.0996H5.44824C5.76465 12.0996 5.87012 12.1963 5.87012 12.5127V13.0225C5.87012 13.3389 5.76465 13.4355 5.44824 13.4355H4.92969ZM7.80371 13.4355C7.49609 13.4355 7.39062 13.3389 7.39062 13.0225V12.5127C7.39062 12.1963 7.49609 12.0996 7.80371 12.0996H8.32227C8.63867 12.0996 8.74414 12.1963 8.74414 12.5127V13.0225C8.74414 13.3389 8.63867 13.4355 8.32227 13.4355H7.80371ZM10.6865 13.4355C10.3701 13.4355 10.2646 13.3389 10.2646 13.0225V12.5127C10.2646 12.1963 10.3701 12.0996 10.6865 12.0996H11.1963C11.5127 12.0996 11.6182 12.1963 11.6182 12.5127V13.0225C11.6182 13.3389 11.5127 13.4355 11.1963 13.4355H10.6865Z" fill="#BCBCBC"/>
</svg>
