<?xml version="1.0" encoding="UTF-8"?>
<svg id="_레이어_1" data-name="레이어 1" xmlns="http://www.w3.org/2000/svg" xmlns:xlink="http://www.w3.org/1999/xlink" version="1.1" viewBox="0 0 800 800">
  <defs>
    <style>
      .cls-1 {
        fill: #ffc0c0;
      }

      .cls-1, .cls-2, .cls-3, .cls-4, .cls-5, .cls-6, .cls-7, .cls-8, .cls-9, .cls-10 {
        stroke-width: 0px;
      }

      .cls-11 {
        clip-path: url(#clippath);
      }

      .cls-12 {
        stroke: #191314;
        stroke-width: 7px;
      }

      .cls-12, .cls-13 {
        fill: none;
        stroke-linecap: round;
        stroke-miterlimit: 10;
      }

      .cls-13 {
        stroke: #a0a0a0;
        stroke-width: 4px;
      }

      .cls-2 {
        fill: #191314;
      }

      .cls-3, .cls-14 {
        fill: #fed6ca;
      }

      .cls-4 {
        fill: #a0a0a0;
      }

      .cls-5 {
        fill: #d7fff7;
      }

      .cls-6 {
        fill: #fec4b6;
      }

      .cls-15, .cls-8 {
        fill: #c6c6c6;
      }

      .cls-7 {
        fill: #fec4b5;
      }

      .cls-9 {
        fill: #fff;
      }

      .cls-10 {
        fill: #292021;
      }
    </style>
    <clipPath id="clippath">
      <path class="cls-3" d="M486.58,432.36c-3.29,54.82-18.64,92.65,4.39,107.46l23.03,14.8-113.49,88.27s-65.24-75.11-64.14-90.46c1.1-15.35,26.21-9.14,27.96-26.32s0-31.25,0-31.25l106.91-69.08,15.35,6.58Z"/>
    </clipPath>
  </defs>
  <rect class="cls-5" x=".5" y=".5" width="800" height="800"/>
  <path class="cls-4" d="M198.93,259.05c-9.34,33.19-17.36,92.32,7.77,161.11s64.74,136.98,96.52,158.1,72.45,26.55,72.45,26.55l121.56-86.29,44.69-81.88-324.57-174.35-18.41-3.23Z"/>
  <path class="cls-10" d="M349.54,138.29c21.03-7.52,116.38-14.82,164.45,34.98s55.37,119.75,51.93,154.12-8.59,34.79-8.59,34.79l-43.35-13.31-169.14-144.41,4.7-66.17Z"/>
  <path class="cls-10" d="M528.3,427.9c-15.02,18.12-33.14,31.07-47.64,36.25l-14.5,5.18,9.46-38.53,52.68-2.89Z"/>
  <path class="cls-6" d="M263.9,317.75c-57.84-1.02-69.09,31.89-66.02,62.61,3.07,30.71,36.85,54.1,81.38,42.33l-15.36-104.93Z"/>
  <g>
    <path class="cls-14" d="M486.58,432.36c-3.29,54.82-18.64,92.65,4.39,107.46l23.03,14.8-113.49,88.27s-65.24-75.11-64.14-90.46c1.1-15.35,26.21-9.14,27.96-26.32s0-31.25,0-31.25l106.91-69.08,15.35,6.58Z"/>
    <g class="cls-11">
      <path class="cls-7" d="M475.62,430.79c-12.83,45.46-47.71,112.86-142.55,107.38-37.41-2.16,17-55.92,17-55.92l125.56-51.46Z"/>
    </g>
  </g>
  <path class="cls-3" d="M252,309.02c0,69.79,28.64,198.93,112.73,200.41,51,.89,102.89-48.31,118.99-76.05,0,0,80.52,22.37,96.63-39.37s-45.63-100.2-81.42-59.94c0,0-42.05-134.2-125.26-134.2s-121.68,109.15-121.68,109.15Z"/>
  <circle class="cls-1" cx="296.22" cy="389.57" r="23.91"/>
  <circle class="cls-1" cx="409.93" cy="389.57" r="23.91"/>
  <ellipse class="cls-2" cx="316.98" cy="363.94" rx="9.21" ry="11.57"/>
  <ellipse class="cls-2" cx="390.66" cy="363.94" rx="9.21" ry="11.57"/>
  <path class="cls-10" d="M293.81,291.88c-4.17,18.77-.27,31.34,30.37,50.42,0,0-42.53,9.77-61.26-14.91,0,0-2.83,15.97,3.53,24.98,0,0-20.6-3.4-41.84-28.5,0,0-59.18-81.3,37.52-156.01,41.08-31.74,87.4-29.57,87.4-29.57l3.04,61.57v16.26l-49.36,37.4-9.41,38.35Z"/>
  <path class="cls-10" d="M344.85,251.87s-41.8-25.28-27.87,42.99c9.21,45.14,46.68,51.06,46.68,51.06,0,0-60.73-.54-71.48-52.13s19.35-61.27,19.35-61.27l28.48-39.23,27.75,18.82-22.91,39.76Z"/>
  <path class="cls-10" d="M344.85,251.87c6.29-10.92,17.31-19.22,26-12.26s15.14,19.13,15.18,33.05-.03,46.53,39.14,58.27c0,0-11.27-2.61-10.4-34.35,0,0,30.44,21.31,34.79,40.01,0,0,3.91-6.52,3.48-21.31,0,0,17.59,23.82,31.74,21.31,0,0-1.3-2.47-1.74-13.63,0,0,8.26,4.49,12.61,17.97,0,0,1.97-7.47,15.4-17.06s30.87-33.12,30.87-33.12l-116.75-107.11-80.32,9.66v58.58Z"/>
  <path class="cls-12" d="M324.19,320.72s-24.5-2.76-41.93,6.67"/>
  <path class="cls-12" d="M375.67,321.41s24.29-4.22,42.25,4.15"/>
  <path class="cls-9" d="M346.08,541.1c3.99,13.13,19.53,46.13,62.64,44.13s79.38-56.53,79.38-56.53l-15.7,48.83-93.94,32.55-98.81-44.61c-5.79-1.66,50.43-20.61,66.43-24.36"/>
  <path class="cls-7" d="M479.67,519.04c-1.13-6.78-1.06-13.06-1.06-13.06,3.43,4.99-69.99,80.79-80.12,83.18-9.5,2.25,60.66-29.31,60.66-29.31l20.52-40.81Z"/>
  <path class="cls-8" d="M333.35,114.62c37.84-7.42,185.23-10.37,234.22,70.27,64.57,106.28,91.95,280.34,79.11,322.35s-43.21,74.12-43.21,74.12l-230.48,39.83s102.09-78.53,124.24-118.7,44.96-84.26,57.19-155.4-13.71-127.68-26.12-150.3-81.04-59.82-110.38-68.01c-29.33-8.2-84.57-14.16-84.57-14.16Z"/>
  <path class="cls-8" d="M566.65,275.77c-8.53-88.36-58.59-135.86-110.9-152.71-52.31-16.85-216.2-39.48-266.01,116.95-49.8,156.42,77.28,341.78,130.39,364.91,25.36,11.05,42.85,30.93,97.36,0,106.74-60.56,157.7-240.79,149.16-329.15ZM412.79,579.74c-48.76,27.66-64.4,9.88-87.09,0-47.51-20.69-161.17-186.48-116.63-326.4,44.55-139.92,191.14-119.68,237.93-104.61,46.79,15.08,91.57,57.56,99.2,136.59s-37.94,240.24-133.42,294.41Z"/>
  <path class="cls-15" d="M272.32,563.73c-35.92,11.71-117.03,67.25-157.14,180.51-13.04,36.83-14.58,56.26-14.58,56.26h695.15s-29.92-179.43-191.05-236.77-128.14-29.4-128.14-29.4l-79.77,75.74-93.57-23.12-30.9-23.22Z"/>
  <path class="cls-13" d="M564.02,369.9c-8.55,40.44-20.92,80.08-36.87,118.22"/>
  <path class="cls-13" d="M479.18,128.97c29.78,14.1,54.67,38.29,69.62,67.66"/>
  <path class="cls-13" d="M273.01,563.65c11.96,15.08,26.31,28.27,42.36,38.9"/>
  <path class="cls-13" d="M500.49,536.72c-21.12,21.39-43.84,41.2-67.89,59.22"/>
  <path class="cls-4" d="M310.57,626.15s5.29-6.54,11.91-4.68,7.17,9.77,7.17,9.77c0,0-13.67,50.63-9.54,169.26h-19.02s-6.84-77.63,9.48-174.35Z"/>
  <path class="cls-4" d="M438.19,626.15s5.29-6.54,11.91-4.68,7.17,9.77,7.17,9.77c0,0-13.67,50.63-9.54,169.26h-19.02s-6.84-77.63,9.48-174.35Z"/>
</svg>