<svg width="24" height="24" viewBox="0 0 24 24" fill="none" xmlns="http://www.w3.org/2000/svg">
<path d="M21.77 20.52L15.34 8.38C15.21 8.13 15.14 7.85 15.14 7.57V2.63C15.14 1.68 14.37 0.910004 13.42 0.910004H10.4C9.45 0.910004 8.68 1.68 8.68 2.63V7.58C8.68 7.86 8.61 8.14 8.48 8.39L2.05 20.53C1.44 21.68 2.27 23.06 3.57 23.06H20.25C21.55 23.06 22.38 21.68 21.77 20.53V20.52Z" stroke="#BCBCBC" stroke-width="1.25" stroke-miterlimit="10"/>
<path d="M8.67004 3.98999H11.45" stroke="#BCBCBC" stroke-width="1.25" stroke-miterlimit="10" stroke-linecap="round"/>
<path d="M8.67004 6.79999H11.45" stroke="#BCBCBC" stroke-width="1.25" stroke-miterlimit="10" stroke-linecap="round"/>
<path d="M8.27002 9.62H11.05" stroke="#BCBCBC" stroke-width="1.25" stroke-miterlimit="10" stroke-linecap="round"/>
<path d="M6.75 12.44H9.54" stroke="#BCBCBC" stroke-width="1.25" stroke-miterlimit="10" stroke-linecap="round"/>
<path d="M5.15002 14.66C5.15002 14.66 6.65002 16.05 8.33002 16.05C10.01 16.05 11.06 15.35 12.04 14.66C13.02 13.97 15.65 11.88 19.04 15.35" stroke="#BCBCBC" stroke-width="1.25" stroke-miterlimit="10" stroke-linecap="round"/>
</svg>
