<svg width="24" height="24" viewBox="0 0 24 24" fill="none" xmlns="http://www.w3.org/2000/svg">
<path d="M5.21006 6.45001H10.9701V13.11H5.21006C4.71006 13.11 4.31006 12.71 4.31006 12.21V7.36001C4.31006 6.86001 4.71006 6.46001 5.21006 6.46001V6.45001Z" stroke="#BCBCBC" stroke-width="1.25" stroke-miterlimit="10"/>
<path d="M10.97 13.11H6.20996L8.78996 20.61C8.94996 21.08 9.26996 21.38 9.62996 21.38H10.04C10.56 21.38 10.98 20.74 10.98 19.96V13.12L10.97 13.11Z" stroke="#BCBCBC" stroke-width="1.25" stroke-miterlimit="10"/>
<path d="M4.31006 11.85H2.17006C1.67006 11.85 1.27006 11.45 1.27006 10.95L1.27006 8.61999C1.27006 8.11999 1.67006 7.71999 2.17006 7.71999H4.31006L4.31006 11.86V11.85Z" stroke="#BCBCBC" stroke-width="1.25" stroke-miterlimit="10"/>
<path d="M10.97 13.11L19.98 16.87C20.59 17.12 21.23 16.59 21.23 15.83V3.72999C21.23 2.96999 20.59 2.43999 19.98 2.68999L10.97 6.44999V13.11Z" stroke="#BCBCBC" stroke-width="1.25" stroke-miterlimit="10"/>
<path d="M21.22 11.53C22.32 11.53 23.22 10.75 23.22 9.78C23.22 8.81 22.33 8.03 21.22 8.03V11.53Z" stroke="#BCBCBC" stroke-width="1.25" stroke-miterlimit="10"/>
</svg>
