<svg width="312" height="200" viewBox="0 0 312 200" fill="none" xmlns="http://www.w3.org/2000/svg">
<g clip-path="url(#clip0_1395_85223)">
<path d="M191.15 135.65C191.91 135.65 191.91 135.77 192.67 135.77C193.43 135.77 193.43 135.75 194.19 135.75C194.95 135.75 194.95 135.85 195.71 135.85C196.47 135.85 196.47 135.58 197.23 135.58C197.99 135.58 197.99 135.73 198.75 135.73C199.51 135.73 199.51 135.86 200.27 135.86C201.03 135.86 201.03 135.57 201.79 135.57C202.55 135.57 202.55 135.6 203.31 135.6C204.07 135.6 204.07 135.83 204.83 135.83C205.59 135.83 205.59 135.62 206.35 135.62C207.11 135.62 207.11 135.85 207.87 135.85C208.63 135.85 208.63 135.57 209.39 135.57C210.15 135.57 210.15 135.53 210.91 135.53C211.67 135.53 211.67 135.64 212.43 135.64C213.19 135.64 213.19 135.81 213.95 135.81C214.71 135.81 214.71 135.78 215.47 135.78C216.23 135.78 216.23 135.79 216.99 135.79C217.75 135.79 217.75 135.73 218.52 135.73C219.29 135.73 219.28 135.86 220.05 135.86C220.82 135.86 220.81 135.6 221.58 135.6C222.08 135.6 222.44 135.42 222.74 135.12C223.06 134.79 223.34 134.4 223.34 133.95C223.34 133.52 223.1 133.12 222.73 132.77C222.17 132.23 222.22 132.17 221.66 131.63C221.1 131.09 221.11 131.08 220.55 130.54C219.99 130 220.09 129.9 219.53 129.37C218.97 128.84 218.76 129.05 218.21 128.51C217.66 127.97 217.71 127.91 217.15 127.37C216.59 126.83 216.57 126.85 216.01 126.31C215.45 125.77 215.43 125.79 214.87 125.25C214.31 124.71 214.43 124.59 213.86 124.05C213.29 123.51 213.32 123.49 212.76 122.95C212.2 122.41 212.15 122.46 211.59 121.92C211.03 121.38 211.09 121.32 210.53 120.78C209.97 120.24 209.95 120.25 209.39 119.71C208.83 119.17 208.71 119.3 208.14 118.75C207.57 118.2 207.58 118.2 207.02 117.66C206.46 117.12 206.44 117.14 205.87 116.6" stroke="#DCDBDB" stroke-width="2.51" stroke-miterlimit="10" stroke-linecap="round"/>
<path d="M158.07 135.84C157.38 136.09 158.11 136.24 158.07 137.16C158.05 137.57 157.9 138.06 157.88 138.61C157.87 139.06 157.72 139.55 157.7 140.07C157.7 140.53 157.99 141.02 157.99 141.53C157.99 142 157.89 142.49 157.89 142.99C157.89 143.49 157.69 143.96 157.7 144.46C157.71 144.96 157.73 145.43 157.74 145.92C157.75 146.41 158.06 146.88 158.09 147.37C158.12 147.86 157.89 148.36 157.93 148.85C157.97 149.34 158.12 149.82 158.17 150.3C158.22 150.78 158.12 151.3 158.19 151.78C158.26 152.26 158.37 152.75 158.45 153.23C158.53 153.71 158.65 154.2 158.75 154.67C158.86 155.16 159.17 155.59 159.29 156.04C159.43 156.53 159.43 157.1 159.6 157.53C160.26 157.71 160.31 157.44 160.99 157.44C161.67 157.44 161.68 157.62 162.37 157.62C163.06 157.62 163.06 157.53 163.75 157.53C164.44 157.53 164.51 157.76 165.15 157.5C165.83 157.23 164.96 156.95 164.8 156.04C164.73 155.64 164.55 155.17 164.46 154.62C164.39 154.18 164.42 153.68 164.35 153.16C164.29 152.71 164.29 152.22 164.23 151.71C164.17 151.25 164.01 150.78 163.95 150.28C163.9 149.81 163.76 149.33 163.72 148.84C163.68 148.37 163.88 147.86 163.85 147.36C163.82 146.86 163.57 146.41 163.54 145.92C163.51 145.43 163.71 144.95 163.69 144.45C163.67 143.95 163.64 143.49 163.63 142.99C163.62 142.49 163.74 142.02 163.74 141.53C163.74 141.04 163.6 140.56 163.62 140.07C163.64 139.58 163.64 139.1 163.66 138.61C163.68 138.12 163.77 137.64 163.8 137.16C163.83 136.68 163.84 136.06 163.89 135.58C163.2 135.34 163.12 135.57 162.4 135.57C161.68 135.57 161.67 135.64 160.94 135.64C160.21 135.64 160.21 135.84 159.48 135.8C158.75 135.76 158.77 135.61 158.08 135.85L158.07 135.84Z" stroke="#DCDBDB" stroke-width="2.51" stroke-miterlimit="10"/>
<path d="M174.9 135.64C174.21 135.89 174.71 136.23 174.67 137.15C174.65 137.56 174.95 138.07 174.93 138.62C174.92 139.07 174.74 139.55 174.73 140.08C174.73 140.54 174.82 141.03 174.81 141.54C174.81 142.01 174.63 142.5 174.63 143C174.63 143.5 174.79 143.96 174.8 144.46C174.81 144.96 174.6 145.44 174.61 145.93C174.62 146.42 174.78 146.9 174.81 147.39C174.84 147.88 174.96 148.36 175 148.85C175.04 149.34 175.17 149.82 175.22 150.3C175.27 150.78 175.11 151.3 175.17 151.78C175.23 152.26 175.36 152.75 175.44 153.22C175.52 153.69 175.76 154.16 175.86 154.63C175.97 155.12 175.75 155.68 175.88 156.13C176.02 156.62 176.38 156.89 176.55 157.32C177.21 157.5 177.19 157.58 177.88 157.58C178.57 157.58 178.57 157.44 179.26 157.44C179.95 157.44 179.95 157.52 180.64 157.52C181.33 157.52 181.37 157.7 182.01 157.44C182.69 157.17 181.74 156.98 181.58 156.06C181.51 155.66 181.76 155.12 181.67 154.57C181.6 154.13 181.52 153.65 181.45 153.13C181.39 152.68 181.12 152.22 181.05 151.72C180.99 151.26 181.05 150.76 181 150.26C180.95 149.79 180.83 149.32 180.78 148.82C180.74 148.35 180.58 147.87 180.54 147.37C180.5 146.87 180.54 146.4 180.5 145.91C180.46 145.42 180.59 144.94 180.57 144.45C180.55 143.96 180.29 143.49 180.29 143C180.29 142.51 180.3 142.03 180.31 141.54C180.32 141.05 180.48 140.57 180.49 140.08C180.5 139.59 180.39 139.1 180.41 138.61C180.43 138.12 180.41 137.63 180.45 137.14C180.49 136.65 180.7 136.14 180.74 135.65C180.05 135.41 180 135.62 179.27 135.62C178.54 135.62 178.54 135.53 177.81 135.53C177.08 135.53 177.09 135.65 176.37 135.56C175.65 135.47 175.56 135.39 174.88 135.64H174.9Z" stroke="#DCDBDB" stroke-width="2.51" stroke-miterlimit="10"/>
<path d="M157.09 161.8C157.12 162.15 156.87 162.27 156.67 161.99C156.41 161.62 155.95 161.33 155.51 160.93C155.15 160.61 154.78 160.25 154.29 159.97C153.87 159.72 153.44 159.4 152.91 159.22C152.45 159.06 151.93 158.95 151.37 158.87C150.89 158.8 150.36 158.66 149.8 158.66C149.28 158.66 148.8 158.98 148.33 159.07C147.83 159.18 147.31 159.19 146.87 159.4C146.43 159.61 145.9 159.78 145.51 160.09C145.12 160.4 144.96 160.96 144.64 161.35C144.32 161.74 144.04 162.12 143.8 162.56C143.56 163 143.15 163.36 142.98 163.84C142.81 164.32 142.89 164.85 142.8 165.35C142.71 165.85 142.41 166.31 142.38 166.81C142.35 167.31 142.63 167.81 142.66 168.31C142.69 168.81 142.79 169.28 142.88 169.78C142.97 170.28 142.97 170.77 143.12 171.25C143.16 171.4 143.26 171.63 143.41 171.63C144.14 171.63 144.14 171.6 144.88 171.6C145.62 171.6 145.62 171.61 146.35 171.61C147.08 171.61 147.08 171.55 147.82 171.55C148.56 171.55 148.56 171.68 149.29 171.68C150.02 171.68 150.03 171.42 150.76 171.42C151.49 171.42 151.5 171.42 152.23 171.42C152.96 171.42 152.96 171.55 153.7 171.55C154.44 171.55 154.43 171.46 155.17 171.46C155.91 171.46 155.91 171.54 156.64 171.54C157.37 171.54 157.38 171.55 158.11 171.55C158.84 171.55 158.85 171.69 159.58 171.69C160.31 171.69 160.32 171.39 161.05 171.39C161.78 171.39 161.79 171.48 162.52 171.48C163.25 171.48 163.26 171.45 164 171.45C164.74 171.45 164.74 171.43 165.48 171.43C166.22 171.43 166.22 171.6 166.96 171.6C167.18 171.6 167.44 171.31 167.39 171.1C167.32 170.75 167.14 170.2 167.01 169.52C166.92 169.03 166.91 168.48 166.83 167.91C166.75 167.38 166.65 166.84 166.59 166.31C166.53 165.75 166.3 165.21 166.28 164.71C166.25 164.08 166.28 163.5 166.36 163.08C166.45 162.63 166.51 162.07 166.6 161.48C166.68 160.96 166.79 160.42 166.86 159.88C166.93 159.34 167.11 158.78 167.18 158.28C167.26 157.6 167.34 157.03 167.38 156.67C167.4 156.47 167.2 156.42 166.99 156.42C166.28 156.42 166.28 156.44 165.57 156.44C164.86 156.44 164.86 156.24 164.15 156.24C163.44 156.24 163.44 156.17 162.73 156.17C162.02 156.17 162.02 156.26 161.31 156.26C160.6 156.26 160.6 156.17 159.89 156.17C159.18 156.17 159.18 156.41 158.47 156.41C157.76 156.41 157.76 156.28 157.05 156.28C156.85 156.28 156.83 156.45 156.85 156.65C156.93 157.51 156.84 157.52 156.92 158.38C157 159.24 157.05 159.24 157.09 160.1C157.13 160.96 156.99 160.98 157.08 161.84L157.09 161.8Z" fill="#F3F3F3"/>
<path d="M157.09 161.8C157.12 162.15 156.87 162.27 156.67 161.99C156.41 161.62 155.95 161.33 155.51 160.93C155.15 160.61 154.78 160.25 154.29 159.97C153.87 159.72 153.44 159.4 152.91 159.22C152.45 159.06 151.93 158.95 151.37 158.87C150.89 158.8 150.36 158.66 149.8 158.66C149.28 158.66 148.8 158.98 148.33 159.07C147.83 159.18 147.31 159.19 146.87 159.4C146.43 159.61 145.9 159.78 145.51 160.09C145.12 160.4 144.96 160.96 144.64 161.35C144.32 161.74 144.04 162.12 143.8 162.56C143.56 163 143.15 163.36 142.98 163.84C142.81 164.32 142.89 164.85 142.8 165.35C142.71 165.85 142.41 166.31 142.38 166.81C142.35 167.31 142.63 167.81 142.66 168.31C142.69 168.81 142.79 169.28 142.88 169.78C142.97 170.28 142.97 170.77 143.12 171.25C143.16 171.4 143.26 171.63 143.41 171.63C144.14 171.63 144.14 171.6 144.88 171.6C145.62 171.6 145.62 171.61 146.35 171.61C147.08 171.61 147.08 171.55 147.82 171.55C148.56 171.55 148.56 171.68 149.29 171.68C150.02 171.68 150.03 171.42 150.76 171.42C151.49 171.42 151.5 171.42 152.23 171.42C152.96 171.42 152.96 171.55 153.7 171.55C154.44 171.55 154.43 171.46 155.17 171.46C155.91 171.46 155.91 171.54 156.64 171.54C157.37 171.54 157.38 171.55 158.11 171.55C158.84 171.55 158.85 171.69 159.58 171.69C160.31 171.69 160.32 171.39 161.05 171.39C161.78 171.39 161.79 171.48 162.52 171.48C163.25 171.48 163.26 171.45 164 171.45C164.74 171.45 164.74 171.43 165.48 171.43C166.22 171.43 166.22 171.6 166.96 171.6C167.18 171.6 167.44 171.31 167.39 171.1C167.32 170.75 167.14 170.2 167.01 169.52C166.92 169.03 166.91 168.48 166.83 167.91C166.75 167.38 166.65 166.84 166.59 166.31C166.53 165.75 166.3 165.21 166.28 164.71C166.25 164.08 166.28 163.5 166.36 163.08C166.45 162.63 166.51 162.07 166.6 161.48C166.68 160.96 166.79 160.42 166.86 159.88C166.93 159.34 167.11 158.78 167.18 158.28C167.26 157.6 167.34 157.03 167.38 156.67C167.4 156.47 167.2 156.42 166.99 156.42C166.28 156.42 166.28 156.44 165.57 156.44C164.86 156.44 164.86 156.24 164.15 156.24C163.44 156.24 163.44 156.17 162.73 156.17C162.02 156.17 162.02 156.26 161.31 156.26C160.6 156.26 160.6 156.17 159.89 156.17C159.18 156.17 159.18 156.41 158.47 156.41C157.76 156.41 157.76 156.28 157.05 156.28C156.85 156.28 156.83 156.45 156.85 156.65C156.93 157.51 156.84 157.52 156.92 158.38C157 159.24 157.05 159.24 157.09 160.1C157.13 160.96 156.99 160.98 157.08 161.84L157.09 161.8Z" stroke="#DCDBDB" stroke-width="2.51" stroke-miterlimit="10"/>
<path d="M174.35 162.999C174.38 163.349 173.96 163.489 173.76 163.209C173.5 162.839 173.09 162.489 172.66 162.089C172.3 161.769 171.82 161.579 171.33 161.289C170.91 161.039 170.57 160.519 170.05 160.339C169.59 160.179 169.05 160.059 168.5 159.969C168.02 159.899 167.47 160.059 166.91 160.059C166.39 160.059 165.88 159.989 165.41 160.089C164.91 160.199 164.45 160.429 164.01 160.629C163.57 160.829 163.2 161.199 162.81 161.509C162.42 161.819 162.04 162.109 161.72 162.499C161.4 162.889 161.01 163.219 160.77 163.669C160.53 164.119 160.56 164.649 160.39 165.129C160.22 165.609 160.08 166.049 159.98 166.549C159.88 167.049 159.67 167.499 159.63 168.009C159.59 168.519 159.73 168.999 159.76 169.499C159.79 169.999 159.89 170.469 159.98 170.969C160.07 171.469 159.99 171.979 160.14 172.469C160.18 172.619 160.36 172.769 160.52 172.769C161.25 172.769 161.25 172.859 161.99 172.859C162.73 172.859 162.73 172.839 163.46 172.839C164.19 172.839 164.19 172.549 164.93 172.549C165.67 172.549 165.67 172.579 166.4 172.579C167.13 172.579 167.14 172.709 167.87 172.709C168.6 172.709 168.61 172.849 169.34 172.849C170.07 172.849 170.07 172.539 170.81 172.539C171.55 172.539 171.54 172.639 172.28 172.639C173.02 172.639 173.02 172.849 173.75 172.849C174.48 172.849 174.49 172.849 175.22 172.849C175.95 172.849 175.96 172.559 176.69 172.559C177.42 172.559 177.43 172.819 178.16 172.819C178.89 172.819 178.9 172.709 179.63 172.709C180.36 172.709 180.37 172.859 181.11 172.859C181.85 172.859 181.85 172.809 182.59 172.809C183.33 172.809 183.33 172.779 184.07 172.779C184.29 172.779 184.31 172.549 184.27 172.339C184.2 171.989 184.29 171.379 184.17 170.709C184.08 170.219 183.9 169.689 183.81 169.129C183.73 168.599 183.83 168.039 183.77 167.499C183.71 166.939 183.57 166.399 183.55 165.899C183.52 165.269 183.52 164.719 183.6 164.299C183.69 163.849 183.67 163.269 183.76 162.679C183.84 162.159 183.82 161.599 183.89 161.059C183.96 160.519 184.14 159.959 184.2 159.459C184.28 158.779 184.42 158.209 184.46 157.859C184.48 157.659 184.3 157.559 184.1 157.559C183.39 157.559 183.39 157.649 182.68 157.649C181.97 157.649 181.97 157.399 181.26 157.399C180.55 157.399 180.55 157.609 179.84 157.609C179.13 157.609 179.13 157.389 178.42 157.389C177.71 157.389 177.71 157.409 177 157.409C176.29 157.409 176.29 157.289 175.58 157.289C174.87 157.289 174.87 157.429 174.16 157.429C173.96 157.429 173.78 157.639 173.8 157.839C173.88 158.699 173.83 158.699 173.91 159.559C173.99 160.419 173.94 160.429 174.03 161.289C174.12 162.149 174.27 162.129 174.35 162.989V162.999Z" fill="#F3F3F3"/>
<path d="M174.35 162.999C174.38 163.349 173.96 163.489 173.76 163.209C173.5 162.839 173.09 162.489 172.66 162.089C172.3 161.769 171.82 161.579 171.33 161.289C170.91 161.039 170.57 160.519 170.05 160.339C169.59 160.179 169.05 160.059 168.5 159.969C168.02 159.899 167.47 160.059 166.91 160.059C166.39 160.059 165.88 159.989 165.41 160.089C164.91 160.199 164.45 160.429 164.01 160.629C163.57 160.829 163.2 161.199 162.81 161.509C162.42 161.819 162.04 162.109 161.72 162.499C161.4 162.889 161.01 163.219 160.77 163.669C160.53 164.119 160.56 164.649 160.39 165.129C160.22 165.609 160.08 166.049 159.98 166.549C159.88 167.049 159.67 167.499 159.63 168.009C159.59 168.519 159.73 168.999 159.76 169.499C159.79 169.999 159.89 170.469 159.98 170.969C160.07 171.469 159.99 171.979 160.14 172.469C160.18 172.619 160.36 172.769 160.52 172.769C161.25 172.769 161.25 172.859 161.99 172.859C162.73 172.859 162.73 172.839 163.46 172.839C164.19 172.839 164.19 172.549 164.93 172.549C165.67 172.549 165.67 172.579 166.4 172.579C167.13 172.579 167.14 172.709 167.87 172.709C168.6 172.709 168.61 172.849 169.34 172.849C170.07 172.849 170.07 172.539 170.81 172.539C171.55 172.539 171.54 172.639 172.28 172.639C173.02 172.639 173.02 172.849 173.75 172.849C174.48 172.849 174.49 172.849 175.22 172.849C175.95 172.849 175.96 172.559 176.69 172.559C177.42 172.559 177.43 172.819 178.16 172.819C178.89 172.819 178.9 172.709 179.63 172.709C180.36 172.709 180.37 172.859 181.11 172.859C181.85 172.859 181.85 172.809 182.59 172.809C183.33 172.809 183.33 172.779 184.07 172.779C184.29 172.779 184.31 172.549 184.27 172.339C184.2 171.989 184.29 171.379 184.17 170.709C184.08 170.219 183.9 169.689 183.81 169.129C183.73 168.599 183.83 168.039 183.77 167.499C183.71 166.939 183.57 166.399 183.55 165.899C183.52 165.269 183.52 164.719 183.6 164.299C183.69 163.849 183.67 163.269 183.76 162.679C183.84 162.159 183.82 161.599 183.89 161.059C183.96 160.519 184.14 159.959 184.2 159.459C184.28 158.779 184.42 158.209 184.46 157.859C184.48 157.659 184.3 157.559 184.1 157.559C183.39 157.559 183.39 157.649 182.68 157.649C181.97 157.649 181.97 157.399 181.26 157.399C180.55 157.399 180.55 157.609 179.84 157.609C179.13 157.609 179.13 157.389 178.42 157.389C177.71 157.389 177.71 157.409 177 157.409C176.29 157.409 176.29 157.289 175.58 157.289C174.87 157.289 174.87 157.429 174.16 157.429C173.96 157.429 173.78 157.639 173.8 157.839C173.88 158.699 173.83 158.699 173.91 159.559C173.99 160.419 173.94 160.429 174.03 161.289C174.12 162.149 174.27 162.129 174.35 162.989V162.999Z" stroke="#DCDBDB" stroke-width="2.51" stroke-miterlimit="10"/>
<path d="M203.27 124.749C203.5 124.029 203.36 123.979 203.6 123.259C203.84 122.539 204.16 122.639 204.4 121.919C204.64 121.199 204.33 121.099 204.56 120.379C204.79 119.659 205.05 119.739 205.28 119.019C205.51 118.299 205.38 118.259 205.61 117.529C205.84 116.799 205.92 116.829 206.16 116.109C206.4 115.389 206.32 115.359 206.55 114.639C206.78 113.919 206.65 113.869 206.88 113.149C207.11 112.429 207.43 112.529 207.67 111.809C207.91 111.089 207.9 111.089 208.13 110.369C208.36 109.649 208.17 109.579 208.4 108.859C208.63 108.139 208.75 108.169 208.98 107.449C209.21 106.729 209.14 106.699 209.38 105.979C209.62 105.259 209.5 105.219 209.73 104.499C209.96 103.779 210.02 103.799 210.26 103.069C210.5 102.339 210.63 102.389 210.86 101.669C211.09 100.949 210.86 100.869 211.1 100.149C211.34 99.4293 211.36 99.4293 211.6 98.7093C211.84 97.9893 211.99 98.0392 212.22 97.3092C212.45 96.5792 212.33 96.5493 212.57 95.8193C212.81 95.0893 212.76 95.0793 213 94.3593C213.24 93.6393 213.42 93.6993 213.66 92.9793C213.9 92.2593 213.92 92.2593 214.15 91.5393C214.38 90.8193 214.47 90.8393 214.71 90.1193C214.95 89.3993 214.92 89.3893 215.16 88.6593C215.4 87.9293 215.12 87.8493 215.36 87.1193C215.6 86.3893 215.62 86.3993 215.86 85.6793C216.1 84.9593 216.22 84.9892 216.45 84.2692C216.68 83.5492 216.82 83.5893 217.05 82.8593C217.28 82.1293 216.99 82.0392 217.23 81.3092C217.39 80.8092 217.6 80.3392 217.67 79.8392C217.74 79.3392 217.97 78.7993 217.95 78.2893C217.93 77.7793 217.85 77.2293 217.73 76.7293C217.61 76.2293 217.18 75.8192 216.98 75.3392C216.78 74.8592 216.76 74.2893 216.47 73.8493C216.18 73.4093 215.77 73.0692 215.41 72.6992C215.05 72.3292 214.75 71.8693 214.33 71.5593C213.73 71.1193 213.7 71.1593 213.1 70.7193C212.5 70.2793 212.48 70.3093 211.88 69.8693C211.28 69.4293 211.16 69.5893 210.56 69.1593C209.96 68.7293 210.08 68.5493 209.48 68.1093C208.88 67.6693 208.82 67.7393 208.22 67.2993C207.62 66.8593 207.72 66.7193 207.12 66.2793C206.52 65.8393 206.47 65.9093 205.86 65.4693C205.25 65.0293 205.24 65.0493 204.64 64.6093C204.04 64.1693 203.97 64.2593 203.37 63.8193C202.77 63.3793 202.71 63.4593 202.11 63.0193C201.51 62.5793 201.57 62.4893 200.97 62.0493C200.37 61.6093 200.41 61.5493 199.8 61.1093C199.19 60.6693 199.13 60.7593 198.53 60.3193C197.93 59.8793 197.87 59.9493 197.27 59.5093C196.67 59.0693 196.81 58.8693 196.21 58.4293C195.61 57.9893 195.48 58.1593 194.88 57.7193C194.28 57.2793 194.4 57.0993 193.8 56.6693C193.2 56.2393 193.18 56.2493 192.58 55.8093C191.98 55.3693 192.05 55.2693 191.44 54.8293C190.83 54.3893 190.75 54.5093 190.14 54.0693C189.53 53.6293 189.53 53.6393 188.92 53.1993C188.31 52.7593 188.35 52.7093 187.74 52.2693C187.13 51.8293 187.17 51.7893 186.56 51.3493C185.95 50.9093 185.96 50.8993 185.35 50.4593C184.74 50.0193 184.71 50.0693 184.1 49.6393C183.49 49.2093 183.4 49.3293 182.8 48.8893C182.2 48.4493 182.23 48.4093 181.62 47.9693C181.01 47.5293 181.08 47.4393 180.48 46.9993C179.88 46.5593 179.86 46.5793 179.26 46.1393C178.66 45.6993 178.71 45.6193 178.11 45.1793C177.51 44.7393 177.35 44.9593 176.74 44.5193C176.13 44.0793 176.22 43.9593 175.62 43.5193C175.02 43.0793 175.09 42.9693 174.48 42.5293C173.87 42.0893 173.7 42.3193 173.09 41.8793C172.66 41.5693 172.25 41.2893 171.78 41.0693C171.31 40.8493 170.9 40.4393 170.4 40.2993C169.9 40.1593 169.34 40.2793 168.82 40.2293C168.3 40.1793 167.77 39.9493 167.26 39.9993C166.75 40.0493 166.28 40.4093 165.77 40.5493C165.26 40.6893 164.82 40.8993 164.35 41.1293C163.88 41.3593 163.4 41.5093 162.97 41.8193C162.37 42.2593 162.27 42.1193 161.67 42.5593C161.07 42.9993 161.09 43.0193 160.48 43.4593C159.87 43.8993 159.87 43.8893 159.27 44.3193C158.67 44.7493 158.7 44.8093 158.1 45.2493C157.5 45.6893 157.42 45.5793 156.81 46.0193C156.2 46.4593 156.36 46.6693 155.75 47.1093C155.14 47.5493 155.15 47.5493 154.55 47.9893C153.95 48.4293 153.87 48.3293 153.27 48.7593C152.67 49.1893 152.72 49.2693 152.12 49.7093C151.52 50.1493 151.47 50.0793 150.87 50.5193C150.27 50.9593 150.26 50.9493 149.65 51.3893C149.04 51.8293 148.96 51.7193 148.36 52.1593C147.76 52.5993 147.93 52.8393 147.33 53.2793C146.73 53.7193 146.68 53.6493 146.07 54.0893C145.46 54.5293 145.48 54.5493 144.88 54.9893C144.28 55.4293 144.29 55.4493 143.68 55.8893C143.07 56.3293 142.98 56.1893 142.37 56.6293C141.76 57.0693 141.75 57.0493 141.15 57.4893C140.55 57.9293 140.59 57.9893 139.98 58.4293C139.37 58.8693 139.32 58.7993 138.72 59.2393C138.12 59.6793 138.13 59.6993 137.52 60.1393C136.91 60.5793 137.02 60.7193 136.41 61.1593C135.8 61.5993 135.8 61.5893 135.2 62.0293C134.6 62.4693 134.61 62.4893 134.01 62.9293C133.41 63.3693 133.39 63.3393 132.78 63.7793C132.17 64.2193 132.11 64.1293 131.51 64.5693C130.91 65.0093 130.9 64.9993 130.29 65.4393C129.68 65.8793 129.79 66.0193 129.18 66.4593C128.57 66.8993 128.58 66.9093 127.98 67.3493C127.38 67.7893 127.26 67.6293 126.65 68.0693C126.04 68.5093 126 68.4593 125.4 68.8993C124.8 69.3393 124.85 69.4193 124.24 69.8593C123.63 70.2993 123.58 70.2293 122.97 70.6693C122.36 71.1093 122.5 71.3093 121.9 71.7493C121.47 72.0593 121.01 72.2993 120.65 72.6693C120.29 73.0393 120.09 73.5393 119.81 73.9693C119.53 74.3993 119.2 74.7993 119 75.2793C118.8 75.7593 118.64 76.2493 118.52 76.7493C118.4 77.2493 118.2 77.7593 118.18 78.2793C118.16 78.7993 118.18 79.3293 118.24 79.8493C118.3 80.3693 118.51 80.8593 118.67 81.3593C118.9 82.0693 118.8 82.0992 119.03 82.8092C119.26 83.5192 119.45 83.4593 119.68 84.1593C119.91 84.8593 119.88 84.8792 120.11 85.5892C120.34 86.2992 120.36 86.2893 120.59 86.9993C120.82 87.7093 120.8 87.7193 121.03 88.4293C121.26 89.1393 121.28 89.1292 121.51 89.8392C121.74 90.5492 121.83 90.5193 122.06 91.2293C122.29 91.9393 122.03 92.0193 122.26 92.7293C122.49 93.4393 122.48 93.4393 122.71 94.1493C122.94 94.8593 123.19 94.7793 123.42 95.4893C123.65 96.1993 123.57 96.2293 123.8 96.9393C124.03 97.6493 123.87 97.6993 124.1 98.4193C124.33 99.1393 124.45 99.0893 124.68 99.7993C124.91 100.509 124.81 100.539 125.04 101.249C125.27 101.959 125.34 101.939 125.57 102.649C125.8 103.359 125.89 103.329 126.12 104.039C126.35 104.749 126.31 104.759 126.54 105.469C126.77 106.179 126.71 106.199 126.94 106.909C127.17 107.619 127.26 107.589 127.5 108.299C127.74 109.009 127.7 109.019 127.93 109.729C128.16 110.439 128.24 110.409 128.48 111.119C128.72 111.829 128.69 111.839 128.92 112.549C129.15 113.259 129.06 113.289 129.29 113.999C129.52 114.709 129.64 114.669 129.87 115.379C130.1 116.089 129.84 116.169 130.07 116.879C130.3 117.589 130.53 117.519 130.76 118.229C130.99 118.939 130.95 118.959 131.18 119.669C131.41 120.379 131.39 120.389 131.62 121.099C131.85 121.809 131.64 121.879 131.87 122.589C132.1 123.299 132.13 123.289 132.36 124.009C132.59 124.729 132.6 124.719 132.84 125.429C133.08 126.139 133.09 126.139 133.32 126.849C133.55 127.559 133.52 127.569 133.75 128.289C133.98 129.009 134.11 128.959 134.34 129.679C134.5 130.179 134.78 130.619 135.02 131.079C135.26 131.539 135.55 131.969 135.87 132.369C136.19 132.769 136.51 133.189 136.9 133.529C137.29 133.869 137.78 134.059 138.23 134.329C138.68 134.599 139.05 135.009 139.53 135.189C140.01 135.369 140.54 135.429 141.06 135.529C141.58 135.629 142.08 135.599 142.61 135.599C143.35 135.599 143.35 135.659 144.1 135.659C144.85 135.659 144.84 135.729 145.59 135.729C146.34 135.729 146.33 135.849 147.08 135.849C147.83 135.849 147.83 135.839 148.57 135.839C149.31 135.839 149.32 135.789 150.06 135.789C150.8 135.789 150.81 135.579 151.55 135.579C152.29 135.579 152.3 135.519 153.04 135.519C153.78 135.519 153.78 135.719 154.53 135.719C155.28 135.719 155.28 135.799 156.02 135.799C156.76 135.799 156.77 135.759 157.51 135.759C158.25 135.759 158.26 135.539 159 135.539C159.74 135.539 159.75 135.859 160.5 135.859C161.25 135.859 161.25 135.619 161.99 135.619C162.73 135.619 162.74 135.739 163.48 135.739C164.22 135.739 164.23 135.649 164.97 135.649C165.71 135.649 165.72 135.509 166.47 135.509C167.22 135.509 167.22 135.759 167.96 135.759C168.7 135.759 168.71 135.699 169.45 135.699C170.19 135.699 170.2 135.689 170.94 135.689C171.68 135.689 171.69 135.689 172.44 135.689C173.19 135.689 173.19 135.539 173.93 135.539C174.67 135.539 174.68 135.769 175.43 135.769C176.18 135.769 176.18 135.709 176.93 135.709C177.68 135.709 177.68 135.789 178.43 135.789C179.18 135.789 179.18 135.789 179.92 135.789C180.66 135.789 180.67 135.569 181.41 135.569C182.15 135.569 182.16 135.749 182.91 135.749C183.66 135.749 183.66 135.809 184.41 135.809C185.16 135.809 185.16 135.489 185.91 135.489C186.66 135.489 186.66 135.499 187.41 135.499C188.16 135.499 188.16 135.649 188.91 135.649C189.66 135.649 189.66 135.769 190.41 135.769C191.16 135.769 191.16 135.629 191.91 135.629C192.66 135.629 192.66 135.809 193.41 135.809" stroke="#DCDBDB" stroke-width="2.51" stroke-miterlimit="10" stroke-linecap="round"/>
<path d="M149.74 90.7202C149.74 91.2902 149.52 91.8602 149.32 92.3602C149.12 92.8602 148.63 93.2102 148.24 93.6002C147.85 93.9902 147.43 94.2702 146.92 94.4902C146.41 94.7102 145.93 95.0902 145.36 95.0902C144.79 95.0902 144.28 94.7302 143.79 94.5202C143.3 94.3102 142.77 94.0902 142.38 93.7102C141.99 93.3302 141.82 92.8002 141.6 92.2802C141.38 91.7602 141.24 91.2902 141.24 90.7202C141.24 90.1502 141.32 89.6302 141.53 89.1302C141.74 88.6302 141.9 88.0302 142.29 87.6402C142.68 87.2502 143.27 87.1002 143.78 86.8902C144.29 86.6802 144.79 86.4902 145.36 86.4902C145.93 86.4902 146.41 86.7702 146.91 86.9702C147.41 87.1702 147.9 87.4002 148.28 87.7902C148.66 88.1802 148.99 88.6102 149.2 89.1202C149.41 89.6302 149.74 90.1402 149.74 90.7102V90.7202Z" fill="#F3F3F3"/>
<path d="M174.6 90.7191C174.6 91.2891 174.42 91.8591 174.22 92.3591C174.02 92.8591 173.58 93.2591 173.19 93.6491C172.8 94.0391 172.46 94.5591 171.94 94.7691C171.42 94.9791 170.84 95.0791 170.26 95.0791C169.68 95.0791 169.15 94.8091 168.66 94.5991C168.17 94.3891 167.6 94.1691 167.21 93.7791C166.82 93.3891 166.45 92.9091 166.23 92.3991C166.01 91.8891 166.1 91.2991 166.1 90.7291C166.1 90.1591 166.23 89.6391 166.44 89.1491C166.65 88.6591 167.01 88.2591 167.4 87.8691C167.79 87.4791 168.19 87.1791 168.7 86.9691C169.21 86.7591 169.69 86.3691 170.26 86.3691C170.83 86.3691 171.42 86.5191 171.92 86.7291C172.42 86.9391 172.85 87.3691 173.23 87.7591C173.61 88.1491 173.8 88.6591 174.02 89.1791C174.24 89.6991 174.59 90.1691 174.59 90.7391L174.6 90.7191Z" fill="#F3F3F3"/>
<path d="M151.33 89.3697C152.308 89.3697 153.1 88.1519 153.1 86.6497C153.1 85.1475 152.308 83.9297 151.33 83.9297C150.353 83.9297 149.56 85.1475 149.56 86.6497C149.56 88.1519 150.353 89.3697 151.33 89.3697Z" fill="#DCDBDB"/>
<path d="M162.29 89.3697C163.268 89.3697 164.06 88.1519 164.06 86.6497C164.06 85.1475 163.268 83.9297 162.29 83.9297C161.312 83.9297 160.52 85.1475 160.52 86.6497C160.52 88.1519 161.312 89.3697 162.29 89.3697Z" fill="#DCDBDB"/>
<path d="M161.47 109.909C161.34 110.649 161.41 110.669 161.29 111.409C161.17 112.149 161.22 112.159 161.09 112.909C160.96 113.659 160.98 113.659 160.85 114.399C160.72 115.139 160.76 115.149 160.63 115.889C160.5 116.629 160.24 116.589 160.11 117.329C159.98 118.069 160.26 118.119 160.13 118.869C160 119.619 159.84 119.589 159.72 120.329C159.6 121.069 159.75 121.099 159.62 121.849C159.49 122.599 159.36 122.579 159.24 123.319C159.12 124.059 158.99 124.049 158.86 124.789C158.76 125.379 159.08 126.079 159.55 126.439C160.18 126.909 160.14 126.959 160.77 127.429C161.4 127.899 161.43 127.849 162.06 128.319C162.69 128.789 162.86 128.559 163.49 129.039C164.12 129.519 164.12 129.509 164.75 129.989C165.38 130.469 165.23 130.659 165.86 131.139C166.45 131.579 167.26 131.449 167.82 130.979C168.38 130.519 168.49 130.659 169.05 130.199C169.61 129.739 169.53 129.649 170.08 129.189C170.63 128.729 170.6 128.689 171.16 128.229C171.72 127.769 171.75 127.809 172.31 127.349C172.87 126.889 172.84 126.849 173.4 126.389C173.96 125.929 173.99 125.959 174.55 125.499C174.86 125.239 174.94 124.879 174.99 124.509C175.04 124.139 175.09 123.759 174.87 123.419C174.48 122.809 174.38 122.869 173.99 122.269C173.6 121.669 173.69 121.599 173.3 120.989C172.91 120.379 172.83 120.429 172.44 119.819C172.05 119.209 172.25 119.079 171.86 118.469C171.47 117.859 171.49 117.839 171.1 117.229C170.71 116.619 170.63 116.669 170.23 116.059C169.83 115.449 169.89 115.409 169.5 114.799C169.11 114.189 168.98 114.269 168.59 113.659C168.2 113.049 168.29 112.989 167.89 112.379C167.49 111.769 167.41 111.829 167.01 111.209C166.61 110.589 166.57 110.629 166.17 110.019C165.77 109.409 165.72 109.439 165.32 108.829C165.17 108.609 165.05 108.719 164.81 108.589C164.14 108.239 163.76 108.999 163.08 108.869C162.23 108.709 161.64 109.019 161.49 109.879L161.47 109.909Z" fill="#F3F3F3"/>
<path d="M161.47 109.909C161.34 110.649 161.41 110.669 161.29 111.409C161.17 112.149 161.22 112.159 161.09 112.909C160.96 113.659 160.98 113.659 160.85 114.399C160.72 115.139 160.76 115.149 160.63 115.889C160.5 116.629 160.24 116.589 160.11 117.329C159.98 118.069 160.26 118.119 160.13 118.869C160 119.619 159.84 119.589 159.72 120.329C159.6 121.069 159.75 121.099 159.62 121.849C159.49 122.599 159.36 122.579 159.24 123.319C159.12 124.059 158.99 124.049 158.86 124.789C158.76 125.379 159.08 126.079 159.55 126.439C160.18 126.909 160.14 126.959 160.77 127.429C161.4 127.899 161.43 127.849 162.06 128.319C162.69 128.789 162.86 128.559 163.49 129.039C164.12 129.519 164.12 129.509 164.75 129.989C165.38 130.469 165.23 130.659 165.86 131.139C166.45 131.579 167.26 131.449 167.82 130.979C168.38 130.519 168.49 130.659 169.05 130.199C169.61 129.739 169.53 129.649 170.08 129.189C170.63 128.729 170.6 128.689 171.16 128.229C171.72 127.769 171.75 127.809 172.31 127.349C172.87 126.889 172.84 126.849 173.4 126.389C173.96 125.929 173.99 125.959 174.55 125.499C174.86 125.239 174.94 124.879 174.99 124.509C175.04 124.139 175.09 123.759 174.87 123.419C174.48 122.809 174.38 122.869 173.99 122.269C173.6 121.669 173.69 121.599 173.3 120.989C172.91 120.379 172.83 120.429 172.44 119.819C172.05 119.209 172.25 119.079 171.86 118.469C171.47 117.859 171.49 117.839 171.1 117.229C170.71 116.619 170.63 116.669 170.23 116.059C169.83 115.449 169.89 115.409 169.5 114.799C169.11 114.189 168.98 114.269 168.59 113.659C168.2 113.049 168.29 112.989 167.89 112.379C167.49 111.769 167.41 111.829 167.01 111.209C166.61 110.589 166.57 110.629 166.17 110.019C165.77 109.409 165.72 109.439 165.32 108.829C165.17 108.609 165.05 108.719 164.81 108.589C164.14 108.239 163.76 108.999 163.08 108.869C162.23 108.709 161.64 109.019 161.49 109.879L161.47 109.909Z" stroke="#DCDBDB" stroke-width="2.51" stroke-miterlimit="10"/>
<path d="M158.96 103.06C159.45 102.93 159.95 102.78 160.44 102.7C160.93 102.62 161.46 102.78 161.97 102.76C162.48 102.74 162.97 102.72 163.47 102.76C163.97 102.8 164.48 102.75 164.98 102.84C165.48 102.93 165.95 103.08 166.44 103.23C166.85 103.35 167.03 103.77 166.97 104.19C166.87 104.85 167.09 104.89 166.99 105.55C166.89 106.21 166.6 106.17 166.5 106.84C166.4 107.51 166.38 107.5 166.28 108.17C166.21 108.64 165.96 108.9 165.49 108.83C165.11 108.78 164.64 108.62 164.13 108.58C163.69 108.54 163.2 108.77 162.75 108.78C162.26 108.78 161.78 108.69 161.38 108.78C161.01 108.87 160.76 108.71 160.57 108.37C160.23 107.7 160.27 107.69 159.94 107.01C159.61 106.33 159.39 106.44 159.06 105.77C158.73 105.1 158.96 104.98 158.62 104.31C158.35 103.83 158.43 103.19 158.96 103.05V103.06Z" fill="#F3F3F3"/>
<path d="M158.96 103.06C159.45 102.93 159.95 102.78 160.44 102.7C160.93 102.62 161.46 102.78 161.97 102.76C162.48 102.74 162.97 102.72 163.47 102.76C163.97 102.8 164.48 102.75 164.98 102.84C165.48 102.93 165.95 103.08 166.44 103.23C166.85 103.35 167.03 103.77 166.97 104.19C166.87 104.85 167.09 104.89 166.99 105.55C166.89 106.21 166.6 106.17 166.5 106.84C166.4 107.51 166.38 107.5 166.28 108.17C166.21 108.64 165.96 108.9 165.49 108.83C165.11 108.78 164.64 108.62 164.13 108.58C163.69 108.54 163.2 108.77 162.75 108.78C162.26 108.78 161.78 108.69 161.38 108.78C161.01 108.87 160.76 108.71 160.57 108.37C160.23 107.7 160.27 107.69 159.94 107.01C159.61 106.33 159.39 106.44 159.06 105.77C158.73 105.1 158.96 104.98 158.62 104.31C158.35 103.83 158.43 103.19 158.96 103.05V103.06Z" stroke="#DCDBDB" stroke-width="2.51" stroke-miterlimit="10"/>
<path d="M160.79 92.5492C161.06 94.0992 160.07 95.6192 158.52 95.8992C156.97 96.1792 155.61 95.0692 155.33 93.5192C155.05 91.9692 155.94 90.3692 157.49 90.0992C159.04 89.8292 160.51 91.0092 160.79 92.5492Z" stroke="#DCDBDB" stroke-width="2.51" stroke-miterlimit="10"/>
<path d="M109.89 125.459C109.37 125.749 109.32 125.659 108.8 125.949C108.28 126.239 108.36 126.389 107.84 126.669C107.32 126.949 107.32 126.959 106.81 127.249C106.3 127.539 106.24 127.449 105.72 127.729C105.2 128.009 105.24 128.089 104.72 128.369C104.2 128.649 104.12 128.499 103.59 128.789C103.06 129.079 103.11 129.139 102.59 129.429C102.07 129.719 102.06 129.699 101.54 129.989C101.02 130.279 101.01 130.249 100.49 130.539C99.97 130.829 99.97 130.829 99.45 131.109C98.93 131.389 98.91 131.369 98.4 131.649C97.89 131.929 97.96 132.079 97.45 132.369C96.94 132.659 96.93 132.659 96.41 132.939C95.89 133.219 95.81 133.089 95.29 133.369C94.77 133.649 94.83 133.769 94.31 134.059C93.79 134.349 93.74 134.249 93.21 134.529C92.68 134.809 92.74 134.909 92.22 135.199C91.7 135.489 91.64 135.389 91.12 135.669C90.6 135.949 90.62 135.999 90.1 136.279C89.58 136.559 89.59 136.579 89.07 136.869C88.55 137.159 88.5 137.059 87.97 137.349C87.44 137.639 87.54 137.809 87.02 138.089C86.5 138.369 86.43 138.249 85.9 138.539C85.37 138.829 85.4 138.879 84.88 139.169C84.51 139.369 84.13 139.529 83.74 139.629C83.35 139.729 82.92 139.709 82.51 139.699C82.1 139.689 81.71 139.579 81.32 139.479C80.93 139.379 80.49 139.369 80.13 139.169C79.77 138.969 79.52 138.619 79.22 138.339C78.92 138.059 78.59 137.819 78.37 137.469C78.05 136.969 78.09 136.949 77.77 136.449C77.45 135.949 77.38 135.999 77.06 135.499C76.74 134.999 76.7 135.029 76.38 134.529C76.06 134.029 76.11 133.999 75.79 133.499C75.47 132.999 75.47 132.999 75.15 132.499C74.83 131.999 74.87 131.979 74.55 131.479C74.23 130.979 74.25 130.969 73.93 130.479C73.61 129.989 73.58 129.999 73.26 129.509C72.94 129.019 72.83 129.079 72.51 128.589C72.19 128.099 72.28 128.029 71.96 127.539C71.64 127.049 71.67 127.019 71.35 126.529C71.03 126.039 70.91 126.109 70.59 125.619C70.27 125.129 70.29 125.109 69.97 124.609C69.65 124.109 69.63 124.119 69.31 123.629C68.99 123.139 69.07 123.079 68.75 122.579C68.43 122.079 68.45 122.069 68.13 121.579C67.81 121.089 67.76 121.119 67.44 120.619C67.12 120.119 67.09 120.139 66.77 119.639C66.45 119.139 66.53 119.089 66.2 118.599C65.87 118.109 65.86 118.119 65.53 117.619C65.2 117.119 65.23 117.109 64.9 116.609C64.57 116.109 64.46 116.189 64.13 115.689C63.8 115.189 63.91 115.129 63.58 114.629C63.25 114.129 63.26 114.129 62.94 113.639C62.62 113.149 62.65 113.119 62.33 112.619C62.01 112.119 61.99 112.129 61.67 111.629C61.35 111.129 61.39 111.099 61.06 110.599C60.73 110.099 60.67 110.139 60.34 109.639C60.12 109.299 59.94 108.949 59.83 108.589C59.7 108.209 59.62 107.819 59.6 107.439C59.58 107.059 59.66 106.659 59.75 106.279C59.84 105.899 59.89 105.489 60.09 105.149C60.29 104.809 60.55 104.499 60.83 104.219C61.11 103.939 61.45 103.749 61.81 103.559C62.33 103.269 62.31 103.239 62.83 102.949C63.35 102.659 63.37 102.699 63.89 102.419C64.41 102.139 64.38 102.089 64.9 101.799C65.42 101.509 65.42 101.519 65.94 101.229C66.46 100.939 66.47 100.959 66.99 100.669C67.51 100.379 67.49 100.349 68.01 100.069C68.53 99.7891 68.62 99.9491 69.14 99.6591C69.66 99.3691 69.61 99.2791 70.13 98.9891C70.65 98.6991 70.65 98.6991 71.17 98.4191C71.69 98.1391 71.66 98.0791 72.18 97.7891C72.7 97.4991 72.75 97.5991 73.27 97.3191C73.79 97.0391 73.76 96.9891 74.28 96.6991C74.8 96.4091 74.79 96.3891 75.31 96.1091C75.83 95.8291 75.88 95.9091 76.4 95.6191C76.92 95.3291 76.91 95.3191 77.43 95.0391C77.95 94.7591 77.98 94.8191 78.5 94.5291C79.02 94.2391 79.01 94.2091 79.53 93.9291C80.05 93.6491 79.99 93.5391 80.51 93.2491C81.03 92.9591 81.07 93.0291 81.59 92.7391C82.11 92.4491 82.14 92.5191 82.66 92.2291C83.18 91.9391 83.1 91.7791 83.62 91.4991C84.14 91.2191 84.22 91.3491 84.74 91.0691C85.26 90.7891 85.24 90.7291 85.76 90.4391C86.28 90.1491 86.27 90.1291 86.8 89.8391C87.17 89.6391 87.57 89.5591 87.97 89.4591C88.37 89.3591 88.77 89.3691 89.18 89.3791C89.59 89.3891 89.98 89.4091 90.38 89.5091C90.78 89.6091 91.17 89.7191 91.53 89.9091C91.89 90.0991 92.2 90.3591 92.5 90.6391C92.8 90.9191 93.18 91.1391 93.4 91.4891C93.72 91.9891 93.62 92.0491 93.94 92.5491C94.26 93.0491 94.26 93.0491 94.58 93.5391C94.9 94.0291 94.9 94.0291 95.22 94.5291C95.54 95.0291 95.55 95.0191 95.88 95.5091C96.21 95.9991 96.2 95.9991 96.53 96.4991C96.86 96.9991 96.94 96.9391 97.27 97.4291C97.6 97.9191 97.57 97.9391 97.89 98.4391C98.21 98.9391 98.2 98.9391 98.53 99.4391C98.86 99.9391 98.74 100.009 99.07 100.499C99.4 100.989 99.53 100.909 99.85 101.409C100.17 101.909 100.05 101.989 100.37 102.479C100.69 102.969 100.73 102.949 101.05 103.449C101.37 103.949 101.32 103.979 101.64 104.479C101.96 104.979 101.95 104.979 102.28 105.479C102.61 105.979 102.61 105.969 102.93 106.469C103.25 106.969 103.24 106.969 103.56 107.469C103.88 107.969 103.94 107.929 104.26 108.419C104.58 108.909 104.62 108.889 104.94 109.389C105.26 109.889 105.19 109.929 105.51 110.429C105.83 110.929 105.95 110.849 106.27 111.349C106.59 111.849 106.54 111.879 106.87 112.379C107.2 112.879 107.14 112.909 107.46 113.409C107.78 113.909 107.77 113.919 108.09 114.419C108.41 114.919 108.45 114.889 108.77 115.389C109.09 115.889 109.03 115.929 109.36 116.429C109.69 116.929 109.77 116.879 110.09 117.369C110.41 117.859 110.47 117.839 110.79 118.339C111.11 118.839 111.12 118.839 111.44 119.339C111.66 119.679 111.73 120.089 111.85 120.449C111.98 120.829 112.1 121.199 112.12 121.579C112.14 121.959 112.14 122.379 112.05 122.759C111.96 123.139 111.76 123.489 111.57 123.829C111.38 124.169 111.08 124.419 110.8 124.699C110.52 124.979 110.27 125.269 109.92 125.459H109.89Z" stroke="#DCDBDB" stroke-width="2.51" stroke-miterlimit="10" stroke-linecap="round"/>
<path d="M99.98 102.031C99.84 102.621 99.4 102.341 98.87 102.631C98.34 102.921 98.29 102.831 97.76 103.121C97.23 103.411 97.25 103.451 96.72 103.741C96.19 104.031 96.21 104.061 95.68 104.351C95.15 104.641 95.11 104.571 94.58 104.861C94.05 105.151 94.1 105.241 93.57 105.531C93.04 105.821 93.05 105.841 92.52 106.131C91.99 106.421 91.92 106.301 91.39 106.591C90.86 106.881 90.87 106.911 90.34 107.201C89.81 107.491 89.8 107.471 89.26 107.761C88.72 108.051 88.8 108.181 88.27 108.471C87.74 108.761 87.71 108.711 87.18 109.001C86.65 109.291 86.64 109.291 86.11 109.581C85.58 109.871 85.53 109.791 85 110.081C84.47 110.371 84.55 110.521 84.02 110.821C83.49 111.121 83.49 111.121 82.96 111.411C82.43 111.701 82.38 111.621 81.85 111.911C81.32 112.201 81.36 112.271 80.83 112.561C80.3 112.851 80.22 112.701 79.69 112.991C79.16 113.281 79.2 113.351 78.66 113.641C78.12 113.931 78.12 113.921 77.59 114.211C77.06 114.501 77.05 114.481 76.51 114.771C75.97 115.061 75.98 115.061 75.45 115.361C74.92 115.661 74.9 115.621 74.37 115.921C73.84 116.221 73.92 116.361 73.39 116.651C72.86 116.941 72.86 116.941 72.32 117.241C71.78 117.541 71.71 117.391 71.18 117.681C70.65 117.971 70.71 118.091 70.18 118.381C69.65 118.671 69.59 118.571 69.06 118.871C68.53 119.171 68.58 119.261 68.04 119.551C67.5 119.841 67.55 120.191 66.96 120.031C66.37 119.871 66.62 119.561 66.29 119.031C65.96 118.501 65.94 118.521 65.6 117.991C65.26 117.461 65.36 117.411 65.02 116.881C64.68 116.351 64.52 116.461 64.19 115.931C63.86 115.401 63.98 115.331 63.65 114.801C63.32 114.271 63.26 114.311 62.93 113.781C62.6 113.251 62.58 113.261 62.25 112.731C61.92 112.201 61.97 112.171 61.63 111.641C61.29 111.111 61.34 111.081 61.01 110.551C60.79 110.211 60.48 109.931 60.34 109.581C60.19 109.211 60.21 108.791 60.14 108.411C60.07 108.031 59.94 107.641 59.95 107.261C59.96 106.881 60.06 106.481 60.15 106.111C60.24 105.741 60.32 105.331 60.51 104.991C60.7 104.651 60.91 104.301 61.19 104.021C61.47 103.741 61.82 103.561 62.18 103.361C62.71 103.071 62.71 103.081 63.24 102.791C63.77 102.501 63.79 102.541 64.32 102.251C64.85 101.961 64.86 101.981 65.39 101.691C65.92 101.401 65.9 101.371 66.43 101.081C66.96 100.791 66.9 100.681 67.42 100.391C67.94 100.101 68 100.201 68.53 99.9109C69.06 99.6209 69.07 99.6509 69.6 99.3609C70.13 99.0709 70.06 98.9409 70.59 98.6609C71.12 98.3809 71.13 98.3909 71.66 98.1009C72.19 97.8109 72.18 97.7909 72.7 97.5009C73.22 97.2109 73.27 97.3009 73.8 97.0109C74.33 96.7209 74.34 96.7409 74.87 96.4609C75.4 96.1809 75.37 96.1209 75.9 95.8309C76.43 95.5409 76.41 95.5109 76.94 95.2209C77.47 94.9309 77.51 95.0109 78.04 94.7209C78.57 94.4309 78.56 94.4109 79.09 94.1209C79.62 93.8309 79.63 93.8509 80.16 93.5609C80.69 93.2709 80.62 93.1409 81.15 92.8509C81.68 92.5609 81.73 92.6609 82.26 92.3709C82.79 92.0809 82.79 92.0809 83.32 91.7909C83.85 91.5009 83.87 91.5309 84.4 91.2409C84.93 90.9509 84.92 90.9309 85.46 90.6409C86 90.3509 86.02 90.3909 86.55 90.1009C86.91 89.9009 87.26 89.6909 87.65 89.6009C88.04 89.5109 88.46 89.4609 88.87 89.4809C89.28 89.5009 89.68 89.5409 90.09 89.6409C90.5 89.7409 90.85 89.9209 91.22 90.1009C91.59 90.2809 91.99 90.4109 92.32 90.6609C92.65 90.9109 92.95 91.2009 93.23 91.5009C93.51 91.8009 93.72 92.1509 93.95 92.5009C94.28 93.0209 94.32 93.0009 94.65 93.5309C94.98 94.0609 94.95 94.0809 95.28 94.6109C95.61 95.1409 95.66 95.1109 95.99 95.6309C96.32 96.1509 96.32 96.1609 96.65 96.6809C96.98 97.2009 96.97 97.2109 97.31 97.7309C97.65 98.2509 97.67 98.2409 98.01 98.7609C98.35 99.2809 98.19 99.3909 98.52 99.9109C98.85 100.431 98.83 100.471 99.28 100.911C99.78 101.401 100.15 101.391 100 102.001L99.98 102.031Z" stroke="#DCDBDB" stroke-width="2.51" stroke-miterlimit="10" stroke-linecap="round"/>
<path d="M67.9801 104.041L67.9601 104.011C67.6501 104.181 67.3401 104.191 67.0001 104.101C66.6601 104.011 66.3001 103.921 66.1001 103.621C65.7201 103.041 65.8401 102.961 65.4601 102.381C65.0801 101.801 65.0801 101.801 64.7001 101.211C64.3201 100.621 64.2501 100.671 63.8701 100.081C63.6701 99.7807 63.5301 99.4207 63.6001 99.1107C63.6701 98.8007 63.9401 98.4807 64.2501 98.3107L64.2601 98.3307C64.5701 98.1607 64.9401 98.2207 65.2801 98.3107C65.6201 98.4007 65.9201 98.5507 66.1101 98.8507C66.4901 99.4307 66.5201 99.4107 66.9001 100.001C67.2801 100.591 67.21 100.631 67.59 101.211C67.97 101.791 68.0601 101.741 68.4401 102.331C68.6401 102.631 68.7201 103.011 68.6401 103.321C68.5601 103.631 68.2801 103.871 67.9601 104.041H67.9801Z" fill="#DCDBDB"/>
<path d="M84.6199 94.9607L84.5899 94.9107C84.2799 95.0807 83.9099 95.2307 83.5699 95.1407C83.2299 95.0507 83.0199 94.7207 82.8299 94.4207C82.4499 93.8407 82.4599 93.8307 82.0799 93.2507C81.6999 92.6707 81.6599 92.6907 81.2799 92.1007C80.8999 91.5107 80.9399 91.4907 80.5599 90.9007C80.3599 90.6007 80.1899 90.3007 80.2599 89.9907C80.3299 89.6807 80.5999 89.4407 80.9099 89.2607L80.9299 89.2907C81.2399 89.1207 81.5499 89.1107 81.8899 89.2007C82.2299 89.2907 82.5899 89.3807 82.7899 89.6807C83.1699 90.2607 83.0499 90.3407 83.4299 90.9207C83.8099 91.5007 83.8099 91.5007 84.1899 92.0907C84.5699 92.6807 84.6399 92.6307 85.0199 93.2207C85.2199 93.5207 85.3599 93.8807 85.2899 94.1907C85.2199 94.5007 84.9299 94.7707 84.6099 94.9507L84.6199 94.9607Z" fill="#DCDBDB"/>
<path d="M68.78 108.64L67.58 109.3L66.95 108.32L70.44 106.41L71.07 107.39L69.87 108.05L72 111.34L70.91 111.94L68.78 108.65V108.64Z" fill="#DCDBDB"/>
<path d="M72.03 108.421C71.2 107.141 71.56 105.671 72.93 104.921C74.3 104.171 75.88 104.581 76.7 105.861C77.53 107.141 77.17 108.611 75.8 109.361C74.43 110.111 72.85 109.701 72.02 108.421H72.03ZM75.6 106.461C75.13 105.741 74.31 105.491 73.56 105.901C72.81 106.311 72.66 107.101 73.13 107.821C73.6 108.541 74.42 108.791 75.17 108.381C75.92 107.971 76.07 107.181 75.6 106.461Z" fill="#DCDBDB"/>
<path d="M76 103.351L77.55 102.501C79.09 101.651 80.45 102.071 81.28 103.341C82.11 104.621 81.86 105.911 80.31 106.761L78.76 107.611L75.99 103.341L76 103.351ZM79.69 105.791C80.57 105.311 80.65 104.661 80.19 103.951C79.73 103.241 79.07 103.001 78.19 103.481L77.73 103.731L79.23 106.041L79.69 105.791Z" fill="#DCDBDB"/>
<path d="M81.6299 102.691C80.8799 101.531 81.0899 100.451 82.3399 99.7613C83.5999 99.0713 84.7399 99.4112 85.4899 100.571L87.0999 103.051L86.0099 103.651L85.2199 102.441L83.4999 103.381L84.2899 104.591L83.2299 105.171L81.6199 102.691H81.6299ZM84.6399 101.511L84.4099 101.161C84.0299 100.571 83.5699 100.411 82.9699 100.741C82.3799 101.061 82.3099 101.521 82.6899 102.101L82.9199 102.451L84.6399 101.511Z" fill="#DCDBDB"/>
<path d="M87.6199 100.36L84.3899 98.7404L85.6699 98.0404L87.5099 99.0604L87.3999 97.0904L88.6599 96.4004L88.6799 99.7304L89.8499 101.53L88.7599 102.13L87.6099 100.36H87.6199Z" fill="#DCDBDB"/>
<path d="M224.51 61.8387C225.946 61.8387 227.11 60.6746 227.11 59.2387C227.11 57.8027 225.946 56.6387 224.51 56.6387C223.074 56.6387 221.91 57.8027 221.91 59.2387C221.91 60.6746 223.074 61.8387 224.51 61.8387Z" fill="#DCDBDB"/>
<path d="M226.94 54.6096L226.81 54.5396C225.58 53.9296 225.03 52.4596 225.57 51.1896L233.78 31.7096C234.28 30.5196 235.68 29.9996 236.84 30.5696L239.59 31.9396C240.73 32.5096 241.17 33.9096 240.56 35.0196L230.39 53.5196C229.72 54.7396 228.2 55.2196 226.95 54.5996L226.94 54.6096Z" fill="#DCDBDB"/>
<path d="M106.66 111.911C106.16 111.651 106.22 112.071 105.53 112.191C105.21 112.241 104.84 112.331 104.41 112.381C104.06 112.421 103.68 112.491 103.28 112.511C102.92 112.531 102.58 112.511 102.18 112.511C101.69 112.881 101.91 112.911 101.52 113.511C101.32 113.821 101.14 114.211 100.86 114.541C100.6 114.841 100.32 115.171 100 115.421C99.68 115.671 99.26 115.791 98.88 115.931C98.5 116.071 98.12 116.151 97.7 116.121C97.33 116.091 96.92 116.041 96.51 115.831C96.1 115.621 95.79 115.351 95.51 115.051C95.23 114.751 95.05 114.361 94.89 113.961C94.73 113.561 94.52 113.191 94.49 112.761C94.46 112.361 94.65 111.941 94.73 111.511C94.81 111.111 94.94 110.731 95.11 110.331C95.27 109.961 95.43 109.581 95.68 109.221C95.91 108.891 96.21 108.601 96.51 108.281C96.79 107.991 97 107.601 97.35 107.331C97.67 107.081 98.06 106.901 98.43 106.671C98.8 106.441 99.17 106.291 99.53 106.131C99.93 105.951 100.3 105.831 100.68 105.721C101.1 105.601 101.47 105.391 101.85 105.351C102.28 105.301 102.69 105.431 103.08 105.461C103.52 105.491 103.91 105.561 104.27 105.661C104.71 105.781 105.12 105.851 105.44 106.001C106.11 106.321 105.94 106.921 106.43 106.561C106.92 106.201 106.3 106.131 106.28 105.471C106.27 105.111 106.31 104.691 106.39 104.291C106.47 103.891 106.7 103.571 106.93 103.261C107.16 102.951 107.42 102.721 107.84 102.601C108.21 102.501 108.6 102.561 108.99 102.801C109.29 102.991 109.54 103.311 109.84 103.651C110.09 103.931 110.41 104.191 110.65 104.541C110.86 104.861 111.1 105.201 111.3 105.561C111.49 105.901 111.55 106.331 111.73 106.701C111.91 107.071 112.1 107.421 112.25 107.791C112.4 108.161 112.53 108.551 112.67 108.921C112.81 109.311 113.08 109.651 113.2 110.021C113.33 110.431 113.38 110.841 113.47 111.201C113.57 111.611 113.65 112.021 113.73 112.431C113.81 112.841 113.8 113.281 113.86 113.681C113.93 114.111 114.16 114.511 114.19 114.911C114.23 115.351 114.26 115.781 114.26 116.171C114.26 116.641 114.11 117.061 114.02 117.411C113.9 117.891 113.72 118.321 113.4 118.501C113.06 118.691 112.66 118.691 112.27 118.701C111.94 118.701 111.6 118.701 111.19 118.441C110.92 118.271 110.64 118.021 110.31 117.691C110.07 117.451 109.84 117.151 109.57 116.801C109.35 116.521 109.13 116.211 108.89 115.861C108.69 115.561 108.51 115.221 108.29 114.871C108.1 114.561 107.88 114.221 107.68 113.861C108.06 114.351 107.92 114.531 107.17 113.101C107.02 112.821 106.93 112.381 106.69 111.931L106.66 111.911Z" fill="#F8F8F8"/>
<path d="M106.66 111.911C106.16 111.651 106.22 112.071 105.53 112.191C105.21 112.241 104.84 112.331 104.41 112.381C104.06 112.421 103.68 112.491 103.28 112.511C102.92 112.531 102.58 112.511 102.18 112.511C101.69 112.881 101.91 112.911 101.52 113.511C101.32 113.821 101.14 114.211 100.86 114.541C100.6 114.841 100.32 115.171 100 115.421C99.68 115.671 99.26 115.791 98.88 115.931C98.5 116.071 98.12 116.151 97.7 116.121C97.33 116.091 96.92 116.041 96.51 115.831C96.1 115.621 95.79 115.351 95.51 115.051C95.23 114.751 95.05 114.361 94.89 113.961C94.73 113.561 94.52 113.191 94.49 112.761C94.46 112.361 94.65 111.941 94.73 111.511C94.81 111.111 94.94 110.731 95.11 110.331C95.27 109.961 95.43 109.581 95.68 109.221C95.91 108.891 96.21 108.601 96.51 108.281C96.79 107.991 97 107.601 97.35 107.331C97.67 107.081 98.06 106.901 98.43 106.671C98.8 106.441 99.17 106.291 99.53 106.131C99.93 105.951 100.3 105.831 100.68 105.721C101.1 105.601 101.47 105.391 101.85 105.351C102.28 105.301 102.69 105.431 103.08 105.461C103.52 105.491 103.91 105.561 104.27 105.661C104.71 105.781 105.12 105.851 105.44 106.001C106.11 106.321 105.94 106.921 106.43 106.561C106.92 106.201 106.3 106.131 106.28 105.471C106.27 105.111 106.31 104.691 106.39 104.291C106.47 103.891 106.7 103.571 106.93 103.261C107.16 102.951 107.42 102.721 107.84 102.601C108.21 102.501 108.6 102.561 108.99 102.801C109.29 102.991 109.54 103.311 109.84 103.651C110.09 103.931 110.41 104.191 110.65 104.541C110.86 104.861 111.1 105.201 111.3 105.561C111.49 105.901 111.55 106.331 111.73 106.701C111.91 107.071 112.1 107.421 112.25 107.791C112.4 108.161 112.53 108.551 112.67 108.921C112.81 109.311 113.08 109.651 113.2 110.021C113.33 110.431 113.38 110.841 113.47 111.201C113.57 111.611 113.65 112.021 113.73 112.431C113.81 112.841 113.8 113.281 113.86 113.681C113.93 114.111 114.16 114.511 114.19 114.911C114.23 115.351 114.26 115.781 114.26 116.171C114.26 116.641 114.11 117.061 114.02 117.411C113.9 117.891 113.72 118.321 113.4 118.501C113.06 118.691 112.66 118.691 112.27 118.701C111.94 118.701 111.6 118.701 111.19 118.441C110.92 118.271 110.64 118.021 110.31 117.691C110.07 117.451 109.84 117.151 109.57 116.801C109.35 116.521 109.13 116.211 108.89 115.861C108.69 115.561 108.51 115.221 108.29 114.871C108.1 114.561 107.88 114.221 107.68 113.861C108.06 114.351 107.92 114.531 107.17 113.101C107.02 112.821 106.93 112.381 106.69 111.931L106.66 111.911Z" stroke="#DCDBDB" stroke-width="2.57" stroke-linecap="round" stroke-linejoin="round"/>
</g>
<defs>
<clipPath id="clip0_1395_85223">
<rect width="312" height="200" fill="white"/>
</clipPath>
</defs>
</svg>
