<svg width="20" height="20" viewBox="0 0 20 20" fill="none" xmlns="http://www.w3.org/2000/svg">
<g clip-path="url(#clip0_796_32986)">
<path d="M7.68345 14.2969H12.3165C12.5677 14.2969 12.7372 14.1274 12.7372 13.8825V12.9157C12.7372 11.3965 14.9595 10.4422 14.9595 7.67369C14.9595 4.74191 12.9694 2.77692 10 2.77692C7.03683 2.77692 5.04674 4.74191 5.04674 7.67369C5.04674 10.4422 7.26911 11.3965 7.26911 12.9157V13.8825C7.26911 14.1274 7.43234 14.2969 7.68345 14.2969ZM8.34891 12.8969C8.34891 10.9947 6.13909 10.0405 6.13909 7.67369C6.13909 5.38853 7.68345 3.87556 10 3.87556C12.3165 3.87556 13.8609 5.38853 13.8609 7.67369C13.8609 10.0405 11.6511 10.9947 11.6511 12.8969V13.2171H8.34891V12.8969ZM7.87807 16.0421H12.1345C12.4735 16.0421 12.7497 15.7596 12.7497 15.4206C12.7497 15.0816 12.4735 14.8054 12.1345 14.8054H7.87807C7.53906 14.8054 7.26283 15.0816 7.26283 15.4206C7.26283 15.7596 7.53906 16.0421 7.87807 16.0421ZM10.0063 17.6116C10.9229 17.6116 11.5695 17.191 11.6385 16.5506H8.37402C8.43052 17.191 9.08343 17.6116 10.0063 17.6116Z" fill="#666666"/>
</g>
<defs>
<clipPath id="clip0_796_32986">
<rect width="20" height="20" fill="white"/>
</clipPath>
</defs>
</svg>
