<svg width="24" height="24" viewBox="0 0 24 24" fill="none" xmlns="http://www.w3.org/2000/svg">
<path d="M5.02807 11.5235L5.08397 11.5657C5.57906 11.9389 5.67735 12.6391 5.30413 13.1342L4.76839 13.8449C4.44936 14.2681 3.84715 14.3527 3.42393 14.0336L3.10452 13.7928C2.6813 13.4738 2.59677 12.8716 2.9158 12.4484L3.45154 11.7377C3.82476 11.2426 4.525 11.1443 5.02009 11.5175L5.02807 11.5235Z" stroke="#BCBCBC" stroke-width="1.25" stroke-linejoin="round"/>
<path d="M7.22534 12.4602L7.28123 12.5023C7.77632 12.8756 7.87461 13.5758 7.5014 14.0709L6.61051 15.2527C6.29147 15.6759 5.68926 15.7605 5.26604 15.4414L4.94663 15.2006C4.52341 14.8816 4.43888 14.2794 4.75792 13.8562L5.64881 12.6744C6.02202 12.1793 6.72226 12.081 7.21735 12.4542L7.22534 12.4602Z" stroke="#BCBCBC" stroke-width="1.25" stroke-linejoin="round"/>
<path d="M9.08593 13.8438L9.14183 13.8859C9.63692 14.2591 9.73521 14.9594 9.362 15.4545L8.4711 16.6363C8.15207 17.0595 7.54986 17.144 7.12664 16.825L6.80723 16.5842C6.384 16.2652 6.29948 15.663 6.61851 15.2398L7.5094 14.0579C7.88262 13.5628 8.58286 13.4646 9.07795 13.8378L9.08593 13.8438Z" stroke="#BCBCBC" stroke-width="1.25" stroke-linejoin="round"/>
<path d="M10.5676 15.7102L10.6235 15.7523C11.1186 16.1256 11.2169 16.8258 10.8437 17.3209L10.3079 18.0316C9.98891 18.4548 9.3867 18.5393 8.96348 18.2203L8.64407 17.9795C8.22085 17.6605 8.13632 17.0583 8.45535 16.635L8.99109 15.9244C9.36431 15.4293 10.0645 15.331 10.5596 15.7042L10.5676 15.7102Z" stroke="#BCBCBC" stroke-width="1.25" stroke-linejoin="round"/>
<path d="M10.1501 5.72L9.00012 5.75C8.89012 5.75 8.78012 5.78 8.67012 5.83L6.00012 7.18C5.75012 7.3 5.46012 7.29 5.23012 7.13L3.81012 6.17C3.47012 5.94 3.00012 6.02 2.76012 6.36L0.800122 9.17C0.570122 9.51 0.640122 9.97 0.970122 10.21L2.23012 11.13L2.87012 12.49" stroke="#BCBCBC" stroke-width="1.25" stroke-miterlimit="10"/>
<path d="M19.66 12.78L20.36 12.03C20.52 11.85 20.72 11.73 20.94 11.66L22.93 11.08C23.21 11 23.38 10.69 23.29 10.4L22.2 6.63001C22.12 6.35001 21.84 6.18001 21.56 6.25001L19.67 6.71001C19.43 6.77001 19.17 6.75001 18.94 6.66001L12.5 4.15001C12.02 3.96001 11.47 4.10001 11.13 4.49001L8.96999 6.95001C8.66999 7.29001 8.56999 7.76001 8.70999 8.20001L9.32999 10.19C9.50999 10.77 10.06 11.14 10.64 11.08C11.38 11.01 12.09 10.55 11.96 9.52001L11.66 8.20001L12.05 7.81001L19.65 12.79L19.66 12.78Z" stroke="#BCBCBC" stroke-width="1.25" stroke-miterlimit="10"/>
<path d="M18.3899 11.97L19.3099 12.56C19.7999 12.93 19.9799 13.79 19.6099 14.29L19.5299 14.4C19.1599 14.89 18.4599 14.99 17.9699 14.62L15.1899 12.88" stroke="#BCBCBC" stroke-width="1.25" stroke-linecap="round" stroke-linejoin="round"/>
<path d="M14.9299 12.72L17.5399 14.4C18.0299 14.77 18.2399 15.54 17.8699 16.03L17.7899 16.14C17.4199 16.63 16.5199 16.6 16.0299 16.23L13.4299 14.48" stroke="#BCBCBC" stroke-width="1.25" stroke-linecap="round" stroke-linejoin="round"/>
<path d="M13.4199 14.48L15.4999 15.9C15.9899 16.27 16.3199 16.95 15.9499 17.62L15.8699 17.73C15.4999 18.22 14.6499 18.44 14.1499 18.07L12.4099 16.85" stroke="#BCBCBC" stroke-width="1.25" stroke-linecap="round" stroke-linejoin="round"/>
<path d="M12.4001 16.85L13.5401 17.77C14.0301 18.14 14.1301 18.84 13.7601 19.33L13.6801 19.44C13.3101 19.93 12.6101 20.03 12.1201 19.66L10.0601 18.3" stroke="#BCBCBC" stroke-width="1.25" stroke-linecap="round" stroke-linejoin="round"/>
</svg>
