<svg width="20" height="20" viewBox="0 0 20 20" fill="none" xmlns="http://www.w3.org/2000/svg">
<g clip-path="url(#clip0_443_28703)">
<path d="M13.3991 10.0924C13.3929 9.87891 13.3175 9.69685 13.148 9.53362L8.25126 4.74358C8.11942 4.60547 7.94364 4.53641 7.74275 4.53641C7.33468 4.53641 7.01451 4.85031 7.01451 5.25837C7.01451 5.45926 7.09612 5.64132 7.23424 5.78572L11.6476 10.0924L7.23424 14.399C7.09612 14.5371 7.01451 14.7192 7.01451 14.9201C7.01451 15.3344 7.33468 15.6483 7.74275 15.6483C7.94364 15.6483 8.11942 15.5792 8.25126 15.4411L13.148 10.6511C13.3175 10.4879 13.3991 10.3058 13.3991 10.0924Z" fill="#666666"/>
</g>
<defs>
<clipPath id="clip0_443_28703">
<rect width="20" height="20" fill="white" transform="matrix(-1 0 0 1 20 0)"/>
</clipPath>
</defs>
</svg>
