<svg width="24" height="24" viewBox="0 0 24 24" fill="none" xmlns="http://www.w3.org/2000/svg">
<g clip-path="url(#clip0_3562_48001)">
<path d="M18.2699 11.94C18.2699 8.05 14.7499 5 10.7599 5.85C8.37989 6.36 6.47989 8.34 6.02989 10.76C5.52989 13.49 6.80989 15.95 8.87989 17.23C9.13989 17.39 9.31988 17.67 9.31988 17.99V19.83C9.31988 20.32 9.70988 20.71 10.1899 20.71H14.0099C14.4899 20.71 14.8799 20.32 14.8799 19.83V17.99C14.8799 17.68 15.0499 17.4 15.3199 17.23C17.0899 16.14 18.2699 14.19 18.2699 11.94Z" stroke="#BCBCBC" stroke-width="1.25" stroke-miterlimit="10"/>
<path d="M10.53 20.83H13.86V22.61C13.86 22.87 13.65 23.08 13.39 23.08H10.99C10.73 23.08 10.52 22.87 10.52 22.61V20.83H10.53Z" stroke="#BCBCBC" stroke-width="1.25" stroke-miterlimit="10"/>
<path d="M10.9 8.26001C10.9 8.26001 8.78004 8.57001 8.54004 10.82" stroke="#BCBCBC" stroke-width="1.25" stroke-miterlimit="10" stroke-linecap="round"/>
<path d="M11.97 0.929993V2.95999" stroke="#BCBCBC" stroke-width="1.25" stroke-miterlimit="10" stroke-linecap="round"/>
<path d="M21.03 9.91H23.06" stroke="#BCBCBC" stroke-width="1.25" stroke-miterlimit="10" stroke-linecap="round"/>
<path d="M1.12012 9.91H3.16012" stroke="#BCBCBC" stroke-width="1.25" stroke-miterlimit="10" stroke-linecap="round"/>
<path d="M19.8399 3.56L18.4099 5" stroke="#BCBCBC" stroke-width="1.25" stroke-miterlimit="10" stroke-linecap="round"/>
<path d="M3.89998 15.46L2.22998 16.63" stroke="#BCBCBC" stroke-width="1.25" stroke-miterlimit="10" stroke-linecap="round"/>
<path d="M21.95 16.63L20.29 15.46" stroke="#BCBCBC" stroke-width="1.25" stroke-miterlimit="10" stroke-linecap="round"/>
<path d="M4.54004 3.53L5.98004 4.97" stroke="#BCBCBC" stroke-width="1.25" stroke-miterlimit="10" stroke-linecap="round"/>
</g>
<defs>
<clipPath id="clip0_3562_48001">
<rect width="24" height="24" fill="white"/>
</clipPath>
</defs>
</svg>
