<svg width="80" height="80" viewBox="0 0 80 80" fill="none" xmlns="http://www.w3.org/2000/svg">
<g clip-path="url(#clip0_1282_60283)">
<path d="M80 0H0V80H80V0Z" fill="#ECF9CA"/>
<path d="M64.57 61.1C68.19 58 70.5 53.4 70.5 48.26C70.5 38.93 62.93 31.36 53.6 31.36C48.02 31.36 43.08 34.08 40 38.26C36.92 34.09 31.99 31.36 26.4 31.36C17.07 31.36 9.5 38.93 9.5 48.26C9.5 53.4 11.8 58 15.43 61.1C11.81 64.2 9.5 68.8 9.5 73.94C9.5 83.27 17.07 90.84 26.4 90.84C31.98 90.84 36.92 88.12 40 83.94C43.08 88.11 48.01 90.84 53.6 90.84C62.93 90.84 70.5 83.27 70.5 73.94C70.5 68.8 68.2 64.2 64.57 61.1Z" fill="#40A56B" stroke="#171717" stroke-width="1.5" stroke-miterlimit="10"/>
<path d="M39.48 66.78H40.63C41.04 66.78 41.39 67.06 41.47 67.45L43.96 79.79C44.03 80.21 43.9 80.64 43.6 80.95L41.07 83.55C40.53 84.1 39.63 84.12 39.08 83.58L36.44 81.03C36.12 80.72 35.97 80.27 36.05 79.83L38.65 67.45C38.73 67.06 39.08 66.78 39.49 66.78H39.48Z" fill="#F2F2F2" stroke="#171717" stroke-width="1.5" stroke-miterlimit="10"/>
<path d="M41.2301 67.27H38.9001C38.4401 67.27 38.0501 66.95 37.9501 66.51L37.4101 64.16C37.2701 63.55 37.7401 62.96 38.3601 62.96H41.7901C42.4201 62.96 42.8901 63.55 42.7401 64.16L42.1801 66.51C42.0801 66.95 41.6801 67.26 41.2301 67.26V67.27Z" fill="#F2F2F2" stroke="#171717" stroke-width="1.5" stroke-miterlimit="10"/>
<path d="M33.33 56.26C33.33 56.61 33.28 56.98 33.16 57.28C33.04 57.58 32.67 57.76 32.43 58C32.19 58.24 32.01 58.55 31.69 58.68C31.37 58.81 31.04 58.78 30.69 58.78C30.34 58.78 30.01 58.76 29.71 58.63C29.41 58.5 29.11 58.31 28.87 58.07C28.63 57.83 28.42 57.56 28.29 57.24C28.16 56.92 28.04 56.59 28.04 56.25C28.04 55.91 28.25 55.59 28.38 55.29C28.51 54.99 28.71 54.74 28.95 54.5C29.19 54.26 29.41 54.02 29.72 53.89C30.03 53.76 30.35 53.76 30.7 53.76C31.05 53.76 31.37 53.77 31.67 53.9C31.97 54.03 32.26 54.22 32.5 54.45C32.74 54.68 32.94 54.96 33.07 55.27C33.2 55.58 33.35 55.9 33.35 56.25L33.33 56.26Z" fill="#F9DBDE"/>
<path d="M33.33 56.26C33.33 56.61 33.28 56.98 33.16 57.28C33.04 57.58 32.67 57.76 32.43 58C32.19 58.24 32.01 58.55 31.69 58.68C31.37 58.81 31.04 58.78 30.69 58.78C30.34 58.78 30.01 58.76 29.71 58.63C29.41 58.5 29.11 58.31 28.87 58.07C28.63 57.83 28.42 57.56 28.29 57.24C28.16 56.92 28.04 56.59 28.04 56.25C28.04 55.91 28.25 55.59 28.38 55.29C28.51 54.99 28.71 54.74 28.95 54.5C29.19 54.26 29.41 54.02 29.72 53.89C30.03 53.76 30.35 53.76 30.7 53.76C31.05 53.76 31.37 53.77 31.67 53.9C31.97 54.03 32.26 54.22 32.5 54.45C32.74 54.68 32.94 54.96 33.07 55.27C33.2 55.58 33.35 55.9 33.35 56.25L33.33 56.26Z" stroke="#F9DBDE" stroke-width="0.77" stroke-miterlimit="10"/>
<path d="M51.94 56.07C51.94 56.42 51.86 56.77 51.73 57.08C51.6 57.39 51.41 57.71 51.17 57.94C50.93 58.17 50.61 58.35 50.3 58.48C49.99 58.61 49.65 58.58 49.3 58.58C48.95 58.58 48.65 58.51 48.34 58.38C48.03 58.25 47.65 58.19 47.42 57.95C47.19 57.71 47.02 57.38 46.89 57.07C46.76 56.76 46.76 56.42 46.76 56.07C46.76 55.72 46.79 55.38 46.91 55.08C47.03 54.78 47.26 54.5 47.5 54.27C47.74 54.04 48.04 53.91 48.35 53.78C48.66 53.65 48.95 53.6 49.3 53.6C49.65 53.6 49.99 53.54 50.3 53.67C50.61 53.8 50.9 54 51.14 54.24C51.38 54.48 51.59 54.76 51.72 55.08C51.85 55.4 51.94 55.73 51.94 56.08V56.07Z" fill="#F9DBDE"/>
<path d="M51.94 56.07C51.94 56.42 51.86 56.77 51.73 57.08C51.6 57.39 51.41 57.71 51.17 57.94C50.93 58.17 50.61 58.35 50.3 58.48C49.99 58.61 49.65 58.58 49.3 58.58C48.95 58.58 48.65 58.51 48.34 58.38C48.03 58.25 47.65 58.19 47.42 57.95C47.19 57.71 47.02 57.38 46.89 57.07C46.76 56.76 46.76 56.42 46.76 56.07C46.76 55.72 46.79 55.38 46.91 55.08C47.03 54.78 47.26 54.5 47.5 54.27C47.74 54.04 48.04 53.91 48.35 53.78C48.66 53.65 48.95 53.6 49.3 53.6C49.65 53.6 49.99 53.54 50.3 53.67C50.61 53.8 50.9 54 51.14 54.24C51.38 54.48 51.59 54.76 51.72 55.08C51.85 55.4 51.94 55.73 51.94 56.08V56.07Z" stroke="#F9DBDE" stroke-width="0.77" stroke-miterlimit="10"/>
<path d="M36.6501 55.26C37.2465 55.26 37.7301 54.5168 37.7301 53.6C37.7301 52.6832 37.2465 51.94 36.6501 51.94C36.0536 51.94 35.5701 52.6832 35.5701 53.6C35.5701 54.5168 36.0536 55.26 36.6501 55.26Z" fill="#171717"/>
<path d="M43.35 55.26C43.9465 55.26 44.43 54.5168 44.43 53.6C44.43 52.6832 43.9465 51.94 43.35 51.94C42.7535 51.94 42.27 52.6832 42.27 53.6C42.27 54.5168 42.7535 55.26 43.35 55.26Z" fill="#171717"/>
<path d="M37.3101 56.72C37.3101 56.72 38.1501 58.54 40.1201 58.54C42.0901 58.54 42.7001 56.72 42.7001 56.72" stroke="#171717" stroke-width="1.5" stroke-miterlimit="10" stroke-linecap="round"/>
<path d="M20.3 41.93L26.2901 47.68" stroke="#171717" stroke-width="1.5" stroke-miterlimit="10" stroke-linecap="round"/>
<path d="M59.7 41.93L53.71 47.68" stroke="#171717" stroke-width="1.5" stroke-miterlimit="10" stroke-linecap="round"/>
<path d="M19.75 80.14L25.73 74.38" stroke="#171717" stroke-width="1.5" stroke-miterlimit="10" stroke-linecap="round"/>
<path d="M59.1399 80.14L53.1599 74.38" stroke="#171717" stroke-width="1.5" stroke-miterlimit="10" stroke-linecap="round"/>
</g>
<defs>
<clipPath id="clip0_1282_60283">
<rect width="80" height="80" rx="40" fill="white"/>
</clipPath>
</defs>
</svg>
