<svg width="24" height="24" viewBox="0 0 24 24" fill="none" xmlns="http://www.w3.org/2000/svg">
<path d="M1 4.44H23.01V16.52C23.01 18.31 21.55 19.77 19.76 19.77H4.25C2.46 19.77 1 18.31 1 16.52V4.44Z" fill="#5FD093"/>
<path d="M23.01 4.44H1V7.38H23.01V4.44Z" fill="#1EAC61"/>
<path d="M6.84996 13.34C7.89378 13.34 8.73996 12.4938 8.73996 11.45C8.73996 10.4062 7.89378 9.56 6.84996 9.56C5.80614 9.56 4.95996 10.4062 4.95996 11.45C4.95996 12.4938 5.80614 13.34 6.84996 13.34Z" fill="#0D8443"/>
<path d="M6.85007 13.07C4.76007 13.07 3.07007 14.77 3.07007 16.86H10.6401C10.6401 14.77 8.95007 13.07 6.86007 13.07H6.85007Z" fill="#0D8443"/>
<path d="M20.4001 10.07H12.7601C12.5337 10.07 12.3501 10.2536 12.3501 10.48V10.66C12.3501 10.8864 12.5337 11.07 12.7601 11.07H20.4001C20.6265 11.07 20.8101 10.8864 20.8101 10.66V10.48C20.8101 10.2536 20.6265 10.07 20.4001 10.07Z" fill="#1EAC61"/>
<path d="M20.4001 12.57H12.7601C12.5337 12.57 12.3501 12.7536 12.3501 12.98V13.16C12.3501 13.3864 12.5337 13.57 12.7601 13.57H20.4001C20.6265 13.57 20.8101 13.3864 20.8101 13.16V12.98C20.8101 12.7536 20.6265 12.57 20.4001 12.57Z" fill="#1EAC61"/>
<path d="M20.4001 15.07H12.7601C12.5337 15.07 12.3501 15.2536 12.3501 15.48V15.66C12.3501 15.8864 12.5337 16.07 12.7601 16.07H20.4001C20.6265 16.07 20.8101 15.8864 20.8101 15.66V15.48C20.8101 15.2536 20.6265 15.07 20.4001 15.07Z" fill="#1EAC61"/>
</svg>
