<?xml version="1.0" encoding="UTF-8"?>
<svg xmlns="http://www.w3.org/2000/svg" version="1.1" viewBox="0 0 375 812">
  <defs>
    <style>
      .cls-1 {
        font-family: RecipekoreaM, Recipekorea;
        font-size: 12px;
      }

      .cls-1, .cls-2, .cls-3 {
        fill: #fff;
      }

      .cls-4 {
        fill: #1ea65e;
      }

      .cls-4, .cls-2, .cls-3 {
        stroke-width: 0px;
      }

      .cls-2 {
        fill-rule: evenodd;
      }
    </style>
  </defs>
  <g id="background">
    <rect class="cls-4" width="375" height="812"/>
  </g>
  <g id="logo_typo">
    <g>
      <path class="cls-3" d="M122.47,369.49v5.77h11.44v5.85h-11.44v7.11c0,2.25,1.04,2.95,2.47,2.95s2.47-.7,2.47-2.95v-.65h6.5v.65c0,6.11-3.64,9.01-8.97,9.01s-8.97-2.91-8.97-9.01v-18.73"/>
      <path class="cls-3" d="M116.02,375.22h-3.61v5.88h3.61v-5.88Z"/>
      <path class="cls-3" d="M136.98,386.24c0-6.36,4.66-11.02,11.27-11.02s11.15,4.66,11.15,11.02v1.78h-15.81c.51,2.46,2.37,3.56,4.66,3.56,1.82,0,3.18-.38,3.98-1.52h6.57c-1.35,4.32-5.34,7.2-10.56,7.2-6.61,0-11.27-4.66-11.27-11.02h0ZM152.87,384c-.72-2.16-2.41-3.09-4.62-3.09s-3.9.98-4.54,3.09h9.16Z"/>
      <path class="cls-3" d="M180.45,386.14c0-7.18,4.24-10.86,10.56-10.86s10.56,3.64,10.56,10.86v11.07h-6.49v-11.07c0-3.37-1.64-4.8-4.07-4.8s-4.07,1.43-4.07,4.8v11.07h-6.49v-11.07Z"/>
      <path class="cls-3" d="M216.37,386.14c0-7.18,4.24-10.86,10.56-10.86s10.56,3.64,10.56,10.86v11.07h-6.49v-11.07c0-3.37-1.64-4.8-4.07-4.8s-4.07,1.43-4.07,4.8v11.07h-6.49v-11.07Z"/>
      <path class="cls-2" d="M240.5,398.98c1.29,5.18,5.48,7.53,10.87,7.53h0c6.12,0,11.21-3.13,11.21-11.21v-8.73c0-6.93-4.62-11.34-11.3-11.34s-11.38,4.71-11.38,11.13c0,7.83,5.65,10.78,10.14,10.78,2.65,0,4.79-.98,6.12-2.86v1.24c0,4.11-1.71,5.44-4.83,5.44-2.14,0-3.68-.64-4.32-1.97h-6.51ZM251.29,381.21c2.91,0,4.88,2.1,4.88,5.14s-1.97,4.79-4.88,4.79-4.88-1.76-4.88-4.79,1.97-5.14,4.88-5.14Z"/>
      <path class="cls-3" d="M212.29,375.22h-6.68v21.88h6.68v-21.88Z"/>
      <path class="cls-3" d="M173.1,375.29c-6.31,0-10.55,3.68-10.55,10.85v11.07h6.48v-11.07c0-3.37,1.64-4.8,4.06-4.8v-6.03,6h4.66v-6.02h-4.66Z"/>
    </g>
  </g>
  <g id="slogan">
    <g>
      <path class="cls-3" d="M80.13,342.39h1.15v7.03c.71,0,1.41-.04,2.1-.1.7-.06,1.42-.17,2.17-.32l.13,1.02c-.86.16-1.67.27-2.43.33-.76.06-1.53.1-2.31.1h-.82v-8.06ZM90.59,353.82h-1.12v-6.74h-1.88v6.06h-1.09v-12.05h1.09v5.01h1.88v-5.3h1.12v13.02Z"/>
      <path class="cls-3" d="M99.38,347.23c.74-1.14,1.17-2.41,1.29-3.8h-3.89v-.96h5.03c0,.68-.06,1.34-.18,1.97h1.98v-3.27h1.11v12.01h-1.11v-4.52h-2.41v-.95h2.41v-2.31h-2.2c-.33,1.14-.86,2.18-1.61,3.13-.74.95-1.72,1.78-2.91,2.49l-.69-.83c1.38-.82,2.45-1.81,3.19-2.95ZM107.35,353.82h-1.1v-13.02h1.1v13.02Z"/>
      <path class="cls-3" d="M112.94,348.13v-.91c-.51-.04-.96-.15-1.34-.32s-.67-.39-.88-.66c-.2-.27-.3-.58-.3-.93,0-.4.12-.74.38-1.03.26-.29.62-.52,1.09-.67s1.02-.23,1.64-.23c.62,0,1.16.07,1.63.23s.83.38,1.1.68.39.64.4,1.03c0,.35-.11.66-.32.93-.21.27-.51.49-.89.65-.38.17-.83.27-1.35.32v.86c1.38-.07,2.58-.17,3.58-.31l.08.82c-1.27.21-2.59.34-3.96.41-1.37.07-2.83.1-4.39.1l-.18-.92c1.48,0,2.72-.02,3.71-.05ZM117.36,342.87h-7.69v-.88h3.26v-1.27h1.15v1.27h3.27v.88ZM111.12,350.12h8.79v3.7h-1.15v-2.78h-7.63v-.92ZM111.76,345.9c.17.17.4.3.71.39.3.09.66.14,1.06.13.4,0,.75-.04,1.05-.13.3-.09.54-.22.71-.39.17-.17.25-.36.25-.59s-.08-.43-.25-.6c-.17-.17-.4-.3-.71-.39s-.65-.14-1.05-.13c-.4,0-.76.04-1.06.13-.31.09-.54.22-.71.39-.17.17-.25.37-.25.61s.08.42.25.59ZM118.76,340.83h1.15v8.68h-1.15v-8.68Z"/>
      <path class="cls-3" d="M122.65,344.02c.23-.68.55-1.21.97-1.57.42-.37.91-.55,1.47-.55.52,0,.99.16,1.4.48.41.32.73.78.97,1.38.24.6.39,1.3.43,2.12h1.68v-4.8h1.11v12.08h-1.11v-6.33h-1.68c-.04.84-.18,1.57-.42,2.19-.24.62-.57,1.1-.98,1.43-.41.33-.88.5-1.41.49-.56,0-1.05-.18-1.47-.55-.42-.37-.74-.9-.97-1.58s-.34-1.48-.34-2.4.12-1.71.34-2.39ZM123.59,348.24c.14.52.34.92.6,1.2.26.28.56.42.91.41.35,0,.66-.13.92-.41.26-.28.46-.68.61-1.2s.21-1.13.21-1.83-.07-1.31-.21-1.82-.34-.92-.61-1.2c-.26-.28-.57-.42-.92-.42s-.65.14-.91.42c-.26.28-.46.68-.6,1.2s-.21,1.13-.2,1.82c0,.7.06,1.31.2,1.83ZM133.3,353.82h-1.11v-13.02h1.11v13.02Z"/>
      <path class="cls-3" d="M139.37,341.84h3.25v.94h-2.15v3.85c.88-.03,1.67-.13,2.38-.3l.12.98c-.54.11-1.04.19-1.49.22-.45.03-.97.05-1.54.06h-.57v-5.76ZM140.64,349.21h8.65v4.63h-1.15v-3.71h-7.5v-.92ZM143.41,341.84h3.46v.94h-2.35v3.85c.55,0,1.03-.03,1.47-.08.43-.04.88-.12,1.34-.22l.13.96c-.55.12-1.06.2-1.55.24-.49.04-1.11.06-1.86.06h-.64v-5.76ZM149.29,344.29h1.73v.98h-1.73v3.33h-1.15v-7.8h1.15v3.49Z"/>
      <path class="cls-3" d="M162.18,347.25h-6.02v-5.56h6.02v5.56ZM158.94,352.28c.62-.29,1.13-.63,1.52-1.04s.61-.84.66-1.3h-3.69v-.93h8.59v.93h-3.69c.04.45.26.88.66,1.29.4.41.91.76,1.54,1.05.63.29,1.3.49,2.01.61l-.43.9c-.64-.11-1.25-.29-1.82-.53-.57-.24-1.08-.53-1.52-.88-.44-.35-.79-.74-1.03-1.17-.24.43-.58.82-1.02,1.17-.44.35-.95.64-1.52.88-.57.24-1.18.41-1.82.51l-.43-.88c.72-.11,1.39-.31,2.02-.6ZM161.06,346.32v-3.7h-3.78v3.7h3.78ZM164.64,340.8h1.15v3.13h1.96v.97h-1.96v3.34h-1.15v-7.44Z"/>
      <path class="cls-3" d="M168.55,347.45h11.92v.93h-11.92v-.93ZM170.11,349.71h1.14v2.84h7.93v.95h-9.07v-3.79ZM179.1,345.68h-8.91v-4.4h1.14v3.47h7.77v.93Z"/>
      <path class="cls-3" d="M185.78,342.4h4.88v.94h-3.73v6.28c.95,0,1.77-.03,2.44-.08.67-.05,1.35-.15,2.04-.29l.1.96c-.73.16-1.45.26-2.16.31-.71.05-1.62.08-2.73.09h-.84v-8.2ZM196.43,353.82h-1.1v-6.84h-1.91v6.15h-1.07v-12.05h1.07v4.94h1.91v-5.23h1.1v13.02Z"/>
      <path class="cls-3" d="M206.06,343.13h-7.76v-.93h3.31v-1.46h1.14v1.46h3.3v.93ZM199.44,344.93c.26-.35.63-.63,1.1-.82s1.02-.29,1.65-.29c.62,0,1.16.1,1.63.29.47.19.84.47,1.1.82s.39.77.4,1.24c0,.47-.14.88-.4,1.23s-.63.63-1.1.82c-.47.19-1.02.29-1.63.29s-1.17-.1-1.65-.29-.84-.47-1.1-.82-.39-.76-.39-1.23c0-.47.12-.88.39-1.24ZM199.93,349.66h8.53v4.16h-1.15v-3.22h-7.38v-.94ZM200.4,346.92c.17.22.41.38.72.5.31.12.67.18,1.07.18s.75-.06,1.06-.18c.31-.12.55-.28.72-.5s.26-.47.26-.75c0-.29-.09-.54-.26-.76s-.41-.39-.72-.51c-.31-.12-.66-.18-1.06-.19-.41,0-.77.07-1.07.19-.31.12-.55.29-.72.51-.17.22-.25.47-.25.76,0,.29.08.54.25.75ZM207.31,340.8h1.15v3.62h1.96v.96h-1.96v3.55h-1.15v-8.13Z"/>
      <path class="cls-3" d="M215.45,344.81c.22.46.53.88.93,1.25.41.37.88.65,1.43.86l-.61.89c-.61-.23-1.14-.57-1.59-1.02-.45-.44-.79-.95-1.03-1.53-.25.65-.6,1.22-1.06,1.73-.46.51-1.01.9-1.63,1.18l-.63-.89c.56-.25,1.04-.58,1.46-1,.42-.42.74-.89.97-1.39s.34-1,.34-1.49v-1.77h1.11v1.77c0,.48.11.96.32,1.42ZM214.15,350.22c.35-.35.85-.62,1.51-.8.66-.18,1.44-.28,2.34-.28s1.67.09,2.33.28,1.16.45,1.51.8c.35.35.53.77.53,1.25s-.18.9-.53,1.25c-.35.35-.86.61-1.52.8-.66.18-1.43.28-2.33.28s-1.68-.09-2.34-.28c-.66-.19-1.16-.45-1.51-.8-.35-.35-.52-.76-.52-1.25,0-.49.17-.9.52-1.25ZM215.15,352.23c.26.22.63.38,1.12.49.49.11,1.06.17,1.72.16.66,0,1.23-.05,1.71-.16.49-.11.86-.28,1.12-.49s.4-.47.4-.76c0-.3-.14-.55-.4-.77s-.64-.38-1.12-.5-1.06-.17-1.71-.17-1.24.06-1.72.17c-.49.12-.86.28-1.12.5-.26.22-.39.47-.39.77,0,.29.12.55.39.76ZM218.39,341.06h1.08v3.25h1.74v-3.5h1.09v8.04h-1.09v-3.58h-1.74v3.17h-1.08v-7.38Z"/>
      <path class="cls-3" d="M228.72,343.26c.3-.49.71-.86,1.23-1.13s1.1-.41,1.75-.41,1.22.14,1.74.41.93.65,1.22,1.13.44,1.04.44,1.65-.15,1.18-.44,1.66c-.29.49-.7.87-1.22,1.14s-1.1.4-1.74.4c-.64,0-1.22-.13-1.75-.4s-.93-.65-1.23-1.14c-.3-.49-.45-1.04-.45-1.66s.15-1.16.45-1.65ZM229.7,346.05c.2.33.47.59.82.78.35.19.74.28,1.18.28s.82-.09,1.17-.28.62-.45.82-.78c.2-.33.3-.71.3-1.14s-.1-.79-.3-1.12c-.2-.33-.47-.59-.82-.78-.35-.19-.74-.28-1.17-.28s-.83.09-1.18.28c-.35.19-.62.45-.82.78-.2.33-.3.71-.29,1.13,0,.42.09.8.29,1.14ZM230.31,349.36h1.15v3.22h7.67v.95h-8.82v-4.17ZM238.73,350.33h-1.15v-9.52h1.15v9.52Z"/>
      <path class="cls-3" d="M241.62,341.83h5.86v.94h-4.72v1.81h4.36v.93h-4.36v1.94c1.29,0,2.32-.03,3.09-.07.77-.04,1.55-.14,2.33-.28l.11.94c-.83.15-1.65.25-2.47.3-.82.05-1.9.08-3.25.08h-.95v-6.59ZM243.35,349.65h1.16v2.93h7.58v.95h-8.74v-3.88ZM251.74,350.48h-1.15v-5.06h-2.56v-.94h2.56v-3.67h1.15v9.67Z"/>
      <path class="cls-3" d="M254.76,349.99c1.45,0,2.83-.03,4.13-.09s2.53-.17,3.69-.35l.09.85c-.92.17-1.87.3-2.86.38-.99.08-1.91.13-2.77.16-.86.02-1.83.03-2.9.03l-.16-.98h.77ZM259.98,342.14c.53.26.95.62,1.25,1.08.3.46.45.99.45,1.59,0,.6-.15,1.13-.45,1.59-.3.46-.71.82-1.25,1.08-.53.26-1.14.39-1.81.39s-1.28-.13-1.82-.39-.95-.62-1.25-1.08-.45-.99-.44-1.59c0-.59.14-1.12.44-1.59s.72-.83,1.25-1.08,1.14-.39,1.82-.39,1.28.13,1.81.39ZM256.09,345.87c.2.31.49.56.85.73.36.17.77.26,1.23.26s.86-.09,1.22-.26c.36-.17.64-.42.85-.73.21-.31.31-.67.31-1.06s-.1-.75-.31-1.06c-.21-.31-.49-.55-.85-.73-.36-.17-.77-.26-1.22-.26s-.87.09-1.23.26c-.36.17-.65.42-.85.73-.2.31-.3.67-.3,1.06,0,.4.1.75.3,1.06ZM263.44,340.8h1.15v13.04h-1.15v-13.04Z"/>
      <path class="cls-3" d="M275.74,346.6c.32.76.75,1.43,1.29,2.02.54.59,1.13,1.03,1.76,1.32l-.7.91c-.49-.24-.96-.57-1.39-.98s-.83-.88-1.17-1.42c-.34-.54-.62-1.11-.82-1.73-.2.65-.47,1.26-.81,1.83-.34.57-.73,1.08-1.18,1.52s-.92.78-1.42,1.04l-.72-.96c.64-.3,1.23-.75,1.78-1.36s.97-1.31,1.29-2.1.48-1.58.48-2.39v-2.37h1.15v2.37c0,.77.15,1.53.47,2.29ZM280.22,340.8h1.15v13.04h-1.15v-13.04Z"/>
      <path class="cls-3" d="M288.42,344.86c.27.53.64.99,1.12,1.4s1.04.72,1.68.94l-.59.89c-.74-.26-1.38-.64-1.93-1.15s-.96-1.1-1.24-1.77c-.28.74-.71,1.38-1.28,1.93-.57.55-1.24.97-2.01,1.25l-.62-.89c.65-.23,1.22-.56,1.73-.99.5-.43.89-.92,1.17-1.49.28-.56.42-1.15.42-1.76v-.56h-2.97v-.94h7.03v.94h-2.92v.56c0,.57.13,1.12.4,1.64ZM285.27,349.34h8.53v4.49h-1.15v-3.54h-7.38v-.94ZM292.64,340.8h1.15v3.44h1.96v.98h-1.96v3.42h-1.15v-7.84Z"/>
    </g>
  </g>
  <g id="team">
    <text class="cls-1" transform="translate(158.1 773.51)"><tspan x="0" y="0">터닝포인트</tspan></text>
  </g>
</svg>