<?xml version="1.0" encoding="UTF-8"?>
<svg id="_레이어_1" data-name="레이어 1" xmlns="http://www.w3.org/2000/svg" xmlns:xlink="http://www.w3.org/1999/xlink" version="1.1" viewBox="0 0 334 383">
  <defs>
    <style>
      .cls-1 {
        fill: #006230;
      }

      .cls-1, .cls-2, .cls-3, .cls-4, .cls-5, .cls-6, .cls-7, .cls-8, .cls-9, .cls-10, .cls-11 {
        stroke-width: 0px;
      }

      .cls-2 {
        fill-rule: evenodd;
      }

      .cls-2, .cls-11 {
        fill: #25a25f;
      }

      .cls-3 {
        fill: url(#_무제_그라디언트_136);
      }

      .cls-4 {
        fill: url(#_무제_그라디언트_14);
      }

      .cls-5 {
        fill: url(#_무제_그라디언트_13);
      }

      .cls-6 {
        fill: url(#_무제_그라디언트_33);
      }

      .cls-7 {
        fill: #e2ede6;
      }

      .cls-8 {
        fill: url(#_무제_그라디언트_7);
      }

      .cls-9 {
        fill: url(#_무제_그라디언트_33-2);
      }

      .cls-10 {
        fill: url(#_무제_그라디언트_13-2);
      }
    </style>
    <linearGradient id="_무제_그라디언트_14" data-name="무제 그라디언트 14" x1="254.06" y1="259.56" x2="315.46" y2="259.56" gradientUnits="userSpaceOnUse">
      <stop offset=".04" stop-color="#064c23"/>
      <stop offset=".1" stop-color="#075528"/>
      <stop offset=".3" stop-color="#0b6e35"/>
      <stop offset=".51" stop-color="#0e803f"/>
      <stop offset=".74" stop-color="#108a45"/>
      <stop offset="1" stop-color="#118e47"/>
    </linearGradient>
    <linearGradient id="_무제_그라디언트_13" data-name="무제 그라디언트 13" x1="114.04" y1="266.75" x2="288.22" y2="266.75" gradientUnits="userSpaceOnUse">
      <stop offset="0" stop-color="#d8eae0"/>
      <stop offset=".27" stop-color="#d4e8dd"/>
      <stop offset=".53" stop-color="#c8e2d4"/>
      <stop offset=".79" stop-color="#b4d8c6"/>
      <stop offset="1" stop-color="#9fceb7"/>
    </linearGradient>
    <linearGradient id="_무제_그라디언트_7" data-name="무제 그라디언트 7" x1="117.78" y1="308.3" x2="244.74" y2="308.3" gradientUnits="userSpaceOnUse">
      <stop offset="0" stop-color="#065626"/>
      <stop offset=".14" stop-color="#08632d"/>
      <stop offset=".46" stop-color="#0d7a3b"/>
      <stop offset=".75" stop-color="#108944"/>
      <stop offset="1" stop-color="#118e47"/>
    </linearGradient>
    <linearGradient id="_무제_그라디언트_13-2" data-name="무제 그라디언트 13" x1="27.73" y1="318.13" x2="167.96" y2="318.13" xlink:href="#_무제_그라디언트_13"/>
    <linearGradient id="_무제_그라디언트_136" data-name="무제 그라디언트 136" x1="136.74" y1="210.81" x2="288.22" y2="210.81" gradientUnits="userSpaceOnUse">
      <stop offset="0" stop-color="#86d1a5"/>
      <stop offset=".23" stop-color="#51bf7d"/>
      <stop offset="1" stop-color="#148441"/>
    </linearGradient>
    <linearGradient id="_무제_그라디언트_33" data-name="무제 그라디언트 33" x1="44.67" y1="211.69" x2="85.14" y2="252.15" gradientUnits="userSpaceOnUse">
      <stop offset="0" stop-color="#86d1a5"/>
      <stop offset="1" stop-color="#47b272"/>
    </linearGradient>
    <linearGradient id="_무제_그라디언트_33-2" data-name="무제 그라디언트 33" x1="93.47" y1="154.91" x2="133.18" y2="194.62" xlink:href="#_무제_그라디언트_33"/>
  </defs>
  <g>
    <path class="cls-11" d="M102.93.83v5.77h11.44v5.85h-11.44v7.11c0,2.25,1.04,2.95,2.47,2.95s2.47-.7,2.47-2.95v-.65h6.5v.65c0,6.11-3.64,9.01-8.97,9.01s-8.97-2.91-8.97-9.01V.83"/>
    <path class="cls-11" d="M96.48,6.56h-3.61v5.88h3.61v-5.88Z"/>
    <path class="cls-11" d="M117.43,17.58c0-6.36,4.66-11.02,11.27-11.02s11.15,4.66,11.15,11.02v1.78h-15.81c.51,2.46,2.37,3.56,4.66,3.56,1.82,0,3.18-.38,3.98-1.52h6.57c-1.35,4.32-5.34,7.2-10.56,7.2-6.61,0-11.27-4.66-11.27-11.02h0ZM133.33,15.34c-.72-2.16-2.41-3.09-4.62-3.09s-3.9.98-4.54,3.09h9.16Z"/>
    <path class="cls-11" d="M160.91,17.47c0-7.18,4.24-10.86,10.56-10.86s10.56,3.64,10.56,10.86v11.07h-6.49v-11.07c0-3.37-1.64-4.8-4.07-4.8s-4.07,1.43-4.07,4.8v11.07h-6.49v-11.07Z"/>
    <path class="cls-11" d="M196.83,17.47c0-7.18,4.24-10.86,10.56-10.86s10.56,3.64,10.56,10.86v11.07h-6.49v-11.07c0-3.37-1.64-4.8-4.07-4.8s-4.07,1.43-4.07,4.8v11.07h-6.49v-11.07Z"/>
    <path class="cls-2" d="M220.96,30.31c1.29,5.18,5.48,7.53,10.87,7.53h0c6.12,0,11.21-3.13,11.21-11.21v-8.73c0-6.93-4.62-11.34-11.3-11.34s-11.38,4.71-11.38,11.13c0,7.83,5.65,10.78,10.14,10.78,2.65,0,4.79-.98,6.12-2.86v1.24c0,4.11-1.71,5.44-4.83,5.44-2.14,0-3.68-.64-4.32-1.97h-6.51ZM231.75,12.55c2.91,0,4.88,2.1,4.88,5.14s-1.97,4.79-4.88,4.79-4.88-1.76-4.88-4.79,1.97-5.14,4.88-5.14Z"/>
    <path class="cls-11" d="M192.74,6.56h-6.68v21.88h6.68V6.56Z"/>
    <path class="cls-11" d="M153.56,6.62c-6.31,0-10.55,3.68-10.55,10.85v11.07h6.48v-11.07c0-3.37,1.64-4.8,4.06-4.8v-6.03,6h4.66v-6.02h-4.66Z"/>
  </g>
  <g>
    <path class="cls-11" d="M60.59,48.07h1.15v7.03c.7,0,1.41-.04,2.1-.1.7-.06,1.42-.17,2.17-.32l.13,1.02c-.86.16-1.67.27-2.43.33-.76.06-1.53.1-2.31.1h-.82v-8.06ZM71.05,59.51h-1.12v-6.74h-1.89v6.06h-1.09v-12.05h1.09v5.01h1.89v-5.3h1.12v13.02Z"/>
    <path class="cls-11" d="M79.84,52.91c.74-1.14,1.17-2.41,1.29-3.8h-3.9v-.96h5.03c0,.68-.06,1.34-.18,1.97h1.98v-3.27h1.11v12.01h-1.11v-4.52h-2.41v-.95h2.41v-2.31h-2.2c-.33,1.14-.86,2.18-1.61,3.13-.74.95-1.72,1.78-2.91,2.49l-.69-.83c1.38-.82,2.45-1.81,3.19-2.95ZM87.81,59.51h-1.1v-13.02h1.1v13.02Z"/>
    <path class="cls-11" d="M93.39,53.82v-.91c-.51-.04-.96-.15-1.34-.32s-.67-.39-.88-.66c-.2-.27-.3-.58-.3-.93,0-.4.12-.74.38-1.03.26-.29.62-.52,1.09-.67.47-.16,1.02-.23,1.64-.23.61,0,1.16.07,1.63.23s.83.38,1.1.68.39.64.4,1.03c0,.35-.11.66-.32.93-.21.27-.51.49-.89.65-.38.17-.83.27-1.35.32v.86c1.38-.07,2.58-.17,3.58-.31l.08.82c-1.27.21-2.59.34-3.96.41s-2.83.1-4.39.1l-.18-.92c1.48,0,2.72-.02,3.71-.05ZM97.82,48.56h-7.69v-.88h3.26v-1.27h1.15v1.27h3.27v.88ZM91.58,55.81h8.78v3.7h-1.15v-2.78h-7.63v-.92ZM92.21,51.59c.17.17.4.3.71.39.3.09.66.14,1.06.13.4,0,.75-.04,1.05-.13.3-.09.54-.22.71-.39.17-.17.25-.36.25-.59s-.08-.43-.25-.6-.4-.3-.71-.39c-.3-.09-.65-.14-1.05-.13-.4,0-.76.04-1.06.13-.31.09-.54.22-.71.39-.17.17-.25.37-.25.61s.08.42.25.59ZM99.21,46.52h1.15v8.68h-1.15v-8.68Z"/>
    <path class="cls-11" d="M103.11,49.71c.23-.68.55-1.21.97-1.57.42-.37.91-.55,1.47-.55.52,0,.99.16,1.4.48.41.32.73.78.97,1.38s.39,1.3.44,2.12h1.68v-4.8h1.11v12.08h-1.11v-6.33h-1.68c-.04.84-.18,1.57-.42,2.19-.24.62-.57,1.1-.98,1.43-.41.33-.88.5-1.41.49-.56,0-1.05-.18-1.47-.55-.42-.37-.74-.9-.97-1.58-.23-.68-.34-1.48-.34-2.4s.11-1.71.34-2.39ZM104.05,53.93c.14.52.34.92.6,1.2.26.28.56.42.91.41.35,0,.66-.13.92-.41.26-.28.46-.68.61-1.2s.21-1.13.21-1.83-.07-1.31-.21-1.82-.34-.92-.61-1.2c-.26-.28-.57-.42-.92-.42s-.65.14-.91.42c-.26.28-.46.68-.6,1.2-.14.52-.21,1.13-.2,1.82,0,.7.06,1.31.2,1.83ZM113.76,59.51h-1.11v-13.02h1.11v13.02Z"/>
    <path class="cls-11" d="M119.83,47.52h3.25v.94h-2.15v3.85c.88-.03,1.67-.13,2.38-.3l.12.98c-.54.11-1.04.19-1.49.22-.45.03-.97.05-1.54.06h-.57v-5.76ZM121.09,54.9h8.65v4.63h-1.15v-3.71h-7.5v-.92ZM123.87,47.52h3.46v.94h-2.35v3.85c.55,0,1.03-.03,1.47-.08.43-.04.88-.12,1.34-.22l.13.96c-.55.12-1.06.2-1.55.24-.48.04-1.11.06-1.86.06h-.64v-5.76ZM129.74,49.98h1.73v.98h-1.73v3.33h-1.15v-7.8h1.15v3.49Z"/>
    <path class="cls-11" d="M142.64,52.94h-6.02v-5.56h6.02v5.56ZM139.4,57.97c.62-.29,1.13-.63,1.52-1.04.39-.41.61-.84.66-1.3h-3.69v-.93h8.59v.93h-3.69c.04.45.26.88.66,1.29.4.41.91.76,1.54,1.05s1.3.49,2.01.61l-.44.9c-.64-.11-1.24-.29-1.82-.53-.57-.24-1.08-.53-1.52-.88-.44-.35-.79-.74-1.03-1.17-.24.43-.58.82-1.02,1.17-.44.35-.95.64-1.52.88-.57.24-1.18.41-1.82.51l-.44-.88c.72-.11,1.39-.31,2.02-.6ZM141.52,52.01v-3.7h-3.78v3.7h3.78ZM145.1,46.49h1.15v3.13h1.96v.97h-1.96v3.34h-1.15v-7.44Z"/>
    <path class="cls-11" d="M149.01,53.14h11.92v.93h-11.92v-.93ZM150.56,55.4h1.14v2.84h7.94v.95h-9.07v-3.79ZM159.56,51.37h-8.91v-4.4h1.14v3.47h7.77v.93Z"/>
    <path class="cls-11" d="M166.24,48.08h4.88v.94h-3.73v6.28c.95,0,1.77-.03,2.44-.08.67-.05,1.35-.15,2.04-.29l.1.96c-.73.16-1.45.26-2.16.31-.71.05-1.62.08-2.73.09h-.84v-8.2ZM176.89,59.51h-1.1v-6.84h-1.91v6.15h-1.07v-12.05h1.07v4.94h1.91v-5.23h1.1v13.02Z"/>
    <path class="cls-11" d="M186.52,48.82h-7.76v-.93h3.31v-1.46h1.14v1.46h3.3v.93ZM179.89,50.62c.26-.35.63-.63,1.1-.82s1.02-.29,1.65-.29c.62,0,1.16.1,1.63.29.47.19.84.47,1.1.82s.39.77.4,1.24c0,.47-.14.88-.4,1.23s-.63.63-1.1.82c-.47.19-1.02.29-1.63.29s-1.17-.1-1.65-.29-.84-.47-1.1-.82-.39-.76-.39-1.23c0-.47.12-.88.39-1.24ZM180.39,55.34h8.53v4.16h-1.15v-3.22h-7.38v-.94ZM180.85,52.61c.17.22.41.38.72.5.31.12.67.18,1.07.18s.75-.06,1.06-.18c.31-.12.55-.28.72-.5s.26-.47.26-.75c0-.29-.09-.54-.26-.76s-.41-.39-.72-.51c-.31-.12-.66-.18-1.06-.19-.41,0-.77.07-1.07.19-.31.12-.55.29-.72.51-.17.22-.25.47-.25.76,0,.29.08.54.25.75ZM187.76,46.49h1.15v3.62h1.96v.96h-1.96v3.55h-1.15v-8.13Z"/>
    <path class="cls-11" d="M195.91,50.5c.22.46.53.88.93,1.25.41.37.88.65,1.43.86l-.61.89c-.61-.23-1.14-.57-1.59-1.02-.45-.44-.79-.95-1.03-1.53-.25.65-.6,1.22-1.06,1.73-.46.51-1.01.9-1.63,1.18l-.63-.89c.56-.25,1.04-.58,1.46-1,.42-.42.74-.89.97-1.39s.34-1,.34-1.49v-1.77h1.11v1.77c0,.48.11.96.32,1.42ZM194.6,55.9c.35-.35.85-.62,1.51-.8.66-.18,1.44-.28,2.34-.28s1.67.09,2.33.28,1.16.45,1.51.8c.35.35.53.77.53,1.25s-.18.9-.53,1.25c-.35.35-.86.61-1.52.8-.66.18-1.43.28-2.33.28s-1.68-.09-2.34-.28c-.66-.19-1.16-.45-1.51-.8-.35-.35-.52-.76-.52-1.25,0-.49.17-.9.52-1.25ZM195.61,57.92c.26.22.63.38,1.12.49.49.11,1.06.17,1.72.16.66,0,1.23-.05,1.71-.16.49-.11.86-.28,1.12-.49s.4-.47.4-.76c0-.3-.14-.55-.4-.77s-.64-.38-1.12-.5-1.06-.17-1.71-.17-1.24.06-1.72.17c-.49.12-.86.28-1.12.5-.26.22-.39.47-.39.77,0,.29.12.55.39.76ZM198.85,46.75h1.08v3.25h1.74v-3.5h1.09v8.04h-1.09v-3.58h-1.74v3.17h-1.08v-7.38Z"/>
    <path class="cls-11" d="M209.18,48.95c.3-.49.71-.86,1.23-1.13s1.1-.41,1.75-.41,1.22.14,1.74.41.93.65,1.22,1.13.44,1.04.44,1.65-.15,1.18-.44,1.66c-.29.49-.7.87-1.22,1.14s-1.1.4-1.74.4c-.64,0-1.22-.13-1.75-.4s-.93-.65-1.23-1.14c-.3-.49-.45-1.04-.45-1.66s.15-1.16.45-1.65ZM210.15,51.74c.2.33.47.59.82.78.35.19.74.28,1.18.28s.82-.09,1.17-.28.62-.45.82-.78c.2-.33.3-.71.3-1.14s-.1-.79-.3-1.12c-.2-.33-.47-.59-.82-.78-.35-.19-.74-.28-1.17-.28s-.83.09-1.18.28c-.35.19-.62.45-.82.78-.2.33-.3.71-.29,1.13,0,.42.09.8.29,1.14ZM210.77,55.04h1.15v3.22h7.67v.95h-8.82v-4.17ZM219.18,56.02h-1.15v-9.52h1.15v9.52Z"/>
    <path class="cls-11" d="M222.07,47.51h5.86v.94h-4.72v1.81h4.36v.93h-4.36v1.94c1.29,0,2.32-.03,3.09-.07.77-.04,1.55-.14,2.33-.28l.11.94c-.83.15-1.65.25-2.47.3-.82.05-1.9.08-3.25.08h-.95v-6.59ZM223.8,55.33h1.16v2.93h7.58v.95h-8.74v-3.88ZM232.19,56.16h-1.15v-5.06h-2.56v-.94h2.56v-3.67h1.15v9.67Z"/>
    <path class="cls-11" d="M235.21,55.68c1.45,0,2.83-.03,4.13-.09s2.53-.17,3.69-.35l.09.85c-.92.17-1.87.3-2.86.38-.99.08-1.91.13-2.77.16-.86.02-1.83.03-2.9.03l-.16-.98h.77ZM240.44,47.83c.53.26.95.62,1.25,1.08.3.46.45.99.45,1.59,0,.6-.15,1.13-.45,1.59-.3.46-.71.82-1.25,1.08-.53.26-1.14.39-1.81.39s-1.28-.13-1.82-.39-.95-.62-1.25-1.08-.45-.99-.44-1.59c0-.59.14-1.12.44-1.59s.72-.83,1.25-1.08,1.14-.39,1.82-.39,1.28.13,1.81.39ZM236.54,51.56c.2.31.49.56.85.73.36.17.77.26,1.23.26s.86-.09,1.22-.26c.36-.17.64-.42.85-.73.21-.31.31-.67.31-1.06s-.1-.75-.31-1.06c-.21-.31-.49-.55-.85-.73-.36-.17-.77-.26-1.22-.26s-.87.09-1.23.26c-.36.17-.65.42-.85.73-.2.31-.3.67-.3,1.06,0,.4.1.75.3,1.06ZM243.9,46.49h1.15v13.04h-1.15v-13.04Z"/>
    <path class="cls-11" d="M256.2,52.28c.32.76.75,1.43,1.29,2.02.54.59,1.13,1.03,1.76,1.32l-.7.91c-.49-.24-.96-.57-1.39-.98s-.83-.88-1.17-1.42c-.34-.54-.62-1.11-.82-1.73-.2.65-.47,1.26-.81,1.83-.34.57-.73,1.08-1.18,1.52s-.92.78-1.42,1.04l-.72-.96c.64-.3,1.23-.75,1.78-1.36s.97-1.31,1.29-2.1.48-1.58.48-2.39v-2.37h1.15v2.37c0,.77.15,1.53.47,2.29ZM260.68,46.49h1.15v13.04h-1.15v-13.04Z"/>
    <path class="cls-11" d="M268.88,50.55c.27.53.64.99,1.12,1.4s1.04.72,1.68.94l-.59.89c-.74-.26-1.38-.64-1.93-1.15s-.96-1.1-1.24-1.77c-.28.74-.71,1.38-1.28,1.93-.57.55-1.24.97-2.01,1.25l-.62-.89c.65-.23,1.22-.56,1.73-.99.5-.43.89-.92,1.17-1.49.28-.56.42-1.15.42-1.76v-.56h-2.97v-.94h7.03v.94h-2.92v.56c0,.57.13,1.12.4,1.64ZM265.73,55.02h8.53v4.49h-1.15v-3.54h-7.38v-.94ZM273.1,46.49h1.15v3.44h1.96v.98h-1.96v3.42h-1.15v-7.84Z"/>
  </g>
  <g>
    <path class="cls-4" d="M270.6,198.85c11.58,3.13,21.07,3.91,21.69,41.03.62,37.13,13.84,53.8,13.84,53.8l-38.19,26.59-23.22-11.98,25.86-109.45Z"/>
    <path class="cls-5" d="M288.22,211.44c-9.75-28.25-84.21-22.1-97.08-21.47-13.75.68-35.35,1.69-46.62,20.47-8.72,14.52-16.71,54.32-20.16,91.19-3.44,36.87-10.32,42.78-10.32,42.78h74.85c30.48,0,59.81,2.9,65.89-19.36,4.2-15.36,7.81-161.84,33.44-113.6Z"/>
    <path class="cls-8" d="M244.74,338.41c-13.49,7.43-21.93-5.08-25.99-28.83-4.06-23.76-5.31-37.2-44.39-37.51-39.07-.31-56.58,72.46-56.58,72.46,0,0,27.19-.12,71.11-.12s51.26-2.41,55.84-5.99Z"/>
    <path class="cls-10" d="M209.56,281.9c-6.5-13.22-30.32-9.97-58.1-9.84-27.79.13-54.92-8.14-71.46,11.38s-52.27,41.02-52.27,41.02l15.88,41.35s40.69-4.3,68.48-5.62c0,0,49.62-17.2,62.85-46.98,13.23-29.77,20.93-42.45,34.62-31.32Z"/>
    <path class="cls-3" d="M191.14,189.97c-13.75.68-35.35,1.69-46.62,20.47-2.7,4.5-5.34,11.44-7.79,19.96,68.17-2.95,106.86-.76,128.6,2.26,4.68-26.15,15.25-33.8,22.89-21.21-9.75-28.25-84.21-22.1-97.08-21.47Z"/>
    <path class="cls-1" d="M183.9,180.86c-4.63.08-8.44,4.67-9.4,10.79-.16,1.07-.24,2.19-.22,3.33.13,7.71,4.65,13.88,10.09,13.8.13,0,.28-.01.4-.02.97-.63,1.45-2.69-.12-4.67-.11,0-.22,0-.36,0-3.07-.03-5.62-4.06-5.72-9.19-.02-1.39.14-2.72.45-3.9.82-3.19,2.71-5.43,4.95-5.47,2.06-.03,3.89,1.8,4.89,4.57,1.42-.1,2.89-.2,4.43-.3-1.47-5.3-5.16-9.03-9.39-8.95Z"/>
    <path class="cls-1" d="M233.62,180.02c-4.29-.21-8.12,3.5-9.74,8.86-.43,1.43-.7,2.98-.78,4.6-.38,7.7,3.73,14.16,9.16,14.43.11,0,.22-.02.32-.02,1.76-1.57.94-4.07.21-4.64,0,0-.2,0-.3-.01-3.07-.15-5.35-4.42-5.1-9.54.08-1.7.43-3.28.98-4.62,1.09-2.71,2.98-4.47,5.02-4.38,2.08.1,3.79,2.09,4.6,4.95,1.56.12,3.06.24,4.49.38-1.02-5.6-4.52-9.79-8.87-10Z"/>
    <path class="cls-6" d="M84.21,214.04h-39.38c-3.35,0-6.07,2.72-6.07,6.07v22.85c0,3.35,2.72,6.07,6.07,6.07h26.93l5.89,9.34c.39.62,1.34.34,1.34-.38l.05-8.96h5.17c3.35,0,6.07-2.72,6.07-6.07v-22.85c0-3.35-2.72-6.07-6.07-6.07Z"/>
    <path class="cls-9" d="M93.64,157.27h39.38c3.35,0,6.07,2.72,6.07,6.07v22.85c0,3.35-2.72,6.07-6.07,6.07h-26.93s-.69,9.34-.69,9.34c-.39.62-1.34.34-1.34-.38l-5.25-8.96h-5.17c-3.35,0-6.07-2.72-6.07-6.07v-22.85c0-3.35,2.72-6.07,6.07-6.07Z"/>
    <rect class="cls-7" x="93.36" y="172.53" width="21.36" height="4.43" rx="2.22" ry="2.22"/>
    <rect class="cls-7" x="93.36" y="164.27" width="34.51" height="4.43" rx="2.22" ry="2.22"/>
    <rect class="cls-7" x="93.36" y="180.78" width="30.13" height="4.43" rx="2.22" ry="2.22"/>
    <rect class="cls-7" x="65.94" y="228.29" width="13.51" height="4.43" rx="2.22" ry="2.22"/>
    <rect class="cls-7" x="65.94" y="236.07" width="19.06" height="4.43" rx="2.22" ry="2.22"/>
    <circle class="cls-7" cx="52.88" cy="231.37" r="9.13"/>
  </g>
</svg>