<?xml version="1.0" encoding="UTF-8"?>
<svg id="_레이어_1" data-name="레이어 1" xmlns="http://www.w3.org/2000/svg" xmlns:xlink="http://www.w3.org/1999/xlink" version="1.1" viewBox="0 0 800 800">
  <defs>
    <style>
      .cls-1 {
        fill: #ffc0c0;
      }

      .cls-1, .cls-2, .cls-3, .cls-4, .cls-5, .cls-6, .cls-7, .cls-8, .cls-9, .cls-10 {
        stroke-width: 0px;
      }

      .cls-11 {
        clip-path: url(#clippath);
      }

      .cls-2 {
        fill: #223077;
      }

      .cls-12 {
        fill: #c5cdea;
      }

      .cls-3 {
        fill: #151f4f;
      }

      .cls-13 {
        stroke: #191314;
        stroke-linecap: round;
        stroke-width: 7px;
      }

      .cls-13, .cls-14 {
        fill: none;
        stroke-miterlimit: 10;
      }

      .cls-4 {
        fill: #191314;
      }

      .cls-5, .cls-15 {
        fill: #fed6ca;
      }

      .cls-6 {
        fill: #e6ffeb;
      }

      .cls-7 {
        fill: #353535;
      }

      .cls-8 {
        fill: #1e3684;
      }

      .cls-14 {
        stroke: #93a2c6;
        stroke-width: 3px;
      }

      .cls-9 {
        fill: #fec4b6;
      }

      .cls-10 {
        fill: #fec4b5;
      }
    </style>
    <clipPath id="clippath">
      <path class="cls-5" d="M486.58,432.36c-3.29,54.82-18.64,92.65,4.39,107.46l23.03,14.8-113.49,88.27s-65.24-75.11-64.14-90.46c1.1-15.35,26.21-9.14,27.96-26.32s0-31.25,0-31.25l106.91-69.08,15.35,6.58Z"/>
    </clipPath>
  </defs>
  <rect class="cls-6" x=".5" y=".5" width="800" height="800"/>
  <path class="cls-3" d="M197.42,290.77c-18.82,13.01-26.66,33.92-16.97,49.97s29.35,20.82,64.13,13.92,51.64-79.13,51.64-79.13l-45.96-5.68s-19.76-1.94-52.85,20.93Z"/>
  <path class="cls-7" d="M510.58,434.16c-4.74,20.29,7.44,38.22,7.44,38.22,0,0-13.53-3.04-19.62-10.15,0,0-2.37,6.76-12.18,13.87,0,0-.67-3.72-5.41-11.16s0-45.66,0-45.66l29.76,14.88Z"/>
  <path class="cls-7" d="M281,439.69c-2.63,11.64-1.04,26.01-8.69,35.99,0,0,15.07.71,25.51-8.58,0,0,1.01,6.41,9.94,11.13,0,0-8.79-2.03,2.42-5.18s-29.18-33.36-29.18-33.36Z"/>
  <path class="cls-9" d="M263.9,317.75c-57.84-1.02-69.09,31.89-66.02,62.61,3.07,30.71,36.85,54.1,81.38,42.33l-15.36-104.93Z"/>
  <g>
    <path class="cls-15" d="M486.58,432.36c-3.29,54.82-18.64,92.65,4.39,107.46l23.03,14.8-113.49,88.27s-65.24-75.11-64.14-90.46c1.1-15.35,26.21-9.14,27.96-26.32s0-31.25,0-31.25l106.91-69.08,15.35,6.58Z"/>
    <g class="cls-11">
      <path class="cls-10" d="M475.62,430.79c-12.83,45.46-47.71,112.86-142.55,107.38-37.41-2.16,17-55.92,17-55.92l125.56-51.46Z"/>
    </g>
  </g>
  <path class="cls-5" d="M252,309.02c0,69.79,28.64,198.93,112.73,200.41,51,.89,102.89-48.31,118.99-76.05,0,0,80.52,22.37,96.63-39.37s-45.63-100.2-81.42-59.94c0,0-42.05-134.2-125.26-134.2s-121.68,109.15-121.68,109.15Z"/>
  <circle class="cls-1" cx="296.22" cy="389.57" r="23.91"/>
  <circle class="cls-1" cx="409.93" cy="389.57" r="23.91"/>
  <ellipse class="cls-4" cx="316.98" cy="363.94" rx="9.21" ry="11.57"/>
  <ellipse class="cls-4" cx="390.66" cy="363.94" rx="9.21" ry="11.57"/>
  <path class="cls-13" d="M324.19,320.72s-24.5-2.76-41.93,6.67"/>
  <path class="cls-13" d="M375.67,321.41s24.29-4.22,42.25,4.15"/>
  <path class="cls-7" d="M449.92,301.55c17.02,13.96,27.49,41.67,28.36,56.18,0,0,11.28-14.84,25.06-28.09s34.96-15.75,49.34-7.57c5.61,3.19,8.32,5.1,8.32,5.1,0,0,3.32-6.23,4.25-10.41l-96.42-34.2-18.91,19Z"/>
  <path class="cls-7" d="M272.32,280.04c-18.63,8.37-20.32,38.01-20.32,38.01,0,0-3.4-17.71,1.46-38.89,3.71-16.18,18.86.88,18.86.88Z"/>
  <path class="cls-8" d="M257.2,254.45c-1.22-37.35,42.17-118.29,154.81-117.03s189.82,94.7,152.69,182.93c0,0-53.03-16.4-83.88-29.58s-223.62-36.32-223.62-36.32Z"/>
  <path class="cls-2" d="M480.82,290.77s-34.9,22.38-67.41,37.74c-7.6,3.59-16.51,3.12-23.65-1.32-29.73-18.5-124.7-64.95-199.22-30.83,14.45-12.84,38.86-27.13,66.66-41.91,21.48-6.94,124.63-20.51,223.62,36.32Z"/>
  <path class="cls-12" d="M345.87,541.6c7.22,19.36,23.22,53.09,54.63,54.34s92.68-34.75,96.45-54.34c0,0,129.41,31.29,197.88,90.97s84.8,167.93,84.8,167.93H92.5s40.97-157.62,158.34-217.4c85.62-43.61,95.03-41.5,95.03-41.5Z"/>
  <path class="cls-14" d="M321.02,560.64c6.37,20.87,21.25,39.01,40.48,49.33"/>
  <path class="cls-14" d="M389.17,616.68c42.36,2.03,85.27-15.23,114.42-46.03"/>
</svg>