<svg width="335" height="48" viewBox="0 0 335 48" fill="none" xmlns="http://www.w3.org/2000/svg">
<rect width="335" height="48" rx="10" fill="#171717"/>
<path d="M103.371 14.1255C103.452 15.1937 103.115 16.2517 102.429 17.0748C102.101 17.4831 101.684 17.8117 101.21 18.0357C100.736 18.2596 100.218 18.3732 99.694 18.3678C99.6606 17.8541 99.7288 17.3389 99.8946 16.8516C100.06 16.3643 100.321 15.9144 100.66 15.5277C101.355 14.7362 102.323 14.2355 103.371 14.1255Z" fill="white"/>
<path d="M105.281 21.8999C104.933 22.5133 104.746 23.2047 104.737 23.91C104.738 24.7032 104.972 25.4787 105.411 26.1397C105.849 26.8007 106.473 27.3179 107.203 27.6269C106.916 28.5601 106.483 29.4419 105.92 30.2398C105.165 31.3702 104.372 32.4746 103.115 32.495C102.517 32.5088 102.113 32.3368 101.692 32.1576C101.254 31.9707 100.796 31.7759 100.081 31.7759C99.3219 31.7759 98.8442 31.977 98.3834 32.1709C97.9853 32.3384 97.5998 32.5007 97.0565 32.5232C95.8588 32.5676 94.9436 31.3167 94.1604 30.1969C92.5951 27.91 91.3763 23.7522 93.0103 20.923C93.3875 20.2452 93.9339 19.6766 94.5962 19.2727C95.2586 18.8687 96.0142 18.6433 96.7896 18.6182C97.4688 18.6042 98.1206 18.866 98.692 19.0956C99.129 19.2711 99.5191 19.4278 99.8384 19.4278C100.119 19.4278 100.498 19.2773 100.94 19.1019C101.636 18.8257 102.488 18.4877 103.356 18.5788C104.021 18.5996 104.672 18.7752 105.257 19.0917C105.843 19.4081 106.346 19.8567 106.728 20.4018C106.127 20.7712 105.63 21.2865 105.281 21.8999Z" fill="white"/>
<path d="M118.312 29.5L122.297 18.1875H124.797L128.797 29.5H126.625L125.68 26.7031H121.422L120.484 29.5H118.312ZM125.133 25.0625L123.594 20.5H123.5L121.969 25.0625H125.133ZM129.967 21.0156H131.92V22.4062H132.045C132.259 21.9896 132.553 21.6354 132.928 21.3438C133.303 21.0521 133.821 20.9062 134.483 20.9062C135.144 20.9062 135.738 21.0755 136.264 21.4141C136.795 21.7526 137.214 22.25 137.522 22.9062C137.829 23.5625 137.983 24.349 137.983 25.2656C137.983 26.1771 137.831 26.9635 137.529 27.625C137.227 28.2865 136.811 28.7917 136.279 29.1406C135.753 29.4844 135.154 29.6562 134.483 29.6562C133.358 29.6562 132.545 29.1562 132.045 28.1562H131.967V32.6875H129.967V21.0156ZM131.92 25.25C131.92 25.8021 131.998 26.2865 132.154 26.7031C132.311 27.1198 132.54 27.4427 132.842 27.6719C133.144 27.901 133.509 28.0156 133.936 28.0156C134.363 28.0156 134.727 27.8984 135.029 27.6641C135.331 27.4297 135.561 27.1042 135.717 26.6875C135.873 26.2708 135.951 25.7917 135.951 25.25C135.951 24.7188 135.873 24.2474 135.717 23.8359C135.566 23.4245 135.339 23.1042 135.037 22.875C134.735 22.6458 134.368 22.5312 133.936 22.5312C133.509 22.5312 133.144 22.6432 132.842 22.8672C132.54 23.0911 132.311 23.4089 132.154 23.8203C131.998 24.2266 131.92 24.7031 131.92 25.25ZM139.465 21.0156H141.418V22.4062H141.543C141.757 21.9896 142.051 21.6354 142.426 21.3438C142.801 21.0521 143.319 20.9062 143.981 20.9062C144.642 20.9062 145.236 21.0755 145.762 21.4141C146.293 21.7526 146.712 22.25 147.02 22.9062C147.327 23.5625 147.481 24.349 147.481 25.2656C147.481 26.1771 147.33 26.9635 147.028 27.625C146.725 28.2865 146.309 28.7917 145.778 29.1406C145.251 29.4844 144.653 29.6562 143.981 29.6562C142.856 29.6562 142.043 29.1562 141.543 28.1562H141.465V32.6875H139.465V21.0156ZM141.418 25.25C141.418 25.8021 141.496 26.2865 141.653 26.7031C141.809 27.1198 142.038 27.4427 142.34 27.6719C142.642 27.901 143.007 28.0156 143.434 28.0156C143.861 28.0156 144.225 27.8984 144.528 27.6641C144.83 27.4297 145.059 27.1042 145.215 26.6875C145.371 26.2708 145.449 25.7917 145.449 25.25C145.449 24.7188 145.371 24.2474 145.215 23.8359C145.064 23.4245 144.837 23.1042 144.535 22.875C144.233 22.6458 143.866 22.5312 143.434 22.5312C143.007 22.5312 142.642 22.6432 142.34 22.8672C142.038 23.0911 141.809 23.4089 141.653 23.8203C141.496 24.2266 141.418 24.7031 141.418 25.25ZM150.963 29.5H148.963V18.1875H150.963V29.5ZM156.555 29.6719C155.711 29.6719 154.977 29.4948 154.352 29.1406C153.732 28.7812 153.256 28.2734 152.922 27.6172C152.594 26.9609 152.43 26.1927 152.43 25.3125C152.43 24.4427 152.597 23.6771 152.93 23.0156C153.263 22.349 153.732 21.8307 154.336 21.4609C154.946 21.0911 155.649 20.9062 156.446 20.9062C157.164 20.9062 157.815 21.0599 158.399 21.3672C158.987 21.6745 159.453 22.151 159.797 22.7969C160.146 23.4375 160.321 24.2344 160.321 25.1875V25.8125H154.399C154.404 26.2865 154.498 26.6979 154.68 27.0469C154.862 27.3906 155.115 27.6536 155.438 27.8359C155.761 28.0182 156.138 28.1094 156.571 28.1094C156.993 28.1094 157.352 28.0286 157.649 27.8672C157.946 27.7057 158.159 27.4948 158.289 27.2344H160.243C160.123 27.724 159.896 28.1536 159.563 28.5234C159.229 28.888 158.805 29.1719 158.289 29.375C157.779 29.5729 157.201 29.6719 156.555 29.6719ZM158.414 24.4531C158.409 24.0677 158.326 23.724 158.164 23.4219C158.003 23.1198 157.776 22.8828 157.485 22.7109C157.193 22.5391 156.857 22.4531 156.477 22.4531C156.086 22.4531 155.737 22.5443 155.43 22.7266C155.128 22.9036 154.888 23.1458 154.711 23.4531C154.534 23.7552 154.433 24.0885 154.407 24.4531H158.414ZM174.209 29.25H161.303V27.8125H166.866V25.5156H162.834V20.8906H170.959V19.1406H162.803V17.7344H172.678V22.2656H164.569V24.0938H173.006V25.5156H168.584V27.8125H174.209V29.25ZM191.674 29.25H178.768V27.8125H184.331V25.5156H180.299V20.8906H188.424V19.1406H180.268V17.7344H190.143V22.2656H182.034V24.0938H190.471V25.5156H186.049V27.8125H191.674V29.25ZM203.751 19.7344C203.751 20.5781 203.74 21.3047 203.719 21.9141C203.704 22.5182 203.659 23.2109 203.587 23.9922C203.514 24.7734 203.396 25.625 203.235 26.5469L201.469 26.3906C201.641 25.5312 201.766 24.7188 201.844 23.9531C201.923 23.1823 201.969 22.4948 201.985 21.8906C202.006 21.2812 202.016 20.5625 202.016 19.7344V19.5469H193.876V18.1406H203.751V19.7344ZM205.391 28.9531H192.516V27.5312H205.391V28.9531ZM218.03 26.9844H216.28V16.7812H218.03V26.9844ZM218.421 30.6094H208.686V25.9531H210.436V29.2031H218.421V30.6094ZM210.327 17.7031C211.035 17.7031 211.678 17.8568 212.257 18.1641C212.835 18.4661 213.29 18.8854 213.624 19.4219C213.957 19.9583 214.124 20.5625 214.124 21.2344C214.124 21.9167 213.957 22.5286 213.624 23.0703C213.29 23.6068 212.835 24.026 212.257 24.3281C211.678 24.6302 211.035 24.7812 210.327 24.7812C209.613 24.7812 208.965 24.6302 208.382 24.3281C207.803 24.026 207.348 23.6068 207.014 23.0703C206.681 22.5286 206.514 21.9167 206.514 21.2344C206.514 20.5625 206.681 19.9583 207.014 19.4219C207.348 18.8854 207.803 18.4661 208.382 18.1641C208.965 17.8568 209.613 17.7031 210.327 17.7031ZM210.327 19.2188C209.926 19.2188 209.564 19.3021 209.241 19.4688C208.918 19.6354 208.665 19.8724 208.483 20.1797C208.301 20.487 208.212 20.8385 208.217 21.2344C208.212 21.6406 208.301 21.9974 208.483 22.3047C208.665 22.612 208.918 22.849 209.241 23.0156C209.564 23.1823 209.926 23.2656 210.327 23.2656C210.717 23.2656 211.072 23.1823 211.389 23.0156C211.707 22.849 211.957 22.612 212.139 22.3047C212.327 21.9974 212.421 21.6406 212.421 21.2344C212.421 20.8385 212.327 20.487 212.139 20.1797C211.957 19.8724 211.707 19.6354 211.389 19.4688C211.072 19.3021 210.717 19.2188 210.327 19.2188ZM231.075 22.3906H233.247V23.8281H231.075V30.8906H229.356V16.7656H231.075V22.3906ZM228.262 20.3281H219.934V18.9375H223.278V16.9688H225.012V18.9375H228.262V20.3281ZM224.153 21.25C224.825 21.25 225.429 21.3932 225.966 21.6797C226.507 21.9609 226.932 22.3542 227.239 22.8594C227.546 23.3646 227.7 23.9375 227.7 24.5781C227.7 25.2188 227.546 25.7917 227.239 26.2969C226.932 26.7969 226.507 27.1875 225.966 27.4688C225.429 27.75 224.825 27.8906 224.153 27.8906C223.471 27.8906 222.859 27.75 222.317 27.4688C221.776 27.1875 221.351 26.7969 221.044 26.2969C220.736 25.7917 220.585 25.2188 220.591 24.5781C220.585 23.9375 220.736 23.3646 221.044 22.8594C221.351 22.3542 221.776 21.9609 222.317 21.6797C222.859 21.3932 223.471 21.25 224.153 21.25ZM224.153 22.6719C223.783 22.6719 223.453 22.75 223.161 22.9062C222.874 23.0625 222.651 23.2865 222.489 23.5781C222.328 23.8646 222.247 24.1979 222.247 24.5781C222.247 24.9583 222.328 25.2917 222.489 25.5781C222.651 25.8594 222.874 26.0781 223.161 26.2344C223.453 26.3854 223.783 26.4583 224.153 26.4531C224.512 26.4583 224.833 26.3854 225.114 26.2344C225.401 26.0781 225.624 25.8594 225.786 25.5781C225.953 25.2917 226.039 24.9583 226.044 24.5781C226.039 24.1979 225.953 23.8646 225.786 23.5781C225.624 23.2917 225.401 23.0703 225.114 22.9141C224.833 22.7526 224.512 22.6719 224.153 22.6719ZM245.558 30.8906H243.808V16.7656H245.558V30.8906ZM241.339 18.2656C241.339 20.5104 240.831 22.4818 239.815 24.1797C238.8 25.8724 237.115 27.276 234.761 28.3906L233.854 27C235.672 26.1354 237.039 25.1016 237.956 23.8984C238.878 22.6901 239.417 21.2708 239.573 19.6406H234.573V18.2656H241.339Z" fill="white"/>
</svg>
