<svg width="20" height="20" viewBox="0 0 20 20" fill="none" xmlns="http://www.w3.org/2000/svg">
<g clip-path="url(#clip0_796_32988)">
<path d="M4.90234 16.0547H15.0914C16.4411 16.0547 17.1254 15.3767 17.1254 14.0458V7.89969C17.1254 6.56878 16.4411 5.89076 15.0914 5.89076H13.2896V5.31948C13.2896 4.13295 12.643 3.57422 11.4628 3.57422H8.53097C7.40095 3.57422 6.71038 4.13295 6.71038 5.31948V5.89076H4.90234C3.56515 5.89076 2.87458 6.56878 2.87458 7.89969V14.0458C2.87458 15.3767 3.56515 16.0547 4.90234 16.0547ZM7.85296 5.31948C7.85296 4.87374 8.11035 4.62263 8.56864 4.62263H11.4251C11.8896 4.62263 12.147 4.87374 12.147 5.31948V5.89076H7.85296V5.31948ZM4.10505 7.94364C4.10505 7.36607 4.40011 7.08357 4.95257 7.08357H15.0474C15.5999 7.08357 15.8949 7.36607 15.8949 7.94364V8.75349C14.156 9.34989 12.1596 9.65123 10 9.65123C7.8404 9.65123 5.84403 9.34989 4.10505 8.75349V7.94364ZM4.95257 14.8682C4.40011 14.8682 4.10505 14.5794 4.10505 14.0081V9.95257C5.3983 10.3418 6.79827 10.5929 8.26102 10.7059V11.2019C8.26102 11.6727 8.53725 11.9364 9.02065 11.9364H10.9794C11.4628 11.9364 11.7327 11.6727 11.7327 11.2019V10.7059C13.2017 10.5929 14.6017 10.3418 15.8949 9.95257V14.0081C15.8949 14.5794 15.5999 14.8682 15.0474 14.8682H4.95257Z" fill="#666666"/>
</g>
<defs>
<clipPath id="clip0_796_32988">
<rect width="20" height="20" fill="white"/>
</clipPath>
</defs>
</svg>
