<svg width="24" height="24" viewBox="0 0 24 24" fill="none" xmlns="http://www.w3.org/2000/svg">
<path d="M22.8401 16.66V13.24C22.8401 11.49 21.4201 10.07 19.6701 10.07H11.2401C9.49007 10.07 8.07007 11.49 8.07007 13.24V16.66C8.07007 18.41 9.49007 19.83 11.2401 19.83H18.1601C20.2201 21.95 22.6901 22.16 22.6901 22.16C21.7501 21.28 21.2001 20.35 20.8701 19.59C22.0201 19.12 22.8301 17.99 22.8301 16.66H22.8401Z" fill="#1EAC61"/>
<path d="M1.15991 10.7V6.68998C1.15991 4.63998 2.94991 2.97998 5.14991 2.97998H15.7799C17.9899 2.97998 19.7699 4.63998 19.7699 6.68998V10.7C19.7699 12.75 17.9799 14.41 15.7799 14.41H7.05991C4.45991 16.9 1.34991 17.14 1.34991 17.14C2.53991 16.11 3.22991 15.02 3.63991 14.12C2.18991 13.56 1.15991 12.24 1.15991 10.69V10.7Z" fill="#5FD093"/>
<path d="M10.5299 9.75998C11.0049 9.75998 11.3899 9.37494 11.3899 8.89998C11.3899 8.42501 11.0049 8.03998 10.5299 8.03998C10.055 8.03998 9.66992 8.42501 9.66992 8.89998C9.66992 9.37494 10.055 9.75998 10.5299 9.75998Z" fill="#1EAC61"/>
<path d="M13.84 9.75998C14.3149 9.75998 14.7 9.37494 14.7 8.89998C14.7 8.42501 14.3149 8.03998 13.84 8.03998C13.365 8.03998 12.98 8.42501 12.98 8.89998C12.98 9.37494 13.365 9.75998 13.84 9.75998Z" fill="#1EAC61"/>
<path d="M7.22011 9.75998C7.69507 9.75998 8.08011 9.37494 8.08011 8.89998C8.08011 8.42501 7.69507 8.03998 7.22011 8.03998C6.74514 8.03998 6.36011 8.42501 6.36011 8.89998C6.36011 9.37494 6.74514 9.75998 7.22011 9.75998Z" fill="#1EAC61"/>
</svg>
