<svg width="19" height="17" viewBox="0 0 19 17" fill="none" xmlns="http://www.w3.org/2000/svg">
<path d="M3.45312 16.8721H15.5469C17.4453 16.8721 18.4297 15.8877 18.4297 14.0156V3.31934C18.4297 1.43848 17.4453 0.462891 15.5469 0.462891H3.45312C1.55469 0.462891 0.570312 1.43848 0.570312 3.31934V14.0156C0.570312 15.8965 1.55469 16.8721 3.45312 16.8721ZM3.42676 15.1494C2.69727 15.1494 2.29297 14.7627 2.29297 13.998V5.87695C2.29297 5.10352 2.69727 4.72559 3.42676 4.72559H15.5557C16.2939 4.72559 16.707 5.10352 16.707 5.87695V13.998C16.707 14.7627 16.2939 15.1494 15.5557 15.1494H3.42676ZM7.80371 7.77539H8.32227C8.63867 7.77539 8.74414 7.67871 8.74414 7.3623V6.85254C8.74414 6.53613 8.63867 6.43945 8.32227 6.43945H7.80371C7.49609 6.43945 7.39062 6.53613 7.39062 6.85254V7.3623C7.39062 7.67871 7.49609 7.77539 7.80371 7.77539ZM10.6865 7.77539H11.1963C11.5127 7.77539 11.6182 7.67871 11.6182 7.3623V6.85254C11.6182 6.53613 11.5127 6.43945 11.1963 6.43945H10.6865C10.3701 6.43945 10.2646 6.53613 10.2646 6.85254V7.3623C10.2646 7.67871 10.3701 7.77539 10.6865 7.77539ZM13.5605 7.77539H14.0703C14.3867 7.77539 14.4922 7.67871 14.4922 7.3623V6.85254C14.4922 6.53613 14.3867 6.43945 14.0703 6.43945H13.5605C13.2441 6.43945 13.1387 6.53613 13.1387 6.85254V7.3623C13.1387 7.67871 13.2441 7.77539 13.5605 7.77539ZM4.92969 10.6055H5.44824C5.76465 10.6055 5.87012 10.5088 5.87012 10.1924V9.68262C5.87012 9.36621 5.76465 9.26953 5.44824 9.26953H4.92969C4.62207 9.26953 4.5166 9.36621 4.5166 9.68262V10.1924C4.5166 10.5088 4.62207 10.6055 4.92969 10.6055ZM7.80371 10.6055H8.32227C8.63867 10.6055 8.74414 10.5088 8.74414 10.1924V9.68262C8.74414 9.36621 8.63867 9.26953 8.32227 9.26953H7.80371C7.49609 9.26953 7.39062 9.36621 7.39062 9.68262V10.1924C7.39062 10.5088 7.49609 10.6055 7.80371 10.6055ZM10.6865 10.6055H11.1963C11.5127 10.6055 11.6182 10.5088 11.6182 10.1924V9.68262C11.6182 9.36621 11.5127 9.26953 11.1963 9.26953H10.6865C10.3701 9.26953 10.2646 9.36621 10.2646 9.68262V10.1924C10.2646 10.5088 10.3701 10.6055 10.6865 10.6055ZM13.5605 10.6055H14.0703C14.3867 10.6055 14.4922 10.5088 14.4922 10.1924V9.68262C14.4922 9.36621 14.3867 9.26953 14.0703 9.26953H13.5605C13.2441 9.26953 13.1387 9.36621 13.1387 9.68262V10.1924C13.1387 10.5088 13.2441 10.6055 13.5605 10.6055ZM4.92969 13.4355H5.44824C5.76465 13.4355 5.87012 13.3389 5.87012 13.0225V12.5127C5.87012 12.1963 5.76465 12.0996 5.44824 12.0996H4.92969C4.62207 12.0996 4.5166 12.1963 4.5166 12.5127V13.0225C4.5166 13.3389 4.62207 13.4355 4.92969 13.4355ZM7.80371 13.4355H8.32227C8.63867 13.4355 8.74414 13.3389 8.74414 13.0225V12.5127C8.74414 12.1963 8.63867 12.0996 8.32227 12.0996H7.80371C7.49609 12.0996 7.39062 12.1963 7.39062 12.5127V13.0225C7.39062 13.3389 7.49609 13.4355 7.80371 13.4355ZM10.6865 13.4355H11.1963C11.5127 13.4355 11.6182 13.3389 11.6182 13.0225V12.5127C11.6182 12.1963 11.5127 12.0996 11.1963 12.0996H10.6865C10.3701 12.0996 10.2646 12.1963 10.2646 12.5127V13.0225C10.2646 13.3389 10.3701 13.4355 10.6865 13.4355Z" fill="#1EAC61"/>
</svg>
