<?xml version="1.0" encoding="UTF-8"?>
<svg id="_레이어_1" data-name="레이어 1" xmlns="http://www.w3.org/2000/svg" xmlns:xlink="http://www.w3.org/1999/xlink" version="1.1" viewBox="0 0 800 800">
  <defs>
    <style>
      .cls-1 {
        fill: #ffc0c0;
      }

      .cls-1, .cls-2, .cls-3, .cls-4, .cls-5, .cls-6, .cls-7, .cls-8, .cls-9, .cls-10, .cls-11 {
        stroke-width: 0px;
      }

      .cls-12 {
        clip-path: url(#clippath);
      }

      .cls-13, .cls-7 {
        fill: #147c3e;
      }

      .cls-14 {
        fill: none;
        stroke: #191314;
        stroke-linecap: round;
        stroke-miterlimit: 10;
        stroke-width: 7px;
      }

      .cls-2 {
        fill: #191314;
      }

      .cls-3, .cls-15 {
        fill: #fed6ca;
      }

      .cls-16 {
        clip-path: url(#clippath-4);
      }

      .cls-17 {
        clip-path: url(#clippath-3);
      }

      .cls-18 {
        clip-path: url(#clippath-2);
      }

      .cls-4 {
        fill: #d2f1f9;
      }

      .cls-5 {
        fill: #fffede;
      }

      .cls-6 {
        fill: #fec4b6;
      }

      .cls-8 {
        fill: #fec4b5;
      }

      .cls-19 {
        fill: #e3faff;
      }

      .cls-9, .cls-20 {
        fill: #25a25f;
      }

      .cls-10 {
        fill: #c3e4ea;
      }

      .cls-11 {
        fill: #292021;
      }
    </style>
    <clipPath id="clippath">
      <path class="cls-3" d="M486.58,432.36c-3.29,54.82-18.64,92.65,4.39,107.46l23.03,14.8-113.49,88.27s-65.24-75.11-64.14-90.46,26.21-9.14,27.96-26.32,0-31.25,0-31.25l106.91-69.08,15.35,6.58Z"/>
    </clipPath>
    <clipPath id="clippath-2">
      <path class="cls-7" d="M422.76,646.03c10.9-18.27,49.82-33.92,49.82-33.92l1.28,14.17-45.1,36.52-6-16.77Z"/>
    </clipPath>
    <clipPath id="clippath-3">
      <path class="cls-7" d="M382.68,650.92l-9.64,10.11s-27.93-19.46-29.59-33.91l14.73-11.67s4.15,14.54,24.5,35.47Z"/>
    </clipPath>
    <clipPath id="clippath-4">
      <path class="cls-9" d="M385.18,695.04c-6.57,25.71-21.64,105.46-21.64,105.46h72.87l-20.51-111.02-30.73,5.56"/>
    </clipPath>
  </defs>
  <rect class="cls-5" x=".5" y=".5" width="800" height="800"/>
  <path class="cls-10" d="M513.99,511.69c-12.05-10.15-38.82-4.86-48.7-6.23s12.75,41.33,12.75,41.33l16.57,10.84,19.38-45.94"/>
  <path class="cls-10" d="M395.28,530.77c-12.05-10.15-38.82-4.86-48.7-6.23s12.75,41.33,12.75,41.33l16.57,10.84,19.38-45.94"/>
  <path class="cls-11" d="M341.29,248c.28,4.43,0,0,0,0,0,0,27.21-41.84,49.22-46.48s6.25-15.03,6.25-15.03"/>
  <path class="cls-11" d="M354.22,140.48s-48.07-18.68-74.13,2.83-11.91,42.53-31.16,56.36-46.42,34.84-38.49,75.29,16.98,64.79,16.98,64.79h310.88s58.22-16.92,54.82-64.79c-3.4-47.87-22.64-37.68-27.17-63.72-4.53-26.04-32.27-61.7-67.37-67.37s-31.49-33.97-73.77-34.53-60.96,16.42-70.58,31.14Z"/>
  <path class="cls-6" d="M263.9,317.75c-57.84-1.02-69.09,31.89-66.02,62.61s36.85,54.1,81.38,42.33l-15.36-104.93Z"/>
  <g>
    <path class="cls-15" d="M486.58,432.36c-3.29,54.82-18.64,92.65,4.39,107.46l23.03,14.8-113.49,88.27s-65.24-75.11-64.14-90.46,26.21-9.14,27.96-26.32,0-31.25,0-31.25l106.91-69.08,15.35,6.58Z"/>
    <g class="cls-12">
      <path class="cls-8" d="M475.62,430.79c-12.83,45.46-47.71,112.86-142.55,107.38-37.41-2.16,17-55.92,17-55.92l125.56-51.46Z"/>
    </g>
  </g>
  <path class="cls-3" d="M252,309.02c0,69.79,28.64,198.93,112.73,200.41,51,.89,102.89-48.31,118.99-76.05,0,0,80.52,22.37,96.63-39.37s-45.63-100.2-81.42-59.94c0,0-42.05-134.2-125.26-134.2s-121.68,109.15-121.68,109.15Z"/>
  <path class="cls-2" d="M341.88,250.04s7.91-13.88,25.87-6.97,19.02,26.25,16.89,45.77,7.11,35.55,7.11,35.55l12.6-95.65-39.54-6.91-23.52,17.27.59,10.94"/>
  <path class="cls-2" d="M341.88,250.04c-16.14-10.21-53.09,22.01-54.75,43.8-5.9-30.27,3.29-62.4,3.29-62.4l46.05-11.91,5.41,30.52"/>
  <path class="cls-11" d="M498.94,314.96c1.6-25.94,30.75-119.46-50.6-127.79-24.32-2.49-43.61,2.13-58.7,9.83-7.63-2.43-26.03-6.99-43.48-1.32-14.25,4.64-23.07,11.86-27.67,16.6-1.85-1.45-3.83-2.93-5.97-4.45-25.15-17.83-46.76,31.87-57.64,63.99-6.15-13.46-12.89-23.44-12.89-23.44-10.22,13.05-23.9,28.86-12.65,69.35,4.78,17.22-9.35,29.36-9.35,29.36,0,0,16.96,1.42,31.4-10.23-1.5,10.38-4.02,17.8-4.02,17.8,55.52-3.22,28.4-52.72,46.57-83.3,31.04-52.25,47.95-21.31,47.95-21.31,0,0,16.03-31.19,39.2-10.35,25.86,23.26-32.96,106.66,42.35,121.25,0,0-35.28-30.53-10.32-78.33,0,0,5.44,54.45,57.65,62.77,0,0-11.21-4.16-13.13-22.1,0,0,12.81,19.22,44.52,17.94,0,0-4.8-.32-3.2-26.26Z"/>
  <circle class="cls-1" cx="296.22" cy="389.57" r="23.91"/>
  <circle class="cls-1" cx="409.93" cy="389.57" r="23.91"/>
  <ellipse class="cls-2" cx="316.98" cy="363.94" rx="9.21" ry="11.57"/>
  <ellipse class="cls-2" cx="390.66" cy="363.94" rx="9.21" ry="11.57"/>
  <path class="cls-14" d="M324.19,320.72s-24.5-2.76-41.93,6.67"/>
  <path class="cls-14" d="M375.67,321.41s24.29-4.22,42.25,4.15"/>
  <path class="cls-8" d="M496.41,543.55c-10.03-7.47-7.32-4.42-11.94-9.74,0,0-80.77,80.78-83.54,88.32s38.53,6.29,38.53,6.29l56.94-84.87Z"/>
  <path class="cls-19" d="M400.93,622.13s-73.93-66.94-92.96-64.5-110.29,13.3-158.22,89.61-63.07,153.26-63.07,153.26h713.81s-52.24-163.35-153.14-209.39-148.21-43.52-148.21-43.52l-98.21,74.53"/>
  <g>
    <path class="cls-13" d="M422.76,646.03c10.9-18.27,49.82-33.92,49.82-33.92l1.28,14.17-45.1,36.52-6-16.77Z"/>
    <g class="cls-18">
      <path class="cls-7" d="M435.88,657.84c.39-5.64-13.11-20.83-13.11-20.83l-7.39,5.88,20.5,14.95"/>
    </g>
  </g>
  <g>
    <path class="cls-13" d="M382.68,650.92l-9.64,10.11s-27.93-19.46-29.59-33.91l14.73-11.67s4.15,14.54,24.5,35.47Z"/>
    <g class="cls-17">
      <path class="cls-7" d="M382.04,639.75c-9.49,5.25-13.4,13.33-12.16,19.73,1.32,6.81,3.5,7.83,3.5,7.83l13.83-23.55-5.16-4.01Z"/>
    </g>
  </g>
  <path class="cls-4" d="M400.93,622.13s-43.04-40.48-47.98-63.82,3.79-26.23,11.37-32.2l.55-7.09s-19.05,1.22-38,15.31-40.91,19.03-40.91,19.03l44.48,99.39s36.66-50.83,70.5-30.63"/>
  <path class="cls-4" d="M400.93,622.13s29.23-23.82,74.7,37.35c0,0,67.85-72,98.34-103.4,0,0-48.16-26.53-59.99-44.39-11.19-6.8-27.17-7.88-35.35-6.23-.02,6.8-.51,7.4.55,14.59,0,0,22.78,6.73,11.78,19.76s-75.95,69.86-90.03,82.31Z"/>
  <g>
    <path class="cls-20" d="M385.18,695.04c-6.57,25.71-21.64,105.46-21.64,105.46h72.87l-20.51-111.02-30.73,5.56"/>
    <g class="cls-16">
      <path class="cls-7" d="M379.74,707.57c36.05-1.95,54.63-18.08,54.63-18.08l-59.03-5.71,4.4,23.79Z"/>
    </g>
  </g>
  <path class="cls-9" d="M381.25,692.87c-1.9,0-33.47-49.99,16.2-49.99,27.72,0,35.04,6.66,38.43,14.95s-10.17,30.52-13.94,35.04-35.04,6.03-40.69,0Z"/>
</svg>