<?xml version="1.0" encoding="UTF-8"?>
<svg id="_레이어_1" data-name="레이어 1" xmlns="http://www.w3.org/2000/svg" xmlns:xlink="http://www.w3.org/1999/xlink" version="1.1" viewBox="0 0 800 800">
  <defs>
    <style>
      .cls-1 {
        fill: #ffc0c0;
      }

      .cls-1, .cls-2, .cls-3, .cls-4, .cls-5, .cls-6, .cls-7, .cls-8 {
        stroke-width: 0px;
      }

      .cls-9 {
        stroke: #f9d095;
        stroke-linecap: round;
        stroke-width: 7px;
      }

      .cls-9, .cls-10 {
        fill: none;
        stroke-miterlimit: 10;
      }

      .cls-11 {
        clip-path: url(#clippath);
      }

      .cls-2 {
        fill: #f5f9e5;
      }

      .cls-10 {
        stroke: #c1e8e8;
        stroke-width: 4px;
      }

      .cls-3 {
        fill: #191314;
      }

      .cls-4, .cls-12 {
        fill: #fed6ca;
      }

      .cls-5 {
        fill: #fec4b6;
      }

      .cls-6 {
        fill: #ffe3a4;
      }

      .cls-7 {
        fill: #fec4b5;
      }

      .cls-8 {
        fill: #e6f1f4;
      }
    </style>
    <clipPath id="clippath">
      <path class="cls-4" d="M486.08,431.63c-3.29,54.82-18.64,92.65,4.39,107.46l23.03,14.8-100.2,171.06s-78.53-157.9-77.43-173.25c1.1-15.35,26.21-9.14,27.96-26.32s0-31.25,0-31.25l106.91-69.08,15.35,6.58Z"/>
    </clipPath>
  </defs>
  <rect class="cls-2" y="-.23" width="800" height="800"/>
  <path class="cls-6" d="M367.51,150.6s-145.77-20.32-165.11,162.5c-5.48,51.84-35.55,43.26-36.37,86.67s22.94,36.19,30.88,71.42-32.32,29.09-38.78,69.48c-5.04,31.47,33.43,50.5,23.59,79.17s-34.99,11.62-49.95,56.61c-11.38,34.21,15.68,45.49,8.83,69.01-4.81,16.52-33.69,21.19-33.69,54.77l656.15-.47c-.82-23.75-30.98-21.03-38.37-61.12-4.22-22.91,15.72-39.56-2.17-71.95-17.25-31.23-48.45-14.82-67.15-62.95-11.13-28.64,27.05-45.54,18.95-78.97-10.33-42.63-46.37-25.18-50.47-64.5-4.1-39.32,25.81-36.64,21-71.42-6.34-45.85-44.05-41.09-48.46-85.57-4.77-48.15-69.98-225.57-228.89-152.67Z"/>
  <path class="cls-5" d="M263.4,317.02c-57.84-1.02-69.09,31.89-66.02,62.61,3.07,30.71,36.85,54.1,81.38,42.33l-15.36-104.93Z"/>
  <g>
    <path class="cls-12" d="M486.08,431.63c-3.29,54.82-18.64,92.65,4.39,107.46l23.03,14.8-100.2,171.06s-78.53-157.9-77.43-173.25c1.1-15.35,26.21-9.14,27.96-26.32s0-31.25,0-31.25l106.91-69.08,15.35,6.58Z"/>
    <g class="cls-11">
      <path class="cls-7" d="M475.12,430.07c-12.83,45.46-47.71,112.86-142.55,107.38-37.41-2.16,17-55.92,17-55.92l125.56-51.46Z"/>
    </g>
  </g>
  <path class="cls-4" d="M251.5,308.29c0,69.79,28.64,198.93,112.73,200.41,51,.89,102.89-48.31,118.99-76.05,0,0,80.52,22.37,96.63-39.37,16.1-61.73-45.63-100.2-81.42-59.94,0,0-42.05-134.2-125.26-134.2s-121.68,109.15-121.68,109.15Z"/>
  <circle class="cls-1" cx="295.72" cy="388.85" r="23.91"/>
  <circle class="cls-1" cx="409.43" cy="388.85" r="23.91"/>
  <path class="cls-9" d="M323.69,320s-24.5-2.76-41.93,6.67"/>
  <path class="cls-9" d="M375.17,320.69s24.29-4.22,42.25,4.15"/>
  <path class="cls-3" d="M315.86,354.46c-5.28-.09-10.58-2.11-13.99-6.21-.27-.31-.25-.79.07-1.06.29-.26.73-.25,1.01.02.86.82,1.75,1.62,2.78,2.21,2.94,1.79,6.64,2.55,10.03,2.32,1.86-.11,1.97,2.69.1,2.72h0Z"/>
  <path class="cls-3" d="M389.34,354.46c-4.03-.03-7.93-1.11-11.22-3.41-1.1-.73-2.04-1.69-2.93-2.66-.36-.39-.33-1,.07-1.35.4-.37,1.02-.32,1.37.08,1.61,1.66,3.58,2.92,5.78,3.65,2.14.74,4.62,1.11,6.84.97,1.83-.08,1.94,2.67.1,2.72h0Z"/>
  <ellipse class="cls-3" cx="316.48" cy="363.21" rx="9.21" ry="11.57"/>
  <ellipse class="cls-3" cx="390.16" cy="363.21" rx="9.21" ry="11.57"/>
  <path class="cls-7" d="M479.89,524.76c-2.45,16.68-8.12,36.61-62.47,85.77l-4.13,114.42,33.3-117.24,52.06-70.89s-14.64,4.95-18.76-12.06Z"/>
  <path class="cls-8" d="M342.62,542.18c10.74-4.57,31.21,59.74,52.71,73.32l17.97,99.96,11.38-103.64s71.95-60.66,59.71-78.21c0,0,181.22,26.55,254.63,266.17H140.61s23.09-181.43,202.01-257.59Z"/>
  <circle class="cls-10" cx="440.03" cy="635.46" r="7.45"/>
  <circle class="cls-10" cx="438.42" cy="669" r="7.45"/>
  <circle class="cls-10" cx="435.3" cy="702.53" r="7.45"/>
  <path class="cls-10" d="M336.83,562.42c8.68,17.75,19.69,34.35,32.68,49.24"/>
  <path class="cls-10" d="M498.77,562.19c-7.92,16.78-20.31,31.42-35.54,42.02"/>
  <path class="cls-10" d="M373.01,640.79c3.7,30.84,9.2,61.45,16.48,91.65,14.51.82,29.02,1.65,43.53,2.47,3.5.2,7.11.38,10.41-.78s6.27-4.03,6.43-7.53"/>
  <path class="cls-6" d="M249.46,333.55s40.74,0,53.26-42.86,62.59-41.59,62.59-41.59c0,0-46.26,12.73-32.68,56.02s49.94,40.74,49.94,40.74c0,0-30-5.94-31.7-40.31s34.64-39.89,34.64-39.89c0,0-17.63,25.89,4.63,49.65s31.6,2.96,55.78,1.69,24.61,21.22,41.59,19.52,20.08-14.29,20.08-14.29l-74.27-129.8-128.22,6.71-57.91,83.54,2.26,50.87Z"/>
</svg>