<svg width="28" height="28" viewBox="0 0 28 28" fill="none" xmlns="http://www.w3.org/2000/svg">
<path d="M7 9.2998H16" stroke="#1EAC61" stroke-width="1.7" stroke-linecap="round" stroke-linejoin="round"/>
<path d="M20 9.2998H22" stroke="#1EAC61" stroke-width="1.7" stroke-linecap="round" stroke-linejoin="round"/>
<path d="M7 14.2998H9" stroke="#1EAC61" stroke-width="1.7" stroke-linecap="round" stroke-linejoin="round"/>
<path d="M13 14.2998L22 14.2998" stroke="#1EAC61" stroke-width="1.7" stroke-linecap="round" stroke-linejoin="round"/>
<path d="M20 19.2998H22" stroke="#1EAC61" stroke-width="1.7" stroke-linecap="round" stroke-linejoin="round"/>
<path d="M7 19.2998H16" stroke="#1EAC61" stroke-width="1.7" stroke-linecap="round" stroke-linejoin="round"/>
<path fill-rule="evenodd" clip-rule="evenodd" d="M18.0002 11.6C19.2705 11.6 20.3002 10.5703 20.3002 9.3C20.3002 8.02975 19.2705 7 18.0002 7C16.7299 7 15.7002 8.02975 15.7002 9.3C15.7002 10.5703 16.7299 11.6 18.0002 11.6ZM18 10.3C18.5523 10.3 19 9.85233 19 9.30005C19 8.74776 18.5523 8.30005 18 8.30005C17.4477 8.30005 17 8.74776 17 9.30005C17 9.85233 17.4477 10.3 18 10.3Z" fill="#1EAC61"/>
<path fill-rule="evenodd" clip-rule="evenodd" d="M11.0002 16.6C12.2705 16.6 13.3002 15.5703 13.3002 14.3C13.3002 13.0297 12.2705 12 11.0002 12C9.72994 12 8.7002 13.0297 8.7002 14.3C8.7002 15.5703 9.72994 16.6 11.0002 16.6ZM11 15.3C11.5523 15.3 12 14.8523 12 14.3C12 13.7478 11.5523 13.3 11 13.3C10.4477 13.3 10 13.7478 10 14.3C10 14.8523 10.4477 15.3 11 15.3Z" fill="#1EAC61"/>
<path fill-rule="evenodd" clip-rule="evenodd" d="M18.0002 21.6C19.2705 21.6 20.3002 20.5703 20.3002 19.3C20.3002 18.0297 19.2705 17 18.0002 17C16.7299 17 15.7002 18.0297 15.7002 19.3C15.7002 20.5703 16.7299 21.6 18.0002 21.6ZM18 20.3C18.5523 20.3 19 19.8523 19 19.3C19 18.7478 18.5523 18.3 18 18.3C17.4477 18.3 17 18.7478 17 19.3C17 19.8523 17.4477 20.3 18 20.3Z" fill="#1EAC61"/>
</svg>
