<svg width="24" height="24" viewBox="0 0 24 24" fill="none" xmlns="http://www.w3.org/2000/svg">
<g clip-path="url(#clip0_565_6869)">
<path d="M15.6443 9.76207C16.5596 9.76207 17.3393 9.19423 17.6614 8.38909H20.4667C20.8819 8.38909 21.2379 8.02466 21.2379 7.58395C21.2379 7.14324 20.8904 6.77881 20.4667 6.77881H17.6699C17.3478 5.97367 16.5596 5.40583 15.6443 5.40583C14.729 5.40583 13.9408 5.97367 13.6187 6.77881H4.55877C4.10959 6.77881 3.7621 7.14324 3.7621 7.58395C3.7621 8.02466 4.11806 8.38909 4.55877 8.38909H13.6187C13.9408 9.19423 14.729 9.76207 15.6443 9.76207ZM15.6443 8.61792C15.068 8.61792 14.6018 8.16026 14.6018 7.58395C14.6018 6.99069 15.068 6.5415 15.6443 6.5415C16.2291 6.5415 16.6783 6.99069 16.6783 7.58395C16.6783 8.16026 16.2291 8.61792 15.6443 8.61792ZM4.52487 12.0588C4.10959 12.0588 3.7621 12.4148 3.7621 12.864C3.7621 13.2962 4.11806 13.6606 4.52487 13.6606H7.43185C7.74543 14.4658 8.53362 15.0421 9.45742 15.0421C10.3643 15.0421 11.1525 14.4658 11.4745 13.6606H20.4412C20.8819 13.6606 21.2379 13.3047 21.2379 12.864C21.2379 12.4148 20.8904 12.0588 20.4412 12.0588H11.4745C11.1525 11.2537 10.3643 10.6859 9.45742 10.6859C8.5421 10.6859 7.75391 11.2537 7.43185 12.0588H4.52487ZM9.45742 13.8979C8.87263 13.8979 8.41497 13.4403 8.41497 12.864C8.41497 12.2707 8.87263 11.8215 9.45742 11.8215C10.0422 11.8215 10.4914 12.2707 10.4914 12.864C10.4914 13.4403 10.0422 13.8979 9.45742 13.8979ZM15.6443 20.3137C16.5596 20.3137 17.3478 19.7458 17.6699 18.9407H20.4667C20.8819 18.9407 21.2379 18.5762 21.2379 18.1355C21.2379 17.6863 20.8904 17.3304 20.4667 17.3304H17.6614C17.3478 16.5253 16.5596 15.9574 15.6443 15.9574C14.729 15.9574 13.9408 16.5253 13.6187 17.3304H4.55877C4.10959 17.3304 3.7621 17.6948 3.7621 18.1355C3.7621 18.5762 4.11806 18.9407 4.55877 18.9407H13.6187C13.9408 19.7458 14.729 20.3137 15.6443 20.3137ZM15.6443 19.178C15.068 19.178 14.6018 18.7118 14.6018 18.1355C14.6018 17.5507 15.068 17.0931 15.6443 17.0931C16.2291 17.0931 16.6783 17.5507 16.6783 18.1355C16.6783 18.7118 16.2291 19.178 15.6443 19.178Z" fill="#BCBCBC"/>
</g>
<defs>
<clipPath id="clip0_565_6869">
<rect width="24" height="24" fill="white"/>
</clipPath>
</defs>
</svg>
