<svg width="28" height="27" viewBox="0 0 28 27" fill="none" xmlns="http://www.w3.org/2000/svg">
<path d="M17.6443 10.7621C18.5596 10.7621 19.3393 10.1942 19.6614 9.38909H22.4667C22.8819 9.38909 23.2379 9.02466 23.2379 8.58395C23.2379 8.14324 22.8904 7.77881 22.4667 7.77881H19.6699C19.3478 6.97367 18.5596 6.40583 17.6443 6.40583C16.729 6.40583 15.9408 6.97367 15.6187 7.77881H6.55877C6.10959 7.77881 5.7621 8.14324 5.7621 8.58395C5.7621 9.02466 6.11806 9.38909 6.55877 9.38909H15.6187C15.9408 10.1942 16.729 10.7621 17.6443 10.7621ZM17.6443 9.61792C17.068 9.61792 16.6018 9.16026 16.6018 8.58395C16.6018 7.99069 17.068 7.5415 17.6443 7.5415C18.2291 7.5415 18.6783 7.99069 18.6783 8.58395C18.6783 9.16026 18.2291 9.61792 17.6443 9.61792ZM6.52487 13.0588C6.10959 13.0588 5.7621 13.4148 5.7621 13.864C5.7621 14.2962 6.11806 14.6606 6.52487 14.6606H9.43185C9.74543 15.4658 10.5336 16.0421 11.4574 16.0421C12.3643 16.0421 13.1525 15.4658 13.4745 14.6606H22.4412C22.8819 14.6606 23.2379 14.3047 23.2379 13.864C23.2379 13.4148 22.8904 13.0588 22.4412 13.0588H13.4745C13.1525 12.2537 12.3643 11.6859 11.4574 11.6859C10.5421 11.6859 9.75391 12.2537 9.43185 13.0588H6.52487ZM11.4574 14.8979C10.8726 14.8979 10.415 14.4403 10.415 13.864C10.415 13.2707 10.8726 12.8215 11.4574 12.8215C12.0422 12.8215 12.4914 13.2707 12.4914 13.864C12.4914 14.4403 12.0422 14.8979 11.4574 14.8979ZM17.6443 21.3137C18.5596 21.3137 19.3478 20.7458 19.6699 19.9407H22.4667C22.8819 19.9407 23.2379 19.5762 23.2379 19.1355C23.2379 18.6863 22.8904 18.3304 22.4667 18.3304H19.6614C19.3478 17.5253 18.5596 16.9574 17.6443 16.9574C16.729 16.9574 15.9408 17.5253 15.6187 18.3304H6.55877C6.10959 18.3304 5.7621 18.6948 5.7621 19.1355C5.7621 19.5762 6.11806 19.9407 6.55877 19.9407H15.6187C15.9408 20.7458 16.729 21.3137 17.6443 21.3137ZM17.6443 20.178C17.068 20.178 16.6018 19.7118 16.6018 19.1355C16.6018 18.5507 17.068 18.0931 17.6443 18.0931C18.2291 18.0931 18.6783 18.5507 18.6783 19.1355C18.6783 19.7118 18.2291 20.178 17.6443 20.178Z" fill="white"/>
</svg>
