<svg width="76" height="76" viewBox="0 0 76 76" fill="none" xmlns="http://www.w3.org/2000/svg">
<rect width="76" height="76" fill="white"/>
<path d="M13.6187 33V35.1828H17.9584V37.3949H13.6187V40.0845C13.6187 40.9387 14.0129 41.1986 14.5537 41.1986C15.0946 41.1986 15.4888 40.9355 15.4888 40.0845V39.8376H17.9551V40.0845C17.9551 42.394 16.5737 43.4951 14.5537 43.4951C12.5337 43.4951 11.1523 42.3972 11.1523 40.0845V33" fill="#1EAC61"/>
<path d="M11.1682 35.1666H9.7998V37.3917H11.1682V35.1666Z" fill="#1EAC61"/>
<path d="M19.1182 39.3341C19.1182 36.9304 20.8873 35.1666 23.3959 35.1666C25.9046 35.1666 27.6249 36.9304 27.6249 39.3341V40.0098H21.6268C21.8191 40.9388 22.5293 41.3578 23.3959 41.3578C24.0866 41.3578 24.6014 41.2116 24.9077 40.7829H27.4001C26.8853 42.4167 25.3736 43.5082 23.3959 43.5082C20.8873 43.5082 19.1182 41.7444 19.1182 39.3406V39.3341ZM25.1488 38.4863C24.8751 37.6678 24.2333 37.317 23.3959 37.317C22.5586 37.317 21.9168 37.6873 21.6757 38.4863H25.1488Z" fill="#1EAC61"/>
<path d="M35.6133 39.2951C35.6133 36.5796 37.2195 35.1893 39.6174 35.1893C42.0153 35.1893 43.6215 36.5633 43.6215 39.2951V43.4821H41.1617V39.2951C41.1617 38.0186 40.5394 37.4794 39.6174 37.4794C38.6954 37.4794 38.0731 38.0186 38.0731 39.2951V43.4821H35.6133V39.2951Z" fill="#1EAC61"/>
<path d="M48.7998 39.2951C48.7998 36.5796 50.406 35.1893 52.8039 35.1893C55.2018 35.1893 56.808 36.5633 56.808 39.2951V43.4821H54.3482V39.2951C54.3482 38.0186 53.7259 37.4794 52.8039 37.4794C51.8819 37.4794 51.2596 38.0186 51.2596 39.2951V43.4821H48.7998V39.2951Z" fill="#1EAC61"/>
<path fill-rule="evenodd" clip-rule="evenodd" d="M58.2811 44.1513C58.7698 46.11 60.3597 47 62.4058 47C64.7255 47 66.6575 45.8177 66.6575 42.7578V39.4576C66.6575 36.8362 64.9047 35.1699 62.3699 35.1699C59.8352 35.1699 58.0498 36.9499 58.0498 39.3796C58.0498 42.342 60.1903 43.4594 61.8975 43.4594C62.9043 43.4594 63.7155 43.0891 64.2172 42.3745V42.8455C64.2172 44.3982 63.5689 44.9016 62.383 44.9016C61.5717 44.9016 60.9853 44.658 60.7442 44.1578H58.2746L58.2811 44.1513ZM62.3732 37.4339C63.4777 37.4339 64.2238 38.2265 64.2238 39.3764C64.2238 40.5262 63.4777 41.1889 62.3732 41.1889C61.2687 41.1889 60.5226 40.5262 60.5226 39.3764C60.5226 38.2265 61.2687 37.4339 62.3732 37.4339Z" fill="#1EAC61"/>
<path d="M47.3345 35.1666H44.7998V43.4432H47.3345V35.1666Z" fill="#1EAC61"/>
<path d="M32.8241 35.1926C30.4294 35.1926 28.8232 36.5828 28.8232 39.2951V43.4821H31.2831V39.2951C31.2831 38.0186 31.9053 37.4794 32.8241 37.4794V35.1991V37.4664H34.5899V35.1893H32.8241V35.1926Z" fill="#1EAC61"/>
</svg>
