<svg width="28" height="28" viewBox="0 0 28 28" fill="none" xmlns="http://www.w3.org/2000/svg">
<g clip-path="url(#clip0_571_6725)">
<path d="M4.43945 9.17383C3.60156 9.17383 2.9248 8.49707 2.9248 7.65918C2.9248 6.83203 3.60156 6.15527 4.43945 6.15527C5.2666 6.15527 5.94336 6.83203 5.94336 7.65918C5.94336 8.49707 5.2666 9.17383 4.43945 9.17383ZM9.45605 8.67969C8.88672 8.67969 8.43555 8.22852 8.43555 7.65918C8.43555 7.08984 8.88672 6.63867 9.45605 6.63867H24.0547C24.624 6.63867 25.0752 7.08984 25.0752 7.65918C25.0752 8.22852 24.624 8.67969 24.0547 8.67969H9.45605ZM4.43945 15.7695C3.60156 15.7695 2.9248 15.0928 2.9248 14.2549C2.9248 13.4277 3.60156 12.751 4.43945 12.751C5.2666 12.751 5.94336 13.4277 5.94336 14.2549C5.94336 15.0928 5.2666 15.7695 4.43945 15.7695ZM9.45605 15.2754C8.88672 15.2754 8.43555 14.8242 8.43555 14.2549C8.43555 13.6855 8.88672 13.2344 9.45605 13.2344H24.0547C24.624 13.2344 25.0752 13.6855 25.0752 14.2549C25.0752 14.8242 24.624 15.2754 24.0547 15.2754H9.45605ZM4.43945 22.3652C3.60156 22.3652 2.9248 21.6885 2.9248 20.8506C2.9248 20.0234 3.60156 19.3467 4.43945 19.3467C5.2666 19.3467 5.94336 20.0234 5.94336 20.8506C5.94336 21.6885 5.2666 22.3652 4.43945 22.3652ZM9.45605 21.8711C8.88672 21.8711 8.43555 21.4199 8.43555 20.8506C8.43555 20.2812 8.88672 19.8301 9.45605 19.8301H24.0547C24.624 19.8301 25.0752 20.2812 25.0752 20.8506C25.0752 21.4199 24.624 21.8711 24.0547 21.8711H9.45605Z" fill="#1EAC61"/>
</g>
<defs>
<clipPath id="clip0_571_6725">
<rect width="28" height="28" fill="white"/>
</clipPath>
</defs>
</svg>
