<svg width="280" height="203" viewBox="0 0 280 203" fill="none" xmlns="http://www.w3.org/2000/svg">
<path d="M140 203C196.057 203 241.5 157.557 241.5 101.5C241.5 45.4431 196.057 0 140 0C83.9431 0 38.5 45.4431 38.5 101.5C38.5 157.557 83.9431 203 140 203Z" fill="#D9F9F8"/>
<path d="M182.49 139.969C180.86 140.649 181.01 140.999 179.39 141.679C177.77 142.359 177.68 142.169 176.06 142.849C174.44 143.529 174.45 143.579 172.83 144.259C171.21 144.939 171.12 144.739 169.49 145.419C167.86 146.099 167.92 146.239 166.29 146.919C164.66 147.599 164.65 147.579 163.03 148.259C161.41 148.939 161.47 149.089 159.84 149.769C158.21 150.449 158.14 150.269 156.51 150.959C154.88 151.649 154.8 151.439 153.17 152.119C151.54 152.799 151.59 152.919 149.96 153.599C148.33 154.279 148.32 154.249 146.69 154.939C145.06 155.629 145.2 155.969 143.57 156.649C142.53 157.079 141.36 156.829 140.25 156.829C139.14 156.829 138.09 156.789 137.06 156.359C135.41 155.679 135.27 156.029 133.62 155.349C131.97 154.669 132.16 154.209 130.52 153.529C128.88 152.849 128.68 153.309 127.04 152.629C125.4 151.949 125.54 151.599 123.89 150.919C122.24 150.239 122.12 150.529 120.47 149.849C118.82 149.169 118.88 149.019 117.23 148.339C115.58 147.659 115.54 147.759 113.9 147.079C112.26 146.399 112.39 146.059 110.75 145.379C109.11 144.699 109.03 144.859 107.39 144.179C105.75 143.499 105.77 143.429 104.12 142.749C102.47 142.069 102.47 142.059 100.82 141.379C99.1696 140.699 99.1096 140.849 97.4496 140.169C96.3996 139.739 95.6296 138.929 94.8596 138.159C94.0896 137.389 93.2296 136.619 92.7996 135.599C92.3696 134.579 92.1596 133.459 92.1596 132.329C92.1596 130.549 92.4196 130.549 92.4196 128.769C92.4196 126.989 92.1296 126.989 92.1296 125.209C92.1296 123.429 92.2896 123.429 92.2896 121.649C92.2896 119.869 92.4996 119.869 92.4996 118.089C92.4996 116.309 92.0596 116.309 92.0596 114.529C92.0596 112.749 91.9696 112.749 91.9696 110.969C91.9696 109.189 92.1696 109.189 92.1696 107.409C92.1696 105.629 91.9596 105.629 91.9596 103.849C91.9596 102.069 92.2596 102.069 92.2596 100.289C92.2596 98.5093 92.0296 98.5093 92.0296 96.7293C92.0296 94.9493 92.4196 94.9493 92.4196 93.1693C92.4196 91.3893 92.4396 91.3893 92.4396 89.6093C92.4396 87.8293 92.0596 87.8293 92.0596 86.0393C92.0596 84.2493 90.7896 83.5493 92.0596 82.2793C93.3296 81.0093 94.0196 82.6693 95.7896 82.6693C97.5596 82.6693 97.5596 82.2393 99.3296 82.2393C101.1 82.2393 101.1 82.5393 102.87 82.5393C104.64 82.5393 104.64 82.1893 106.41 82.1893C108.18 82.1893 108.18 82.3193 109.95 82.3193C111.72 82.3193 111.72 82.1993 113.49 82.1993C115.26 82.1993 115.26 82.2593 117.03 82.2593C118.8 82.2593 118.8 82.3493 120.57 82.3493C122.34 82.3493 122.34 82.6393 124.11 82.6393C125.88 82.6393 125.88 82.4193 127.65 82.4193C129.42 82.4193 129.42 82.2593 131.19 82.2593C132.96 82.2593 132.96 82.7393 134.72 82.7393C136.48 82.7393 136.49 82.4093 138.26 82.4093C140.03 82.4093 140.03 82.6793 141.79 82.6793C143.55 82.6793 143.56 82.6593 145.33 82.6593C147.1 82.6593 147.1 82.2993 148.87 82.2993C150.64 82.2993 150.64 82.6793 152.41 82.6793C154.18 82.6793 154.18 82.6393 155.95 82.6393C157.72 82.6393 157.72 82.5793 159.49 82.5793C161.26 82.5793 161.26 82.3493 163.03 82.3493C164.8 82.3493 164.8 82.2093 166.57 82.2093C168.34 82.2093 168.34 82.3993 170.11 82.3993C171.88 82.3993 171.88 82.3293 173.65 82.3293C175.42 82.3293 175.42 82.2593 177.19 82.2593C178.96 82.2593 178.96 82.7293 180.73 82.7293C182.5 82.7293 182.5 82.5193 184.28 82.5193C186.06 82.5193 186.42 81.3893 187.67 82.6393C188.92 83.8893 187.82 84.2693 187.82 86.0493C187.82 87.8293 187.62 87.8293 187.62 89.6093C187.62 91.3893 187.98 91.3893 187.98 93.1693C187.98 94.9493 188.1 94.9493 188.1 96.7293C188.1 98.5093 187.68 98.5093 187.68 100.289C187.68 102.069 187.76 102.069 187.76 103.849C187.76 105.629 187.76 105.629 187.76 107.409C187.76 109.189 187.91 109.189 187.91 110.969C187.91 112.749 187.93 112.749 187.93 114.529C187.93 116.309 187.61 116.309 187.61 118.089C187.61 119.869 187.61 119.869 187.61 121.649C187.61 123.429 187.84 123.429 187.84 125.209C187.84 126.989 187.55 126.989 187.55 128.779C187.55 130.569 187.6 130.559 187.6 132.349C187.6 133.479 187.64 134.599 187.23 135.609C186.82 136.619 186.31 137.729 185.53 138.519C184.75 139.309 183.57 139.539 182.53 139.979L182.49 139.969Z" fill="#E8E8E8"/>
<path d="M187.85 82.5505C186.67 83.8705 185.99 82.5605 184.23 82.5605C182.47 82.5605 182.46 82.7305 180.69 82.7305C178.92 82.7305 178.92 82.6605 177.15 82.6605C175.38 82.6605 175.38 82.4105 173.61 82.4105C171.84 82.4105 171.84 82.3205 170.07 82.3205C168.3 82.3205 168.3 82.6105 166.53 82.6105C164.76 82.6105 164.76 82.7305 162.99 82.7305C161.22 82.7305 161.22 82.6305 159.45 82.6305C157.68 82.6305 157.68 82.4005 155.91 82.4005C154.14 82.4005 154.14 82.5905 152.37 82.5905C150.6 82.5905 150.6 82.7405 148.83 82.7405C147.06 82.7405 147.06 82.6805 145.3 82.6805C143.54 82.6805 143.53 82.5005 141.76 82.5005C139.99 82.5005 139.99 82.7605 138.23 82.7605C136.47 82.7605 136.46 82.4305 134.69 82.4305C132.92 82.4305 132.92 82.3605 131.15 82.3605C129.38 82.3605 129.38 82.5005 127.61 82.5005C125.84 82.5005 125.84 82.7405 124.07 82.7405C122.3 82.7405 122.3 82.2105 120.53 82.2105C118.76 82.2105 118.76 82.4905 116.99 82.4905C115.22 82.4905 115.22 82.6305 113.45 82.6305C111.68 82.6305 111.68 82.7105 109.91 82.7105C108.14 82.7105 108.14 82.4705 106.37 82.4705C104.6 82.4705 104.6 82.5605 102.83 82.5605C101.06 82.5605 101.06 82.3405 99.29 82.3405C97.52 82.3405 97.52 82.6805 95.74 82.6805C93.96 82.6805 93.18 83.9905 91.99 82.6805C90.67 81.2105 92.08 80.5305 92.08 78.5605C92.08 76.5905 91.92 76.5905 91.92 74.6205C91.92 72.6505 91.92 72.6505 91.92 70.6805C91.92 68.7105 92.5 68.7005 92.5 66.7305C92.5 64.7605 92.2 64.7505 92.2 62.7805C92.2 61.4205 92.35 60.0105 92.98 58.9105C93.61 57.8105 94.75 56.8705 95.88 56.2105C97.01 55.5505 98.31 55.5905 99.67 55.5905C101.5 55.5905 101.5 55.4005 103.33 55.4005C105.16 55.4005 105.16 55.4305 106.99 55.4305C108.82 55.4305 108.82 55.5005 110.65 55.5005C112.48 55.5005 112.48 55.0705 114.31 55.0705C116.14 55.0705 116.14 55.4905 117.97 55.4905C119.8 55.4905 119.8 55.5205 121.63 55.5205C123.46 55.5205 123.46 55.4305 125.29 55.4305C127.12 55.4305 127.12 55.1805 128.95 55.1805C130.78 55.1805 130.78 55.1305 132.61 55.1305C134.44 55.1305 134.44 55.4405 136.27 55.4405C138.1 55.4405 138.1 55.4605 139.93 55.4605C141.76 55.4605 141.76 55.3005 143.59 55.3005C145.42 55.3005 145.42 55.1005 147.25 55.1005C149.08 55.1005 149.08 55.2105 150.91 55.2105C152.74 55.2105 152.74 55.2405 154.57 55.2405C156.4 55.2405 156.4 55.5005 158.23 55.5005C160.06 55.5005 160.06 55.6005 161.89 55.6005C163.72 55.6005 163.72 55.3705 165.55 55.3705C167.38 55.3705 167.38 55.0605 169.21 55.0605C171.04 55.0605 171.04 55.3005 172.87 55.3005C174.7 55.3005 174.71 55.1405 176.54 55.1405C178.37 55.1405 178.38 55.2105 180.21 55.2105C181.57 55.2105 182.8 55.7505 183.9 56.3905C185 57.0305 185.91 57.9805 186.57 59.1105C187.23 60.2405 187.87 61.4205 187.87 62.7805C187.87 64.7505 187.97 64.7505 187.97 66.7205C187.97 68.6905 187.83 68.6905 187.83 70.6605C187.83 72.6305 187.85 72.6305 187.85 74.6005C187.85 76.5705 187.13 76.6505 187.55 78.5805C188 80.6705 189.1 81.1105 187.78 82.5805L187.85 82.5505Z" fill="#1EAC61"/>
<path d="M187.67 82.2795C186.08 83.0495 185.99 82.2995 184.23 82.2995C182.47 82.2995 182.46 82.3895 180.69 82.3895C178.92 82.3895 178.92 82.6095 177.15 82.6095C175.38 82.6095 175.38 82.4395 173.61 82.4395C171.84 82.4395 171.84 82.6295 170.07 82.6295C168.3 82.6295 168.3 82.2195 166.53 82.2195C164.76 82.2195 164.76 82.7795 162.99 82.7795C161.22 82.7795 161.22 82.6495 159.45 82.6495C157.68 82.6495 157.68 82.7395 155.91 82.7395C154.14 82.7395 154.14 82.7395 152.37 82.7395C150.6 82.7395 150.6 82.3095 148.83 82.3095C147.06 82.3095 147.06 82.2095 145.3 82.2095C143.54 82.2095 143.53 82.3795 141.76 82.3795C139.99 82.3795 139.99 82.4395 138.23 82.4395C136.47 82.4395 136.46 82.5395 134.69 82.5395C132.92 82.5395 132.92 82.4595 131.15 82.4595C129.38 82.4595 129.38 82.6895 127.61 82.6895C125.84 82.6895 125.84 82.5495 124.07 82.5495C122.3 82.5495 122.3 82.2095 120.53 82.2095C118.76 82.2095 118.76 82.3495 116.99 82.3495C115.22 82.3495 115.22 82.5795 113.45 82.5795C111.68 82.5795 111.68 82.5295 109.91 82.5295C108.14 82.5295 108.14 82.6995 106.37 82.6995C104.6 82.6995 104.6 82.3795 102.83 82.3795C101.06 82.3795 101.06 82.6895 99.2901 82.6895C97.5201 82.6895 97.5201 82.4895 95.7401 82.4895C93.9601 82.4895 93.8801 83.0695 92.2801 82.2995C91.5101 81.9295 91.5001 81.3095 92.2601 80.9495C93.8501 80.1795 93.9501 80.8695 95.7201 80.8695C97.4901 80.8695 97.4901 80.6395 99.2601 80.6395C101.03 80.6395 101.03 80.9195 102.8 80.9195C104.57 80.9195 104.57 80.5395 106.34 80.5395C108.11 80.5395 108.11 80.9095 109.88 80.9095C111.65 80.9095 111.65 80.7695 113.42 80.7695C115.19 80.7695 115.19 80.7495 116.96 80.7495C118.73 80.7495 118.73 80.9095 120.5 80.9095C122.27 80.9095 122.27 81.0295 124.04 81.0295C125.81 81.0295 125.81 80.9295 127.58 80.9295C129.35 80.9295 129.35 80.8195 131.12 80.8195C132.89 80.8195 132.89 80.9495 134.65 80.9495C136.41 80.9495 136.42 81.0095 138.19 81.0095C139.96 81.0095 139.96 80.9695 141.72 80.9695C143.48 80.9695 143.49 80.8395 145.26 80.8395C147.03 80.8395 147.03 80.5495 148.8 80.5495C150.57 80.5495 150.57 80.7195 152.34 80.7195C154.11 80.7195 154.11 80.5195 155.88 80.5195C157.65 80.5195 157.65 80.8695 159.42 80.8695C161.19 80.8695 161.19 80.8695 162.96 80.8695C164.73 80.8695 164.73 80.6695 166.5 80.6695C168.27 80.6695 168.27 80.6695 170.04 80.6695C171.81 80.6695 171.81 80.6195 173.58 80.6195C175.35 80.6195 175.35 80.9495 177.12 80.9495C178.89 80.9495 178.89 80.5195 180.66 80.5195C182.43 80.5195 182.43 80.9095 184.21 80.9095C185.99 80.9095 185.99 80.5195 187.71 80.9795C188.53 81.1995 188.43 81.9395 187.67 82.2995V82.2795Z" fill="#179650"/>
<path d="M92.0798 77.9297C92.0698 79.4697 92.1498 79.5797 93.9698 80.4097C94.6698 80.7297 95.7098 80.6897 97.0598 80.6897C101.9 80.6897 99.1198 80.1597 97.0998 80.8797C96.2998 81.1597 97.8498 82.1597 97.0498 82.4397C94.7798 83.2397 94.6598 82.2697 92.2498 82.2697" fill="#179650"/>
<path d="M187.81 77.9395C187.82 79.4795 187.87 79.6495 186.06 80.4695C185.36 80.7895 184.29 80.6994 182.95 80.6994C178.11 80.6994 180.93 80.0395 182.95 80.7495C183.75 81.0295 182.2 82.0095 183.01 82.2895C185.28 83.0895 185.35 82.6395 187.76 82.6395" fill="#179650"/>
<path d="M117.85 62.5206C116.92 62.5206 115.97 62.0806 115.29 61.1106C114.78 60.3806 114.61 59.3306 114.34 58.2406C114.11 57.3206 113.75 56.3406 113.75 55.2706C113.75 54.2006 114.24 53.2506 114.47 52.3306C114.74 51.2406 114.98 50.2906 115.49 49.5606C116.17 48.5906 116.93 47.7806 117.86 47.7806C118.79 47.7806 119.75 48.4506 120.43 49.4206C120.94 50.1506 121.05 51.2206 121.32 52.3106C121.55 53.2306 121.87 54.1906 121.87 55.2606C123.35 55.7706 123.62 56.0406 125.08 55.4706C125.08 54.2206 124.82 52.8506 124.57 51.7306C124.29 50.5006 123.7 49.4706 123.17 48.4806C122.56 47.3406 122.07 46.2206 121.21 45.5306C120.23 44.7506 119.06 44.3906 117.87 44.3906C116.68 44.3906 115.68 44.9606 114.7 45.7406C113.84 46.4306 112.81 47.1406 112.2 48.2806C111.67 49.2706 111.21 50.4406 110.93 51.6706C110.68 52.7906 110.81 54.0206 110.81 55.2706C110.81 56.5206 110.97 57.6906 111.22 58.8006C111.5 60.0306 111.78 61.2106 112.31 62.2006C112.92 63.3406 113.58 64.4306 114.45 65.1206C115.43 65.9006 116.69 66.3606 117.87 66.3606C118.93 66.3606 118.93 62.5206 117.87 62.5206H117.85Z" fill="#127F3E"/>
<path d="M162.15 62.5898C163.08 62.5898 164.14 62.1598 164.82 61.1898C165.33 60.4598 165.62 59.3898 165.89 58.2998C166.12 57.3798 166.02 56.3398 166.02 55.2698C166.02 54.1998 166.27 53.1198 166.05 52.1998C165.78 51.1098 165.26 50.1298 164.75 49.3998C164.07 48.4298 163.09 47.9298 162.16 47.9298C161.23 47.9298 160.17 48.3798 159.49 49.3498C158.98 50.0798 158.87 51.1898 158.6 52.2798C158.37 53.1998 158.09 54.0098 158.09 55.0898C156.61 55.5998 156.53 55.7098 155.07 55.1298C155.07 53.8798 155.23 52.8398 155.48 51.7298C155.76 50.4998 156 49.2898 156.53 48.2998C157.14 47.1598 158.1 46.3898 158.96 45.6998C159.94 44.9198 160.97 44.2598 162.16 44.2598C163.35 44.2598 164.29 45.0198 165.28 45.7998C166.14 46.4898 166.97 47.2698 167.58 48.4098C168.11 49.3998 168.8 50.4398 169.07 51.6698C169.32 52.7898 169.43 54.0198 169.43 55.2598C169.43 56.4998 168.97 57.6598 168.72 58.7698C168.44 59.9998 168.23 61.1898 167.7 62.1798C167.09 63.3198 166.19 64.0998 165.33 64.7798C164.35 65.5598 163.35 66.2198 162.17 66.2198C161.11 66.2198 161.11 62.5798 162.17 62.5798L162.15 62.5898Z" fill="#127F3E"/>
<path d="M182.46 139.89C180.83 140.57 180.96 140.87 179.33 141.55C177.7 142.23 177.58 141.95 175.96 142.63C174.34 143.31 174.47 143.63 172.84 144.31C171.21 144.99 171.11 144.74 169.48 145.42C167.85 146.1 167.94 146.31 166.31 146.99C164.68 147.67 164.69 147.69 163.06 148.38C161.43 149.07 161.33 148.82 159.71 149.5C158.09 150.18 158.21 150.49 156.59 151.17C154.97 151.85 154.97 151.88 153.35 152.56C151.73 153.24 151.65 153.08 150.03 153.76C148.41 154.44 148.28 154.17 146.65 154.85C145.02 155.53 145.02 155.55 143.39 156.23C142.35 156.66 141.36 157.22 140.26 157.22C139.16 157.22 138.15 156.7 137.11 156.27C135.46 155.59 135.28 156.04 133.63 155.36C131.98 154.68 132.04 154.54 130.39 153.86C128.74 153.18 128.8 153.04 127.15 152.36C125.5 151.68 125.48 151.74 123.83 151.06C122.18 150.38 122.07 150.64 120.42 149.96C118.77 149.28 118.79 149.25 117.14 148.56C115.49 147.87 115.48 147.92 113.83 147.24C112.18 146.56 112.33 146.2 110.68 145.52C109.03 144.84 109.03 144.84 107.38 144.16C105.73 143.48 105.78 143.35 104.13 142.67C102.48 141.99 102.48 141.98 100.83 141.29C99.1803 140.6 98.9903 141.07 97.3403 140.39C96.2903 139.96 95.4103 139.14 94.6403 138.37C93.8703 137.6 93.4103 136.54 92.9803 135.52C92.5503 134.5 92.4703 133.47 92.4703 132.33C92.4703 130.55 92.0003 130.55 92.0003 128.77C92.0003 126.99 92.1203 126.99 92.1203 125.21C92.1203 123.43 91.9303 123.43 91.9303 121.65C91.9303 119.87 92.2603 119.87 92.2603 118.09C92.2603 116.31 91.9303 116.31 91.9303 114.53C91.9303 112.75 92.1003 112.75 92.1003 110.97C92.1003 109.19 92.4503 109.19 92.4503 107.41C92.4503 105.63 91.9803 105.63 91.9803 103.85C91.9803 102.07 92.3003 102.07 92.3003 100.29C92.3003 98.5097 92.3003 98.5098 92.3003 96.7298C92.3003 94.9498 92.4803 94.9497 92.4803 93.1697C92.4803 91.3897 92.2403 91.3897 92.2403 89.6097C92.2403 87.8297 92.0803 87.8297 92.0803 86.0397C92.0803 84.2497 90.8803 83.6798 92.1303 82.4098C93.3803 81.1398 93.9604 82.2097 95.7304 82.2097C97.5003 82.2097 97.5003 82.2797 99.2703 82.2797C101.04 82.2797 101.04 82.5297 102.81 82.5297C104.58 82.5297 104.58 82.6198 106.35 82.6198C108.12 82.6198 108.12 82.3297 109.89 82.3297C111.66 82.3297 111.66 82.2097 113.43 82.2097C115.2 82.2097 115.2 82.3097 116.97 82.3097C118.74 82.3097 118.74 82.5397 120.51 82.5397C122.28 82.5397 122.28 82.3497 124.05 82.3497C125.82 82.3497 125.82 82.1997 127.59 82.1997C129.36 82.1997 129.36 82.2597 131.13 82.2597C132.9 82.2597 132.9 82.4398 134.66 82.4398C136.42 82.4398 136.43 82.1797 138.2 82.1797C139.97 82.1797 139.97 82.5097 141.73 82.5097C143.49 82.5097 143.5 82.5797 145.27 82.5797C147.04 82.5797 147.04 82.4398 148.81 82.4398C150.58 82.4398 150.58 82.1997 152.35 82.1997C154.12 82.1997 154.12 82.7298 155.89 82.7298C157.66 82.7298 157.66 82.4497 159.43 82.4497C161.2 82.4497 161.2 82.3097 162.97 82.3097C164.74 82.3097 164.74 82.2298 166.51 82.2298C168.28 82.2298 168.28 82.4697 170.05 82.4697C171.82 82.4697 171.82 82.3797 173.59 82.3797C175.36 82.3797 175.36 82.5997 177.13 82.5997C178.9 82.5997 178.9 82.2597 180.67 82.2597C182.44 82.2597 182.44 82.1797 184.22 82.1797C186 82.1797 186.6 81.1098 187.85 82.3698C189.1 83.6298 188.05 84.2297 188.05 86.0097C188.05 87.7897 188.05 87.7897 188.05 89.5697C188.05 91.3497 187.47 91.3497 187.47 93.1297C187.47 94.9097 187.77 94.9097 187.77 96.6897C187.77 98.4697 188.02 98.4697 188.02 100.25C188.02 102.03 187.87 102.03 187.87 103.81C187.87 105.59 187.48 105.59 187.48 107.37C187.48 109.15 187.67 109.15 187.67 110.93C187.67 112.71 187.64 112.71 187.64 114.49C187.64 116.27 187.57 116.27 187.57 118.05C187.57 119.83 188 119.83 188 121.61C188 123.39 187.58 123.39 187.58 125.17C187.58 126.95 187.55 126.95 187.55 128.74C187.55 130.53 187.64 130.52 187.64 132.31C187.64 133.44 187.65 134.58 187.24 135.58C186.83 136.58 186.21 137.61 185.42 138.39C184.63 139.17 183.5 139.4 182.46 139.84V139.89Z" fill="white"/>
<path d="M182.5 138.73C180.87 139.41 180.91 139.5 179.29 140.18C177.67 140.86 177.75 141.08 176.13 141.76C174.51 142.44 174.39 142.18 172.77 142.86C171.15 143.54 171.29 143.89 169.66 144.57C168.03 145.25 167.89 144.91 166.26 145.59C164.63 146.27 164.69 146.4 163.06 147.08C161.43 147.76 161.44 147.78 159.82 148.46C158.2 149.14 158.13 148.99 156.5 149.67C154.87 150.35 154.82 150.24 153.2 150.92C151.58 151.6 151.61 151.69 149.98 152.37C148.35 153.05 148.39 153.15 146.76 153.83C145.13 154.51 145.08 154.4 143.45 155.08C142.41 155.51 141.37 155.66 140.27 155.67C139.17 155.68 138.13 155.52 137.09 155.09C135.44 154.41 135.39 154.53 133.75 153.85C132.11 153.17 131.99 153.44 130.34 152.76C128.69 152.08 128.76 151.92 127.11 151.24C125.46 150.56 125.39 150.74 123.74 150.06C122.09 149.38 122.23 149.05 120.58 148.37C118.93 147.69 118.93 147.69 117.28 147.01C115.63 146.33 115.56 146.51 113.91 145.83C112.26 145.15 112.26 145.15 110.61 144.47C108.96 143.79 108.94 143.84 107.29 143.15C105.64 142.46 105.77 142.16 104.12 141.48C102.47 140.8 102.31 141.19 100.66 140.51C99.0103 139.83 99.1603 139.47 97.5103 138.78C96.4603 138.35 95.6303 137.69 94.8603 136.92C94.0903 136.15 93.5903 135.23 93.1603 134.2C92.7303 133.17 92.0303 132.21 92.0303 131.08C92.0303 132.21 92.4703 132.21 92.4703 133.35C92.4703 134.48 92.6803 135.49 93.1003 136.5C93.5203 137.51 93.7303 138.75 94.5203 139.54C95.3103 140.33 96.4403 140.7 97.4803 141.13C99.1303 141.81 99.0103 142.09 100.65 142.77C102.29 143.45 102.43 143.13 104.08 143.81C105.73 144.49 105.62 144.74 107.27 145.42C108.92 146.1 109.01 145.89 110.65 146.57C112.29 147.25 112.31 147.23 113.96 147.91C115.61 148.59 115.51 148.83 117.16 149.51C118.81 150.19 118.94 149.88 120.58 150.56C122.22 151.24 122.24 151.21 123.89 151.89C125.54 152.57 125.47 152.73 127.12 153.42C128.77 154.11 128.66 154.37 130.3 155.06C131.94 155.75 131.96 155.73 133.61 156.41C135.26 157.09 135.4 156.76 137.05 157.45C138.09 157.88 139.16 158.42 140.27 158.42C141.38 158.42 142.38 157.73 143.42 157.29C145.05 156.61 145.1 156.75 146.73 156.07C148.36 155.39 148.41 155.53 150.04 154.85C151.67 154.17 151.64 154.11 153.27 153.43C154.9 152.75 154.79 152.49 156.41 151.81C158.03 151.13 158.05 151.16 159.68 150.48C161.31 149.8 161.29 149.76 162.92 149.08C164.55 148.4 164.69 148.76 166.32 148.08C167.95 147.4 167.95 147.39 169.57 146.71C171.19 146.03 171.25 146.15 172.88 145.47C174.51 144.79 174.51 144.8 176.14 144.12C177.77 143.44 177.58 142.97 179.21 142.29C180.84 141.61 180.91 141.78 182.54 141.1C183.58 140.66 184.63 140.21 185.39 139.44C186.15 138.67 186.93 137.73 187.35 136.71C187.77 135.69 187.54 134.52 187.54 133.39C187.54 132.26 187.66 132.26 187.66 131.12C187.66 132.25 187.79 133.45 187.38 134.45C186.97 135.45 186.04 136.26 185.26 137.04C184.48 137.82 183.54 138.32 182.5 138.75V138.73Z" fill="#F2F2F2"/>
<path d="M128.75 110.08C128.75 110.8 128.47 111.53 128.21 112.16C127.95 112.79 127.34 113.24 126.84 113.74C126.34 114.24 125.82 114.6 125.17 114.87C124.52 115.14 123.91 115.63 123.19 115.63C122.47 115.63 121.82 115.17 121.19 114.91C120.56 114.65 119.89 114.37 119.4 113.88C118.91 113.39 118.68 112.72 118.41 112.07C118.14 111.42 117.96 110.82 117.96 110.09C117.96 109.36 118.06 108.71 118.32 108.08C118.58 107.45 118.79 106.69 119.28 106.19C119.77 105.69 120.52 105.51 121.17 105.24C121.82 104.97 122.45 104.73 123.18 104.73C123.91 104.73 124.52 105.08 125.15 105.34C125.78 105.6 126.4 105.89 126.89 106.38C127.38 106.87 127.79 107.42 128.06 108.07C128.33 108.72 128.74 109.37 128.74 110.09L128.75 110.08Z" fill="#F9DBDE"/>
<path d="M128.75 110.08C128.75 110.8 128.47 111.53 128.21 112.16C127.95 112.79 127.34 113.24 126.84 113.74C126.34 114.24 125.82 114.6 125.17 114.87C124.52 115.14 123.91 115.63 123.19 115.63C122.47 115.63 121.82 115.17 121.19 114.91C120.56 114.65 119.89 114.37 119.4 113.88C118.91 113.39 118.68 112.72 118.41 112.07C118.14 111.42 117.96 110.82 117.96 110.09C117.96 109.36 118.06 108.71 118.32 108.08C118.58 107.45 118.79 106.69 119.28 106.19C119.77 105.69 120.52 105.51 121.17 105.24C121.82 104.97 122.45 104.73 123.18 104.73C123.91 104.73 124.52 105.08 125.15 105.34C125.78 105.6 126.4 105.89 126.89 106.38C127.38 106.87 127.79 107.42 128.06 108.07C128.33 108.72 128.74 109.37 128.74 110.09L128.75 110.08Z" stroke="#F9DBDE" stroke-width="1.59" stroke-miterlimit="10"/>
<path d="M162.3 110.079C162.3 110.799 162.08 111.529 161.81 112.159C161.54 112.789 161 113.299 160.51 113.789C160.02 114.279 159.58 114.939 158.93 115.209C158.28 115.479 157.53 115.599 156.8 115.599C156.07 115.599 155.39 115.249 154.77 114.989C154.15 114.729 153.42 114.439 152.93 113.949C152.44 113.459 151.96 112.849 151.69 112.189C151.42 111.529 151.52 110.799 151.52 110.069C151.52 109.339 151.69 108.689 151.95 108.059C152.21 107.429 152.68 106.929 153.17 106.439C153.66 105.949 154.17 105.569 154.82 105.299C155.47 105.029 156.08 104.539 156.8 104.539C157.52 104.539 158.28 104.729 158.91 104.989C159.54 105.249 160.09 105.809 160.58 106.299C161.07 106.789 161.31 107.449 161.58 108.099C161.85 108.749 162.3 109.349 162.3 110.079Z" fill="#F9DBDE"/>
<path d="M162.3 110.079C162.3 110.799 162.08 111.529 161.81 112.159C161.54 112.789 161 113.299 160.51 113.789C160.02 114.279 159.58 114.939 158.93 115.209C158.28 115.479 157.53 115.599 156.8 115.599C156.07 115.599 155.39 115.249 154.77 114.989C154.15 114.729 153.42 114.439 152.93 113.949C152.44 113.459 151.96 112.849 151.69 112.189C151.42 111.529 151.52 110.799 151.52 110.069C151.52 109.339 151.69 108.689 151.95 108.059C152.21 107.429 152.68 106.929 153.17 106.439C153.66 105.949 154.17 105.569 154.82 105.299C155.47 105.029 156.08 104.539 156.8 104.539C157.52 104.539 158.28 104.729 158.91 104.989C159.54 105.249 160.09 105.809 160.58 106.299C161.07 106.789 161.31 107.449 161.58 108.099C161.85 108.749 162.3 109.349 162.3 110.079Z" stroke="#F9DBDE" stroke-width="1.59" stroke-miterlimit="10"/>
<path d="M133.011 108.359C134.253 108.359 135.261 106.814 135.261 104.909C135.261 103.004 134.253 101.459 133.011 101.459C131.768 101.459 130.761 103.004 130.761 104.909C130.761 106.814 131.768 108.359 133.011 108.359Z" fill="#231815"/>
<path d="M146.92 108.359C148.163 108.359 149.17 106.814 149.17 104.909C149.17 103.004 148.163 101.459 146.92 101.459C145.677 101.459 144.67 103.004 144.67 104.909C144.67 106.814 145.677 108.359 146.92 108.359Z" fill="#231815"/>
<path d="M134.78 111.17C135.16 112 134.93 111.98 135.63 112.78C135.99 113.19 136.56 113.47 137.12 113.85C137.59 114.17 138.06 114.59 138.68 114.78C139.22 114.95 139.83 115.21 140.5 115.21C141.17 115.21 141.76 115.06 142.27 114.9C142.88 114.71 143.48 114.47 143.92 114.15C144.44 113.77 144.83 113.24 145.14 112.83C145.74 112.02 145.38 111.98 145.66 111.15" stroke="#E88E9B" stroke-width="3.19" stroke-miterlimit="10" stroke-linecap="round"/>
<path d="M182.58 139.679C180.95 140.359 180.99 140.449 179.37 141.129C177.75 141.809 177.64 141.549 176.01 142.229C174.38 142.909 174.41 142.979 172.79 143.659C171.17 144.339 171.13 144.269 169.51 144.949C167.89 145.629 168.05 146.029 166.42 146.709C164.79 147.389 164.66 147.069 163.03 147.749C161.4 148.429 161.41 148.429 159.78 149.109C158.15 149.789 158.11 149.679 156.48 150.359C154.85 151.039 154.87 151.089 153.25 151.769C151.63 152.449 151.57 152.319 149.94 152.999C148.31 153.679 148.4 153.909 146.77 154.589C145.14 155.269 145.15 155.289 143.52 155.969C142.48 156.399 141.38 156.659 140.27 156.659C139.16 156.659 138.09 156.329 137.05 155.899C135.4 155.219 135.29 155.499 133.64 154.819C131.99 154.139 132.01 154.099 130.36 153.419C128.71 152.739 128.76 152.619 127.12 151.939C125.48 151.259 125.42 151.379 123.78 150.699C122.14 150.019 122.18 149.899 120.54 149.209C118.9 148.519 118.83 148.679 117.18 147.999C115.53 147.319 115.54 147.309 113.89 146.629C112.24 145.949 112.26 145.919 110.61 145.229C108.96 144.539 108.92 144.649 107.27 143.959C105.62 143.269 105.83 142.769 104.18 142.079C102.53 141.389 102.4 141.699 100.75 141.009C99.0998 140.319 99.0998 140.329 97.4398 139.649C96.3898 139.219 95.3098 138.709 94.5398 137.939C93.7698 137.169 93.3898 136.009 92.9598 134.989C92.5298 133.969 92.1598 132.919 92.1598 131.789C92.1598 130.009 92.0798 130.009 92.0798 128.229C92.0798 126.449 92.3598 126.449 92.3598 124.669C92.3598 122.889 92.3198 122.889 92.3198 121.109C92.3198 119.329 92.5298 119.329 92.5298 117.549C92.5298 115.769 92.4298 115.769 92.4298 113.989C92.4298 112.209 92.0698 112.209 92.0698 110.429C92.0698 108.649 92.2998 108.649 92.2998 106.869C92.2998 105.089 92.5098 105.089 92.5098 103.309C92.5098 101.529 91.9698 101.529 91.9698 99.7491C91.9698 97.9691 92.4498 97.9691 92.4498 96.1891C92.4498 94.4091 92.2698 94.4091 92.2698 92.6291C92.2698 90.8491 92.1798 90.8491 92.1798 89.0691C92.1798 87.2891 92.3798 87.2891 92.3798 85.4991C92.3798 83.7091 91.1898 83.4091 92.4498 82.1391C93.7098 80.8691 94.0098 82.1291 95.7798 82.1291C97.5498 82.1291 97.5498 81.9891 99.3198 81.9891C101.09 81.9891 101.09 82.0891 102.86 82.0891C104.63 82.0891 104.63 81.6591 106.4 81.6591C108.17 81.6591 108.17 82.0291 109.94 82.0291C111.71 82.0291 111.71 82.0491 113.48 82.0491C115.25 82.0491 115.25 82.0491 117.02 82.0491C118.79 82.0491 118.79 81.9991 120.56 81.9991C122.33 81.9991 122.33 81.9991 124.1 81.9991C125.87 81.9991 125.87 81.6691 127.64 81.6691C129.41 81.6691 129.41 81.7591 131.18 81.7591C132.95 81.7591 132.95 81.7891 134.71 81.7891C136.47 81.7891 136.48 82.1691 138.25 82.1691C140.02 82.1691 140.02 81.6891 141.78 81.6891C143.54 81.6891 143.55 82.1291 145.32 82.1291C147.09 82.1291 147.09 81.9991 148.86 81.9991C150.63 81.9991 150.63 82.1791 152.4 82.1791C154.17 82.1791 154.17 82.2091 155.94 82.2091C157.71 82.2091 157.71 82.1891 159.48 82.1891C161.25 82.1891 161.25 82.2191 163.02 82.2191C164.79 82.2191 164.79 82.0191 166.56 82.0191C168.33 82.0191 168.33 81.8791 170.1 81.8791C171.87 81.8791 171.87 82.1291 173.64 82.1291C175.41 82.1291 175.41 81.7191 177.18 81.7191C178.95 81.7191 178.95 81.8991 180.72 81.8991C182.49 81.8991 182.49 82.0991 184.27 82.0991C186.05 82.0991 186.41 80.8391 187.66 82.0991C188.91 83.3591 187.73 83.7191 187.73 85.4991C187.73 87.2791 187.52 87.2791 187.52 89.0591C187.52 90.8391 187.82 90.8391 187.82 92.6191C187.82 94.3991 188 94.3991 188 96.1791C188 97.9591 188 97.9591 188 99.7391C188 101.519 187.65 101.519 187.65 103.299C187.65 105.079 187.83 105.079 187.83 106.859C187.83 108.639 187.96 108.639 187.96 110.419C187.96 112.199 187.8 112.199 187.8 113.979C187.8 115.759 187.56 115.759 187.56 117.539C187.56 119.319 188 119.319 188 121.099C188 122.879 187.66 122.879 187.66 124.659C187.66 126.439 187.88 126.439 187.88 128.229C187.88 130.019 187.62 130.009 187.62 131.799C187.62 132.929 187.8 134.109 187.38 135.119C186.96 136.129 185.97 136.839 185.19 137.619C184.41 138.399 183.66 139.189 182.62 139.629L182.58 139.679Z" fill="white"/>
<path d="M182.459 138.138C180.829 138.818 180.989 139.198 179.369 139.878C177.749 140.558 177.579 140.178 175.959 140.858C174.339 141.538 174.339 141.548 172.709 142.228C171.079 142.908 171.169 143.128 169.549 143.808C167.929 144.488 168.039 144.768 166.409 145.448C164.779 146.128 164.749 146.058 163.129 146.738C161.509 147.418 161.469 147.338 159.849 148.018C158.229 148.698 158.099 148.418 156.479 149.098C154.859 149.778 154.899 149.898 153.269 150.578C151.639 151.258 151.679 151.358 150.059 152.038C148.439 152.718 148.339 152.498 146.709 153.178C145.079 153.858 145.199 154.148 143.569 154.828C142.529 155.258 141.379 155.568 140.279 155.568C139.179 155.568 138.159 154.948 137.119 154.518C135.469 153.838 135.439 153.918 133.799 153.238C132.159 152.558 132.179 152.488 130.529 151.808C128.879 151.128 128.719 151.528 127.069 150.848C125.419 150.168 125.489 150.008 123.839 149.328C122.189 148.648 122.199 148.628 120.549 147.948C118.899 147.268 119.009 147.008 117.359 146.328C115.709 145.648 115.509 146.128 113.869 145.448C112.229 144.768 112.209 144.798 110.559 144.108C108.909 143.418 109.019 143.158 107.379 142.478C105.739 141.798 105.639 142.018 103.989 141.338C102.339 140.658 102.539 140.168 100.889 139.488C99.2395 138.808 99.1495 139.018 97.4995 138.328C96.4495 137.898 95.5795 137.248 94.8095 136.478C94.0395 135.708 93.4895 134.768 93.0595 133.738C92.6295 132.708 92.0795 131.708 92.0795 130.568C92.0795 131.698 91.9795 131.698 91.9795 132.838C91.9795 133.968 92.6995 134.978 93.1195 135.978C93.5395 136.978 94.1195 137.858 94.8995 138.638C95.6795 139.418 96.3395 140.428 97.3795 140.858C99.0295 141.538 99.1795 141.168 100.819 141.848C102.459 142.528 102.339 142.838 103.989 143.528C105.639 144.218 105.759 143.908 107.409 144.588C109.059 145.268 108.929 145.588 110.569 146.268C112.209 146.948 112.269 146.818 113.919 147.498C115.569 148.178 115.589 148.118 117.239 148.798C118.889 149.478 118.759 149.768 120.409 150.458C122.059 151.148 122.279 150.608 123.929 151.288C125.579 151.968 125.409 152.378 127.059 153.058C128.709 153.738 128.779 153.568 130.429 154.248C132.079 154.928 132.099 154.888 133.749 155.568C135.399 156.248 135.329 156.428 136.979 157.108C138.019 157.538 139.169 157.928 140.269 157.928C141.369 157.928 142.409 157.268 143.449 156.838C145.079 156.158 145.239 156.558 146.869 155.878C148.499 155.198 148.389 154.948 150.019 154.268C151.649 153.588 151.709 153.738 153.329 153.058C154.949 152.378 154.859 152.148 156.489 151.468C158.119 150.788 158.069 150.668 159.699 149.988C161.329 149.308 161.399 149.488 163.029 148.808C164.659 148.128 164.659 148.148 166.289 147.468C167.919 146.788 167.969 146.918 169.599 146.238C171.229 145.558 171.259 145.628 172.879 144.948C174.499 144.268 174.469 144.178 176.099 143.498C177.729 142.818 177.579 142.458 179.209 141.778C180.839 141.098 180.969 141.398 182.599 140.718C183.639 140.278 184.659 139.718 185.419 138.948C186.179 138.178 186.459 137.018 186.879 135.998C187.299 134.978 187.579 134.008 187.579 132.878C187.579 131.748 187.519 131.748 187.519 130.608C187.519 131.738 187.489 132.808 187.069 133.808C186.649 134.808 185.979 135.688 185.199 136.468C184.419 137.248 183.509 137.718 182.459 138.148V138.138Z" fill="#F2F2F2"/>
<path d="M128.46 109.579C128.46 110.299 128.49 111.039 128.23 111.669C127.97 112.299 127.58 112.989 127.09 113.479C126.6 113.969 125.85 114.159 125.2 114.429C124.55 114.699 123.91 114.859 123.19 114.859C122.47 114.859 121.74 114.849 121.11 114.589C120.48 114.329 119.88 113.869 119.39 113.369C118.9 112.869 118.61 112.239 118.34 111.579C118.07 110.919 117.66 110.299 117.66 109.569C117.66 108.839 118.16 108.229 118.42 107.599C118.68 106.969 119.06 106.439 119.56 105.949C120.06 105.459 120.53 105.009 121.18 104.739C121.83 104.469 122.46 104.459 123.18 104.459C123.9 104.459 124.63 104.289 125.26 104.549C125.89 104.809 126.41 105.359 126.9 105.849C127.39 106.339 127.69 106.939 127.96 107.589C128.23 108.239 128.45 108.849 128.45 109.569L128.46 109.579Z" fill="#F9DBDE"/>
<path d="M128.46 109.579C128.46 110.299 128.49 111.039 128.23 111.669C127.97 112.299 127.58 112.989 127.09 113.479C126.6 113.969 125.85 114.159 125.2 114.429C124.55 114.699 123.91 114.859 123.19 114.859C122.47 114.859 121.74 114.849 121.11 114.589C120.48 114.329 119.88 113.869 119.39 113.369C118.9 112.869 118.61 112.239 118.34 111.579C118.07 110.919 117.66 110.299 117.66 109.569C117.66 108.839 118.16 108.229 118.42 107.599C118.68 106.969 119.06 106.439 119.56 105.949C120.06 105.459 120.53 105.009 121.18 104.739C121.83 104.469 122.46 104.459 123.18 104.459C123.9 104.459 124.63 104.289 125.26 104.549C125.89 104.809 126.41 105.359 126.9 105.849C127.39 106.339 127.69 106.939 127.96 107.589C128.23 108.239 128.45 108.849 128.45 109.569L128.46 109.579Z" stroke="#F9DBDE" stroke-width="1.59" stroke-miterlimit="10"/>
<path d="M162.17 109.578C162.17 110.298 162.15 111.058 161.89 111.688C161.63 112.318 161.08 112.868 160.59 113.368C160.1 113.868 159.56 114.388 158.91 114.658C158.26 114.928 157.53 114.938 156.81 114.938C156.09 114.938 155.35 114.908 154.72 114.638C154.09 114.368 153.65 113.728 153.16 113.238C152.67 112.748 152.35 112.198 152.08 111.548C151.81 110.898 151.57 110.308 151.57 109.588C151.57 108.868 151.78 108.238 152.04 107.608C152.3 106.978 152.53 106.288 153.03 105.798C153.53 105.308 154.17 105.038 154.82 104.768C155.47 104.498 156.09 104.238 156.82 104.238C157.55 104.238 158.26 104.318 158.89 104.578C159.52 104.838 160.22 105.198 160.71 105.688C161.2 106.178 161.62 106.828 161.89 107.478C162.16 108.128 162.18 108.858 162.18 109.578H162.17Z" fill="#F9DBDE"/>
<path d="M162.17 109.578C162.17 110.298 162.15 111.058 161.89 111.688C161.63 112.318 161.08 112.868 160.59 113.368C160.1 113.868 159.56 114.388 158.91 114.658C158.26 114.928 157.53 114.938 156.81 114.938C156.09 114.938 155.35 114.908 154.72 114.638C154.09 114.368 153.65 113.728 153.16 113.238C152.67 112.748 152.35 112.198 152.08 111.548C151.81 110.898 151.57 110.308 151.57 109.588C151.57 108.868 151.78 108.238 152.04 107.608C152.3 106.978 152.53 106.288 153.03 105.798C153.53 105.308 154.17 105.038 154.82 104.768C155.47 104.498 156.09 104.238 156.82 104.238C157.55 104.238 158.26 104.318 158.89 104.578C159.52 104.838 160.22 105.198 160.71 105.688C161.2 106.178 161.62 106.828 161.89 107.478C162.16 108.128 162.18 108.858 162.18 109.578H162.17Z" stroke="#F9DBDE" stroke-width="1.59" stroke-miterlimit="10"/>
<path d="M133.01 107.859C134.252 107.859 135.26 106.314 135.26 104.409C135.26 102.504 134.252 100.959 133.01 100.959C131.767 100.959 130.76 102.504 130.76 104.409C130.76 106.314 131.767 107.859 133.01 107.859Z" fill="#231815"/>
<path d="M144.07 111.279C144.07 112.259 143.24 113.059 142.51 113.689C141.83 114.279 140.98 114.849 139.96 114.849C138.94 114.849 138.14 114.229 137.45 113.639C136.72 113.009 136.13 112.259 136.13 111.279C136.13 110.299 136.53 109.319 137.26 108.689C137.94 108.099 138.95 107.809 139.96 107.809C140.97 107.809 141.97 108.119 142.65 108.709C143.38 109.339 144.06 110.299 144.06 111.279H144.07Z" fill="#E88E9B"/>
<path d="M146.92 107.859C148.163 107.859 149.17 106.314 149.17 104.409C149.17 102.504 148.163 100.959 146.92 100.959C145.677 100.959 144.67 102.504 144.67 104.409C144.67 106.314 145.677 107.859 146.92 107.859Z" fill="#231815"/>
</svg>
