<?xml version="1.0" encoding="UTF-8"?>
<svg id="_레이어_1" data-name="레이어 1" xmlns="http://www.w3.org/2000/svg" xmlns:xlink="http://www.w3.org/1999/xlink" version="1.1" viewBox="0 0 800 800">
  <defs>
    <style>
      .cls-1 {
        fill: #ffc0c0;
      }

      .cls-1, .cls-2, .cls-3, .cls-4, .cls-5, .cls-6, .cls-7, .cls-8, .cls-9, .cls-10, .cls-11 {
        stroke-width: 0px;
      }

      .cls-12 {
        stroke: #f078f4;
      }

      .cls-12, .cls-13, .cls-14 {
        fill: none;
        stroke-miterlimit: 10;
      }

      .cls-12, .cls-14 {
        stroke-width: 8px;
      }

      .cls-13 {
        stroke: #4f2c20;
        stroke-linecap: round;
        stroke-width: 7px;
      }

      .cls-15 {
        clip-path: url(#clippath);
      }

      .cls-2 {
        fill: #f078f4;
      }

      .cls-3 {
        fill: #fff5ff;
      }

      .cls-4 {
        fill: #4f2c20;
      }

      .cls-5 {
        fill: #191314;
      }

      .cls-6, .cls-16 {
        fill: #fed6ca;
      }

      .cls-7 {
        fill: #eccef4;
      }

      .cls-8 {
        fill: #fcfafc;
      }

      .cls-14 {
        stroke: #da63e0;
      }

      .cls-9 {
        fill: #fec4b6;
      }

      .cls-10 {
        fill: #fec4b5;
      }

      .cls-11 {
        fill: #e6edff;
      }
    </style>
    <clipPath id="clippath">
      <path class="cls-6" d="M486.51,431.86c-3.29,54.82-18.64,92.65,4.39,107.46l23.03,14.8-113.49,88.27s-65.24-75.11-64.14-90.46c1.1-15.35,26.21-9.14,27.96-26.32s0-31.25,0-31.25l106.91-69.08,15.35,6.58Z"/>
    </clipPath>
  </defs>
  <rect class="cls-11" x=".43" width="800" height="800"/>
  <path class="cls-4" d="M345.77,146.31s-104.76-14.92-133.13,105.86c-15.28,65.05-51.27,86.27-45.35,131.43,5.92,45.16,23.73,59.96,38.67,91.39,9.15,19.25-8.61,39.97-8.61,39.97h37.48s8.88-15.55,7.4-31.83c0,0,8.14,19.99,5.92,31.83h300.56s-5.18-12.58,0-31.83c0,0,8.14,31.09,23.69,31.83,0,0-10.36-25.17,3.7-48.86s42.94-65.24,10.36-139.22-28.13-130.98-97.71-177.62-142.98-2.96-142.98-2.96Z"/>
  <polygon class="cls-7" points="343.38 544.65 507.1 546.71 500.25 524.77 359.72 522.72 345.77 532.31 343.38 544.65"/>
  <path class="cls-9" d="M263.84,317.25c-57.84-1.02-69.09,31.89-66.02,62.61,3.07,30.71,36.85,54.1,81.38,42.33l-15.36-104.93Z"/>
  <g>
    <path class="cls-16" d="M486.51,431.86c-3.29,54.82-18.64,92.65,4.39,107.46l23.03,14.8-113.49,88.27s-65.24-75.11-64.14-90.46c1.1-15.35,26.21-9.14,27.96-26.32s0-31.25,0-31.25l106.91-69.08,15.35,6.58Z"/>
    <g class="cls-15">
      <path class="cls-10" d="M475.55,430.29c-12.83,45.46-47.71,112.86-142.55,107.38-37.41-2.16,17-55.92,17-55.92l125.56-51.46Z"/>
    </g>
  </g>
  <path class="cls-6" d="M251.94,308.52c0,69.79,28.64,198.93,112.73,200.41,51,.89,102.89-48.31,118.99-76.05,0,0,80.52,22.37,96.63-39.37s-45.63-100.2-81.42-59.94c0,0-42.05-134.2-125.26-134.2s-121.68,109.15-121.68,109.15Z"/>
  <circle class="cls-1" cx="296.16" cy="389.07" r="23.91"/>
  <circle class="cls-1" cx="409.87" cy="389.07" r="23.91"/>
  <path class="cls-13" d="M324.12,320.22s-24.5-2.76-41.93,6.67"/>
  <path class="cls-13" d="M375.6,320.91s24.29-4.22,42.25,4.15"/>
  <path class="cls-5" d="M316.29,354.69c-5.28-.09-10.58-2.11-13.99-6.21-.27-.31-.25-.79.07-1.06.29-.26.73-.25,1.01.02.86.82,1.75,1.62,2.78,2.21,2.94,1.79,6.64,2.55,10.03,2.32,1.86-.11,1.97,2.69.1,2.72h0Z"/>
  <path class="cls-5" d="M389.77,354.69c-4.03-.03-7.93-1.11-11.22-3.41-1.1-.73-2.04-1.69-2.93-2.66-.36-.39-.33-1,.07-1.35.4-.37,1.02-.32,1.37.08,1.61,1.66,3.58,2.92,5.78,3.65,2.14.74,4.62,1.11,6.84.97,1.83-.08,1.94,2.67.1,2.72h0Z"/>
  <ellipse class="cls-5" cx="316.91" cy="363.44" rx="9.21" ry="11.57"/>
  <ellipse class="cls-5" cx="390.59" cy="363.44" rx="9.21" ry="11.57"/>
  <path class="cls-4" d="M345.77,260.65s-27.2-34.43-54.98,24.85c-18.54,39.55-35.56,51.98-63.26,77.93s-24.85,69.69-4.52,88.51c0,0-51.97-37.13-42.18-80.7s47.11-69.17,57.45-74.45,33.98-79.08,33.98-79.08l53.87-31.63,19.65,74.56Z"/>
  <path class="cls-4" d="M345.77,260.65s12.95-27.11,43.92-7.02,7.06,77.72,95.08,94.35c0,0,11.3-14.67,26.22-24.61s-15.22-69.26-15.22-69.26l-90.41-64.1-43.05-3.92h-36.18l19.65,74.56Z"/>
  <path class="cls-10" d="M481.42,528.03c8.75,9.15-78.07,93.99-80.55,93.6l95.49-80.94s-8.71.86-14.94-12.66"/>
  <path class="cls-8" d="M316.21,559.14c-39.29,6.57-136.61,69.02-161.54,120.43-32.58,67.18-51.76,120.43-51.76,120.43h640.57s-28.09-143.28-135.22-207.56c-55.32-33.19-60.05-33.3-60.05-33.3l-93.11,62.49-27.83-11.05s-17.89,3.49-26.4,11.05,0,0,0,0c0,0-12.31-9.88-25.58-18.96s-59.08-43.53-59.08-43.53Z"/>
  <path class="cls-14" d="M403.59,651.09s30.47-23.1,47.75-36.97"/>
  <path class="cls-14" d="M394.22,649s-28.89-25.05-45.23-40.01"/>
  <path class="cls-14" d="M395.71,656.66s-42,101.56-35.31,143.34"/>
  <path class="cls-14" d="M400.43,656.66s36.91,64.01,42.86,143.34"/>
  <path class="cls-12" d="M392.75,654.56s-72.71,66.05-36.87,97.8,36.87-97.8,36.87-97.8Z"/>
  <path class="cls-12" d="M404.07,654.56s72.71,66.05,36.87,97.8c-35.84,31.75-36.87-97.8-36.87-97.8Z"/>
  <circle class="cls-2" cx="399.02" cy="654.56" r="11.27"/>
  <path class="cls-3" d="M400.87,621.63s-43.04-40.48-47.98-63.82c-4.94-23.34,3.79-26.23,11.37-32.2l.55-7.09s-19.05,1.22-38,15.31-40.91,19.03-40.91,19.03l31.98,71.47c5.54,12.38,21.4,16.24,31.84,7.59,13.71-11.36,32.84-21.22,51.15-10.29"/>
  <path class="cls-3" d="M400.87,621.63s23.46-19.12,61.04,20.89c7.98,8.49,21.43,8.66,29.64.39,21.02-21.16,57.72-58.19,78.63-79.72,0,0-35.69-22.01-56.25-39.86-11.19-6.8-27.17-7.88-35.35-6.23-.02,6.8-.02,1.89,2.85,10.93,0,0,15.61,1.06,9.48,11.28-8.77,14.61-75.95,69.86-90.03,82.31Z"/>
</svg>