<svg width="20" height="20" viewBox="0 0 20 20" fill="none" xmlns="http://www.w3.org/2000/svg">
<g clip-path="url(#clip0_3590_7463)">
<path d="M9.90764 13.3991C10.1211 13.3929 10.3032 13.3175 10.4664 13.148L15.2564 8.25126C15.3945 8.11942 15.4636 7.94364 15.4636 7.74275C15.4636 7.33468 15.1497 7.01451 14.7416 7.01451C14.5407 7.01451 14.3587 7.09612 14.2143 7.23424L9.90764 11.6476L5.601 7.23424C5.46289 7.09612 5.28083 7.01451 5.07994 7.01451C4.6656 7.01451 4.3517 7.33468 4.3517 7.74275C4.3517 7.94364 4.42076 8.11942 4.55887 8.25126L9.34891 13.148C9.51214 13.3175 9.6942 13.3991 9.90764 13.3991Z" fill="#ADADAD"/>
</g>
<defs>
<clipPath id="clip0_3590_7463">
<rect width="20" height="20" fill="white" transform="matrix(1.19249e-08 -1 -1 -1.19249e-08 20 20)"/>
</clipPath>
</defs>
</svg>
