<svg width="24" height="24" viewBox="0 0 24 24" fill="none" xmlns="http://www.w3.org/2000/svg">
<path d="M16.23 1.28998H7.41999C5.8018 1.28998 4.48999 2.60178 4.48999 4.21998V19.89C4.48999 21.5082 5.8018 22.82 7.41999 22.82H16.23C17.8482 22.82 19.16 21.5082 19.16 19.89V4.21998C19.16 2.60178 17.8482 1.28998 16.23 1.28998Z" fill="#1EAC61"/>
<path d="M16.7701 4.57001H6.88008C6.43825 4.57001 6.08008 4.92818 6.08008 5.37001V17.49C6.08008 17.9318 6.43825 18.29 6.88008 18.29H16.7701C17.2119 18.29 17.5701 17.9318 17.5701 17.49V5.37001C17.5701 4.92818 17.2119 4.57001 16.7701 4.57001Z" fill="#5FD093"/>
<path d="M9.09007 3.25997C9.37726 3.25997 9.61007 3.02716 9.61007 2.73997C9.61007 2.45278 9.37726 2.21997 9.09007 2.21997C8.80288 2.21997 8.57007 2.45278 8.57007 2.73997C8.57007 3.02716 8.80288 3.25997 9.09007 3.25997Z" fill="#0D8443"/>
<path d="M14.57 2.21997H10.75C10.4628 2.21997 10.23 2.45278 10.23 2.73997C10.23 3.02716 10.4628 3.25997 10.75 3.25997H14.57C14.8572 3.25997 15.09 3.02716 15.09 2.73997C15.09 2.45278 14.8572 2.21997 14.57 2.21997Z" fill="#0D8443"/>
<path d="M11.8299 22C12.4926 22 13.0299 21.4627 13.0299 20.8C13.0299 20.1372 12.4926 19.6 11.8299 19.6C11.1671 19.6 10.6299 20.1372 10.6299 20.8C10.6299 21.4627 11.1671 22 11.8299 22Z" fill="#0D8443"/>
</svg>
