<svg width="24" height="24" viewBox="0 0 24 24" fill="none" xmlns="http://www.w3.org/2000/svg">
<path d="M1.70996 12.03C1.70996 17.32 5.68996 21.69 10.81 22.28C11.57 22.37 12.3 22.05 12.84 21.51C13.16 21.19 13.34 20.75 13.34 20.29C13.34 19.83 13.16 19.39 12.84 19.07C12.3 18.53 11.86 17.73 12.27 17.08C13.89 14.5 22.29 20.42 22.29 12.04C22.29 6.34 17.68 1.72 12 1.72C6.31996 1.72 1.70996 6.33 1.70996 12.03Z" stroke="#BCBCBC" stroke-width="1.25" stroke-miterlimit="10"/>
<path d="M7.94994 8.75999C8.64582 8.75999 9.20994 8.19587 9.20994 7.49999C9.20994 6.80411 8.64582 6.23999 7.94994 6.23999C7.25406 6.23999 6.68994 6.80411 6.68994 7.49999C6.68994 8.19587 7.25406 8.75999 7.94994 8.75999Z" stroke="#BCBCBC" stroke-width="1.25" stroke-miterlimit="10"/>
<path d="M6.19005 13.51C6.88593 13.51 7.45005 12.9459 7.45005 12.25C7.45005 11.5541 6.88593 10.99 6.19005 10.99C5.49418 10.99 4.93005 11.5541 4.93005 12.25C4.93005 12.9459 5.49418 13.51 6.19005 13.51Z" stroke="#BCBCBC" stroke-width="1.25" stroke-miterlimit="10"/>
<path d="M13.5799 7.50001C14.2758 7.50001 14.8399 6.93589 14.8399 6.24001C14.8399 5.54413 14.2758 4.98001 13.5799 4.98001C12.8841 4.98001 12.3199 5.54413 12.3199 6.24001C12.3199 6.93589 12.8841 7.50001 13.5799 7.50001Z" stroke="#BCBCBC" stroke-width="1.25" stroke-miterlimit="10"/>
<path d="M17.49 10.99C18.1859 10.99 18.75 10.4259 18.75 9.73C18.75 9.03412 18.1859 8.47 17.49 8.47C16.7941 8.47 16.23 9.03412 16.23 9.73C16.23 10.4259 16.7941 10.99 17.49 10.99Z" stroke="#BCBCBC" stroke-width="1.25" stroke-miterlimit="10"/>
</svg>
