<svg width="24" height="24" viewBox="0 0 24 24" fill="none" xmlns="http://www.w3.org/2000/svg">
<path d="M18.2099 1.06H5.35988C4.40443 1.06 3.62988 1.83454 3.62988 2.79V21.21C3.62988 22.1654 4.40443 22.94 5.35988 22.94H18.2099C19.1653 22.94 19.9399 22.1654 19.9399 21.21V2.79C19.9399 1.83454 19.1653 1.06 18.2099 1.06Z" stroke="#BCBCBC" stroke-width="1.25" stroke-miterlimit="10"/>
<path d="M16.9701 3.51001H6.61006C6.3063 3.51001 6.06006 3.75625 6.06006 4.06001V7.68001C6.06006 7.98377 6.3063 8.23001 6.61006 8.23001H16.9701C17.2738 8.23001 17.5201 7.98377 17.5201 7.68001V4.06001C17.5201 3.75625 17.2738 3.51001 16.9701 3.51001Z" stroke="#BCBCBC" stroke-width="1.25" stroke-miterlimit="10"/>
<path d="M17.51 15.61C17.51 15.0632 17.069 14.62 16.525 14.62C15.981 14.62 15.54 15.0632 15.54 15.61V19.56C15.54 20.1068 15.981 20.55 16.525 20.55C17.069 20.55 17.51 20.1068 17.51 19.56V15.61Z" stroke="#BCBCBC" stroke-width="1.1" stroke-miterlimit="10"/>
<path d="M16.53 12.65C17.0768 12.65 17.52 12.2068 17.52 11.66C17.52 11.1133 17.0768 10.67 16.53 10.67C15.9833 10.67 15.54 11.1133 15.54 11.66C15.54 12.2068 15.9833 12.65 16.53 12.65Z" stroke="#BCBCBC" stroke-width="1.1" stroke-miterlimit="10"/>
<path d="M7.04005 12.65C7.58681 12.65 8.03005 12.2068 8.03005 11.66C8.03005 11.1133 7.58681 10.67 7.04005 10.67C6.49329 10.67 6.05005 11.1133 6.05005 11.66C6.05005 12.2068 6.49329 12.65 7.04005 12.65Z" stroke="#BCBCBC" stroke-width="1.1" stroke-miterlimit="10"/>
<path d="M11.79 12.65C12.3368 12.65 12.78 12.2068 12.78 11.66C12.78 11.1133 12.3368 10.67 11.79 10.67C11.2433 10.67 10.8 11.1133 10.8 11.66C10.8 12.2068 11.2433 12.65 11.79 12.65Z" stroke="#BCBCBC" stroke-width="1.1" stroke-miterlimit="10"/>
<path d="M7.04005 16.6C7.58681 16.6 8.03005 16.1568 8.03005 15.61C8.03005 15.0632 7.58681 14.62 7.04005 14.62C6.49329 14.62 6.05005 15.0632 6.05005 15.61C6.05005 16.1568 6.49329 16.6 7.04005 16.6Z" stroke="#BCBCBC" stroke-width="1.1" stroke-miterlimit="10"/>
<path d="M11.79 16.59C12.3368 16.59 12.78 16.1467 12.78 15.6C12.78 15.0532 12.3368 14.61 11.79 14.61C11.2433 14.61 10.8 15.0532 10.8 15.6C10.8 16.1467 11.2433 16.59 11.79 16.59Z" stroke="#BCBCBC" stroke-width="1.1" stroke-miterlimit="10"/>
<path d="M7.04005 20.55C7.58681 20.55 8.03005 20.1068 8.03005 19.56C8.03005 19.0132 7.58681 18.57 7.04005 18.57C6.49329 18.57 6.05005 19.0132 6.05005 19.56C6.05005 20.1068 6.49329 20.55 7.04005 20.55Z" stroke="#BCBCBC" stroke-width="1.1" stroke-miterlimit="10"/>
<path d="M11.79 20.54C12.3368 20.54 12.78 20.0968 12.78 19.55C12.78 19.0032 12.3368 18.56 11.79 18.56C11.2433 18.56 10.8 19.0032 10.8 19.55C10.8 20.0968 11.2433 20.54 11.79 20.54Z" stroke="#BCBCBC" stroke-width="1.1" stroke-miterlimit="10"/>
</svg>
