<svg width="24" height="24" viewBox="0 0 24 24" fill="none" xmlns="http://www.w3.org/2000/svg">
<path d="M6.38993 1.15997H21.0699V14.52C21.0699 19.23 17.2499 23.05 12.5399 23.05H2.92993V4.61997C2.92993 2.70997 4.47993 1.15997 6.38993 1.15997Z" fill="#5FD093"/>
<path d="M14.7001 16.27C14.7001 16.27 17.1701 22.24 13.3301 23.01C17.6701 22.61 21.0701 18.96 21.0701 14.52C21.0701 14.52 20.3501 16.41 14.7001 16.27Z" fill="#1EAC61"/>
<path d="M17.8901 3.78998H6.1201C5.83291 3.78998 5.6001 4.02055 5.6001 4.30498C5.6001 4.5894 5.83291 4.81998 6.1201 4.81998H17.8901C18.1773 4.81998 18.4101 4.5894 18.4101 4.30498C18.4101 4.02055 18.1773 3.78998 17.8901 3.78998Z" fill="#1EAC61"/>
<path d="M17.8901 6.38H6.1201C5.83291 6.38 5.6001 6.61058 5.6001 6.895C5.6001 7.17943 5.83291 7.41 6.1201 7.41H17.8901C18.1773 7.41 18.4101 7.17943 18.4101 6.895C18.4101 6.61058 18.1773 6.38 17.8901 6.38Z" fill="#1EAC61"/>
<path d="M17.8901 8.96997H6.1201C5.83291 8.96997 5.6001 9.20054 5.6001 9.48497C5.6001 9.7694 5.83291 9.99997 6.1201 9.99997H17.8901C18.1773 9.99997 18.4101 9.7694 18.4101 9.48497C18.4101 9.20054 18.1773 8.96997 17.8901 8.96997Z" fill="#1EAC61"/>
<path d="M14.8101 11.56H6.0501C5.80157 11.56 5.6001 11.7615 5.6001 12.01V12.14C5.6001 12.3885 5.80157 12.59 6.0501 12.59H14.8101C15.0586 12.59 15.2601 12.3885 15.2601 12.14V12.01C15.2601 11.7615 15.0586 11.56 14.8101 11.56Z" fill="#1EAC61"/>
</svg>
