<?xml version="1.0" encoding="UTF-8"?>
<svg id="_레이어_1" data-name="레이어 1" xmlns="http://www.w3.org/2000/svg" version="1.1" viewBox="0 0 335 388">
  <defs>
    <style>
      .cls-1 {
        fill: #231815;
      }

      .cls-1, .cls-2, .cls-3, .cls-4, .cls-5, .cls-6 {
        stroke-width: 0px;
      }

      .cls-2 {
        fill: #c1c1c1;
      }

      .cls-7 {
        stroke-width: 3.96px;
      }

      .cls-7, .cls-8 {
        stroke-linejoin: round;
      }

      .cls-7, .cls-8, .cls-9 {
        stroke-linecap: round;
      }

      .cls-7, .cls-8, .cls-9, .cls-10, .cls-11 {
        fill: none;
      }

      .cls-7, .cls-8, .cls-9, .cls-11 {
        stroke: #231815;
      }

      .cls-8 {
        stroke-width: 3.59px;
      }

      .cls-3 {
        fill: #f9dbde;
      }

      .cls-9, .cls-10, .cls-11 {
        stroke-miterlimit: 10;
      }

      .cls-9, .cls-11 {
        stroke-width: 3.96px;
      }

      .cls-10 {
        stroke: #f9dbde;
        stroke-width: 1.98px;
      }

      .cls-4 {
        fill: #40a56b;
      }

      .cls-5 {
        fill: #fff;
      }

      .cls-6 {
        fill: #efefef;
      }
    </style>
  </defs>
  <g>
    <path class="cls-5" d="M202.84,275.46c1.2,0,1.2.1,2.39.1s1.2-.16,2.4-.16,1.2.36,2.4.36,1.2-.08,2.39-.08,1.2-.43,2.4-.43,1.2,0,2.4,0,1.2.41,2.4.41,1.2-.14,2.4-.14,1.2,0,2.4,0,1.2-.14,2.4-.14,1.2-.06,2.4-.06,1.2.24,2.4.24,1.2-.01,2.4-.01,1.2.01,2.4.01,1.2-.14,2.4-.14,1.2.01,2.4.01,1.2.14,2.4.14,1.2.2,2.4.2,1.2-.07,2.41-.07,1.2-.36,2.41-.36c.8,0,1.27-.31,1.74-.8.5-.52.89-1.04.88-1.76,0-.68-.31-1.22-.89-1.77-.88-.85-.68-1.06-1.56-1.92s-.81-.93-1.69-1.78-1.11-.62-1.99-1.47-.65-1.09-1.53-1.94-.97-.76-1.85-1.62-.88-.85-1.77-1.7-1.04-.68-1.92-1.53-.84-.89-1.73-1.75-.83-.91-1.71-1.76-1.05-.68-1.93-1.53-.86-.88-1.74-1.73-.89-.84-1.78-1.69-.71-1.03-1.6-1.88-.86-.88-1.75-1.73-.8-.95-1.68-1.8"/>
    <path class="cls-9" d="M202.84,275.46c1.2,0,1.2.1,2.39.1s1.2-.16,2.4-.16,1.2.36,2.4.36,1.2-.08,2.39-.08,1.2-.43,2.4-.43,1.2,0,2.4,0,1.2.41,2.4.41,1.2-.14,2.4-.14,1.2,0,2.4,0,1.2-.14,2.4-.14,1.2-.06,2.4-.06,1.2.24,2.4.24,1.2-.01,2.4-.01,1.2.01,2.4.01,1.2-.14,2.4-.14,1.2.01,2.4.01,1.2.14,2.4.14,1.2.2,2.4.2,1.2-.07,2.41-.07,1.2-.36,2.41-.36c.8,0,1.27-.31,1.74-.8.5-.52.89-1.04.88-1.76,0-.68-.31-1.22-.89-1.77-.88-.85-.68-1.06-1.56-1.92s-.81-.93-1.69-1.78-1.11-.62-1.99-1.47-.65-1.09-1.53-1.94-.97-.76-1.85-1.62-.88-.85-1.77-1.7-1.04-.68-1.92-1.53-.84-.89-1.73-1.75-.83-.91-1.71-1.76-1.05-.68-1.93-1.53-.86-.88-1.74-1.73-.89-.84-1.78-1.69-.71-1.03-1.6-1.88-.86-.88-1.75-1.73-.8-.95-1.68-1.8"/>
  </g>
  <g>
    <path class="cls-5" d="M139.04,274.82c-1.12.26.06,1.02-.18,2.45-.11.64-.25,1.4-.38,2.27-.11.7-.52,1.42-.64,2.24-.1.72-.04,1.51-.14,2.31-.1.74-.1,1.51-.2,2.29s-.51,1.47-.59,2.25-.16,1.52-.23,2.3.17,1.55.12,2.33-.4,1.52-.44,2.29.13,1.55.11,2.32-.23,1.55-.23,2.31.29,1.55.32,2.31.05,1.56.12,2.31c.07.79.22,1.55.34,2.28.12.8.15,1.65.33,2.35,1,.42,1.12-.04,2.2.09s1.08.13,2.15.26,1.04.4,2.12.53,1.06.12,2.11-.16c1.11-.3-.19-.56-.27-2.03-.04-.65.03-1.42,0-2.3-.02-.7.16-1.47.15-2.3-.01-.72.11-1.49.11-2.3,0-.73-.16-1.5-.15-2.29.01-.74.08-1.51.11-2.3.02-.75-.13-1.52-.09-2.31s.29-1.5.34-2.28.02-1.52.08-2.3.03-1.53.11-2.3.44-1.48.53-2.25-.3-1.59-.19-2.35.48-1.48.62-2.24.53-1.46.68-2.21.16-1.76.33-2.51c-1.03-.5-1.21-.15-2.35-.29s-1.15-.08-2.28-.22-1.22.28-2.33-.03-1.17-.78-2.29-.53Z"/>
    <path class="cls-11" d="M139.04,274.82c-1.12.26.06,1.02-.18,2.45-.11.64-.25,1.4-.38,2.27-.11.7-.52,1.42-.64,2.24-.1.72-.04,1.51-.14,2.31-.1.74-.1,1.51-.2,2.29s-.51,1.47-.59,2.25-.16,1.52-.23,2.3.17,1.55.12,2.33-.4,1.52-.44,2.29.13,1.55.11,2.32-.23,1.55-.23,2.31.29,1.55.32,2.31.05,1.56.12,2.31c.07.79.22,1.55.34,2.28.12.8.15,1.65.33,2.35,1,.42,1.12-.04,2.2.09s1.08.13,2.15.26,1.04.4,2.12.53,1.06.12,2.11-.16c1.11-.3-.19-.56-.27-2.03-.04-.65.03-1.42,0-2.3-.02-.7.16-1.47.15-2.3-.01-.72.11-1.49.11-2.3,0-.73-.16-1.5-.15-2.29.01-.74.08-1.51.11-2.3.02-.75-.13-1.52-.09-2.31s.29-1.5.34-2.28.02-1.52.08-2.3.03-1.53.11-2.3.44-1.48.53-2.25-.3-1.59-.19-2.35.48-1.48.62-2.24.53-1.46.68-2.21.16-1.76.33-2.51c-1.03-.5-1.21-.15-2.35-.29s-1.15-.08-2.28-.22-1.22.28-2.33-.03-1.17-.78-2.29-.53Z"/>
  </g>
  <g>
    <path class="cls-5" d="M195.93,272.86c1.14.17.19.85.54,2.26.16.63.31,1.39.52,2.24.17.69.47,1.41.65,2.22.16.71.09,1.52.26,2.31.16.73.23,1.49.39,2.27s.59,1.43.73,2.21.19,1.52.32,2.29.39,1.49.51,2.26.27,1.52.37,2.28.1,1.55.18,2.31.08,1.55.14,2.31.06,1.55.09,2.31.07,1.56.06,2.31c0,.8,0,1.57-.06,2.31-.06.8-.08,1.69-.21,2.41-.96.49-1.14,0-2.21.22s-1.03.39-2.09.61-1.13-.11-2.19.11-1.01.89-2.08.69c-1.13-.21.26-.85.22-2.32-.02-.65-.44-1.41-.48-2.28-.03-.7.29-1.49.24-2.31-.05-.72-.44-1.46-.5-2.27-.06-.73-.13-1.49-.21-2.28-.07-.74-.21-1.49-.3-2.28-.08-.74-.23-1.5-.33-2.27s.15-1.55.04-2.33-.55-1.45-.68-2.22-.05-1.54-.19-2.3-.14-1.53-.3-2.29-.63-1.43-.81-2.18-.17-1.53-.36-2.28-.56-1.44-.77-2.18-.19-1.4-.42-2.14c.99-.58,1.04-.4,2.17-.63s1.18.02,2.3-.21,1.17-.14,2.26-.5,1.06-.82,2.2-.65Z"/>
    <path class="cls-11" d="M195.93,272.86c1.14.17.19.85.54,2.26.16.63.31,1.39.52,2.24.17.69.47,1.41.65,2.22.16.71.09,1.52.26,2.31.16.73.23,1.49.39,2.27s.59,1.43.73,2.21.19,1.52.32,2.29.39,1.49.51,2.26.27,1.52.37,2.28.1,1.55.18,2.31.08,1.55.14,2.31.06,1.55.09,2.31.07,1.56.06,2.31c0,.8,0,1.57-.06,2.31-.06.8-.08,1.69-.21,2.41-.96.49-1.14,0-2.21.22s-1.03.39-2.09.61-1.13-.11-2.19.11-1.01.89-2.08.69c-1.13-.21.26-.85.22-2.32-.02-.65-.44-1.41-.48-2.28-.03-.7.29-1.49.24-2.31-.05-.72-.44-1.46-.5-2.27-.06-.73-.13-1.49-.21-2.28-.07-.74-.21-1.49-.3-2.28-.08-.74-.23-1.5-.33-2.27s.15-1.55.04-2.33-.55-1.45-.68-2.22-.05-1.54-.19-2.3-.14-1.53-.3-2.29-.63-1.43-.81-2.18-.17-1.53-.36-2.28-.56-1.44-.77-2.18-.19-1.4-.42-2.14c.99-.58,1.04-.4,2.17-.63s1.18.02,2.3-.21,1.17-.14,2.26-.5,1.06-.82,2.2-.65Z"/>
  </g>
  <g>
    <path class="cls-4" d="M133.33,316.67c.05.54-.74.87-1.06.43-.42-.58-.92-1.23-1.6-1.85-.56-.51-1.3-.85-2.07-1.3-.66-.39-1.33-.84-2.16-1.13-.73-.25-1.48-.62-2.35-.75-.76-.12-1.6.01-2.48.01-.82,0-1.59.04-2.34.2-.79.17-1.63.2-2.33.52s-1.26.99-1.87,1.47-1.43.8-1.94,1.42-.92,1.32-1.3,2.02-.5,1.51-.76,2.26-.52,1.48-.67,2.27-.07,1.56-.11,2.36-.05,1.55,0,2.35-.03,1.58.11,2.36.32,1.54.55,2.3c.07.23.35.41.59.41,1.16,0,1.16-.3,2.32-.3s1.16.44,2.32.44,1.16.02,2.32.02,1.16-.36,2.32-.36,1.16.12,2.32.12,1.16,0,2.32,0,1.16.04,2.32.04,1.16-.22,2.32-.22,1.16.36,2.32.36,1.16,0,2.32,0,1.16.12,2.32.12,1.16-.49,2.32-.49,1.16.46,2.32.46,1.16-.27,2.32-.27,1.16.3,2.33.3,1.16-.48,2.33-.48c.34,0,.7-.09.64-.43-.12-.56-.61-1.39-.8-2.45-.14-.77-.28-1.63-.41-2.53-.13-.83-.03-1.72-.13-2.57-.1-.89.09-1.76.06-2.56-.04-1-.36-1.88-.24-2.54.14-.72.6-1.54.74-2.48.12-.82.03-1.72.14-2.57s.31-1.75.4-2.54c.13-1.07.09-2,.15-2.55.04-.32-.17-.74-.49-.74-1.12,0-1.12,0-2.24,0s-1.12.25-2.24.25-1.12-.02-2.24-.02-1.12-.19-2.24-.19-1.12-.17-2.24-.17-1.12.11-2.25.11-1.12.11-2.25.11c-.32,0-.4.31-.37.62.13,1.35-.12,1.38,0,2.73s.38,1.33.52,2.69,0,1.37.14,2.73Z"/>
    <path class="cls-11" d="M133.33,316.67c.05.54-.74.87-1.06.43-.42-.58-.92-1.23-1.6-1.85-.56-.51-1.3-.85-2.07-1.3-.66-.39-1.33-.84-2.16-1.13-.73-.25-1.48-.62-2.35-.75-.76-.12-1.6.01-2.48.01-.82,0-1.59.04-2.34.2-.79.17-1.63.2-2.33.52s-1.26.99-1.87,1.47-1.43.8-1.94,1.42-.92,1.32-1.3,2.02-.5,1.51-.76,2.26-.52,1.48-.67,2.27-.07,1.56-.11,2.36-.05,1.55,0,2.35-.03,1.58.11,2.36.32,1.54.55,2.3c.07.23.35.41.59.41,1.16,0,1.16-.3,2.32-.3s1.16.44,2.32.44,1.16.02,2.32.02,1.16-.36,2.32-.36,1.16.12,2.32.12,1.16,0,2.32,0,1.16.04,2.32.04,1.16-.22,2.32-.22,1.16.36,2.32.36,1.16,0,2.32,0,1.16.12,2.32.12,1.16-.49,2.32-.49,1.16.46,2.32.46,1.16-.27,2.32-.27,1.16.3,2.33.3,1.16-.48,2.33-.48c.34,0,.7-.09.64-.43-.12-.56-.61-1.39-.8-2.45-.14-.77-.28-1.63-.41-2.53-.13-.83-.03-1.72-.13-2.57-.1-.89.09-1.76.06-2.56-.04-1-.36-1.88-.24-2.54.14-.72.6-1.54.74-2.48.12-.82.03-1.72.14-2.57s.31-1.75.4-2.54c.13-1.07.09-2,.15-2.55.04-.32-.17-.74-.49-.74-1.12,0-1.12,0-2.24,0s-1.12.25-2.24.25-1.12-.02-2.24-.02-1.12-.19-2.24-.19-1.12-.17-2.24-.17-1.12.11-2.25.11-1.12.11-2.25.11c-.32,0-.4.31-.37.62.13,1.35-.12,1.38,0,2.73s.38,1.33.52,2.69,0,1.37.14,2.73Z"/>
  </g>
  <g>
    <path class="cls-4" d="M204.25,316.7c-.05.54.22.68.54.24.42-.58.97-1.26,1.65-1.88.56-.51,1.26-1.04,2.02-1.49.66-.39,1.45-.75,2.29-1.03.73-.25,1.63-.02,2.5-.16.76-.12,1.55-.14,2.43-.14.82,0,1.59-.1,2.33.06.79.17,1.63.17,2.33.49s1.24,1.01,1.86,1.49,1.25.95,1.75,1.57.88,1.28,1.26,1.98.89,1.32,1.16,2.08.33,1.54.48,2.33.46,1.54.51,2.33.05,1.6,0,2.39-.27,1.57-.41,2.35-.32,1.55-.55,2.31c-.07.23-.41.59-.65.59-1.16,0-1.16-.18-2.32-.18s-1.16-.2-2.32-.2-1.16.1-2.32.1-1.16.18-2.32.18-1.16-.22-2.32-.22-1.16.02-2.32.02-1.16.17-2.32.17-1.16,0-2.32,0-1.16.11-2.32.11-1.16-.37-2.32-.37-1.16-.08-2.32-.08-1.16.41-2.32.41-1.16,0-2.32,0-1.16-.01-2.32-.01-1.16-.07-2.33-.07-1.16-.18-2.33-.18c-.34,0-.45-.18-.38-.52.12-.56.11-1.48.3-2.55.14-.77.45-1.6.59-2.49.13-.83-.15-1.74-.05-2.58.1-.89.42-1.73.45-2.52.04-1,.1-1.9-.03-2.55-.14-.72-.55-1.55-.69-2.48-.12-.82-.15-1.7-.26-2.55s.08-1.8-.02-2.58c-.13-1.07-.68-1.93-.74-2.48-.04-.32.45-.41.77-.41,1.12,0,1.12-.2,2.24-.2s1.12.2,2.24.2,1.12-.16,2.24-.16,1.12.08,2.24.08,1.12.01,2.24.01,1.12-.06,2.25-.06,1.12.19,2.25.19c.32,0,.38-.02.35.3-.13,1.35.01,1.37-.12,2.72s.07,1.36.03,2.73-.11,1.38-.25,2.73Z"/>
    <path class="cls-11" d="M204.25,316.7c-.05.54.22.68.54.24.42-.58.97-1.26,1.65-1.88.56-.51,1.26-1.04,2.02-1.49.66-.39,1.45-.75,2.29-1.03.73-.25,1.63-.02,2.5-.16.76-.12,1.55-.14,2.43-.14.82,0,1.59-.1,2.33.06.79.17,1.63.17,2.33.49s1.24,1.01,1.86,1.49,1.25.95,1.75,1.57.88,1.28,1.26,1.98.89,1.32,1.16,2.08.33,1.54.48,2.33.46,1.54.51,2.33.05,1.6,0,2.39-.27,1.57-.41,2.35-.32,1.55-.55,2.31c-.07.23-.41.59-.65.59-1.16,0-1.16-.18-2.32-.18s-1.16-.2-2.32-.2-1.16.1-2.32.1-1.16.18-2.32.18-1.16-.22-2.32-.22-1.16.02-2.32.02-1.16.17-2.32.17-1.16,0-2.32,0-1.16.11-2.32.11-1.16-.37-2.32-.37-1.16-.08-2.32-.08-1.16.41-2.32.41-1.16,0-2.32,0-1.16-.01-2.32-.01-1.16-.07-2.33-.07-1.16-.18-2.33-.18c-.34,0-.45-.18-.38-.52.12-.56.11-1.48.3-2.55.14-.77.45-1.6.59-2.49.13-.83-.15-1.74-.05-2.58.1-.89.42-1.73.45-2.52.04-1,.1-1.9-.03-2.55-.14-.72-.55-1.55-.69-2.48-.12-.82-.15-1.7-.26-2.55s.08-1.8-.02-2.58c-.13-1.07-.68-1.93-.74-2.48-.04-.32.45-.41.77-.41,1.12,0,1.12-.2,2.24-.2s1.12.2,2.24.2,1.12-.16,2.24-.16,1.12.08,2.24.08,1.12.01,2.24.01,1.12-.06,2.25-.06,1.12.19,2.25.19c.32,0,.38-.02.35.3-.13,1.35.01,1.37-.12,2.72s.07,1.36.03,2.73-.11,1.38-.25,2.73Z"/>
  </g>
  <g>
    <path class="cls-5" d="M221.73,258.2c.37-1.14.75-1.02,1.12-2.16s.15-1.21.52-2.35.45-1.11.82-2.25.43-1.12.8-2.26.4-1.13.77-2.27.11-1.22.48-2.36.58-1.07.95-2.21.29-1.16.67-2.3.6-1.06.97-2.2-.05-1.27.32-2.41.39-1.13.76-2.27.47-1.11.84-2.25.23-1.19.6-2.32.67-1.04,1.04-2.18.44-1.12.81-2.26.29-1.17.66-2.31.32-1.16.69-2.3.17-1.21.54-2.35.59-1.07.96-2.21.38-1.14.75-2.28.16-1.21.53-2.35.83-.99,1.21-2.13.04-1.25.41-2.39.7-1.03,1.07-2.17.15-1.21.52-2.35.38-1.14.75-2.28.52-1.09.89-2.24.33-1.16.7-2.3.43-1.13.8-2.27.08-1.24.46-2.38c.26-.79.44-1.57.55-2.37s0-1.62-.04-2.43.08-1.64-.1-2.44-.6-1.51-.92-2.26-.47-1.59-.92-2.28-.94-1.36-1.51-1.96-1.35-.93-2.02-1.42c-.95-.69-.81-.89-1.76-1.58s-1.01-.61-1.97-1.3-1-.62-1.95-1.31-.85-.83-1.8-1.52-.92-.74-1.87-1.43-1.13-.44-2.09-1.14-.92-.74-1.87-1.43-.96-.68-1.91-1.37-.87-.8-1.82-1.49-.82-.87-1.77-1.56-1.08-.52-2.03-1.21-.84-.84-1.8-1.54-1.15-.41-2.11-1.1-.83-.86-1.78-1.55-.86-.82-1.81-1.51-1.08-.51-2.04-1.21-.82-.88-1.77-1.57-1.07-.53-2.02-1.23-.93-.73-1.88-1.42-.89-.78-1.84-1.48-1.18-.38-2.13-1.08-1-.64-1.95-1.33-.92-.74-1.87-1.43-.8-.9-1.76-1.6-1-.63-1.95-1.33-1.03-.59-1.98-1.28-.79-.92-1.74-1.61-1.15-.42-2.1-1.11-.99-.65-1.94-1.34-.86-.82-1.82-1.51-.79-.92-1.74-1.62-1.01-.62-1.96-1.32-1.07-.55-2.02-1.24-.75-.98-1.71-1.68c-.67-.49-1.46-.85-2.18-1.21s-1.58-.51-2.37-.73-1.59-.53-2.4-.61-1.63.35-2.45.42-1.65-.02-2.44.2-1.58.46-2.32.82-1.54.65-2.21,1.14c-.95.69-.87.8-1.82,1.5s-.82.87-1.77,1.56-1.09.5-2.04,1.19-.77.94-1.72,1.63-.97.67-1.92,1.37-.96.69-1.91,1.38-.94.71-1.89,1.4-1.06.54-2.01,1.23-.88.79-1.83,1.48-1.02.59-1.97,1.28-.85.83-1.8,1.52-.96.69-1.91,1.38-1.01.61-1.96,1.3-1.02.6-1.97,1.29-1.09.5-2.04,1.2-.9.76-1.86,1.45-.77.95-1.72,1.64-.93.72-1.88,1.41-.89.77-1.85,1.47-1.24.3-2.2.99-.85.84-1.8,1.53-.93.72-1.89,1.41-.93.72-1.89,1.41-1,.63-1.95,1.32-.93.72-1.89,1.42-1.04.58-1.99,1.27-.87.81-1.82,1.5-1.03.59-1.98,1.28-.86.82-1.81,1.51-.86.82-1.82,1.52-1.1.5-2.05,1.19-.92.74-1.88,1.43-.95.71-1.91,1.4-.87.81-1.83,1.51c-.67.49-1.31.97-1.87,1.55s-1.09,1.22-1.54,1.89-.77,1.43-1.09,2.18-.46,1.54-.64,2.34-.54,1.55-.58,2.37-.06,1.64.06,2.46.2,1.64.45,2.43c.36,1.12.62,1.04.99,2.16s.42,1.1.78,2.22.33,1.13.69,2.25.47,1.09.83,2.2-.08,1.27.28,2.39.83.97,1.19,2.09.27,1.15.63,2.27.33,1.13.7,2.25.34,1.13.71,2.25.14,1.19.5,2.31.68,1.02,1.05,2.14.12,1.2.48,2.32.37,1.12.73,2.24.67,1.02,1.04,2.13-.1,1.27.26,2.39.67,1.02,1.03,2.14.05,1.22.41,2.34.36,1.12.72,2.24.65,1.03,1.02,2.15.48,1.08.84,2.21.04,1.23.4,2.35.38,1.12.74,2.24.67,1.02,1.04,2.14.14,1.19.5,2.32.32,1.14.68,2.26.38,1.12.74,2.24.64,1.03,1,2.15.4,1.11.76,2.23.2,1.18.56,2.3.11,1.2.48,2.33.71,1.01,1.08,2.13.43,1.1.8,2.22.07,1.22.44,2.34.21,1.18.58,2.3c.26.79.78,1.49,1.16,2.2s.87,1.4,1.37,2.04,1.19,1.11,1.81,1.65,1.14,1.2,1.84,1.62,1.5.65,2.27.94,1.51.68,2.32.83,1.64.18,2.47.18c1.18,0,1.18-.23,2.36-.23s1.18.22,2.35.22,1.18,0,2.35,0,1.18-.32,2.35-.32,1.18.27,2.36.27,1.18.04,2.35.04,1.18-.3,2.35-.3,1.18.28,2.36.28,1.18-.11,2.36-.11,1.18-.18,2.35-.18,1.18,0,2.36,0,1.18.51,2.36.51,1.18-.36,2.35-.36,1.18.16,2.35.16,1.18.05,2.35.05,1.18-.1,2.36-.1,1.18.11,2.36.11,1.18-.41,2.35-.41,1.18.53,2.35.53,1.18-.34,2.36-.34,1.18.02,2.35.02,1.18-.11,2.36-.11,1.18.28,2.36.28,1.18.02,2.36.02,1.18-.01,2.36-.01,1.18-.03,2.36-.03,1.18-.27,2.36-.27,1.18.37,2.35.37,1.18-.17,2.36-.17,1.18-.24,2.36-.24,1.18.31,2.36.31,1.18-.09,2.36-.09,1.18.19,2.36.19,1.18-.07,2.36-.07"/>
    <path class="cls-9" d="M221.73,258.2c.37-1.14.75-1.02,1.12-2.16s.15-1.21.52-2.35.45-1.11.82-2.25.43-1.12.8-2.26.4-1.13.77-2.27.11-1.22.48-2.36.58-1.07.95-2.21.29-1.16.67-2.3.6-1.06.97-2.2-.05-1.27.32-2.41.39-1.13.76-2.27.47-1.11.84-2.25.23-1.19.6-2.32.67-1.04,1.04-2.18.44-1.12.81-2.26.29-1.17.66-2.31.32-1.16.69-2.3.17-1.21.54-2.35.59-1.07.96-2.21.38-1.14.75-2.28.16-1.21.53-2.35.83-.99,1.21-2.13.04-1.25.41-2.39.7-1.03,1.07-2.17.15-1.21.52-2.35.38-1.14.75-2.28.52-1.09.89-2.24.33-1.16.7-2.3.43-1.13.8-2.27.08-1.24.46-2.38c.26-.79.44-1.57.55-2.37s0-1.62-.04-2.43.08-1.64-.1-2.44-.6-1.51-.92-2.26-.47-1.59-.92-2.28-.94-1.36-1.51-1.96-1.35-.93-2.02-1.42c-.95-.69-.81-.89-1.76-1.58s-1.01-.61-1.97-1.3-1-.62-1.95-1.31-.85-.83-1.8-1.52-.92-.74-1.87-1.43-1.13-.44-2.09-1.14-.92-.74-1.87-1.43-.96-.68-1.91-1.37-.87-.8-1.82-1.49-.82-.87-1.77-1.56-1.08-.52-2.03-1.21-.84-.84-1.8-1.54-1.15-.41-2.11-1.1-.83-.86-1.78-1.55-.86-.82-1.81-1.51-1.08-.51-2.04-1.21-.82-.88-1.77-1.57-1.07-.53-2.02-1.23-.93-.73-1.88-1.42-.89-.78-1.84-1.48-1.18-.38-2.13-1.08-1-.64-1.95-1.33-.92-.74-1.87-1.43-.8-.9-1.76-1.6-1-.63-1.95-1.33-1.03-.59-1.98-1.28-.79-.92-1.74-1.61-1.15-.42-2.1-1.11-.99-.65-1.94-1.34-.86-.82-1.82-1.51-.79-.92-1.74-1.62-1.01-.62-1.96-1.32-1.07-.55-2.02-1.24-.75-.98-1.71-1.68c-.67-.49-1.46-.85-2.18-1.21s-1.58-.51-2.37-.73-1.59-.53-2.4-.61-1.63.35-2.45.42-1.65-.02-2.44.2-1.58.46-2.32.82-1.54.65-2.21,1.14c-.95.69-.87.8-1.82,1.5s-.82.87-1.77,1.56-1.09.5-2.04,1.19-.77.94-1.72,1.63-.97.67-1.92,1.37-.96.69-1.91,1.38-.94.71-1.89,1.4-1.06.54-2.01,1.23-.88.79-1.83,1.48-1.02.59-1.97,1.28-.85.83-1.8,1.52-.96.69-1.91,1.38-1.01.61-1.96,1.3-1.02.6-1.97,1.29-1.09.5-2.04,1.2-.9.76-1.86,1.45-.77.95-1.72,1.64-.93.72-1.88,1.41-.89.77-1.85,1.47-1.24.3-2.2.99-.85.84-1.8,1.53-.93.72-1.89,1.41-.93.72-1.89,1.41-1,.63-1.95,1.32-.93.72-1.89,1.42-1.04.58-1.99,1.27-.87.81-1.82,1.5-1.03.59-1.98,1.28-.86.82-1.81,1.51-.86.82-1.82,1.52-1.1.5-2.05,1.19-.92.74-1.88,1.43-.95.71-1.91,1.4-.87.81-1.83,1.51c-.67.49-1.31.97-1.87,1.55s-1.09,1.22-1.54,1.89-.77,1.43-1.09,2.18-.46,1.54-.64,2.34-.54,1.55-.58,2.37-.06,1.64.06,2.46.2,1.64.45,2.43c.36,1.12.62,1.04.99,2.16s.42,1.1.78,2.22.33,1.13.69,2.25.47,1.09.83,2.2-.08,1.27.28,2.39.83.97,1.19,2.09.27,1.15.63,2.27.33,1.13.7,2.25.34,1.13.71,2.25.14,1.19.5,2.31.68,1.02,1.05,2.14.12,1.2.48,2.32.37,1.12.73,2.24.67,1.02,1.04,2.13-.1,1.27.26,2.39.67,1.02,1.03,2.14.05,1.22.41,2.34.36,1.12.72,2.24.65,1.03,1.02,2.15.48,1.08.84,2.21.04,1.23.4,2.35.38,1.12.74,2.24.67,1.02,1.04,2.14.14,1.19.5,2.32.32,1.14.68,2.26.38,1.12.74,2.24.64,1.03,1,2.15.4,1.11.76,2.23.2,1.18.56,2.3.11,1.2.48,2.33.71,1.01,1.08,2.13.43,1.1.8,2.22.07,1.22.44,2.34.21,1.18.58,2.3c.26.79.78,1.49,1.16,2.2s.87,1.4,1.37,2.04,1.19,1.11,1.81,1.65,1.14,1.2,1.84,1.62,1.5.65,2.27.94,1.51.68,2.32.83,1.64.18,2.47.18c1.18,0,1.18-.23,2.36-.23s1.18.22,2.35.22,1.18,0,2.35,0,1.18-.32,2.35-.32,1.18.27,2.36.27,1.18.04,2.35.04,1.18-.3,2.35-.3,1.18.28,2.36.28,1.18-.11,2.36-.11,1.18-.18,2.35-.18,1.18,0,2.36,0,1.18.51,2.36.51,1.18-.36,2.35-.36,1.18.16,2.35.16,1.18.05,2.35.05,1.18-.1,2.36-.1,1.18.11,2.36.11,1.18-.41,2.35-.41,1.18.53,2.35.53,1.18-.34,2.36-.34,1.18.02,2.35.02,1.18-.11,2.36-.11,1.18.28,2.36.28,1.18.02,2.36.02,1.18-.01,2.36-.01,1.18-.03,2.36-.03,1.18-.27,2.36-.27,1.18.37,2.35.37,1.18-.17,2.36-.17,1.18-.24,2.36-.24,1.18.31,2.36.31,1.18-.09,2.36-.09,1.18.19,2.36.19,1.18-.07,2.36-.07"/>
  </g>
  <g>
    <path class="cls-3" d="M147.75,204.62c0,.9-.08,1.79-.41,2.57s-.87,1.54-1.48,2.15-1.43.93-2.24,1.27-1.58.62-2.48.62-1.79-.09-2.57-.41-1.43-.98-2.04-1.6-.98-1.34-1.32-2.16-.75-1.56-.75-2.46-.02-1.86.3-2.64.96-1.55,1.58-2.16,1.48-.93,2.29-1.27,1.62-.41,2.52-.41,1.75.05,2.53.38,1.53.82,2.14,1.43,1.24,1.27,1.58,2.08.36,1.69.36,2.59Z"/>
    <path class="cls-10" d="M147.75,204.62c0,.9-.08,1.79-.41,2.57s-.87,1.54-1.48,2.15-1.43.93-2.24,1.27-1.58.62-2.48.62-1.79-.09-2.57-.41-1.43-.98-2.04-1.6-.98-1.34-1.32-2.16-.75-1.56-.75-2.46-.02-1.86.3-2.64.96-1.55,1.58-2.16,1.48-.93,2.29-1.27,1.62-.41,2.52-.41,1.75.05,2.53.38,1.53.82,2.14,1.43,1.24,1.27,1.58,2.08.36,1.69.36,2.59Z"/>
  </g>
  <g>
    <path class="cls-3" d="M191.4,204.62c0,.9-.61,1.65-.93,2.43s-.4,1.82-1.01,2.43-1.59.74-2.4,1.08-1.56.91-2.46.91-1.82-.24-2.6-.57-1.56-.9-2.17-1.51-1.18-1.35-1.52-2.17-.18-1.71-.18-2.61.01-1.76.34-2.54.95-1.42,1.56-2.04,1.15-1.4,1.96-1.74,1.72-.37,2.62-.37,1.86-.02,2.65.3,1.56.96,2.17,1.57,1.22,1.37,1.55,2.18.43,1.74.43,2.64Z"/>
    <path class="cls-10" d="M191.4,204.62c0,.9-.61,1.65-.93,2.43s-.4,1.82-1.01,2.43-1.59.74-2.4,1.08-1.56.91-2.46.91-1.82-.24-2.6-.57-1.56-.9-2.17-1.51-1.18-1.35-1.52-2.17-.18-1.71-.18-2.61.01-1.76.34-2.54.95-1.42,1.56-2.04,1.15-1.4,1.96-1.74,1.72-.37,2.62-.37,1.86-.02,2.65.3,1.56.96,2.17,1.57,1.22,1.37,1.55,2.18.43,1.74.43,2.64Z"/>
  </g>
  <ellipse class="cls-1" cx="152.77" cy="198.19" rx="2.8" ry="4.29"/>
  <ellipse class="cls-1" cx="171.72" cy="197.98" rx="2.8" ry="4.29"/>
  <g>
    <path class="cls-4" d="M160.96,233.05c-.43,1.12-.57,1.06-1.03,2.17s-.47,1.11-.94,2.21-.3,1.18-.77,2.28-.55,1.07-1.02,2.18-.43,1.12-.9,2.23-.44,1.12-.9,2.23-.67,1.02-1.14,2.13-.38,1.15-.84,2.26-.33,1.17-.8,2.28-.76.99-1.2,2.12c-.29.89.29,1.79.95,2.46.88.79.92.74,1.81,1.51s.71.99,1.61,1.76,1.08.56,1.98,1.33.55,1.17,1.45,1.95,1.14.5,2.04,1.28.85.83,1.73,1.63c.82.82,2.18,1.12,3.17.52.8-.72.75-.79,1.48-1.59s.51-.99,1.24-1.78.78-.75,1.51-1.55.76-.77,1.49-1.57.64-.89,1.42-1.64c.55-.33,1.11-.75,1.28-1.33s0-1.25-.27-1.83c-.36-1.1-.34-1.11-.66-2.22s-.2-1.15-.52-2.26-.46-1.07-.78-2.19-.53-1.05-.85-2.16.18-1.26-.14-2.37-.55-1.05-.87-2.16-.49-1.06-.81-2.18-.25-1.13-.57-2.25-.39-1.1-.71-2.21-.03-1.2-.38-2.31c-.18-.38-.67-.17-1.01-.41-.48-.34-1.08-.61-1.7-.87s-1.27-.55-1.79-.73c-1.3-.45-2.12-.22-2.54,1.08Z"/>
    <path class="cls-11" d="M160.96,233.05c-.43,1.12-.57,1.06-1.03,2.17s-.47,1.11-.94,2.21-.3,1.18-.77,2.28-.55,1.07-1.02,2.18-.43,1.12-.9,2.23-.44,1.12-.9,2.23-.67,1.02-1.14,2.13-.38,1.15-.84,2.26-.33,1.17-.8,2.28-.76.99-1.2,2.12c-.29.89.29,1.79.95,2.46.88.79.92.74,1.81,1.51s.71.99,1.61,1.76,1.08.56,1.98,1.33.55,1.17,1.45,1.95,1.14.5,2.04,1.28.85.83,1.73,1.63c.82.82,2.18,1.12,3.17.52.8-.72.75-.79,1.48-1.59s.51-.99,1.24-1.78.78-.75,1.51-1.55.76-.77,1.49-1.57.64-.89,1.42-1.64c.55-.33,1.11-.75,1.28-1.33s0-1.25-.27-1.83c-.36-1.1-.34-1.11-.66-2.22s-.2-1.15-.52-2.26-.46-1.07-.78-2.19-.53-1.05-.85-2.16.18-1.26-.14-2.37-.55-1.05-.87-2.16-.49-1.06-.81-2.18-.25-1.13-.57-2.25-.39-1.1-.71-2.21-.03-1.2-.38-2.31c-.18-.38-.67-.17-1.01-.41-.48-.34-1.08-.61-1.7-.87s-1.27-.55-1.79-.73c-1.3-.45-2.12-.22-2.54,1.08Z"/>
  </g>
  <g>
    <path class="cls-4" d="M157.1,223.45c.78-.2,1.55-.47,2.33-.59s1.61-.11,2.4-.15,1.61-.15,2.4-.09,1.55.47,2.33.61,1.48.51,2.26.73c.64.18.92.56.83,1.22-.15,1.05.08,1.08-.07,2.13s-.1,1.06-.26,2.11-.41,1.01-.56,2.06c-.11.74-.65,1.39-1.39,1.28-.59-.09-1.34-.07-2.14-.13-.7-.06-1.42-.48-2.14-.47-.77.01-1.57-.02-2.2.12-.59.14-1.15.16-1.44-.37-.53-1.05-.25-1.19-.77-2.25s-.99-.83-1.51-1.89-.17-1.24-.7-2.29c-.42-.75-.18-1.8.65-2.02Z"/>
    <path class="cls-11" d="M157.1,223.45c.78-.2,1.55-.47,2.33-.59s1.61-.11,2.4-.15,1.61-.15,2.4-.09,1.55.47,2.33.61,1.48.51,2.26.73c.64.18.92.56.83,1.22-.15,1.05.08,1.08-.07,2.13s-.1,1.06-.26,2.11-.41,1.01-.56,2.06c-.11.74-.65,1.39-1.39,1.28-.59-.09-1.34-.07-2.14-.13-.7-.06-1.42-.48-2.14-.47-.77.01-1.57-.02-2.2.12-.59.14-1.15.16-1.44-.37-.53-1.05-.25-1.19-.77-2.25s-.99-.83-1.51-1.89-.17-1.24-.7-2.29c-.42-.75-.18-1.8.65-2.02Z"/>
  </g>
  <g>
    <path class="cls-5" d="M159.3,204.62c.45-.23.5-.03,1.01-.03s.51.01,1.01.01.5-.03,1.01-.03.51-.01,1.01-.01.51.06,1.01.06.51-.01,1.02-.01.57-.25,1.03-.03c.51.24-.11.47-.26,1.12-.08.32-.17.7-.3,1.08-.12.35-.23.72-.39,1.06s-.33.7-.54,1c-.23.32-.55.54-.85.74-.31.21-.64.37-1.04.37s-.75-.15-1.08-.36c-.31-.2-.58-.46-.83-.78-.23-.29-.44-.62-.63-.96s-.39-.68-.53-1.03c-.16-.39-.27-.77-.37-1.1-.2-.65-.79-.85-.28-1.1Z"/>
    <path class="cls-8" d="M159.3,204.62c.45-.23.5-.03,1.01-.03s.51.01,1.01.01.5-.03,1.01-.03.51-.01,1.01-.01.51.06,1.01.06.51-.01,1.02-.01.57-.25,1.03-.03c.51.24-.11.47-.26,1.12-.08.32-.17.7-.3,1.08-.12.35-.23.72-.39,1.06s-.33.7-.54,1c-.23.32-.55.54-.85.74-.31.21-.64.37-1.04.37s-.75-.15-1.08-.36c-.31-.2-.58-.46-.83-.78-.23-.29-.44-.62-.63-.96s-.39-.68-.53-1.03c-.16-.39-.27-.77-.37-1.1-.2-.65-.79-.85-.28-1.1Z"/>
  </g>
  <g>
    <path class="cls-5" d="M279.66,233.66c.51.14.42-.06,1.07.12.29.08.7-.04,1.09.06.32.09.59.45.96.55.32.09.73-.04,1.09.06.33.09.61.41.97.51.33.1.75-.06,1.1.04s.64.34.98.44.73.05,1.07.15.57.59.91.69.8-.17,1.14-.06.63.4.97.51.64.38.97.49.81-.16,1.14-.05c.35.12.65.35.98.46.36.12.62.45.94.57.36.13.7.23,1,.35.36.14.69.29,1,.46.34.19.78.2,1.06.41.31.23.43.66.67.92.26.28.52.53.71.83.21.32.4.63.52.97.13.36.26.71.3,1.06.04.38.14.77.08,1.13s-.22.75-.38,1.07-.37.69-.63.95c-.21.21-.63.29-1.04.46-.3.13-.62.38-1.01.49-.33.09-.74-.03-1.13.04-.35.06-.71.06-1.09.1-.36.04-.71.12-1.09.14s-.73.04-1.1.04-.73.07-1.11.06-.74.04-1.11,0-.75,0-1.12-.06-.72-.22-1.08-.29-.71-.23-1.06-.33-.7-.26-1.04-.38-.74-.15-1.07-.31-.56-.52-.87-.71-.71-.27-.99-.5-.55-.37-.79-.65c.55-.02.23.22.71.71.22.22.47.48.76.78.23.24.61.39.87.68.23.26.43.57.68.86.23.27.3.68.53.97s.72.35.95.65.17.77.38,1.07.7.41.9.72.14.77.32,1.09.4.61.56.94.32.66.45.99.09.74.19,1.08.56.62.62.97-.23.76-.23,1.12.22.75.16,1.1-.32.66-.47,1-.13.77-.35,1.07c-.21.28-.72.3-1.01.55s-.52.5-.82.68c-.33.2-.61.42-.94.53-.35.12-.68.38-1.04.42s-.74-.1-1.11-.15-.67-.28-1.02-.4-.65-.25-.99-.42-.73-.18-1.03-.39-.52-.51-.81-.75-.46-.56-.73-.82-.51-.5-.76-.77-.6-.43-.84-.71-.62-.44-.84-.73-.27-.72-.48-1.01-.59-.49-.79-.79-.27-.71-.46-1.01c-.19-.32-.24-.71-.41-1.02-.18-.34-.49-.58-.64-.9-.17-.35-.31-.69-.44-1-.16-.38-.3-.83-.39-1.13-.08.32-.31.74-.38,1.1-.07.33.08.72.02,1.08-.06.34-.24.66-.31,1.01s.12.74.05,1.09-.24.67-.32,1.01-.46.61-.56.94,0,.74-.11,1.07-.42.59-.56.91-.33.61-.5.91-.35.59-.55.87-.33.61-.58.86-.35.71-.65.9-.67.29-1.01.41c-.32.11-.7.07-1.07.12-.33.04-.68-.06-1.05-.07s-.78.15-1.1.04c-.34-.12-.6-.43-.89-.64s-.69-.33-.92-.61c-.22-.27-.11-.77-.28-1.1-.16-.31-.49-.54-.62-.89-.12-.33-.18-.68-.28-1.04s-.26-.67-.33-1.03.06-.73,0-1.09-.12-.7-.15-1.06.06-.72.04-1.08-.02-.72-.02-1.07c0-.37-.08-.73-.08-1.07,0-.38.04-.74.06-1.07.02-.41-.12-.77-.1-1.08.04-.66.2-.52-.09-.96-.37-.11-.62-.23-.95-.38-.35-.17-.5-.63-.79-.84-.31-.22-.81-.19-1.07-.45s-.24-.78-.45-1.08-.5-.54-.68-.86-.55-.57-.68-.91c-.14-.36-.06-.78-.16-1.13-.11-.38-.14-.75-.2-1.09-.08-.41-.31-.75-.35-1.07-.07-.67.52-.95.02-1.17s-.42.24-.98.55c-.28.15-.58.33-.95.46-.32.11-.67.07-1.05.12-.34.05-.67.26-1.04.23-.34-.03-.76.11-1.12,0-.32-.11-.67-.3-1-.5-.29-.17-.37-.68-.66-.93s-.68-.39-.82-.72-.35-.71-.35-1.09c0-.35.14-.73.23-1.12.08-.34.18-.71.32-1.07.13-.33.4-.62.57-.96.16-.32.46-.57.65-.89s.07-.82.27-1.13.69-.42.9-.73.39-.63.61-.92.24-.75.47-1.04.73-.37.97-.64.3-.73.54-1c.25-.29.69-.4.93-.66.26-.29.26-.8.49-1.05.28-.31.53-.58.74-.81.23-.25.73-.26.97-.51s.38-.6.64-.83.39-.62.66-.84.75-.17,1.03-.35c.3-.2.49-.55.79-.7.33-.16.68-.21,1.01-.28.35-.08.7-.2,1.04-.16s.65.22.97.4c.28.15.53.38.8.66.29.31.59.58.78.89.21.36.33.75.44,1.1.12.4.21.79.24,1.16.04.44-.13.83-.16,1.17-.08.69-.28.56.02,1.07.28.46.27.14.94-.02.3-.07.57-.49.97-.59.32-.08.67-.17,1.04-.27.33-.08.7-.1,1.06-.2.33-.09.68-.17,1.04-.27.34-.09.67-.26,1.02-.36s.73-.04,1.08-.14.68-.23,1.03-.33.76.03,1.1-.07.63-.4.98-.51.76,0,1.1-.11.61-.46.95-.57.67-.28,1.01-.4.8.06,1.13-.06.66-.34.98-.47.66-.32.98-.46c.34-.15.59-.47.91-.62.34-.16.71-.22,1.01-.38.34-.18.55-.52.82-.71.29-.19.71-.19,1.03-.29s.68,0,1.02,0,.65.06.98.16.72.02,1.03.19.46.52.72.76.69.31.89.61.22.67.34,1c.11.31-.02.68.03,1.03.04.32.13.64.11,1-.02.33.12.69.05,1.04s-.43.63-.58.96-.1.8-.32,1.1-.66.39-.94.64-.5.54-.81.75-.69.26-1.02.43-.53.59-.87.74-.8-.02-1.14.1-.7.2-1.06.3-.67.43-1.02.5c-.38.08-.75.16-1.09.21-.4.05-.78,0-1.11.02-.44.02-.67.14-.96.1-.31.45-.27.31-.34.98-.03.31.23.73.16,1.13-.06.34-.25.68-.35,1.06-.09.34-.1.74-.24,1.09-.13.33-.55.55-.72.89s-.1.79-.31,1.1-.65.42-.9.7-.54.45-.83.69-.37.71-.69.91c-.3.19-.67.3-1.02.45-.32.14-.66.31-1.03.42s-.75.28-1.12.36c-.39.08-.79.09-1.16.13-.4.04-.8.16-1.17.17-.41,0-.79-.38-1.15-.41-.44-.03-.85.12-1.17.06-.7-.12-.5-.33-1.04-.5"/>
    <path class="cls-7" d="M279.66,233.66c.51.14.42-.06,1.07.12.29.08.7-.04,1.09.06.32.09.59.45.96.55.32.09.73-.04,1.09.06.33.09.61.41.97.51.33.1.75-.06,1.1.04s.64.34.98.44.73.05,1.07.15.57.59.91.69.8-.17,1.14-.06.63.4.97.51.64.38.97.49.81-.16,1.14-.05c.35.12.65.35.98.46.36.12.62.45.94.57.36.13.7.23,1,.35.36.14.69.29,1,.46.34.19.78.2,1.06.41.31.23.43.66.67.92.26.28.52.53.71.83.21.32.4.63.52.97.13.36.26.71.3,1.06.04.38.14.77.08,1.13s-.22.75-.38,1.07-.37.69-.63.95c-.21.21-.63.29-1.04.46-.3.13-.62.38-1.01.49-.33.09-.74-.03-1.13.04-.35.06-.71.06-1.09.1-.36.04-.71.12-1.09.14s-.73.04-1.1.04-.73.07-1.11.06-.74.04-1.11,0-.75,0-1.12-.06-.72-.22-1.08-.29-.71-.23-1.06-.33-.7-.26-1.04-.38-.74-.15-1.07-.31-.56-.52-.87-.71-.71-.27-.99-.5-.55-.37-.79-.65c.55-.02.23.22.71.71.22.22.47.48.76.78.23.24.61.39.87.68.23.26.43.57.68.86.23.27.3.68.53.97s.72.35.95.65.17.77.38,1.07.7.41.9.72.14.77.32,1.09.4.61.56.94.32.66.45.99.09.74.19,1.08.56.62.62.97-.23.76-.23,1.12.22.75.16,1.1-.32.66-.47,1-.13.77-.35,1.07c-.21.28-.72.3-1.01.55s-.52.5-.82.68c-.33.2-.61.42-.94.53-.35.12-.68.38-1.04.42s-.74-.1-1.11-.15-.67-.28-1.02-.4-.65-.25-.99-.42-.73-.18-1.03-.39-.52-.51-.81-.75-.46-.56-.73-.82-.51-.5-.76-.77-.6-.43-.84-.71-.62-.44-.84-.73-.27-.72-.48-1.01-.59-.49-.79-.79-.27-.71-.46-1.01c-.19-.32-.24-.71-.41-1.02-.18-.34-.49-.58-.64-.9-.17-.35-.31-.69-.44-1-.16-.38-.3-.83-.39-1.13-.08.32-.31.74-.38,1.1-.07.33.08.72.02,1.08-.06.34-.24.66-.31,1.01s.12.74.05,1.09-.24.67-.32,1.01-.46.61-.56.94,0,.74-.11,1.07-.42.59-.56.91-.33.61-.5.91-.35.59-.55.87-.33.61-.58.86-.35.71-.65.9-.67.29-1.01.41c-.32.11-.7.07-1.07.12-.33.04-.68-.06-1.05-.07s-.78.15-1.1.04c-.34-.12-.6-.43-.89-.64s-.69-.33-.92-.61c-.22-.27-.11-.77-.28-1.1-.16-.31-.49-.54-.62-.89-.12-.33-.18-.68-.28-1.04s-.26-.67-.33-1.03.06-.73,0-1.09-.12-.7-.15-1.06.06-.72.04-1.08-.02-.72-.02-1.07c0-.37-.08-.73-.08-1.07,0-.38.04-.74.06-1.07.02-.41-.12-.77-.1-1.08.04-.66.2-.52-.09-.96-.37-.11-.62-.23-.95-.38-.35-.17-.5-.63-.79-.84-.31-.22-.81-.19-1.07-.45s-.24-.78-.45-1.08-.5-.54-.68-.86-.55-.57-.68-.91c-.14-.36-.06-.78-.16-1.13-.11-.38-.14-.75-.2-1.09-.08-.41-.31-.75-.35-1.07-.07-.67.52-.95.02-1.17s-.42.24-.98.55c-.28.15-.58.33-.95.46-.32.11-.67.07-1.05.12-.34.05-.67.26-1.04.23-.34-.03-.76.11-1.12,0-.32-.11-.67-.3-1-.5-.29-.17-.37-.68-.66-.93s-.68-.39-.82-.72-.35-.71-.35-1.09c0-.35.14-.73.23-1.12.08-.34.18-.71.32-1.07.13-.33.4-.62.57-.96.16-.32.46-.57.65-.89s.07-.82.27-1.13.69-.42.9-.73.39-.63.61-.92.24-.75.47-1.04.73-.37.97-.64.3-.73.54-1c.25-.29.69-.4.93-.66.26-.29.26-.8.49-1.05.28-.31.53-.58.74-.81.23-.25.73-.26.97-.51s.38-.6.64-.83.39-.62.66-.84.75-.17,1.03-.35c.3-.2.49-.55.79-.7.33-.16.68-.21,1.01-.28.35-.08.7-.2,1.04-.16s.65.22.97.4c.28.15.53.38.8.66.29.31.59.58.78.89.21.36.33.75.44,1.1.12.4.21.79.24,1.16.04.44-.13.83-.16,1.17-.08.69-.28.56.02,1.07.28.46.27.14.94-.02.3-.07.57-.49.97-.59.32-.08.67-.17,1.04-.27.33-.08.7-.1,1.06-.2.33-.09.68-.17,1.04-.27.34-.09.67-.26,1.02-.36s.73-.04,1.08-.14.68-.23,1.03-.33.76.03,1.1-.07.63-.4.98-.51.76,0,1.1-.11.61-.46.95-.57.67-.28,1.01-.4.8.06,1.13-.06.66-.34.98-.47.66-.32.98-.46c.34-.15.59-.47.91-.62.34-.16.71-.22,1.01-.38.34-.18.55-.52.82-.71.29-.19.71-.19,1.03-.29s.68,0,1.02,0,.65.06.98.16.72.02,1.03.19.46.52.72.76.69.31.89.61.22.67.34,1c.11.31-.02.68.03,1.03.04.32.13.64.11,1-.02.33.12.69.05,1.04s-.43.63-.58.96-.1.8-.32,1.1-.66.39-.94.64-.5.54-.81.75-.69.26-1.02.43-.53.59-.87.74-.8-.02-1.14.1-.7.2-1.06.3-.67.43-1.02.5c-.38.08-.75.16-1.09.21-.4.05-.78,0-1.11.02-.44.02-.67.14-.96.1-.31.45-.27.31-.34.98-.03.31.23.73.16,1.13-.06.34-.25.68-.35,1.06-.09.34-.1.74-.24,1.09-.13.33-.55.55-.72.89s-.1.79-.31,1.1-.65.42-.9.7-.54.45-.83.69-.37.71-.69.91c-.3.19-.67.3-1.02.45-.32.14-.66.31-1.03.42s-.75.28-1.12.36c-.39.08-.79.09-1.16.13-.4.04-.8.16-1.17.17-.41,0-.79-.38-1.15-.41-.44-.03-.85.12-1.17.06-.7-.12-.5-.33-1.04-.5"/>
  </g>
  <g>
    <path class="cls-5" d="M56.85,236.54c-.51.14-.43-.07-1.07.11-.29.08-.59.34-.99.45-.32.09-.69.07-1.06.18-.32.09-.69.1-1.05.2-.33.09-.59.5-.94.6-.33.1-.73,0-1.08.11s-.63.36-.98.46-.72.06-1.07.16-.7.15-1.05.25-.63.4-.97.5-.75,0-1.09.11-.63.4-.97.51-.78-.04-1.11.07c-.35.12-.67.31-.99.42-.36.12-.66.33-.98.44-.36.13-.66.34-.96.46-.36.14-.74.19-1.05.36-.34.19-.75.26-1.04.47-.31.23-.6.52-.84.77-.26.28-.51.6-.7.9-.21.32-.21.76-.33,1.09-.13.36,0,.74-.04,1.1-.04.38-.36.74-.31,1.1s.35.68.51,1,.25.73.51.99c.21.21.61.3,1.02.47.3.13.66.21,1.05.32.33.09.64.43,1.03.49.35.06.75-.15,1.13-.11.36.04.7.36,1.08.38s.74-.03,1.12-.02.74-.06,1.11-.07.72-.22,1.1-.25.74-.04,1.1-.1.73-.12,1.09-.2.69-.28,1.04-.38.76-.04,1.11-.16.64-.38.97-.54.74-.18,1.05-.37.47-.6.75-.83.68-.24.92-.52c-.55-.02-.26.21-.74.7-.22.22-.67.3-.95.6-.23.24-.43.56-.69.85-.23.26-.25.72-.5,1.01-.23.27-.48.53-.71.82s-.4.6-.62.9-.7.39-.91.69-.44.59-.64.9-.42.61-.6.93-.25.71-.41,1.03-.2.72-.33,1.05-.47.62-.57.97-.07.76-.13,1.11-.24.74-.25,1.1.35.71.42,1.07.23.65.38.99.26.64.48.94c.21.28.35.63.64.88s.55.52.85.7c.33.2.69.31,1.02.43.35.12.72.12,1.08.16s.7-.07,1.07-.12.78.15,1.13.03.65-.34.99-.51.6-.4.91-.61.59-.41.88-.65.64-.38.9-.64.38-.65.63-.92.67-.39.9-.67.26-.73.48-1.02.55-.5.76-.8.42-.61.62-.91.22-.73.4-1.04c.19-.32.6-.51.77-.82.18-.34.1-.79.26-1.1.17-.35.62-.55.75-.86.16-.38.19-.97.28-1.26.08.32.32.82.39,1.18.07.33.05.69.12,1.05.06.34.18.67.25,1.02s-.12.74-.04,1.08.28.66.37,1,.12.7.22,1.03.24.66.36.99.31.63.45.95.24.66.41.97.16.75.37,1.03.58.45.83.7.55.43.85.62.57.42.91.54c.32.11.66.3,1.02.35.33.04.7-.24,1.07-.26s.78.2,1.11.08c.34-.12.61-.42.9-.64s.44-.54.67-.82c.22-.27.68-.4.85-.73.16-.31.09-.74.22-1.09.12-.33.26-.66.36-1.01s.14-.7.21-1.05.06-.71.11-1.06.38-.68.41-1.03.07-.73.08-1.08,0-.73,0-1.08c0-.37-.31-.73-.32-1.08,0-.38.12-.74.1-1.07-.02-.41-.2-.76-.22-1.06-.04-.66-.15-.61.14-1.05.37-.11.61-.44.93-.59.35-.17.84-.06,1.13-.27.31-.22.43-.66.69-.92s.5-.54.71-.83.68-.46.86-.78.08-.8.21-1.14c.14-.36.44-.65.54-.99.11-.38.11-.77.18-1.11.08-.41.25-.77.29-1.09.07-.67-.58-.88-.07-1.1s.26.39.83.69c.28.15.62.34,1,.46.32.11.71.11,1.09.16.34.05.69-.15,1.07-.18.34-.03.74.15,1.1.03.32-.11.62-.34.95-.54.29-.17.52-.45.82-.7s.68-.44.82-.77.04-.74.04-1.13c0-.35.18-.75.1-1.14-.08-.34-.37-.65-.51-1.01-.13-.33-.15-.73-.32-1.07-.16-.32-.53-.54-.72-.87s-.42-.59-.63-.91-.38-.62-.6-.93-.42-.61-.64-.9-.4-.63-.63-.91-.62-.45-.86-.73-.3-.73-.54-1c-.25-.29-.52-.55-.75-.82-.26-.29-.36-.71-.59-.96-.28-.31-.62-.51-.83-.73-.23-.25-.45-.53-.7-.78s-.49-.51-.74-.74-.54-.46-.8-.68-.53-.5-.81-.68c-.3-.2-.8-.03-1.1-.17-.33-.16-.61-.27-.94-.34-.35-.08-.64-.15-.98-.11s-.74-.11-1.06.06c-.28.15-.47.5-.73.77-.29.31-.67.53-.86.85-.21.36-.18.82-.29,1.17-.12.4-.47.75-.5,1.12-.04.44.37.84.41,1.18.08.69.27.6-.03,1.1-.28.46-.26-.13-.93-.29-.3-.07-.66-.09-1.06-.19-.32-.08-.67-.17-1.05-.26-.33-.08-.7-.1-1.07-.19-.33-.09-.66-.26-1.02-.35-.34-.09-.74,0-1.09-.1s-.65-.35-1-.45-.67-.28-1.02-.38-.77.07-1.12-.03-.63-.41-.97-.52-.75-.02-1.1-.13-.58-.55-.92-.66-.78.04-1.12-.08-.61-.47-.94-.59-.71-.18-1.04-.31-.64-.36-.97-.5c-.34-.15-.76-.09-1.08-.24-.34-.16-.52-.6-.82-.76-.34-.18-.76-.17-1.03-.35-.29-.19-.64-.18-.97-.28s-.62-.2-.97-.19-.63.13-.97.22-.68.06-.99.23-.65.27-.91.51-.3.63-.49.92-.48.5-.6.83c-.11.31-.08.67-.13,1.02-.04.32-.03.65,0,1.01.02.33-.05.67.02,1.03s.15.74.31,1.07.36.66.58.96.48.57.76.82.66.35.97.56.48.63.81.81.8.05,1.14.19.63.43.97.55.75.1,1.1.2.67.45,1.02.52c.38.08.78-.06,1.13,0,.4.05.77,0,1.11.02.44.02.81.1,1.09.07.31.45-.08.43-.02,1.1.03.31-.05.71.02,1.12.06.34.16.71.26,1.09.09.34.26.69.4,1.04.13.33.55.55.72.88s.03.83.24,1.14.48.58.73.86.58.46.87.71.55.48.87.69c.3.19.74.12,1.09.28.32.14.6.41.97.52s.75.22,1.12.29c.39.08.77.21,1.14.25.4.04.8.2,1.16.2.41,0,.82-.02,1.18-.05.44-.03.78-.49,1.1-.55.7-.12.56-.02,1.1-.19"/>
    <path class="cls-7" d="M56.85,236.54c-.51.14-.43-.07-1.07.11-.29.08-.59.34-.99.45-.32.09-.69.07-1.06.18-.32.09-.69.1-1.05.2-.33.09-.59.5-.94.6-.33.1-.73,0-1.08.11s-.63.36-.98.46-.72.06-1.07.16-.7.15-1.05.25-.63.4-.97.5-.75,0-1.09.11-.63.4-.97.51-.78-.04-1.11.07c-.35.12-.67.31-.99.42-.36.12-.66.33-.98.44-.36.13-.66.34-.96.46-.36.14-.74.19-1.05.36-.34.19-.75.26-1.04.47-.31.23-.6.52-.84.77-.26.28-.51.6-.7.9-.21.32-.21.76-.33,1.09-.13.36,0,.74-.04,1.1-.04.38-.36.74-.31,1.1s.35.68.51,1,.25.73.51.99c.21.21.61.3,1.02.47.3.13.66.21,1.05.32.33.09.64.43,1.03.49.35.06.75-.15,1.13-.11.36.04.7.36,1.08.38s.74-.03,1.12-.02.74-.06,1.11-.07.72-.22,1.1-.25.74-.04,1.1-.1.73-.12,1.09-.2.69-.28,1.04-.38.76-.04,1.11-.16.64-.38.97-.54.74-.18,1.05-.37.47-.6.75-.83.68-.24.92-.52c-.55-.02-.26.21-.74.7-.22.22-.67.3-.95.6-.23.24-.43.56-.69.85-.23.26-.25.72-.5,1.01-.23.27-.48.53-.71.82s-.4.6-.62.9-.7.39-.91.69-.44.59-.64.9-.42.61-.6.93-.25.71-.41,1.03-.2.72-.33,1.05-.47.62-.57.97-.07.76-.13,1.11-.24.74-.25,1.1.35.71.42,1.07.23.65.38.99.26.64.48.94c.21.28.35.63.64.88s.55.52.85.7c.33.2.69.31,1.02.43.35.12.72.12,1.08.16s.7-.07,1.07-.12.78.15,1.13.03.65-.34.99-.51.6-.4.91-.61.59-.41.88-.65.64-.38.9-.64.38-.65.63-.92.67-.39.9-.67.26-.73.48-1.02.55-.5.76-.8.42-.61.62-.91.22-.73.4-1.04c.19-.32.6-.51.77-.82.18-.34.1-.79.26-1.1.17-.35.62-.55.75-.86.16-.38.19-.97.28-1.26.08.32.32.82.39,1.18.07.33.05.69.12,1.05.06.34.18.67.25,1.02s-.12.74-.04,1.08.28.66.37,1,.12.7.22,1.03.24.66.36.99.31.63.45.95.24.66.41.97.16.75.37,1.03.58.45.83.7.55.43.85.62.57.42.91.54c.32.11.66.3,1.02.35.33.04.7-.24,1.07-.26s.78.2,1.11.08c.34-.12.61-.42.9-.64s.44-.54.67-.82c.22-.27.68-.4.85-.73.16-.31.09-.74.22-1.09.12-.33.26-.66.36-1.01s.14-.7.21-1.05.06-.71.11-1.06.38-.68.41-1.03.07-.73.08-1.08,0-.73,0-1.08c0-.37-.31-.73-.32-1.08,0-.38.12-.74.1-1.07-.02-.41-.2-.76-.22-1.06-.04-.66-.15-.61.14-1.05.37-.11.61-.44.93-.59.35-.17.84-.06,1.13-.27.31-.22.43-.66.69-.92s.5-.54.71-.83.68-.46.86-.78.08-.8.21-1.14c.14-.36.44-.65.54-.99.11-.38.11-.77.18-1.11.08-.41.25-.77.29-1.09.07-.67-.58-.88-.07-1.1s.26.39.83.69c.28.15.62.34,1,.46.32.11.71.11,1.09.16.34.05.69-.15,1.07-.18.34-.03.74.15,1.1.03.32-.11.62-.34.95-.54.29-.17.52-.45.82-.7s.68-.44.82-.77.04-.74.04-1.13c0-.35.18-.75.1-1.14-.08-.34-.37-.65-.51-1.01-.13-.33-.15-.73-.32-1.07-.16-.32-.53-.54-.72-.87s-.42-.59-.63-.91-.38-.62-.6-.93-.42-.61-.64-.9-.4-.63-.63-.91-.62-.45-.86-.73-.3-.73-.54-1c-.25-.29-.52-.55-.75-.82-.26-.29-.36-.71-.59-.96-.28-.31-.62-.51-.83-.73-.23-.25-.45-.53-.7-.78s-.49-.51-.74-.74-.54-.46-.8-.68-.53-.5-.81-.68c-.3-.2-.8-.03-1.1-.17-.33-.16-.61-.27-.94-.34-.35-.08-.64-.15-.98-.11s-.74-.11-1.06.06c-.28.15-.47.5-.73.77-.29.31-.67.53-.86.85-.21.36-.18.82-.29,1.17-.12.4-.47.75-.5,1.12-.04.44.37.84.41,1.18.08.69.27.6-.03,1.1-.28.46-.26-.13-.93-.29-.3-.07-.66-.09-1.06-.19-.32-.08-.67-.17-1.05-.26-.33-.08-.7-.1-1.07-.19-.33-.09-.66-.26-1.02-.35-.34-.09-.74,0-1.09-.1s-.65-.35-1-.45-.67-.28-1.02-.38-.77.07-1.12-.03-.63-.41-.97-.52-.75-.02-1.1-.13-.58-.55-.92-.66-.78.04-1.12-.08-.61-.47-.94-.59-.71-.18-1.04-.31-.64-.36-.97-.5c-.34-.15-.76-.09-1.08-.24-.34-.16-.52-.6-.82-.76-.34-.18-.76-.17-1.03-.35-.29-.19-.64-.18-.97-.28s-.62-.2-.97-.19-.63.13-.97.22-.68.06-.99.23-.65.27-.91.51-.3.63-.49.92-.48.5-.6.83c-.11.31-.08.67-.13,1.02-.04.32-.03.65,0,1.01.02.33-.05.67.02,1.03s.15.74.31,1.07.36.66.58.96.48.57.76.82.66.35.97.56.48.63.81.81.8.05,1.14.19.63.43.97.55.75.1,1.1.2.67.45,1.02.52c.38.08.78-.06,1.13,0,.4.05.77,0,1.11.02.44.02.81.1,1.09.07.31.45-.08.43-.02,1.1.03.31-.05.71.02,1.12.06.34.16.71.26,1.09.09.34.26.69.4,1.04.13.33.55.55.72.88s.03.83.24,1.14.48.58.73.86.58.46.87.71.55.48.87.69c.3.19.74.12,1.09.28.32.14.6.41.97.52s.75.22,1.12.29c.39.08.77.21,1.14.25.4.04.8.2,1.16.2.41,0,.82-.02,1.18-.05.44-.03.78-.49,1.1-.55.7-.12.56-.02,1.1-.19"/>
  </g>
  <g>
    <path class="cls-6" d="M228.19,93.4c-.16.26-.62.41-.83.77-.17.28-.05.77-.24,1.11-.16.3-.29.63-.47.97-.16.31-.73.42-.9.76-.15.31-.1.74-.26,1.08-.15.32-.19.69-.34,1.04-.14.32-.46.58-.6.93s-.07.74-.2,1.09-.63.53-.75.88.07.79-.04,1.14-.52.59-.63.94.19.81.09,1.16-.43.63-.52.98-.36.65-.45,1.01.29.81.21,1.16-.44.64-.51,1-.05.73-.11,1.09,0,.73-.05,1.09-.17.7-.22,1.07-.08.72-.12,1.08-.43.69-.47,1.05.02.73,0,1.1-.11.72-.12,1.09.37.74.36,1.1-.09.72-.08,1.09-.32.73-.31,1.09.21.72.23,1.08.27.71.3,1.07-.12.74-.09,1.1.16.71.2,1.08-.11.75-.06,1.11.49.66.55,1.02-.34.79-.27,1.15.18.71.26,1.07.11.72.19,1.08.59.6.68.96-.11.78-.01,1.13.13.72.23,1.07c.1.33.41.58.6.85s.46.47.72.67.46.58.78.7.69.24,1.03.25.61-.47.94-.56.75.11,1.12,0c.33-.09.7-.11,1.06-.21.34-.09.65-.29,1.01-.38.34-.09.67-.26,1.02-.35s.73-.03,1.08-.12.64-.4.99-.48.71-.09,1.07-.18.69-.19,1.05-.27.71-.11,1.06-.19.66-.34,1.01-.42.74.05,1.09-.03.76.12,1.11.05.68-.26,1.03-.33.65-.46,1-.52.73-.05,1.08-.12.71-.16,1.06-.22.76.2,1.12.14.72-.04,1.08-.09.7-.22,1.06-.27.74.08,1.1.04.71-.1,1.07-.14.7-.29,1.05-.32.74.16,1.09.14.71-.34,1.06-.35.73.24,1.08.24c.39,0,.68-.48,1.03-.6s.82-.03,1.1-.26.47-.6.67-.91.35-.66.43-1.03-.08-.71-.13-1.09c-.04-.34-.1-.7-.15-1.07-.04-.34.29-.74.25-1.12-.04-.35-.35-.68-.38-1.05-.03-.35-.2-.7-.23-1.07s.39-.75.37-1.11-.3-.7-.32-1.06-.16-.71-.18-1.08-.11-.71-.12-1.08.39-.73.38-1.09-.36-.71-.36-1.08-.09-.72-.09-1.09.53-.71.54-1.08-.28-.73-.26-1.09,0-.72.02-1.09.07-.72.1-1.08.33-.7.37-1.06-.41-.77-.37-1.13.33-.69.38-1.05.08-.72.14-1.08.15-.71.22-1.07.12-.71.2-1.07-.04-.76.04-1.11.53-.61.62-.96.2-.69.3-1.04.14-.71.25-1.05.25-.68.38-1.01.14-.73.28-1.06.5-.56.66-.89.29-.66.46-.97.36-.62.54-.93.38-.61.58-.91c.23-.34-.04-.86.05-1.22.09-.38.6-.74.54-1.12s-.19-.84-.37-1.18-.77-.38-1.06-.64-.5-.55-.86-.7c-.34-.14-.7-.06-1.11-.08-.35-.01-.69-.43-1.06-.44s-.72.14-1.08.13-.71-.02-1.08-.03-.71-.25-1.07-.25-.71.05-1.08.05-.71.25-1.08.25-.72-.31-1.08-.3-.71.16-1.08.16-.72-.15-1.08-.14-.7.37-1.06.38-.72-.15-1.08-.13-.72-.07-1.08-.05-.7.27-1.06.3-.72-.03-1.08,0-.72,0-1.08.03-.69.35-1.05.39-.74-.15-1.1-.11-.67.43-1.03.47-.75-.16-1.11-.11-.7.18-1.05.24-.71.14-1.06.21-.78-.18-1.13-.11-.61.57-.96.65-.79-.19-1.14-.1-.67.32-1.01.42-.59.53-.92.64-.83-.17-1.16-.04-.5.54-.76.76-.39.51-.57.81Z"/>
    <path class="cls-11" d="M228.19,93.4c-.16.26-.62.41-.83.77-.17.28-.05.77-.24,1.11-.16.3-.29.63-.47.97-.16.31-.73.42-.9.76-.15.31-.1.74-.26,1.08-.15.32-.19.69-.34,1.04-.14.32-.46.58-.6.93s-.07.74-.2,1.09-.63.53-.75.88.07.79-.04,1.14-.52.59-.63.94.19.81.09,1.16-.43.63-.52.98-.36.65-.45,1.01.29.81.21,1.16-.44.64-.51,1-.05.73-.11,1.09,0,.73-.05,1.09-.17.7-.22,1.07-.08.72-.12,1.08-.43.69-.47,1.05.02.73,0,1.1-.11.72-.12,1.09.37.74.36,1.1-.09.72-.08,1.09-.32.73-.31,1.09.21.72.23,1.08.27.71.3,1.07-.12.74-.09,1.1.16.71.2,1.08-.11.75-.06,1.11.49.66.55,1.02-.34.79-.27,1.15.18.71.26,1.07.11.72.19,1.08.59.6.68.96-.11.78-.01,1.13.13.72.23,1.07c.1.33.41.58.6.85s.46.47.72.67.46.58.78.7.69.24,1.03.25.61-.47.94-.56.75.11,1.12,0c.33-.09.7-.11,1.06-.21.34-.09.65-.29,1.01-.38.34-.09.67-.26,1.02-.35s.73-.03,1.08-.12.64-.4.99-.48.71-.09,1.07-.18.69-.19,1.05-.27.71-.11,1.06-.19.66-.34,1.01-.42.74.05,1.09-.03.76.12,1.11.05.68-.26,1.03-.33.65-.46,1-.52.73-.05,1.08-.12.71-.16,1.06-.22.76.2,1.12.14.72-.04,1.08-.09.7-.22,1.06-.27.74.08,1.1.04.71-.1,1.07-.14.7-.29,1.05-.32.74.16,1.09.14.71-.34,1.06-.35.73.24,1.08.24c.39,0,.68-.48,1.03-.6s.82-.03,1.1-.26.47-.6.67-.91.35-.66.43-1.03-.08-.71-.13-1.09c-.04-.34-.1-.7-.15-1.07-.04-.34.29-.74.25-1.12-.04-.35-.35-.68-.38-1.05-.03-.35-.2-.7-.23-1.07s.39-.75.37-1.11-.3-.7-.32-1.06-.16-.71-.18-1.08-.11-.71-.12-1.08.39-.73.38-1.09-.36-.71-.36-1.08-.09-.72-.09-1.09.53-.71.54-1.08-.28-.73-.26-1.09,0-.72.02-1.09.07-.72.1-1.08.33-.7.37-1.06-.41-.77-.37-1.13.33-.69.38-1.05.08-.72.14-1.08.15-.71.22-1.07.12-.71.2-1.07-.04-.76.04-1.11.53-.61.62-.96.2-.69.3-1.04.14-.71.25-1.05.25-.68.38-1.01.14-.73.28-1.06.5-.56.66-.89.29-.66.46-.97.36-.62.54-.93.38-.61.58-.91c.23-.34-.04-.86.05-1.22.09-.38.6-.74.54-1.12s-.19-.84-.37-1.18-.77-.38-1.06-.64-.5-.55-.86-.7c-.34-.14-.7-.06-1.11-.08-.35-.01-.69-.43-1.06-.44s-.72.14-1.08.13-.71-.02-1.08-.03-.71-.25-1.07-.25-.71.05-1.08.05-.71.25-1.08.25-.72-.31-1.08-.3-.71.16-1.08.16-.72-.15-1.08-.14-.7.37-1.06.38-.72-.15-1.08-.13-.72-.07-1.08-.05-.7.27-1.06.3-.72-.03-1.08,0-.72,0-1.08.03-.69.35-1.05.39-.74-.15-1.1-.11-.67.43-1.03.47-.75-.16-1.11-.11-.7.18-1.05.24-.71.14-1.06.21-.78-.18-1.13-.11-.61.57-.96.65-.79-.19-1.14-.1-.67.32-1.01.42-.59.53-.92.64-.83-.17-1.16-.04-.5.54-.76.76-.39.51-.57.81Z"/>
  </g>
  <g>
    <g>
      <path class="cls-6" d="M72.5,160.29c-.18.29-.56.48-.76.81-.18.3-.09.77-.27,1.1-.17.3-.25.67-.42,1-.16.31-.65.47-.81.81-.15.32-.33.64-.49.98s-.05.76-.2,1.1-.51.57-.64.92-.07.74-.19,1.09-.08.73-.19,1.08-.68.55-.78.91-.18.71-.27,1.06.22.8.15,1.16-.28.68-.35,1.04-.38.67-.43,1.04.11.75.06,1.11-.12.72-.15,1.08.12.73.1,1.1-.18.71-.19,1.08.05.72.05,1.09-.14.73-.13,1.09.18.72.2,1.08-.11.74-.07,1.1.43.68.47,1.04-.01.73.04,1.09-.11.76-.04,1.12.08.73.16,1.08.34.67.43,1.02.1.72.2,1.08.55.59.66.94,0,.76.13,1.11.36.71.37,1.06,0,.79-.09,1.14-.65.51-.83.82-.28.65-.55.89-.56.4-.89.56-.62.35-.98.41c-.53.09-.51.25-1.04.34s-.56-.09-1.1,0-.54.04-1.07.13-.5.28-1.04.36-.59-.28-1.13-.19-.49.33-1.03.42-.56-.1-1.1,0-.48.39-1.02.48-.52.19-1.05.28-.57-.17-1.11-.08-.51.2-1.05.29-.56-.09-1.09,0-.51.22-1.05.31-.56-.09-1.1,0-.53.13-1.06.22-.5.3-1.04.39-.56-.05-1.09.03-.5.32-1.03.41-.59-.23-1.12-.15-.53.12-1.07.21-.55.04-1.08.12-.51.25-1.05.34-.56-.07-1.1.02c-.33.05-.64,0-.96-.04s-.64-.03-.95-.15-.78,0-1.05-.19-.5-.51-.71-.77-.22-.66-.35-.97-.22-.61-.27-.95.02-.71-.03-1.08c-.04-.34-.29-.68-.33-1.05-.04-.35-.01-.71-.04-1.08-.03-.35-.22-.7-.25-1.06s.03-.72.01-1.08.25-.72.24-1.09-.09-.71-.09-1.07-.38-.71-.38-1.07-.02-.72-.02-1.08.37-.71.38-1.07-.1-.72-.08-1.08-.02-.72,0-1.08.25-.7.28-1.06,0-.72.04-1.08.16-.7.21-1.06-.21-.76-.15-1.12.45-.65.51-1.01-.18-.77-.11-1.12.42-.64.51-.99-.02-.75.08-1.1.22-.69.32-1.03.59-.56.71-.9.02-.75.15-1.09.03-.77.17-1.1.32-.65.47-.98.27-.68.44-1,.7-.44.88-.75.3-.65.5-.96.22-.72.43-1.01.68-.39.9-.67.17-.79.4-1.06.72-.32.97-.58.26-.75.52-1,.53-.49.8-.73.58-.44.86-.66.73-.22,1.02-.44.38-.71.68-.91.79-.08,1.1-.27.58-.42.9-.59.61-.39.93-.54.56-.52.9-.65.72-.14,1.06-.26.67-.28,1.01-.39.68-.25,1.03-.35.68-.26,1.03-.35.8.31,1.16.24.66-.33,1.02-.39.66-.4,1.02-.45.74.14,1.1.1.73.13,1.09.1.7-.15,1.07-.17.72.09,1.08.08.71-.09,1.07-.09.71.03,1.07.04.71-.05,1.08-.04.71.05,1.08.07.73-.27,1.1-.25.7.25,1.07.28.71.09,1.08.13.71.08.98.27c.28.2.66.42.8.72s-.17.72-.19,1.06c-.02.32.14.69-.06,1Z"/>
      <path class="cls-11" d="M72.5,160.29c-.18.29-.56.48-.76.81-.18.3-.09.77-.27,1.1-.17.3-.25.67-.42,1-.16.31-.65.47-.81.81-.15.32-.33.64-.49.98s-.05.76-.2,1.1-.51.57-.64.92-.07.74-.19,1.09-.08.73-.19,1.08-.68.55-.78.91-.18.71-.27,1.06.22.8.15,1.16-.28.68-.35,1.04-.38.67-.43,1.04.11.75.06,1.11-.12.72-.15,1.08.12.73.1,1.1-.18.71-.19,1.08.05.72.05,1.09-.14.73-.13,1.09.18.72.2,1.08-.11.74-.07,1.1.43.68.47,1.04-.01.73.04,1.09-.11.76-.04,1.12.08.73.16,1.08.34.67.43,1.02.1.72.2,1.08.55.59.66.94,0,.76.13,1.11.36.71.37,1.06,0,.79-.09,1.14-.65.51-.83.82-.28.65-.55.89-.56.4-.89.56-.62.35-.98.41c-.53.09-.51.25-1.04.34s-.56-.09-1.1,0-.54.04-1.07.13-.5.28-1.04.36-.59-.28-1.13-.19-.49.33-1.03.42-.56-.1-1.1,0-.48.39-1.02.48-.52.19-1.05.28-.57-.17-1.11-.08-.51.2-1.05.29-.56-.09-1.09,0-.51.22-1.05.31-.56-.09-1.1,0-.53.13-1.06.22-.5.3-1.04.39-.56-.05-1.09.03-.5.32-1.03.41-.59-.23-1.12-.15-.53.12-1.07.21-.55.04-1.08.12-.51.25-1.05.34-.56-.07-1.1.02c-.33.05-.64,0-.96-.04s-.64-.03-.95-.15-.78,0-1.05-.19-.5-.51-.71-.77-.22-.66-.35-.97-.22-.61-.27-.95.02-.71-.03-1.08c-.04-.34-.29-.68-.33-1.05-.04-.35-.01-.71-.04-1.08-.03-.35-.22-.7-.25-1.06s.03-.72.01-1.08.25-.72.24-1.09-.09-.71-.09-1.07-.38-.71-.38-1.07-.02-.72-.02-1.08.37-.71.38-1.07-.1-.72-.08-1.08-.02-.72,0-1.08.25-.7.28-1.06,0-.72.04-1.08.16-.7.21-1.06-.21-.76-.15-1.12.45-.65.51-1.01-.18-.77-.11-1.12.42-.64.51-.99-.02-.75.08-1.1.22-.69.32-1.03.59-.56.71-.9.02-.75.15-1.09.03-.77.17-1.1.32-.65.47-.98.27-.68.44-1,.7-.44.88-.75.3-.65.5-.96.22-.72.43-1.01.68-.39.9-.67.17-.79.4-1.06.72-.32.97-.58.26-.75.52-1,.53-.49.8-.73.58-.44.86-.66.73-.22,1.02-.44.38-.71.68-.91.79-.08,1.1-.27.58-.42.9-.59.61-.39.93-.54.56-.52.9-.65.72-.14,1.06-.26.67-.28,1.01-.39.68-.25,1.03-.35.68-.26,1.03-.35.8.31,1.16.24.66-.33,1.02-.39.66-.4,1.02-.45.74.14,1.1.1.73.13,1.09.1.7-.15,1.07-.17.72.09,1.08.08.71-.09,1.07-.09.71.03,1.07.04.71-.05,1.08-.04.71.05,1.08.07.73-.27,1.1-.25.7.25,1.07.28.71.09,1.08.13.71.08.98.27c.28.2.66.42.8.72s-.17.72-.19,1.06c-.02.32.14.69-.06,1Z"/>
    </g>
    <g>
      <path class="cls-2" d="M70.14,157.5c-.27.11-.57.33-.95.49-.3.13-.64.23-.99.39-.3.14-.63.27-.97.44-.31.15-.52.5-.84.68-.3.16-.66.24-.98.42s-.82,0-1.13.19-.56.46-.86.66-.5.53-.79.74-.63.35-.91.57-.57.44-.84.68-.48.54-.73.79-.24.75-.47,1.01-.63.39-.85.68-.3.65-.49.95-.33.61-.5.93-.33.61-.46.94-.62.53-.72.88.19.77.13,1.13c-.02.12-.28.01-.4-.02-.21-.06-.67.26-1.14.15-.3-.07-.6-.37-.99-.44-.32-.06-.64-.39-1.01-.44-.33-.05-.71,0-1.07-.04-.34-.03-.71.09-1.08.07s-.7-.18-1.06-.18-.72-.11-1.08-.1-.71.12-1.07.15-.68.27-1.04.33-.66.29-1.01.37-.73-.02-1.07.08-.72.11-1.05.24-.65.31-.97.47-.64.32-.94.51-.48.55-.76.77-.72.25-.98.49-.4.61-.64.88-.68.37-.89.67c-.14.2-.27.2-.19-.04.1-.3.44-.56.58-.94.12-.31-.03-.76.12-1.12.14-.31.45-.57.61-.91.15-.31.3-.64.48-.97.17-.31.37-.61.56-.93.18-.3.4-.58.61-.89s.13-.78.35-1.08.63-.43.85-.72.37-.63.61-.91.69-.34.94-.61.5-.5.76-.76.18-.87.46-1.11.57-.45.86-.68.65-.35.94-.57.67-.31.97-.51.71-.21,1.03-.4.41-.74.73-.92.63-.37.96-.53.71-.2,1.05-.34.74-.1,1.08-.24.65-.32,1-.44.76.02,1.11-.08.65-.34,1-.43.62-.53.98-.61.75.03,1.11-.03.69-.29,1.05-.35.77.3,1.13.26.7-.22,1.07-.25.73.07,1.09.05.71-.39,1.07-.4.72.37,1.09.37.73-.39,1.09-.38.72.3,1.08.31.72,0,1.09.03.73-.03,1.1,0,.74-.06,1.11-.01c.22.03.25.51.04.59Z"/>
      <path class="cls-11" d="M70.14,157.5c-.27.11-.57.33-.95.49-.3.13-.64.23-.99.39-.3.14-.63.27-.97.44-.31.15-.52.5-.84.68-.3.16-.66.24-.98.42s-.82,0-1.13.19-.56.46-.86.66-.5.53-.79.74-.63.35-.91.57-.57.44-.84.68-.48.54-.73.79-.24.75-.47,1.01-.63.39-.85.68-.3.65-.49.95-.33.61-.5.93-.33.61-.46.94-.62.53-.72.88.19.77.13,1.13c-.02.12-.28.01-.4-.02-.21-.06-.67.26-1.14.15-.3-.07-.6-.37-.99-.44-.32-.06-.64-.39-1.01-.44-.33-.05-.71,0-1.07-.04-.34-.03-.71.09-1.08.07s-.7-.18-1.06-.18-.72-.11-1.08-.1-.71.12-1.07.15-.68.27-1.04.33-.66.29-1.01.37-.73-.02-1.07.08-.72.11-1.05.24-.65.31-.97.47-.64.32-.94.51-.48.55-.76.77-.72.25-.98.49-.4.61-.64.88-.68.37-.89.67c-.14.2-.27.2-.19-.04.1-.3.44-.56.58-.94.12-.31-.03-.76.12-1.12.14-.31.45-.57.61-.91.15-.31.3-.64.48-.97.17-.31.37-.61.56-.93.18-.3.4-.58.61-.89s.13-.78.35-1.08.63-.43.85-.72.37-.63.61-.91.69-.34.94-.61.5-.5.76-.76.18-.87.46-1.11.57-.45.86-.68.65-.35.94-.57.67-.31.97-.51.71-.21,1.03-.4.41-.74.73-.92.63-.37.96-.53.71-.2,1.05-.34.74-.1,1.08-.24.65-.32,1-.44.76.02,1.11-.08.65-.34,1-.43.62-.53.98-.61.75.03,1.11-.03.69-.29,1.05-.35.77.3,1.13.26.7-.22,1.07-.25.73.07,1.09.05.71-.39,1.07-.4.72.37,1.09.37.73-.39,1.09-.38.72.3,1.08.31.72,0,1.09.03.73-.03,1.1,0,.74-.06,1.11-.01c.22.03.25.51.04.59Z"/>
    </g>
  </g>
  <g>
    <g>
      <path class="cls-6" d="M99.74,83.08c-.27.21-.5.49-.8.71-.27.21-.63.32-.92.55-.28.21-.75.16-1.05.38-.28.21-.47.54-.76.76s-.63.33-.92.54-.52.48-.81.7-.5.51-.8.72-.53.47-.82.68-.5.53-.79.73-.6.38-.89.59-.67.28-.97.48-.74.18-1.04.38-.54.47-.84.67-.54.46-.84.66-.66.28-.96.48-.4.69-.7.88-.69.24-.99.44-.68.25-.99.44-.58.41-.89.6-.63.32-.94.51-.58.41-.89.59-.62.35-.93.53-.52.52-.83.7-.64.31-.95.49-.54.49-.85.67-.54.5-.85.68-.65.31-.96.48-.79.05-1.11.22-.6.41-.83.65-.45.57-.6.87-.01.71-.07,1.04.05.62.1.95.08.6.23.91.23.67.39,1.02c.15.31.36.61.52.96.15.32-.02.79.14,1.13.15.32.66.48.82.82.15.32.05.77.2,1.1s.26.67.41,1.01.32.65.47.98.49.57.64.91.19.71.33,1.05.22.69.37,1.03.11.74.26,1.07.23.69.38,1.02.47.59.61.92.3.66.44,1,.5.58.64.92.17.72.3,1.06.21.7.35,1.03.17.72.3,1.06.17.71.31,1.05.38.63.51.97.42.62.55.96.25.69.38,1.03.34.65.47,1-.05.79.08,1.14.1.74.22,1.08.71.53.82.88.23.7.34,1.04-.14.82-.03,1.16.13.73.24,1.08.31.67.41,1.02.39.65.49,1,.35.66.45,1.01.01.76.1,1.11.11.72.19,1.07.31.68.39,1.03-.05.79.12,1.09c.18.31.43.63.69.86s.7.25,1.02.39.62.49.97.53.76.01,1.11-.06.63-.38.95-.55c.3-.17.69-.21,1.01-.4.3-.18.43-.65.74-.85.29-.19.61-.35.92-.56s.66-.3.95-.51.45-.58.74-.81.78-.16,1.06-.39.49-.53.76-.77.64-.36.91-.61.44-.58.7-.84.46-.55.71-.81.3-.69.54-.96.62-.4.85-.68.6-.43.83-.72.18-.76.4-1.05.73-.36.94-.66.23-.71.42-1.02.51-.53.69-.84.41-.6.58-.91.15-.73.32-1.05.36-.62.52-.95.15-.71.29-1.05.35-.62.48-.96.13-.71.26-1.05.36-.63.47-.97.56-.58.66-.92-.09-.77,0-1.12.35-.65.44-1-.07-.75,0-1.1.15-.7.21-1.05.32-.67.37-1.03,0-.72.04-1.08-.15-.73-.12-1.09.17-.7.2-1.06.14-.7.16-1.06.3-.7.31-1.07-.42-.72-.42-1.08.34-.72.34-1.08.06-.72.05-1.08-.04-.72-.06-1.08-.16-.71-.18-1.07.07-.73.03-1.09-.17-.7-.21-1.07-.4-.67-.45-1.03.36-.77.3-1.13-.25-.69-.31-1.05-.18-.69-.25-1.05-.21-.69-.28-1.04.09-.75.02-1.1-.46-.63-.54-.98.1-.76.02-1.11-.59-.59-.68-.94.19-.79.1-1.14-.27-.67-.37-1.02-.32-.65-.42-1-.26-.67-.37-1.01-.02-.75-.13-1.09-.55-.58-.66-.92.03-.77-.09-1.11-.39-.63-.51-.97-.01-.76-.14-1.11-.42-.61-.63-.87-.57-.39-.86-.58-.48-.65-.81-.75-.73.22-1.09.23-.63.09-.96.21-.6.21-.89.43Z"/>
      <path class="cls-11" d="M99.74,83.08c-.27.21-.5.49-.8.71-.27.21-.63.32-.92.55-.28.21-.75.16-1.05.38-.28.21-.47.54-.76.76s-.63.33-.92.54-.52.48-.81.7-.5.51-.8.72-.53.47-.82.68-.5.53-.79.73-.6.38-.89.59-.67.28-.97.48-.74.18-1.04.38-.54.47-.84.67-.54.46-.84.66-.66.28-.96.48-.4.69-.7.88-.69.24-.99.44-.68.25-.99.44-.58.41-.89.6-.63.32-.94.51-.58.41-.89.59-.62.35-.93.53-.52.52-.83.7-.64.31-.95.49-.54.49-.85.67-.54.5-.85.68-.65.31-.96.48-.79.05-1.11.22-.6.41-.83.65-.45.57-.6.87-.01.71-.07,1.04.05.62.1.95.08.6.23.91.23.67.39,1.02c.15.31.36.61.52.96.15.32-.02.79.14,1.13.15.32.66.48.82.82.15.32.05.77.2,1.1s.26.67.41,1.01.32.65.47.98.49.57.64.91.19.71.33,1.05.22.69.37,1.03.11.74.26,1.07.23.69.38,1.02.47.59.61.92.3.66.44,1,.5.58.64.92.17.72.3,1.06.21.7.35,1.03.17.72.3,1.06.17.71.31,1.05.38.63.51.97.42.62.55.96.25.69.38,1.03.34.65.47,1-.05.79.08,1.14.1.74.22,1.08.71.53.82.88.23.7.34,1.04-.14.82-.03,1.16.13.73.24,1.08.31.67.41,1.02.39.65.49,1,.35.66.45,1.01.01.76.1,1.11.11.72.19,1.07.31.68.39,1.03-.05.79.12,1.09c.18.31.43.63.69.86s.7.25,1.02.39.62.49.97.53.76.01,1.11-.06.63-.38.95-.55c.3-.17.69-.21,1.01-.4.3-.18.43-.65.74-.85.29-.19.61-.35.92-.56s.66-.3.95-.51.45-.58.74-.81.78-.16,1.06-.39.49-.53.76-.77.64-.36.91-.61.44-.58.7-.84.46-.55.71-.81.3-.69.54-.96.62-.4.85-.68.6-.43.83-.72.18-.76.4-1.05.73-.36.94-.66.23-.71.42-1.02.51-.53.69-.84.41-.6.58-.91.15-.73.32-1.05.36-.62.52-.95.15-.71.29-1.05.35-.62.48-.96.13-.71.26-1.05.36-.63.47-.97.56-.58.66-.92-.09-.77,0-1.12.35-.65.44-1-.07-.75,0-1.1.15-.7.21-1.05.32-.67.37-1.03,0-.72.04-1.08-.15-.73-.12-1.09.17-.7.2-1.06.14-.7.16-1.06.3-.7.31-1.07-.42-.72-.42-1.08.34-.72.34-1.08.06-.72.05-1.08-.04-.72-.06-1.08-.16-.71-.18-1.07.07-.73.03-1.09-.17-.7-.21-1.07-.4-.67-.45-1.03.36-.77.3-1.13-.25-.69-.31-1.05-.18-.69-.25-1.05-.21-.69-.28-1.04.09-.75.02-1.1-.46-.63-.54-.98.1-.76.02-1.11-.59-.59-.68-.94.19-.79.1-1.14-.27-.67-.37-1.02-.32-.65-.42-1-.26-.67-.37-1.01-.02-.75-.13-1.09-.55-.58-.66-.92.03-.77-.09-1.11-.39-.63-.51-.97-.01-.76-.14-1.11-.42-.61-.63-.87-.57-.39-.86-.58-.48-.65-.81-.75-.73.22-1.09.23-.63.09-.96.21-.6.21-.89.43Z"/>
    </g>
    <g>
      <path class="cls-2" d="M109.2,99.9c-.15.33-.59.51-.74.83s-.1.75-.26,1.06-.38.61-.55.91-.43.58-.61.88-.37.61-.56.9-.25.69-.45.98-.42.59-.63.86-.35.64-.56.92-.5.52-.73.79-.43.59-.67.84-.68.35-.93.59-.62.38-.88.61c-.27.24-.52.48-.79.7-.28.23-.43.6-.71.81-.29.22-.64.34-.93.53-.3.21-.45.65-.74.83-.32.19-.84-.02-1.14.14-.33.17-.58.44-.89.58-.34.16-.71.17-1.02.29-.36.14-.61.47-.92.57-.39.12-.69.4-.98.47-.52.12-.95-.18-1.1-.17-.04,0,.13.08.14.12.06.14.07.54.26,1.04.11.28.42.54.56.92.11.3,0,.71.12,1.08.1.32.14.67.24,1.03.09.32.02.71.11,1.06.09.33.63.56.71.92.08.33.18.68.25,1.04s-.03.72.03,1.08-.2.74-.15,1.09.31.66.35,1.02.05.7.07,1.06.08.7.1,1.05.19.7.19,1.06-.2.7-.21,1.06.07.71.05,1.06-.01.71-.05,1.06-.02.71-.07,1.06-.03.71-.09,1.06-.29.67-.36,1.01-.08.71-.17,1.05-.57.56-.68.9.05.75-.07,1.09-.51.55-.65.88.11.82-.04,1.14-.52.53-.69.85-.06.78-.24,1.09c-.03.05-.23-.08-.18-.11.18-.09.5-.26.94-.51.27-.16.6-.29.94-.51.28-.18.72-.16,1.04-.38.28-.19.41-.62.72-.85.27-.2.52-.47.81-.7.27-.21.56-.42.84-.66.27-.22.51-.48.79-.72.26-.23.61-.38.88-.63s.44-.56.7-.82.54-.46.79-.73.36-.63.6-.9.5-.5.74-.78.41-.58.64-.86.64-.41.85-.7.25-.7.45-1,.51-.51.71-.82.22-.7.4-1.02.59-.48.77-.8.16-.72.33-1.05.29-.65.44-.98.58-.52.73-.85-.01-.78.12-1.12.29-.65.42-.99.28-.66.4-1,.19-.69.29-1.04.42-.62.51-.97.26-.68.34-1.03-.06-.75.01-1.11,0-.73.06-1.08.5-.64.55-1,.06-.72.11-1.08.05-.72.09-1.08.06-.71.09-1.07.16-.71.18-1.07-.25-.73-.24-1.09-.08-.71-.08-1.08-.06-.71-.07-1.07.21-.72.2-1.09-.03-.72-.05-1.08.05-.72.02-1.08.03-.73,0-1.09-.37-.68-.41-1.04.12-.74.07-1.1-.35-.67-.41-1.03-.28-.68-.35-1.04c-.01-.06.31-.04.29.01Z"/>
      <path class="cls-11" d="M109.2,99.9c-.15.33-.59.51-.74.83s-.1.75-.26,1.06-.38.61-.55.91-.43.58-.61.88-.37.61-.56.9-.25.69-.45.98-.42.59-.63.86-.35.64-.56.92-.5.52-.73.79-.43.59-.67.84-.68.35-.93.59-.62.38-.88.61c-.27.24-.52.48-.79.7-.28.23-.43.6-.71.81-.29.22-.64.34-.93.53-.3.21-.45.65-.74.83-.32.19-.84-.02-1.14.14-.33.17-.58.44-.89.58-.34.16-.71.17-1.02.29-.36.14-.61.47-.92.57-.39.12-.69.4-.98.47-.52.12-.95-.18-1.1-.17-.04,0,.13.08.14.12.06.14.07.54.26,1.04.11.28.42.54.56.92.11.3,0,.71.12,1.08.1.32.14.67.24,1.03.09.32.02.71.11,1.06.09.33.63.56.71.92.08.33.18.68.25,1.04s-.03.72.03,1.08-.2.74-.15,1.09.31.66.35,1.02.05.7.07,1.06.08.7.1,1.05.19.7.19,1.06-.2.7-.21,1.06.07.71.05,1.06-.01.71-.05,1.06-.02.71-.07,1.06-.03.71-.09,1.06-.29.67-.36,1.01-.08.71-.17,1.05-.57.56-.68.9.05.75-.07,1.09-.51.55-.65.88.11.82-.04,1.14-.52.53-.69.85-.06.78-.24,1.09c-.03.05-.23-.08-.18-.11.18-.09.5-.26.94-.51.27-.16.6-.29.94-.51.28-.18.72-.16,1.04-.38.28-.19.41-.62.72-.85.27-.2.52-.47.81-.7.27-.21.56-.42.84-.66.27-.22.51-.48.79-.72.26-.23.61-.38.88-.63s.44-.56.7-.82.54-.46.79-.73.36-.63.6-.9.5-.5.74-.78.41-.58.64-.86.64-.41.85-.7.25-.7.45-1,.51-.51.71-.82.22-.7.4-1.02.59-.48.77-.8.16-.72.33-1.05.29-.65.44-.98.58-.52.73-.85-.01-.78.12-1.12.29-.65.42-.99.28-.66.4-1,.19-.69.29-1.04.42-.62.51-.97.26-.68.34-1.03-.06-.75.01-1.11,0-.73.06-1.08.5-.64.55-1,.06-.72.11-1.08.05-.72.09-1.08.06-.71.09-1.07.16-.71.18-1.07-.25-.73-.24-1.09-.08-.71-.08-1.08-.06-.71-.07-1.07.21-.72.2-1.09-.03-.72-.05-1.08.05-.72.02-1.08.03-.73,0-1.09-.37-.68-.41-1.04.12-.74.07-1.1-.35-.67-.41-1.03-.28-.68-.35-1.04c-.01-.06.31-.04.29.01Z"/>
    </g>
  </g>
  <g>
    <g>
      <path class="cls-6" d="M136.63,86.14c.19-.28.29-.64.5-.95.19-.28.52-.49.72-.8.19-.29.05-.81.25-1.11.19-.29.49-.51.69-.82s.4-.58.6-.88.54-.49.74-.79.33-.63.52-.93.38-.59.58-.89.35-.62.54-.92.2-.71.39-1.02.55-.49.74-.79.37-.6.57-.91.52-.51.71-.82.12-.76.31-1.06.5-.52.69-.83.35-.62.54-.92.5-.53.69-.83.26-.68.45-.98.21-.71.39-1.01.65-.44.84-.75.21-.71.4-1.01.21-.71.39-1.01.46-.57.64-.87.69-.43.87-.74.28-.67.46-.98.17-.73.34-1.04.29-.66.46-.97.48-.55.65-.86.53-.53.69-.85-.04-.83.12-1.14.47-.56.63-.87c.17-.34.25-.8.51-1.05s.74-.32,1.07-.47.7-.32,1.08-.35.77.01,1.14.12c.32.09.62.37.99.48.33.1.72.07,1.08.19.33.1.67.23,1.03.35.33.11.74.02,1.1.14.33.11.53.66.88.78s.78-.05,1.12.08.69.21,1.03.35.63.36.97.5.71.17,1.05.31.64.33.98.47.68.25,1.02.39.68.24,1.02.39.59.44.93.6.71.17,1.04.32.54.55.86.71.74.12,1.07.29.53.54.86.71.68.25,1.01.42.55.49.87.67.76.13,1.07.31.7.23,1.02.42.58.44.89.63.57.46.88.66.58.43.89.63.54.49.84.7.84.05,1.14.26.53.52.82.73.36.73.66.95.73.24,1.02.46.5.54.78.76.52.5.8.74.5.53.77.77.8.19,1.07.44.39.65.65.9.51.51.77.77.76.27,1.01.53.47.57.71.83.5.53.75.8.19.8.42,1.08.55.49.77.77.6.45.82.74.21.75.42,1.05.6.46.81.77c.19.29.08.68.17,1s.41.6.4.94-.34.59-.46.91.12.83-.1,1.1c-.2.26-.51.47-.76.77-.22.26-.45.53-.71.81-.23.25-.63.37-.89.63-.24.25-.42.56-.69.82-.25.24-.51.48-.79.72-.26.23-.41.61-.69.84s-.52.48-.81.71-.62.36-.91.58-.8.1-1.1.3-.39.68-.7.88-.5.54-.81.73-.86-.07-1.17.11-.59.38-.91.55-.49.6-.82.76-.79-.02-1.12.13-.55.51-.88.64-.58.47-.92.6-.68.22-1.02.34-.78-.08-1.12.03-.67.23-1.01.33-.59.55-.94.64-.76-.11-1.11-.03-.65.37-1,.44-.7.17-1.05.23-.77-.35-1.13-.29-.65.52-1,.56-.72-.08-1.08-.05-.7.06-1.06.09-.7.22-1.06.24-.72-.23-1.08-.22-.7.34-1.06.34-.71-.15-1.07-.15-.71-.07-1.07-.08-.72.08-1.08.06-.7-.21-1.06-.24-.72.03-1.07,0-.73.13-1.09.08-.65-.53-1.01-.58-.74.14-1.09.08-.74.07-1.09,0-.67-.3-1.03-.37-.69-.19-1.04-.26-.71-.07-1.07-.15-.69-.16-1.05-.25-.65-.34-.99-.43-.7-.12-1.05-.21-.72-.07-1.06-.17-.72-.08-1.07-.18-.56-.61-.9-.72-.71-.12-1.05-.23-.74-.03-1.09-.15-.58-.5-.92-.62-.81.13-1.14,0-.66-.28-.99-.41-.67-.24-1.01-.38-.52-.63-.85-.76-.7-.18-1.03-.32-.77-.02-1.1-.17-.47-.7-.8-.85c-.35-.16-.61-.31-.87-.57s-.64-.42-.8-.76-.51-.68-.54-1.05.34-.75.43-1.11.24-.66.45-.98Z"/>
      <path class="cls-11" d="M136.63,86.14c.19-.28.29-.64.5-.95.19-.28.52-.49.72-.8.19-.29.05-.81.25-1.11.19-.29.49-.51.69-.82s.4-.58.6-.88.54-.49.74-.79.33-.63.52-.93.38-.59.58-.89.35-.62.54-.92.2-.71.39-1.02.55-.49.74-.79.37-.6.57-.91.52-.51.71-.82.12-.76.31-1.06.5-.52.69-.83.35-.62.54-.92.5-.53.69-.83.26-.68.45-.98.21-.71.39-1.01.65-.44.84-.75.21-.71.4-1.01.21-.71.39-1.01.46-.57.64-.87.69-.43.87-.74.28-.67.46-.98.17-.73.34-1.04.29-.66.46-.97.48-.55.65-.86.53-.53.69-.85-.04-.83.12-1.14.47-.56.63-.87c.17-.34.25-.8.51-1.05s.74-.32,1.07-.47.7-.32,1.08-.35.77.01,1.14.12c.32.09.62.37.99.48.33.1.72.07,1.08.19.33.1.67.23,1.03.35.33.11.74.02,1.1.14.33.11.53.66.88.78s.78-.05,1.12.08.69.21,1.03.35.63.36.97.5.71.17,1.05.31.64.33.98.47.68.25,1.02.39.68.24,1.02.39.59.44.93.6.71.17,1.04.32.54.55.86.71.74.12,1.07.29.53.54.86.71.68.25,1.01.42.55.49.87.67.76.13,1.07.31.7.23,1.02.42.58.44.89.63.57.46.88.66.58.43.89.63.54.49.84.7.84.05,1.14.26.53.52.82.73.36.73.66.95.73.24,1.02.46.5.54.78.76.52.5.8.74.5.53.77.77.8.19,1.07.44.39.65.65.9.51.51.77.77.76.27,1.01.53.47.57.71.83.5.53.75.8.19.8.42,1.08.55.49.77.77.6.45.82.74.21.75.42,1.05.6.46.81.77c.19.29.08.68.17,1s.41.6.4.94-.34.59-.46.91.12.83-.1,1.1c-.2.26-.51.47-.76.77-.22.26-.45.53-.71.81-.23.25-.63.37-.89.63-.24.25-.42.56-.69.82-.25.24-.51.48-.79.72-.26.23-.41.61-.69.84s-.52.48-.81.71-.62.36-.91.58-.8.1-1.1.3-.39.68-.7.88-.5.54-.81.73-.86-.07-1.17.11-.59.38-.91.55-.49.6-.82.76-.79-.02-1.12.13-.55.51-.88.64-.58.47-.92.6-.68.22-1.02.34-.78-.08-1.12.03-.67.23-1.01.33-.59.55-.94.64-.76-.11-1.11-.03-.65.37-1,.44-.7.17-1.05.23-.77-.35-1.13-.29-.65.52-1,.56-.72-.08-1.08-.05-.7.06-1.06.09-.7.22-1.06.24-.72-.23-1.08-.22-.7.34-1.06.34-.71-.15-1.07-.15-.71-.07-1.07-.08-.72.08-1.08.06-.7-.21-1.06-.24-.72.03-1.07,0-.73.13-1.09.08-.65-.53-1.01-.58-.74.14-1.09.08-.74.07-1.09,0-.67-.3-1.03-.37-.69-.19-1.04-.26-.71-.07-1.07-.15-.69-.16-1.05-.25-.65-.34-.99-.43-.7-.12-1.05-.21-.72-.07-1.06-.17-.72-.08-1.07-.18-.56-.61-.9-.72-.71-.12-1.05-.23-.74-.03-1.09-.15-.58-.5-.92-.62-.81.13-1.14,0-.66-.28-.99-.41-.67-.24-1.01-.38-.52-.63-.85-.76-.7-.18-1.03-.32-.77-.02-1.1-.17-.47-.7-.8-.85c-.35-.16-.61-.31-.87-.57s-.64-.42-.8-.76-.51-.68-.54-1.05.34-.75.43-1.11.24-.66.45-.98Z"/>
    </g>
    <g>
      <path class="cls-2" d="M148.78,94.29c.35-.11.78.09,1.12-.02s.58-.54.92-.65.7-.18,1.03-.29.78.04,1.11-.09.64-.36.97-.49.76-.04,1.09-.18.61-.42.93-.57.71-.2,1.02-.35.52-.58.84-.74.59-.42.9-.58.87.07,1.17-.11.63-.37.93-.56.44-.66.73-.86.65-.33.93-.54.67-.32.95-.54.28-.8.54-1.03.55-.46.8-.7.67-.35.91-.6.59-.45.81-.72.15-.8.37-1.08.76-.34.96-.63.48-.56.67-.86.02-.82.19-1.13.71-.45.86-.76.03-.78.18-1.1.54-.55.67-.88.24-.68.38-1c.07-.17-.05-.14.06,0,.16.2.55.36.87.7.22.24.6.38.88.67.24.24.34.65.62.92.25.24.6.4.89.65.26.24.41.62.7.86.27.23.78.18,1.07.41s.39.67.69.89.51.54.82.75.78.13,1.09.33.56.47.88.65.69.25,1.01.42.62.38.96.53.71.17,1.05.3.65.33,1,.45.67.29,1.03.38.69.23,1.06.3.73.06,1.09.11.72.14,1.09.16.73-.06,1.1-.07.72-.08,1.08-.12.71-.09,1.08-.16.8.26,1.16.17.65-.41,1-.52.68-.27,1.02-.41.61-.41.94-.58c.23-.11.57.36.4.55-.2.23-.32.61-.6.9-.22.24-.71.26-.99.53-.24.23-.55.41-.83.66-.25.23-.29.71-.57.95-.26.22-.56.42-.85.65-.27.22-.51.5-.8.72-.27.21-.62.34-.92.56s-.48.55-.78.75-.67.27-.98.46-.64.31-.95.49-.74.12-1.06.3-.46.63-.78.8-.77.04-1.09.2-.44.74-.77.88-.75.05-1.09.19-.6.41-.94.54-.78-.07-1.12.05-.52.68-.86.79-.79-.15-1.14-.04-.69.15-1.04.24-.59.55-.94.64-.75-.09-1.1-.02-.65.35-1.01.41-.7.16-1.05.22-.71.11-1.06.16-.76-.35-1.11-.32-.66.54-1.02.57-.73-.2-1.09-.18-.71.06-1.07.07-.71.26-1.07.26-.71-.35-1.07-.35-.72.26-1.08.25-.71-.08-1.07-.1-.69-.34-1.04-.37-.74.31-1.1.28-.71-.09-1.06-.13-.66-.43-1.02-.48-.76.26-1.11.21-.64-.47-1-.53-.76.2-1.12.13-.67-.28-1.02-.35-.75.09-1.1.01-.68-.22-1.03-.31-.64-.37-.99-.47-.72-.08-1.06-.18-.64-.37-.98-.48-.69-.18-1.04-.29c-.22-.07-.3-.55-.08-.62Z"/>
      <path class="cls-11" d="M148.78,94.29c.35-.11.78.09,1.12-.02s.58-.54.92-.65.7-.18,1.03-.29.78.04,1.11-.09.64-.36.97-.49.76-.04,1.09-.18.61-.42.93-.57.71-.2,1.02-.35.52-.58.84-.74.59-.42.9-.58.87.07,1.17-.11.63-.37.93-.56.44-.66.73-.86.65-.33.93-.54.67-.32.95-.54.28-.8.54-1.03.55-.46.8-.7.67-.35.91-.6.59-.45.81-.72.15-.8.37-1.08.76-.34.96-.63.48-.56.67-.86.02-.82.19-1.13.71-.45.86-.76.03-.78.18-1.1.54-.55.67-.88.24-.68.38-1c.07-.17-.05-.14.06,0,.16.2.55.36.87.7.22.24.6.38.88.67.24.24.34.65.62.92.25.24.6.4.89.65.26.24.41.62.7.86.27.23.78.18,1.07.41s.39.67.69.89.51.54.82.75.78.13,1.09.33.56.47.88.65.69.25,1.01.42.62.38.96.53.71.17,1.05.3.65.33,1,.45.67.29,1.03.38.69.23,1.06.3.73.06,1.09.11.72.14,1.09.16.73-.06,1.1-.07.72-.08,1.08-.12.71-.09,1.08-.16.8.26,1.16.17.65-.41,1-.52.68-.27,1.02-.41.61-.41.94-.58c.23-.11.57.36.4.55-.2.23-.32.61-.6.9-.22.24-.71.26-.99.53-.24.23-.55.41-.83.66-.25.23-.29.71-.57.95-.26.22-.56.42-.85.65-.27.22-.51.5-.8.72-.27.21-.62.34-.92.56s-.48.55-.78.75-.67.27-.98.46-.64.31-.95.49-.74.12-1.06.3-.46.63-.78.8-.77.04-1.09.2-.44.74-.77.88-.75.05-1.09.19-.6.41-.94.54-.78-.07-1.12.05-.52.68-.86.79-.79-.15-1.14-.04-.69.15-1.04.24-.59.55-.94.64-.75-.09-1.1-.02-.65.35-1.01.41-.7.16-1.05.22-.71.11-1.06.16-.76-.35-1.11-.32-.66.54-1.02.57-.73-.2-1.09-.18-.71.06-1.07.07-.71.26-1.07.26-.71-.35-1.07-.35-.72.26-1.08.25-.71-.08-1.07-.1-.69-.34-1.04-.37-.74.31-1.1.28-.71-.09-1.06-.13-.66-.43-1.02-.48-.76.26-1.11.21-.64-.47-1-.53-.76.2-1.12.13-.67-.28-1.02-.35-.75.09-1.1.01-.68-.22-1.03-.31-.64-.37-.99-.47-.72-.08-1.06-.18-.64-.37-.98-.48-.69-.18-1.04-.29c-.22-.07-.3-.55-.08-.62Z"/>
    </g>
  </g>
  <g>
    <path class="cls-6" d="M254.46,166.03c.26.22.54.43.83.68.26.23.54.44.82.69.26.23.56.43.83.68.26.23.55.44.82.69s.48.52.75.77.6.4.86.65.62.39.88.64.46.55.72.8.46.55.72.81.37.64.62.9.53.48.78.74.54.46.79.73.45.55.7.81.54.47.79.74.52.5.76.77.61.42.85.69.24.75.47,1.02.42.58.66.85.68.36.91.64.55.48.77.76.39.61.62.89.15.79.37,1.08.52.5.74.79.7.38.91.67.2.75.41,1.04.38.61.58.91.46.55.66.85.51.53.71.83.34.64.54.94.16.75.35,1.05.73.4.91.71.18.73.36,1.05.57.51.74.82.4.61.57.92.3.66.46.98.18.72.33,1.04.51.56.66.89.27.67.42,1,.2.68.44.93.47.59.79.74.73-.03,1.09,0,.67.09,1.02-.01.59-.28.89-.5c.44-.32.41-.36.86-.69s.72.05,1.16-.27.26-.57.7-.9.37-.42.81-.74.67,0,1.11-.33.28-.55.72-.87.33-.47.77-.8.44-.32.89-.64.49-.26.93-.59.61-.1,1.05-.42.49-.26.93-.59.3-.51.75-.83.45-.31.9-.64.45-.32.89-.64.33-.49.77-.81.54-.2.98-.53c.22-.16.56-.27.87-.51.24-.19.63-.24.91-.47.25-.21.49-.46.74-.68s.53-.43.77-.66.44-.55.65-.79c.24-.27.44-.57.61-.82.22-.32.28-.69.34-.97.07-.34-.03-.71,0-1.07.02-.35.07-.69.05-1.06-.01-.35-.01-.7-.05-1.06s-.16-.68-.23-1.04.09-.74,0-1.1-.41-.62-.52-.97-.03-.74-.15-1.08-.32-.64-.46-.97-.35-.62-.5-.95-.34-.62-.5-.94-.34-.62-.52-.93-.27-.66-.46-.97-.27-.67-.47-.97-.38-.61-.59-.9-.45-.56-.67-.84-.73-.33-.96-.6-.23-.73-.47-1-.69-.33-.94-.59-.14-.85-.4-1.1-.75-.25-1.01-.5-.32-.7-.59-.94-.52-.5-.8-.73-.73-.24-1.01-.46-.56-.43-.85-.64-.44-.61-.74-.81-.55-.48-.85-.67-.65-.32-.96-.5-.67-.28-.98-.45-.73-.14-1.05-.3-.63-.32-.96-.47-.56-.5-.89-.64-.65-.32-.98-.44-.69-.21-1.03-.32-.72-.09-1.06-.2-.71-.1-1.06-.19-.65-.34-1-.42-.71-.11-1.06-.17-.75.2-1.1.15-.67-.34-1.03-.38-.69-.34-1.05-.36-.73.28-1.09.27-.71-.24-1.07-.25-.71.25-1.07.26-.72-.18-1.08-.16-.71.03-1.07.06-.68.36-1.03.4-.69.19-1.04.24-.77-.28-1.12-.21-.72.04-1.07.12-.58.64-.93.73-.71.08-1.06.18-.79-.17-1.14-.07-.6.47-.94.59-.62.38-.95.51-.68.19-1.02.32-.77-.01-1.11.12-.66.27-.99.42-.64.32-.97.48-.48.64-.8.8-.83-.06-1.15.11c-.35.19-.54.62-.77.91s-.16.71-.25,1.07-.36.69-.32,1.07.27.68.45,1.02.17.84.46,1.1Z"/>
    <path class="cls-11" d="M254.46,166.03c.26.22.54.43.83.68.26.23.54.44.82.69.26.23.56.43.83.68.26.23.55.44.82.69s.48.52.75.77.6.4.86.65.62.39.88.64.46.55.72.8.46.55.72.81.37.64.62.9.53.48.78.74.54.46.79.73.45.55.7.81.54.47.79.74.52.5.76.77.61.42.85.69.24.75.47,1.02.42.58.66.85.68.36.91.64.55.48.77.76.39.61.62.89.15.79.37,1.08.52.5.74.79.7.38.91.67.2.75.41,1.04.38.61.58.91.46.55.66.85.51.53.71.83.34.64.54.94.16.75.35,1.05.73.4.91.71.18.73.36,1.05.57.51.74.82.4.61.57.92.3.66.46.98.18.72.33,1.04.51.56.66.89.27.67.42,1,.2.68.44.93.47.59.79.74.73-.03,1.09,0,.67.09,1.02-.01.59-.28.89-.5c.44-.32.41-.36.86-.69s.72.05,1.16-.27.26-.57.7-.9.37-.42.81-.74.67,0,1.11-.33.28-.55.72-.87.33-.47.77-.8.44-.32.89-.64.49-.26.93-.59.61-.1,1.05-.42.49-.26.93-.59.3-.51.75-.83.45-.31.9-.64.45-.32.89-.64.33-.49.77-.81.54-.2.98-.53c.22-.16.56-.27.87-.51.24-.19.63-.24.91-.47.25-.21.49-.46.74-.68s.53-.43.77-.66.44-.55.65-.79c.24-.27.44-.57.61-.82.22-.32.28-.69.34-.97.07-.34-.03-.71,0-1.07.02-.35.07-.69.05-1.06-.01-.35-.01-.7-.05-1.06s-.16-.68-.23-1.04.09-.74,0-1.1-.41-.62-.52-.97-.03-.74-.15-1.08-.32-.64-.46-.97-.35-.62-.5-.95-.34-.62-.5-.94-.34-.62-.52-.93-.27-.66-.46-.97-.27-.67-.47-.97-.38-.61-.59-.9-.45-.56-.67-.84-.73-.33-.96-.6-.23-.73-.47-1-.69-.33-.94-.59-.14-.85-.4-1.1-.75-.25-1.01-.5-.32-.7-.59-.94-.52-.5-.8-.73-.73-.24-1.01-.46-.56-.43-.85-.64-.44-.61-.74-.81-.55-.48-.85-.67-.65-.32-.96-.5-.67-.28-.98-.45-.73-.14-1.05-.3-.63-.32-.96-.47-.56-.5-.89-.64-.65-.32-.98-.44-.69-.21-1.03-.32-.72-.09-1.06-.2-.71-.1-1.06-.19-.65-.34-1-.42-.71-.11-1.06-.17-.75.2-1.1.15-.67-.34-1.03-.38-.69-.34-1.05-.36-.73.28-1.09.27-.71-.24-1.07-.25-.71.25-1.07.26-.72-.18-1.08-.16-.71.03-1.07.06-.68.36-1.03.4-.69.19-1.04.24-.77-.28-1.12-.21-.72.04-1.07.12-.58.64-.93.73-.71.08-1.06.18-.79-.17-1.14-.07-.6.47-.94.59-.62.38-.95.51-.68.19-1.02.32-.77-.01-1.11.12-.66.27-.99.42-.64.32-.97.48-.48.64-.8.8-.83-.06-1.15.11c-.35.19-.54.62-.77.91s-.16.71-.25,1.07-.36.69-.32,1.07.27.68.45,1.02.17.84.46,1.1Z"/>
  </g>
  <g>
    <path class="cls-2" d="M262.13,158.88c.33.05.73-.11,1.12-.04.34.06.61.62.99.69.35.07.74-.05,1.11.03.35.08.7.16,1.07.25s.67.3,1.03.4.76-.02,1.12.08.61.49.96.6.69.2,1.04.32.74.08,1.09.21.74.12,1.08.26.64.37.97.52.77.1,1.1.26.5.64.82.81.8.1,1.11.29.41.71.71.92.61.4.89.62.58.44.85.68.56.46.81.73.52.52.74.8.38.62.57.93.46.58.61.91c.06.13.11.05.23-.03.17-.12.51-.27.91-.53.25-.17.59-.29.93-.49.28-.16.67-.17,1-.34.29-.16.58-.35.9-.5.31-.15.59-.35.92-.49s.65-.21.99-.33.63-.29.97-.39.66-.22,1-.29.67-.3,1.01-.34.72.25,1.07.24.68.06,1.02.1.73-.19,1.07-.11.72.08,1.05.22.62.36.93.54c.22.13.56-.18.39-.37-.22-.25-.55-.44-.82-.71-.24-.24-.72-.24-1-.48-.25-.23-.34-.67-.63-.9-.27-.21-.52-.47-.82-.69-.28-.2-.61-.36-.92-.56-.29-.19-.66-.27-.97-.46s-.57-.41-.89-.59-.5-.57-.82-.74-.81.06-1.14-.09-.55-.49-.89-.63-.74-.04-1.08-.17-.68-.18-1.02-.3-.65-.26-1-.37-.63-.36-.98-.45-.74.03-1.09-.05-.68-.19-1.03-.26-.66-.28-1.02-.35-.67-.27-1.03-.32-.74.18-1.1.14-.69-.16-1.05-.2-.71,0-1.07-.03-.7,0-1.06,0-.69-.49-1.05-.5-.71.3-1.07.31-.7.13-1.06.14-.73-.36-1.09-.34-.69.32-1.05.34-.69.24-1.05.28-.7.07-1.06.11-.71,0-1.07.06-.74-.18-1.1-.12-.71.04-1.07.1-.66.35-1.02.42-.7.12-1.06.2c-.19.04-.2.05,0,.08Z"/>
    <path class="cls-11" d="M262.13,158.88c.33.05.73-.11,1.12-.04.34.06.61.62.99.69.35.07.74-.05,1.11.03.35.08.7.16,1.07.25s.67.3,1.03.4.76-.02,1.12.08.61.49.96.6.69.2,1.04.32.74.08,1.09.21.74.12,1.08.26.64.37.97.52.77.1,1.1.26.5.64.82.81.8.1,1.11.29.41.71.71.92.61.4.89.62.58.44.85.68.56.46.81.73.52.52.74.8.38.62.57.93.46.58.61.91c.06.13.11.05.23-.03.17-.12.51-.27.91-.53.25-.17.59-.29.93-.49.28-.16.67-.17,1-.34.29-.16.58-.35.9-.5.31-.15.59-.35.92-.49s.65-.21.99-.33.63-.29.97-.39.66-.22,1-.29.67-.3,1.01-.34.72.25,1.07.24.68.06,1.02.1.73-.19,1.07-.11.72.08,1.05.22.62.36.93.54c.22.13.56-.18.39-.37-.22-.25-.55-.44-.82-.71-.24-.24-.72-.24-1-.48-.25-.23-.34-.67-.63-.9-.27-.21-.52-.47-.82-.69-.28-.2-.61-.36-.92-.56-.29-.19-.66-.27-.97-.46s-.57-.41-.89-.59-.5-.57-.82-.74-.81.06-1.14-.09-.55-.49-.89-.63-.74-.04-1.08-.17-.68-.18-1.02-.3-.65-.26-1-.37-.63-.36-.98-.45-.74.03-1.09-.05-.68-.19-1.03-.26-.66-.28-1.02-.35-.67-.27-1.03-.32-.74.18-1.1.14-.69-.16-1.05-.2-.71,0-1.07-.03-.7,0-1.06,0-.69-.49-1.05-.5-.71.3-1.07.31-.7.13-1.06.14-.73-.36-1.09-.34-.69.32-1.05.34-.69.24-1.05.28-.7.07-1.06.11-.71,0-1.07.06-.74-.18-1.1-.12-.71.04-1.07.1-.66.35-1.02.42-.7.12-1.06.2c-.19.04-.2.05,0,.08Z"/>
  </g>
</svg>