<svg width="24" height="24" viewBox="0 0 24 24" fill="none" xmlns="http://www.w3.org/2000/svg">
<path d="M4.15 13.44C4.99499 13.44 5.68 12.755 5.68 11.91C5.68 11.065 4.99499 10.38 4.15 10.38C3.305 10.38 2.62 11.065 2.62 11.91C2.62 12.755 3.305 13.44 4.15 13.44Z" stroke="#BCBCBC" stroke-width="1.25" stroke-miterlimit="10" stroke-linecap="round"/>
<path d="M12 13.44C12.845 13.44 13.53 12.755 13.53 11.91C13.53 11.065 12.845 10.38 12 10.38C11.155 10.38 10.47 11.065 10.47 11.91C10.47 12.755 11.155 13.44 12 13.44Z" stroke="#BCBCBC" stroke-width="1.25" stroke-miterlimit="10" stroke-linecap="round"/>
<path d="M19.8499 13.44C20.6949 13.44 21.3799 12.755 21.3799 11.91C21.3799 11.065 20.6949 10.38 19.8499 10.38C19.005 10.38 18.3199 11.065 18.3199 11.91C18.3199 12.755 19.005 13.44 19.8499 13.44Z" stroke="#BCBCBC" stroke-width="1.25" stroke-miterlimit="10" stroke-linecap="round"/>
</svg>
