<svg width="32" height="32" viewBox="0 0 32 32" fill="none" xmlns="http://www.w3.org/2000/svg">
<path d="M12.71 11.71L15 9.41002V19C15 19.2652 15.1054 19.5196 15.2929 19.7071C15.4804 19.8947 15.7348 20 16 20C16.2652 20 16.5196 19.8947 16.7071 19.7071C16.8946 19.5196 17 19.2652 17 19V9.41002L19.29 11.71C19.383 11.8037 19.4936 11.8781 19.6154 11.9289C19.7373 11.9797 19.868 12.0058 20 12.0058C20.132 12.0058 20.2627 11.9797 20.3846 11.9289C20.5064 11.8781 20.617 11.8037 20.71 11.71C20.8037 11.6171 20.8781 11.5065 20.9289 11.3846C20.9797 11.2627 21.0058 11.132 21.0058 11C21.0058 10.868 20.9797 10.7373 20.9289 10.6154C20.8781 10.4936 20.8037 10.383 20.71 10.29L16.71 6.29002C16.6149 6.19898 16.5028 6.12761 16.38 6.08002C16.1365 5.98 15.8635 5.98 15.62 6.08002C15.4972 6.12761 15.3851 6.19898 15.29 6.29002L11.29 10.29C11.1968 10.3833 11.1228 10.4939 11.0723 10.6158C11.0219 10.7376 10.9959 10.8682 10.9959 11C10.9959 11.1319 11.0219 11.2624 11.0723 11.3843C11.1228 11.5061 11.1968 11.6168 11.29 11.71C11.3832 11.8033 11.4939 11.8772 11.6158 11.9277C11.7376 11.9781 11.8681 12.0041 12 12.0041C12.1319 12.0041 12.2624 11.9781 12.3842 11.9277C12.5061 11.8772 12.6168 11.8033 12.71 11.71ZM25 16C24.7348 16 24.4804 16.1054 24.2929 16.2929C24.1054 16.4804 24 16.7348 24 17V23C24 23.2652 23.8946 23.5196 23.7071 23.7071C23.5196 23.8947 23.2652 24 23 24H9C8.73478 24 8.48043 23.8947 8.29289 23.7071C8.10536 23.5196 8 23.2652 8 23V17C8 16.7348 7.89464 16.4804 7.70711 16.2929C7.51957 16.1054 7.26522 16 7 16C6.73478 16 6.48043 16.1054 6.29289 16.2929C6.10536 16.4804 6 16.7348 6 17V23C6 23.7957 6.31607 24.5587 6.87868 25.1213C7.44129 25.6839 8.20435 26 9 26H23C23.7956 26 24.5587 25.6839 25.1213 25.1213C25.6839 24.5587 26 23.7957 26 23V17C26 16.7348 25.8946 16.4804 25.7071 16.2929C25.5196 16.1054 25.2652 16 25 16Z" fill="#373737"/>
</svg>
