<svg width="32" height="32" viewBox="0 0 32 32" fill="none" xmlns="http://www.w3.org/2000/svg">
<g clip-path="url(#clip0_1133_4905)">
<path d="M9.51116 22.2467C9.07924 21.8147 9.08929 21.0815 9.51116 20.6596L14.4029 15.7578L9.51116 10.8661C9.08929 10.4442 9.07924 9.71094 9.51116 9.27902C9.94308 8.8471 10.6763 8.85714 11.0982 9.26897L16 14.1708L20.8917 9.27902C21.3136 8.85714 22.0469 8.8471 22.4788 9.27902C22.9107 9.71094 22.9007 10.4442 22.4788 10.8661L17.5871 15.7578L22.4788 20.6596C22.9007 21.0815 22.9107 21.8147 22.4788 22.2467C22.0469 22.6786 21.3136 22.6685 20.8917 22.2467L16 17.3549L11.0982 22.2467C10.6763 22.6685 9.94308 22.6786 9.51116 22.2467Z" fill="#BCBCBC"/>
</g>
<defs>
<clipPath id="clip0_1133_4905">
<rect width="32" height="32" fill="white"/>
</clipPath>
</defs>
</svg>
