<svg width="28" height="28" viewBox="0 0 28 28" fill="none" xmlns="http://www.w3.org/2000/svg">
<path d="M19.6338 14.3457C19.6338 14.0469 19.5195 13.792 19.2822 13.5635L12.4268 6.85742C12.2422 6.66406 11.9961 6.56738 11.7148 6.56738C11.1436 6.56738 10.6953 7.00683 10.6953 7.58691C10.6953 7.86816 10.8096 8.12305 11.0029 8.3164L17.1816 14.3457L11.0029 20.375C10.8096 20.5771 10.6953 20.832 10.6953 21.1133C10.6953 21.6846 11.1436 22.124 11.7148 22.124C11.9961 22.124 12.2422 22.0273 12.4268 21.834L19.2822 15.1279C19.5195 14.8994 19.625 14.6445 19.6338 14.3457Z" fill="#BCBCBC"/>
</svg>
