<svg width="32" height="32" viewBox="0 0 32 32" fill="none" xmlns="http://www.w3.org/2000/svg">
<g clip-path="url(#clip0_565_6846)">
<path d="M10.5614 16.7478C10.5714 16.4063 10.692 16.115 10.9632 15.8538L18.798 8.18973C19.0089 7.96875 19.2902 7.85826 19.6116 7.85826C20.2645 7.85826 20.7768 8.36049 20.7768 9.01339C20.7768 9.33482 20.6462 9.62612 20.4252 9.85714L13.3638 16.7478L20.4252 23.6384C20.6462 23.8594 20.7768 24.1507 20.7768 24.4721C20.7768 25.135 20.2645 25.6373 19.6116 25.6373C19.2902 25.6373 19.0089 25.5268 18.798 25.3058L10.9632 17.6417C10.692 17.3806 10.5614 17.0893 10.5614 16.7478Z" fill="#373737"/>
</g>
<defs>
<clipPath id="clip0_565_6846">
<rect width="32" height="32" fill="white"/>
</clipPath>
</defs>
</svg>
