<svg width="24" height="24" viewBox="0 0 24 24" fill="none" xmlns="http://www.w3.org/2000/svg">
<path d="M13.93 22.72H12.25C11.86 22.72 11.51 22.4 11.4 21.94L8.45996 9.77002H11.99L14.78 21.31C14.95 22.01 14.52 22.72 13.93 22.72Z" fill="#1EAC61"/>
<path d="M2.28997 7.79999H3.67997V12.52H2.28997C1.55997 12.52 0.969971 11.93 0.969971 11.2V9.11999C0.969971 8.38999 1.55997 7.79999 2.28997 7.79999Z" fill="#1EAC61"/>
<path d="M6.35998 5.60999H16.86V14.66H6.35998C4.76998 14.66 3.47998 13.37 3.47998 11.78V8.49999C3.47998 6.90999 4.76998 5.61999 6.35998 5.61999V5.60999Z" fill="#5FD093"/>
<path d="M21.57 11.8H20.51V8.47999H21.57C22.49 8.47999 23.23 9.21999 23.23 10.14C23.23 11.06 22.49 11.8 21.57 11.8Z" fill="#0D8443"/>
<path d="M14.48 5.68V14.59L20.78 17.8C21.11 17.97 21.46 17.67 21.46 17.23V3.04001C21.46 2.60001 21.1 2.30001 20.78 2.47001L14.48 5.68Z" fill="#1EAC61"/>
</svg>
