<svg width="24" height="24" viewBox="0 0 24 24" fill="none" xmlns="http://www.w3.org/2000/svg">
<path d="M9.50004 3.64001H4.94004C4.23864 3.64001 3.67004 4.20861 3.67004 4.91001V9.47001C3.67004 10.1714 4.23864 10.74 4.94004 10.74H9.50004C10.2014 10.74 10.77 10.1714 10.77 9.47001V4.91001C10.77 4.20861 10.2014 3.64001 9.50004 3.64001Z" stroke="#BCBCBC" stroke-width="1.25" stroke-miterlimit="10" stroke-linecap="round"/>
<path d="M19.07 3.64001H14.51C13.8086 3.64001 13.24 4.20861 13.24 4.91001V9.47001C13.24 10.1714 13.8086 10.74 14.51 10.74H19.07C19.7714 10.74 20.34 10.1714 20.34 9.47001V4.91001C20.34 4.20861 19.7714 3.64001 19.07 3.64001Z" stroke="#BCBCBC" stroke-width="1.25" stroke-miterlimit="10" stroke-linecap="round"/>
<path d="M9.50004 13.1H4.94004C4.23864 13.1 3.67004 13.6686 3.67004 14.37V18.93C3.67004 19.6314 4.23864 20.2 4.94004 20.2H9.50004C10.2014 20.2 10.77 19.6314 10.77 18.93V14.37C10.77 13.6686 10.2014 13.1 9.50004 13.1Z" stroke="#BCBCBC" stroke-width="1.25" stroke-miterlimit="10" stroke-linecap="round"/>
<path d="M19.07 13.1H14.51C13.8086 13.1 13.24 13.6686 13.24 14.37V18.93C13.24 19.6314 13.8086 20.2 14.51 20.2H19.07C19.7714 20.2 20.34 19.6314 20.34 18.93V14.37C20.34 13.6686 19.7714 13.1 19.07 13.1Z" stroke="#BCBCBC" stroke-width="1.25" stroke-miterlimit="10" stroke-linecap="round"/>
</svg>
